<?xml version="1.0" encoding="UTF-8" standalone="no"?>
<!-- Created with Inkscape (http://www.inkscape.org/) -->

<svg
   xmlns:dc="http://purl.org/dc/elements/1.1/"
   xmlns:cc="http://creativecommons.org/ns#"
   xmlns:rdf="http://www.w3.org/1999/02/22-rdf-syntax-ns#"
   xmlns:svg="http://www.w3.org/2000/svg"
   xmlns="http://www.w3.org/2000/svg"
   xmlns:sodipodi="http://sodipodi.sourceforge.net/DTD/sodipodi-0.dtd"
   xmlns:inkscape="http://www.inkscape.org/namespaces/inkscape"
   width="1024px"
   height="768px"
   id="svg3532"
   version="1.1"
   inkscape:version="0.48.4 r9939"
   sodipodi:docname="terminal-not-epi.svg">
  <defs
     id="defs3534" />
  <sodipodi:namedview
     id="base"
     pagecolor="#ffffff"
     bordercolor="#666666"
     borderopacity="1.0"
     inkscape:pageopacity="0.0"
     inkscape:pageshadow="2"
     inkscape:zoom="1"
     inkscape:cx="588.18605"
     inkscape:cy="373.7845"
     inkscape:current-layer="layer1"
     inkscape:document-units="px"
     showgrid="true"
     inkscape:window-width="1920"
     inkscape:window-height="1020"
     inkscape:window-x="1912"
     inkscape:window-y="-8"
     inkscape:window-maximized="1"
     showguides="true"
     inkscape:guide-bbox="true"
     inkscape:snap-to-guides="false"
     inkscape:snap-grids="true"
     inkscape:snap-global="false">
    <sodipodi:guide
       orientation="1,0"
       position="-386,430"
       id="guide3650" />
    <sodipodi:guide
       orientation="1,0"
       position="-313,-287"
       id="guide4989" />
    <inkscape:grid
       type="xygrid"
       id="grid3467" />
  </sodipodi:namedview>
  <metadata
     id="metadata3537">
    <rdf:RDF>
      <cc:Work
         rdf:about="">
        <dc:format>image/svg+xml</dc:format>
        <dc:type
           rdf:resource="http://purl.org/dc/dcmitype/StillImage" />
        <dc:title />
      </cc:Work>
    </rdf:RDF>
  </metadata>
  <g
     id="layer1"
     inkscape:label="Layer 1"
     inkscape:groupmode="layer">
    <rect
       style="color:#000000;fill:#eeeeee;stroke:#aaccee;stroke-width:1;stroke-linecap:butt;stroke-linejoin:miter;stroke-miterlimit:4;stroke-opacity:1;stroke-dasharray:none;stroke-dashoffset:0;marker:none;visibility:visible;display:inline;overflow:visible;enable-background:accumulate"
       id="rect3363"
       width="488"
       height="154"
       x="261"
       y="28" />
    <text
       xml:space="preserve"
       style="font-size:20px;font-style:normal;font-variant:normal;font-weight:normal;font-stretch:normal;text-indent:0;text-align:start;text-decoration:none;line-height:125%;letter-spacing:0px;word-spacing:0px;text-transform:none;direction:ltr;block-progression:tb;writing-mode:lr-tb;text-anchor:start;baseline-shift:baseline;color:#000000;fill:#666666;fill-opacity:1;fill-rule:nonzero;stroke:none;stroke-width:1px;marker:none;visibility:visible;display:inline;overflow:visible;enable-background:accumulate;font-family:Architects Daughter;-inkscape-font-specification:Architects Daughter"
       x="297"
       y="78"
       id="text3343"
       sodipodi:linespacing="125%"><tspan
         sodipodi:role="line"
         id="tspan3345"
         x="297"
         y="78">terminal</tspan></text>
    <text
       sodipodi:linespacing="125%"
       id="text3347"
       y="80"
       x="659"
       style="font-size:20px;font-style:normal;font-variant:normal;font-weight:normal;font-stretch:normal;text-indent:0;text-align:start;text-decoration:none;line-height:125%;letter-spacing:0px;word-spacing:0px;text-transform:none;direction:ltr;block-progression:tb;writing-mode:lr-tb;text-anchor:start;baseline-shift:baseline;color:#000000;fill:#666666;fill-opacity:1;fill-rule:nonzero;stroke:none;stroke-width:1px;marker:none;visibility:visible;display:inline;overflow:visible;enable-background:accumulate;font-family:Architects Daughter;-inkscape-font-specification:Architects Daughter"
       xml:space="preserve"><tspan
         y="80"
         x="659"
         id="tspan3349"
         sodipodi:role="line">epi</tspan></text>
    <path
       style="color:#000000;fill:#f0a513;fill-opacity:1;fill-rule:nonzero;stroke:none;stroke-width:1px;marker:none;visibility:visible;display:inline;overflow:visible;enable-background:accumulate"
       id="path3351"
       d="m 406.81771,67.91035 c 6.98343,0 13.96686,0 20.95029,0 4.02337,0 8.04674,0 12.07011,0 0,0 0,2.16292 0,2.16292 l 0,0 c -4.02337,0 -8.04674,0 -12.07011,0 -6.98343,0 -13.96686,0 -20.95029,0 0,0 0,-2.16292 0,-2.16292 z"
       inkscape:connector-curvature="0" />
    <path
       style="color:#000000;fill:#f0a513;fill-opacity:1;fill-rule:nonzero;stroke:none;stroke-width:1px;marker:none;visibility:visible;display:inline;overflow:visible;enable-background:accumulate"
       id="path3355"
       d="m 407.36264,76.47952 c 5.64145,-0.40101 11.29981,-0.47668 16.95295,-0.55724 6.15056,0.0673 12.29686,0.32567 18.44478,0.50475 0,0 -0.063,2.162 -0.063,2.162 l 0,0 c -6.11668,-0.17818 -12.23174,-0.43446 -18.351,-0.50406 -5.60349,0.0798 -11.21213,0.15424 -16.80414,0.54999 0,0 -0.17962,-2.15544 -0.17962,-2.15544 z"
       inkscape:connector-curvature="0" />
    <path
       style="color:#000000;fill:#f0a513;fill-opacity:1;fill-rule:nonzero;stroke:none;stroke-width:1px;marker:none;visibility:visible;display:inline;overflow:visible;enable-background:accumulate"
       id="path3359"
       d="m 438.00591,59.3155 c 2.38108,2.03505 4.55148,4.28455 6.59113,6.65733 1.26234,1.87545 3.08365,3.39038 4.16971,5.38014 0.46321,1.90973 -1.42029,2.38343 -2.59751,3.35601 -2.05728,1.82918 -3.53072,4.19623 -4.98495,6.50612 -1.03164,1.93489 -2.51993,3.68942 -3.0741,5.84271 0,0 -2.08367,-0.58009 -2.08367,-0.58009 l 0,0 c 0.68526,-2.34162 2.10766,-4.32521 3.32774,-6.41555 1.58359,-2.51192 3.20052,-5.07263 5.46074,-7.03968 0.0609,-0.048 1.8127,-1.43868 1.89168,-1.18701 0.22468,0.71595 -0.20001,-0.02 0.13521,0.50398 -0.28755,-0.65393 -0.84207,-1.15584 -1.2865,-1.70223 -0.87578,-1.0767 -1.73148,-2.17099 -2.59882,-3.25476 -1.96729,-2.29025 -4.06017,-4.4616 -6.35827,-6.42476 0,0 1.40761,-1.64221 1.40761,-1.64221 z"
       inkscape:connector-curvature="0" />
    <path
       style="color:#000000;fill:#f0a513;fill-opacity:1;fill-rule:nonzero;stroke:none;stroke-width:1px;marker:none;visibility:visible;display:inline;overflow:visible;enable-background:accumulate"
       id="path3361"
       d="m 432.2949,54.34579 c -2.31442,4.90908 -4.11321,10.03787 -6.09171,15.08681 -2.1994,5.27254 -4.26349,10.60893 -6.64308,15.80408 -0.18307,0.42849 -0.36615,0.85698 -0.54922,1.28547 0,0 -1.98876,-0.85032 -1.98876,-0.85032 l 0,0 c 0.19061,-0.44551 0.38122,-0.89102 0.57184,-1.33653 2.3662,-5.15649 4.40784,-10.45859 6.59541,-15.69187 1.9904,-5.0789 3.8008,-10.2378 6.12901,-15.17608 0,0 1.97651,0.87844 1.97651,0.87844 z"
       inkscape:connector-curvature="0" />
    <text
       sodipodi:linespacing="125%"
       id="text3365"
       y="138"
       x="297"
       style="font-size:20px;font-style:normal;font-variant:normal;font-weight:normal;font-stretch:normal;text-indent:0;text-align:start;text-decoration:none;line-height:125%;letter-spacing:0px;word-spacing:0px;text-transform:none;direction:ltr;block-progression:tb;writing-mode:lr-tb;text-anchor:start;baseline-shift:baseline;color:#000000;fill:#666666;fill-opacity:1;fill-rule:nonzero;stroke:none;stroke-width:1px;marker:none;visibility:visible;display:inline;overflow:visible;enable-background:accumulate;font-family:Architects Daughter;-inkscape-font-specification:Architects Daughter"
       xml:space="preserve"><tspan
         y="138"
         x="297"
         id="tspan3367"
         sodipodi:role="line">initial</tspan></text>
    <text
       xml:space="preserve"
       style="font-size:20px;font-style:normal;font-variant:normal;font-weight:normal;font-stretch:normal;text-indent:0;text-align:start;text-decoration:none;line-height:125%;letter-spacing:0px;word-spacing:0px;text-transform:none;direction:ltr;block-progression:tb;writing-mode:lr-tb;text-anchor:start;baseline-shift:baseline;color:#000000;fill:#666666;fill-opacity:1;fill-rule:nonzero;stroke:none;stroke-width:1px;marker:none;visibility:visible;display:inline;overflow:visible;enable-background:accumulate;font-family:Architects Daughter;-inkscape-font-specification:Architects Daughter"
       x="659"
       y="144"
       id="text3369"
       sodipodi:linespacing="125%"><tspan
         sodipodi:role="line"
         id="tspan3371"
         x="659"
         y="144">mono</tspan></text>
    <path
       inkscape:connector-curvature="0"
       d="m 406.81771,127.91035 c 6.98343,0 13.96686,0 20.95029,0 4.02337,0 8.04674,0 12.07011,0 0,0 0,2.16292 0,2.16292 l 0,0 c -4.02337,0 -8.04674,0 -12.07011,0 -6.98343,0 -13.96686,0 -20.95029,0 0,0 0,-2.16292 0,-2.16292 z"
       id="path3373"
       style="color:#000000;fill:#f0a513;fill-opacity:1;fill-rule:nonzero;stroke:none;stroke-width:1px;marker:none;visibility:visible;display:inline;overflow:visible;enable-background:accumulate" />
    <path
       inkscape:connector-curvature="0"
       d="m 407.36264,136.47952 c 5.64145,-0.40101 11.29981,-0.47668 16.95295,-0.55724 6.15056,0.0673 12.29686,0.32567 18.44478,0.50475 0,0 -0.063,2.162 -0.063,2.162 l 0,0 c -6.11668,-0.17818 -12.23174,-0.43446 -18.351,-0.50406 -5.60349,0.0798 -11.21213,0.15424 -16.80414,0.54999 0,0 -0.17962,-2.15544 -0.17962,-2.15544 z"
       id="path3375"
       style="color:#000000;fill:#f0a513;fill-opacity:1;fill-rule:nonzero;stroke:none;stroke-width:1px;marker:none;visibility:visible;display:inline;overflow:visible;enable-background:accumulate" />
    <path
       inkscape:connector-curvature="0"
       d="m 438.00591,119.3155 c 2.38108,2.03505 4.55148,4.28455 6.59113,6.65733 1.26234,1.87545 3.08365,3.39038 4.16971,5.38014 0.46321,1.90973 -1.42029,2.38343 -2.59751,3.35601 -2.05728,1.82918 -3.53072,4.19623 -4.98495,6.50612 -1.03164,1.93489 -2.51993,3.68942 -3.0741,5.84271 0,0 -2.08367,-0.58009 -2.08367,-0.58009 l 0,0 c 0.68526,-2.34162 2.10766,-4.32521 3.32774,-6.41555 1.58359,-2.51192 3.20052,-5.07263 5.46074,-7.03968 0.0609,-0.048 1.8127,-1.43868 1.89168,-1.18701 0.22468,0.71595 -0.20001,-0.02 0.13521,0.50398 -0.28755,-0.65393 -0.84207,-1.15584 -1.2865,-1.70223 -0.87578,-1.0767 -1.73148,-2.17099 -2.59882,-3.25476 -1.96729,-2.29025 -4.06017,-4.4616 -6.35827,-6.42476 0,0 1.40761,-1.64221 1.40761,-1.64221 z"
       id="path3377"
       style="color:#000000;fill:#f0a513;fill-opacity:1;fill-rule:nonzero;stroke:none;stroke-width:1px;marker:none;visibility:visible;display:inline;overflow:visible;enable-background:accumulate" />
    <path
       inkscape:connector-curvature="0"
       d="m 432.2949,114.34579 c -2.31442,4.90908 -4.11321,10.03787 -6.09171,15.08681 -2.1994,5.27254 -4.26349,10.60893 -6.64308,15.80408 -0.18307,0.42849 -0.36615,0.85698 -0.54922,1.28547 0,0 -1.98876,-0.85032 -1.98876,-0.85032 l 0,0 c 0.19061,-0.44551 0.38122,-0.89102 0.57184,-1.33653 2.3662,-5.15649 4.40784,-10.45859 6.59541,-15.69187 1.9904,-5.0789 3.8008,-10.2378 6.12901,-15.17608 0,0 1.97651,0.87844 1.97651,0.87844 z"
       id="path3379"
       style="color:#000000;fill:#f0a513;fill-opacity:1;fill-rule:nonzero;stroke:none;stroke-width:1px;marker:none;visibility:visible;display:inline;overflow:visible;enable-background:accumulate" />
    <path
       style="color:#000000;fill:#cccccf;fill-opacity:1;fill-rule:nonzero;stroke:none;stroke-width:1px;marker:none;visibility:visible;display:inline;overflow:visible;enable-background:accumulate"
       id="path3408"
       d="m 475.07407,57.8112 c 2.29668,4.56364 4.2435,9.28362 5.87535,14.12205 1.11423,3.32886 1.95924,6.72952 3.12693,10.03853 0.0215,0.0432 0.11248,0.12756 0.0643,0.12974 -0.73718,0.0333 -1.53198,0.25044 -2.21358,-0.0323 -0.26332,-0.10926 0.0282,-0.57159 0.0844,-0.85109 0.30689,-1.52766 1.0636,-2.90329 1.7369,-4.28995 2.74853,-4.90924 6.21554,-9.35919 9.56308,-13.86458 1.78546,-2.33384 3.50799,-4.71596 5.18701,-7.12731 0,0 1.91379,1.33285 1.91379,1.33285 l 0,0 c -1.69313,2.43059 -3.42877,4.83263 -5.22879,7.18538 -3.26148,4.38956 -6.63896,8.72361 -9.33789,13.49387 -0.53797,1.10367 -1.24672,2.28797 -1.51422,3.50893 -0.0484,0.22081 0.11252,0.54494 -0.0729,0.67423 -2.12753,1.48342 -1.94519,1.60631 -2.38145,0.61595 -1.17009,-3.32015 -2.02677,-6.72827 -3.13772,-10.06981 -1.58256,-4.7058 -3.48035,-9.2922 -5.70384,-13.73381 0,0 2.03869,-1.13261 2.03869,-1.13261 z"
       inkscape:connector-curvature="0" />
    <path
       style="color:#000000;fill:#cccccf;fill-opacity:1;fill-rule:nonzero;stroke:none;stroke-width:1px;marker:none;visibility:visible;display:inline;overflow:visible;enable-background:accumulate"
       id="path3410"
       d="m 476.16745,65.70322 c 4.4758,-0.0428 8.94535,-0.37244 13.41743,-0.56231 0.66575,-0.0245 1.3315,-0.049 1.99724,-0.0734 0,0 0.0857,2.33061 0.0857,2.33061 l 0,0 c -0.66133,0.0243 -1.32266,0.0486 -1.98398,0.0728 -4.50504,0.19118 -9.00745,0.52355 -13.51634,0.56441 0,0 0,-2.33218 0,-2.33218 z"
       inkscape:connector-curvature="0" />
    <path
       style="color:#000000;fill:#666666;fill-opacity:1;fill-rule:nonzero;stroke:none;stroke-width:1px;marker:none;visibility:visible;display:inline;overflow:visible;enable-background:accumulate"
       id="path3412"
       d="m 509.23837,61.3196 c 3.01632,3.96454 5.68609,8.18541 8.26924,12.44087 1.73882,2.95857 3.64168,5.82069 5.28081,8.83628 0,0 -2.04904,1.11377 -2.04904,1.11377 l 0,0 c -1.6214,-2.98296 -3.50762,-5.81226 -5.22558,-8.74018 -2.51626,-4.14808 -5.12054,-8.25894 -8.04615,-12.13297 0,0 1.77072,-1.51777 1.77072,-1.51777 z"
       inkscape:connector-curvature="0" />
    <path
       style="color:#000000;fill:#666666;fill-opacity:1;fill-rule:nonzero;stroke:none;stroke-width:1px;marker:none;visibility:visible;display:inline;overflow:visible;enable-background:accumulate"
       id="path3414"
       d="m 522.79218,61.38456 c -3.24609,3.75731 -6.00403,7.88833 -8.7553,12.01061 -2.22139,3.33586 -4.56911,6.58431 -6.84018,9.88543 0,0 -1.92124,-1.32209 -1.92124,-1.32209 l 0,0 c 2.26561,-3.29151 4.60555,-6.5319 6.82162,-9.85805 2.80765,-4.2064 5.62566,-8.41925 8.93995,-12.25165 0,0 1.75515,1.53575 1.75515,1.53575 z"
       inkscape:connector-curvature="0" />
    <path
       style="color:#000000;fill:#cccccf;fill-opacity:1;fill-rule:nonzero;stroke:none;stroke-width:1px;marker:none;visibility:visible;display:inline;overflow:visible;enable-background:accumulate"
       id="path3416"
       d="m 532.73116,80.47369 c 2.19423,-0.012 4.37157,-0.11276 6.52725,0.34188 0,0 -0.50388,2.27709 -0.50388,2.27709 l 0,0 c -1.97683,-0.46599 -4.0078,-0.2438 -6.02337,-0.2868 0,0 0,-2.33217 0,-2.33217 z"
       inkscape:connector-curvature="0" />
    <path
       inkscape:connector-curvature="0"
       d="m 555.88194,61.3196 c 3.01632,3.96454 5.6861,8.18541 8.26924,12.44087 1.73883,2.95857 3.64168,5.82069 5.28082,8.83628 0,0 -2.04905,1.11377 -2.04905,1.11377 l 0,0 c -1.62139,-2.98296 -3.50762,-5.81226 -5.22558,-8.74018 -2.51626,-4.14808 -5.12054,-8.25894 -8.04615,-12.13297 0,0 1.77072,-1.51777 1.77072,-1.51777 z"
       id="path3418"
       style="color:#000000;fill:#666666;fill-opacity:1;fill-rule:nonzero;stroke:none;stroke-width:1px;marker:none;visibility:visible;display:inline;overflow:visible;enable-background:accumulate" />
    <path
       inkscape:connector-curvature="0"
       d="m 569.43575,61.38456 c -3.24608,3.75731 -6.00402,7.88833 -8.75529,12.01061 -2.2214,3.33586 -4.56912,6.58431 -6.84019,9.88543 0,0 -1.92123,-1.32209 -1.92123,-1.32209 l 0,0 c 2.26561,-3.29151 4.60554,-6.5319 6.82162,-9.85805 2.80765,-4.2064 5.62566,-8.41925 8.93995,-12.25165 0,0 1.75514,1.53575 1.75514,1.53575 z"
       id="path3420"
       style="color:#000000;fill:#666666;fill-opacity:1;fill-rule:nonzero;stroke:none;stroke-width:1px;marker:none;visibility:visible;display:inline;overflow:visible;enable-background:accumulate" />
    <path
       style="color:#000000;fill:#666666;fill-opacity:1;fill-rule:nonzero;stroke:none;stroke-width:1px;marker:none;visibility:visible;display:inline;overflow:visible;enable-background:accumulate"
       id="path3422"
       d="m 577.69117,73.39129 c 1.9036,-0.18237 0.90535,-0.0935 2.99511,-0.26241 0,0 0.18766,2.32462 0.18766,2.32462 l 0,0 c -2.04344,0.1648 -1.06848,0.0782 -2.92522,0.25571 0,0 -0.25755,-2.31792 -0.25755,-2.31792 z"
       inkscape:connector-curvature="0" />
    <path
       style="color:#000000;fill:#666666;fill-opacity:1;fill-rule:nonzero;stroke:none;stroke-width:1px;marker:none;visibility:visible;display:inline;overflow:visible;enable-background:accumulate"
       id="path3424"
       d="m 588.01904,73.47715 c 1.82233,0.047 3.64202,-0.10749 5.45912,-0.21916 0,0 0.14296,2.32779 0.14296,2.32779 l 0,0 c -1.86469,0.11446 -3.73209,0.27004 -5.60208,0.22355 0,0 0,-2.33218 0,-2.33218 z"
       inkscape:connector-curvature="0" />
    <path
       style="color:#000000;fill:#666666;fill-opacity:1;fill-rule:nonzero;stroke:none;stroke-width:1px;marker:none;visibility:visible;display:inline;overflow:visible;enable-background:accumulate"
       id="path3426"
       d="m 601.11869,74.16734 c 1.63177,-0.15674 3.26701,-0.26902 4.90244,-0.37847 0,0 0.15561,2.32698 0.15561,2.32698 l 0,0 c -1.60992,0.10759 -3.21966,0.21809 -4.82599,0.3721 0,0 -0.23206,-2.32061 -0.23206,-2.32061 z"
       inkscape:connector-curvature="0" />
    <path
       style="color:#000000;fill:#666666;fill-opacity:1;fill-rule:nonzero;stroke:none;stroke-width:1px;marker:none;visibility:visible;display:inline;overflow:visible;enable-background:accumulate"
       id="path3428"
       d="m 606.37899,68.87407 c 1.66811,1.52349 3.75991,2.36332 5.69884,3.45157 1.9563,1.48201 0.21621,2.71188 -1.00858,3.70624 -1.23533,0.96579 -2.22509,2.15538 -2.8425,3.59555 -0.26509,0.86721 -0.1518,0.42736 -0.33924,1.31968 0,0 -2.2788,-0.49609 -2.2788,-0.49609 l 0,0 c 0.26456,-1.18363 0.10368,-0.59406 0.4856,-1.76791 0.79904,-1.76381 1.96618,-3.2695 3.50502,-4.46187 1.52248,-1.23592 0.81705,-1.06121 1.07109,-0.15318 0.0349,0.12484 0.41524,0.54284 0.26083,0.28845 -2.0635,-1.17335 -4.2991,-2.07041 -6.07002,-3.71172 0,0 1.51776,-1.77072 1.51776,-1.77072 z"
       inkscape:connector-curvature="0" />
    <path
       style="color:#000000;fill:none;stroke:#666666;stroke-width:0.77739292px;marker:none;visibility:visible;display:inline;overflow:visible;enable-background:accumulate"
       id="path3436"
       d="m 623.03929,72.33766 c 3.06885,-2.17564 5.65336,-4.87825 7.88954,-7.88471 0.73807,-1.01944 1.29954,-2.12564 1.74001,-3.29802 0.0587,-0.15619 0.0514,-0.58387 0.17307,-0.46967 0.13955,0.13102 -0.0438,0.38032 -0.0657,0.57049 0.62427,0.32342 1.24854,0.64683 1.87281,0.97025 -0.99629,3.0415 -1.86502,6.12148 -2.70076,9.21024 -0.9992,2.97578 -1.32906,6.21907 -3.11829,8.85793 -1.0986,1.30031 -2.60212,1.59153 -4.19636,1.79565 0.2088,-0.77801 0.19781,-1.65197 0.6264,-2.33403 0.15047,-0.23946 0.56553,-0.009 0.84831,-0.0127 1.30538,-0.0179 2.6108,-0.0281 3.91627,-0.0362 1.16674,-0.006 2.33349,-0.009 3.50024,-0.0101 0,0 0.003,2.33218 0.003,2.33218 l 0,0 c -1.16295,0.002 -2.3259,0.003 -3.48883,0.01 -1.29858,0.008 -2.59713,0.0182 -3.89563,0.0359 -0.2833,0.004 -0.67484,0.23561 -0.84987,0.0128 -0.51503,-0.65558 -0.6372,-1.54083 -0.95581,-2.31124 0.91735,-0.11716 1.87707,-0.14821 2.58454,-0.82396 1.72778,-2.31912 1.71729,-5.50451 2.7747,-8.12542 0.86281,-3.18869 1.75496,-6.37105 2.80206,-9.50495 0.84739,-0.20729 1.67176,-0.68042 2.54216,-0.62188 0.33409,0.0225 -0.15754,1.19328 -0.19875,1.29971 -0.52799,1.36377 -1.17786,2.66033 -2.04439,3.84749 -2.40358,3.21315 -5.17014,6.11109 -8.46519,8.43068 0,0 -1.29366,-1.94049 -1.29366,-1.94049 z"
       inkscape:connector-curvature="0" />
    <path
       inkscape:connector-curvature="0"
       d="m 475.07407,120.00263 c 2.29668,4.56365 4.2435,9.28363 5.87535,14.12205 1.11423,3.32887 1.95924,6.72952 3.12693,10.03854 0.0215,0.0432 0.11248,0.12755 0.0643,0.12973 -0.73718,0.0333 -1.53198,0.25044 -2.21358,-0.0323 -0.26332,-0.10927 0.0282,-0.5716 0.0844,-0.8511 0.30689,-1.52766 1.0636,-2.90328 1.7369,-4.28995 2.74853,-4.90924 6.21554,-9.35919 9.56308,-13.86458 1.78546,-2.33384 3.50799,-4.71596 5.18701,-7.12731 0,0 1.91379,1.33285 1.91379,1.33285 l 0,0 c -1.69313,2.43059 -3.42877,4.83263 -5.22879,7.18538 -3.26148,4.38956 -6.63896,8.72362 -9.33789,13.49387 -0.53797,1.10367 -1.24672,2.28798 -1.51422,3.50893 -0.0484,0.22081 0.11252,0.54494 -0.0729,0.67423 -2.12753,1.48342 -1.94519,1.60631 -2.38145,0.61595 -1.17009,-3.32014 -2.02677,-6.72827 -3.13772,-10.0698 -1.58256,-4.7058 -3.48035,-9.29221 -5.70384,-13.73382 0,0 2.03869,-1.13261 2.03869,-1.13261 z"
       id="path3438"
       style="color:#000000;fill:#cccccf;fill-opacity:1;fill-rule:nonzero;stroke:none;stroke-width:1px;marker:none;visibility:visible;display:inline;overflow:visible;enable-background:accumulate" />
    <path
       inkscape:connector-curvature="0"
       d="m 476.16745,127.89465 c 4.4758,-0.0428 8.94535,-0.37244 13.41743,-0.56231 0.66575,-0.0245 1.3315,-0.049 1.99724,-0.0734 0,0 0.0857,2.33061 0.0857,2.33061 l 0,0 c -0.66133,0.0243 -1.32266,0.0486 -1.98398,0.0728 -4.50504,0.19118 -9.00745,0.52356 -13.51634,0.56442 0,0 0,-2.33218 0,-2.33218 z"
       id="path3440"
       style="color:#000000;fill:#cccccf;fill-opacity:1;fill-rule:nonzero;stroke:none;stroke-width:1px;marker:none;visibility:visible;display:inline;overflow:visible;enable-background:accumulate" />
    <path
       inkscape:connector-curvature="0"
       d="m 509.23837,123.51103 c 3.01632,3.96455 5.68609,8.18542 8.26924,12.44087 1.73882,2.95857 3.64168,5.82069 5.28081,8.83629 0,0 -2.04904,1.11376 -2.04904,1.11376 l 0,0 c -1.6214,-2.98296 -3.50762,-5.81226 -5.22558,-8.74018 -2.51626,-4.14808 -5.12054,-8.25894 -8.04615,-12.13297 0,0 1.77072,-1.51777 1.77072,-1.51777 z"
       id="path3442"
       style="color:#000000;fill:#666666;fill-opacity:1;fill-rule:nonzero;stroke:none;stroke-width:1px;marker:none;visibility:visible;display:inline;overflow:visible;enable-background:accumulate" />
    <path
       inkscape:connector-curvature="0"
       d="m 522.79218,123.57599 c -3.24609,3.75731 -6.00403,7.88833 -8.7553,12.01061 -2.22139,3.33586 -4.56911,6.58431 -6.84018,9.88543 0,0 -1.92124,-1.32208 -1.92124,-1.32208 l 0,0 c 2.26561,-3.29152 4.60555,-6.53191 6.82162,-9.85805 2.80765,-4.20641 5.62566,-8.41925 8.93995,-12.25165 0,0 1.75515,1.53574 1.75515,1.53574 z"
       id="path3444"
       style="color:#000000;fill:#666666;fill-opacity:1;fill-rule:nonzero;stroke:none;stroke-width:1px;marker:none;visibility:visible;display:inline;overflow:visible;enable-background:accumulate" />
    <path
       inkscape:connector-curvature="0"
       d="m 532.73116,142.66512 c 2.19423,-0.012 4.37157,-0.11276 6.52725,0.34188 0,0 -0.50388,2.27709 -0.50388,2.27709 l 0,0 c -1.97683,-0.46599 -4.0078,-0.2438 -6.02337,-0.28679 0,0 0,-2.33218 0,-2.33218 z"
       id="path3446"
       style="color:#000000;fill:#cccccf;fill-opacity:1;fill-rule:nonzero;stroke:none;stroke-width:1px;marker:none;visibility:visible;display:inline;overflow:visible;enable-background:accumulate" />
    <path
       style="color:#000000;fill:#666666;fill-opacity:1;fill-rule:nonzero;stroke:none;stroke-width:1px;marker:none;visibility:visible;display:inline;overflow:visible;enable-background:accumulate"
       id="path3448"
       d="m 622.73773,123.51103 c 3.01632,3.96455 5.6861,8.18542 8.26924,12.44087 1.73883,2.95857 3.64168,5.82069 5.28082,8.83629 0,0 -2.04905,1.11376 -2.04905,1.11376 l 0,0 c -1.62139,-2.98296 -3.50762,-5.81226 -5.22558,-8.74018 -2.51626,-4.14808 -5.12054,-8.25894 -8.04615,-12.13297 0,0 1.77072,-1.51777 1.77072,-1.51777 z"
       inkscape:connector-curvature="0" />
    <path
       style="color:#000000;fill:#666666;fill-opacity:1;fill-rule:nonzero;stroke:none;stroke-width:1px;marker:none;visibility:visible;display:inline;overflow:visible;enable-background:accumulate"
       id="path3450"
       d="m 636.29154,123.57599 c -3.24608,3.75731 -6.00402,7.88833 -8.75529,12.01061 -2.2214,3.33586 -4.56912,6.58431 -6.84019,9.88543 0,0 -1.92123,-1.32208 -1.92123,-1.32208 l 0,0 c 2.26561,-3.29152 4.60554,-6.53191 6.82162,-9.85805 2.80765,-4.20641 5.62566,-8.41925 8.93995,-12.25165 0,0 1.75514,1.53574 1.75514,1.53574 z"
       inkscape:connector-curvature="0" />
    <path
       inkscape:connector-curvature="0"
       d="m 577.69117,135.58273 c 1.9036,-0.18238 0.90535,-0.0936 2.99511,-0.26241 0,0 0.18766,2.32461 0.18766,2.32461 l 0,0 c -2.04344,0.1648 -1.06848,0.0782 -2.92522,0.25571 0,0 -0.25755,-2.31791 -0.25755,-2.31791 z"
       id="path3452"
       style="color:#000000;fill:#666666;fill-opacity:1;fill-rule:nonzero;stroke:none;stroke-width:1px;marker:none;visibility:visible;display:inline;overflow:visible;enable-background:accumulate" />
    <path
       inkscape:connector-curvature="0"
       d="m 588.01904,135.66858 c 1.82233,0.047 3.64202,-0.10749 5.45912,-0.21915 0,0 0.14296,2.32778 0.14296,2.32778 l 0,0 c -1.86469,0.11446 -3.73209,0.27005 -5.60208,0.22355 0,0 0,-2.33218 0,-2.33218 z"
       id="path3454"
       style="color:#000000;fill:#666666;fill-opacity:1;fill-rule:nonzero;stroke:none;stroke-width:1px;marker:none;visibility:visible;display:inline;overflow:visible;enable-background:accumulate" />
    <path
       inkscape:connector-curvature="0"
       d="m 601.11869,136.35877 c 1.63177,-0.15673 3.26701,-0.26902 4.90244,-0.37847 0,0 0.15561,2.32699 0.15561,2.32699 l 0,0 c -1.60992,0.10758 -3.21966,0.21809 -4.82599,0.37209 0,0 -0.23206,-2.32061 -0.23206,-2.32061 z"
       id="path3456"
       style="color:#000000;fill:#666666;fill-opacity:1;fill-rule:nonzero;stroke:none;stroke-width:1px;marker:none;visibility:visible;display:inline;overflow:visible;enable-background:accumulate" />
    <path
       inkscape:connector-curvature="0"
       d="m 606.37899,131.0655 c 1.66811,1.52349 3.75991,2.36332 5.69884,3.45158 1.9563,1.482 0.21621,2.71187 -1.00858,3.70623 -1.23533,0.9658 -2.22509,2.15538 -2.8425,3.59555 -0.26509,0.86721 -0.1518,0.42737 -0.33924,1.31968 0,0 -2.2788,-0.49609 -2.2788,-0.49609 l 0,0 c 0.26456,-1.18363 0.10368,-0.59405 0.4856,-1.76791 0.79904,-1.7638 1.96618,-3.2695 3.50502,-4.46187 1.52248,-1.23591 0.81705,-1.0612 1.07109,-0.15318 0.0349,0.12484 0.41524,0.54284 0.26083,0.28845 -2.0635,-1.17335 -4.2991,-2.07041 -6.07002,-3.71172 0,0 1.51776,-1.77072 1.51776,-1.77072 z"
       id="path3458"
       style="color:#000000;fill:#666666;fill-opacity:1;fill-rule:nonzero;stroke:none;stroke-width:1px;marker:none;visibility:visible;display:inline;overflow:visible;enable-background:accumulate" />
    <path
       style="color:#000000;fill:none;stroke:#666666;stroke-width:0.72972435px;marker:none;visibility:visible;display:inline;overflow:visible;enable-background:accumulate"
       id="path3472"
       d="m 564.18729,124.90029 c -2.17504,2.32473 -3.89109,4.98895 -5.32086,7.82064 -1.19484,2.65909 -1.95769,5.46201 -2.41104,8.3337 0.0215,0.76257 -0.73837,2.72071 0.34416,3.08405 0.88873,0.26128 1.73245,-0.17161 2.43611,-0.68173 1.08664,-0.88381 2.14937,-1.78901 3.10072,-2.81877 1.27524,-1.48129 2.19482,-3.18167 2.96006,-4.9691 0.74566,-1.87171 0.97294,-3.87906 1.10255,-5.87308 0.075,-1.54435 0.0592,-3.09111 0.0518,-4.63669 -0.0496,-0.90886 -0.57055,-0.96688 -1.34413,-1.11478 -0.85467,-0.002 -1.21017,0.78682 -1.64691,1.41092 0,0 -1.75689,-1.30606 -1.75689,-1.30606 l 0,0 c 1.02981,-1.33164 2.03124,-2.47225 3.86814,-2.24422 1.74307,0.40527 2.99165,1.31552 3.06894,3.24358 0.008,1.59696 0.0234,3.19515 -0.0565,4.79073 -0.14879,2.24345 -0.42492,4.49635 -1.27702,6.59702 -0.87335,2.00985 -1.91317,3.93008 -3.36406,5.58938 -1.06273,1.14452 -2.2431,2.16068 -3.46402,3.13333 -1.51397,1.01135 -3.23636,1.55016 -4.95594,0.65752 -1.90042,-1.56155 -1.48509,-2.98372 -1.22911,-5.20545 0.49426,-3.09547 1.31829,-6.11876 2.6205,-8.98018 1.51743,-2.98254 3.31733,-5.8014 5.61134,-8.25552 0,0 1.66215,1.42471 1.66215,1.42471 z"
       inkscape:connector-curvature="0" />
    <text
       xml:space="preserve"
       style="font-size:20px;font-style:normal;font-variant:normal;font-weight:normal;font-stretch:normal;text-indent:0;text-align:start;text-decoration:none;line-height:125%;letter-spacing:0px;word-spacing:0px;text-transform:none;direction:ltr;block-progression:tb;writing-mode:lr-tb;text-anchor:start;baseline-shift:baseline;color:#000000;fill:#666666;fill-opacity:1;fill-rule:nonzero;stroke:none;stroke-width:1px;marker:none;visibility:visible;display:inline;overflow:visible;enable-background:accumulate;font-family:Architects Daughter;-inkscape-font-specification:Architects Daughter"
       x="74"
       y="231"
       id="text3474"
       sodipodi:linespacing="125%"><tspan
         sodipodi:role="line"
         x="74"
         y="231"
         id="tspan3482">Though this is true in <tspan
   style="fill:none;stroke:#666666"
   id="tspan3478">CAT</tspan> (and set-like categories), it doesn't hold in general.  </tspan><tspan
         sodipodi:role="line"
         x="74"
         y="256"
         id="tspan3484">E.g. finite category below has terminal, but arrows into it aren't epi. </tspan></text>
    <path
       style="color:#000000;fill:#666666;fill-opacity:1;fill-rule:nonzero;stroke:none;stroke-width:1px;marker:none;visibility:visible;display:inline;overflow:visible;enable-background:accumulate"
       id="path3512"
       d="m 219.71315,432.80502 c -3.91566,6.67824 -8.01282,13.2459 -12.03357,19.86068 -4.13245,6.36898 -7.95439,12.93274 -12.14987,19.2609 -0.96241,1.29945 -0.47052,0.78367 -1.39465,1.62078 0,0 -1.87135,-2.34479 -1.87135,-2.34479 l 0,0 c 0.0179,0.007 0.0357,0.0139 0.0536,0.0208 0.23744,-0.31833 0.47488,-0.63666 0.71231,-0.955 4.1761,-6.29364 7.97216,-12.82722 12.0864,-19.16097 4.00058,-6.58132 8.07656,-13.11612 11.97465,-19.75934 0,0 2.62247,1.45693 2.62247,1.45693 z"
       inkscape:connector-curvature="0" />
    <path
       style="color:#000000;fill:#666666;fill-opacity:1;fill-rule:nonzero;stroke:none;stroke-width:1px;marker:none;visibility:visible;display:inline;overflow:visible;enable-background:accumulate"
       id="path3514"
       d="m 217.37294,429.34543 c -0.5977,7.99192 -0.65834,16.01322 -0.76056,24.02325 -0.0858,8.48662 -0.11051,16.9737 -0.11902,25.46069 -0.0559,3.41206 1.03359,2.96684 -2.9969,2.16084 0,0 2.99999,0.009 2.99999,0.009 l 0,0 c -4.03705,0.80971 -2.94809,1.24496 -3.00309,-2.17298 0.009,-8.49875 0.0333,-16.9976 0.11927,-25.49597 0.1034,-8.09686 0.16495,-16.2053 0.7752,-24.28347 0,0 2.98511,0.29851 2.98511,0.29851 z"
       inkscape:connector-curvature="0" />
    <path
       style="color:#000000;fill:#666666;fill-opacity:1;fill-rule:nonzero;stroke:none;stroke-width:1px;marker:none;visibility:visible;display:inline;overflow:visible;enable-background:accumulate"
       id="path3516"
       d="m 197.19617,456.5 c 4.79811,-0.0525 9.5873,-0.47106 14.37934,-0.72261 1.80001,-0.21362 3.54839,-0.093 5.3192,0.21731 0,0 -0.55259,2.94867 -0.55259,2.94867 l 0,0 c -1.52984,-0.31361 -3.0487,-0.33492 -4.60937,-0.17011 -4.84438,0.25422 -9.68581,0.67747 -14.53658,0.72674 0,0 0,-3 0,-3 z"
       inkscape:connector-curvature="0" />
    <path
       style="color:#000000;fill:#666666;fill-opacity:1;fill-rule:nonzero;stroke:none;stroke-width:1px;marker:none;visibility:visible;display:inline;overflow:visible;enable-background:accumulate"
       id="path3522"
       d="m 235.07656,457.5 c 4.19303,-0.13095 8.36743,0.13948 12.54512,0.45717 0,0 -0.22751,2.99136 -0.22751,2.99136 l 0,0 c -4.10217,-0.31203 -8.20023,-0.58052 -12.31761,-0.44853 0,0 0,-3 0,-3 z"
       inkscape:connector-curvature="0" />
    <path
       style="color:#000000;fill:#666666;fill-opacity:1;fill-rule:nonzero;stroke:none;stroke-width:1px;marker:none;visibility:visible;display:inline;overflow:visible;enable-background:accumulate"
       id="path3524"
       d="m 261.19617,458.5 c 2.49948,-0.0393 4.86556,0.64546 7.24096,1.31994 0,0 -0.82881,2.88324 -0.82881,2.88324 l 0,0 c -2.10234,-0.61273 -4.1944,-1.23567 -6.41215,-1.20318 0,0 0,-3 0,-3 z"
       inkscape:connector-curvature="0" />
    <path
       style="color:#000000;fill:#666666;fill-opacity:1;fill-rule:nonzero;stroke:none;stroke-width:1px;marker:none;visibility:visible;display:inline;overflow:visible;enable-background:accumulate"
       id="path3526"
       d="m 281.19617,457.5 c 2.14074,0 4.28147,0 6.4222,0 0,0 0,3 0,3 l 0,0 c -2.14073,0 -4.28146,0 -6.4222,0 0,0 0,-3 0,-3 z"
       inkscape:connector-curvature="0" />
    <path
       style="color:#000000;fill:#666666;fill-opacity:1;fill-rule:nonzero;stroke:none;stroke-width:1px;marker:none;visibility:visible;display:inline;overflow:visible;enable-background:accumulate"
       id="path3528"
       d="m 298.07656,456.5 c 3.26788,0 6.53576,0 9.80364,0 0,0 0,3 0,3 l 0,0 c -3.26788,0 -6.53576,0 -9.80364,0 0,0 0,-3 0,-3 z"
       inkscape:connector-curvature="0" />
    <path
       style="color:#000000;fill:#666666;fill-opacity:1;fill-rule:nonzero;stroke:none;stroke-width:1px;marker:none;visibility:visible;display:inline;overflow:visible;enable-background:accumulate"
       id="path3530"
       d="m 305.87118,447.63909 c 2.08622,4.1108 3.82002,8.39174 6.08588,12.40988 -0.40882,0.26044 1.22221,1.42011 1.2155,1.42655 -2.52955,2.43077 -1.49249,2.22198 -3.15116,1.58216 -1.73693,0.0188 -3.04887,1.51219 -4.27043,2.57272 -1.55396,1.33328 -1.9087,3.05396 -2.13079,4.9918 0,0 -2.9787,-0.35684 -2.9787,-0.35684 l 0,0 c 0.33108,-2.66983 1.02003,-5.07869 3.14301,-6.90056 2.12026,-1.8399 4.38763,-3.85678 7.40616,-3.06988 0.006,0.003 1.64304,0.67715 1.601,0.85492 -1.07875,4.56217 -2.1028,2.19601 -3.44915,0.37021 -2.32301,-4.13726 -4.12974,-8.52903 -6.25675,-12.76679 0,0 2.78543,-1.11417 2.78543,-1.11417 z"
       inkscape:connector-curvature="0" />
    <path
       style="color:#000000;fill:#666666;fill-opacity:1;fill-rule:nonzero;stroke:none;stroke-width:1px;marker:none;visibility:visible;display:inline;overflow:visible;enable-background:accumulate"
       id="path3554"
       d="m 325.05694,448.0823 c 4.08369,-3.01046 7.69504,-6.53169 11.07609,-10.29623 1.07058,-1.28243 2.13059,-2.62815 2.93042,-4.10502 0.0897,-0.16559 0.0183,-0.66362 0.16159,-0.54136 0.71394,0.60938 1.40815,1.2415 2.11222,1.86226 -2.33857,3.33684 -3.47914,7.34774 -4.705,11.18547 -1.98708,6.59006 -3.75358,13.24405 -5.71286,19.84181 -0.64738,1.51792 -0.8629,3.34946 -1.82041,4.74439 -0.20401,0.29721 -0.48379,0.53456 -0.72533,0.80216 -0.0235,0.026 -0.0576,0.1116 -0.0698,0.0787 -0.31522,-0.85085 -0.57208,-1.72221 -0.85812,-2.58331 2.03566,-0.48692 4.06342,-0.94204 6.14367,-1.21456 2.64041,-0.2781 5.29702,-0.32935 7.94962,-0.35901 1.33201,-0.007 0.75195,0.056 1.74696,-0.11225 0,0 0.43263,2.96864 0.43263,2.96864 l 0,0 c -1.40748,0.18534 -0.69224,0.13539 -2.14616,0.14342 -2.53442,0.0281 -5.07258,0.0751 -7.59594,0.33412 -2.04786,0.26451 -4.03651,0.7352 -6.04383,1.19986 -0.607,-0.80831 -1.29054,-1.56445 -1.82101,-2.42492 -0.20285,-0.32904 0.28963,-0.16505 0.32303,-0.2119 0.14844,-0.20825 0.2586,-0.44268 0.36056,-0.67721 0.50615,-1.16415 0.84978,-2.33203 1.24831,-3.54246 1.96644,-6.61717 3.73472,-13.2922 5.73113,-19.90105 1.35008,-4.21935 2.62904,-8.62106 5.29201,-12.23274 1.03047,0.24281 2.12389,0.29863 3.09142,0.72841 0.007,0.003 -0.0993,0.664 -0.55261,1.50452 -0.87875,1.62935 -2.0677,3.09955 -3.24107,4.51715 -3.51333,3.90805 -7.2679,7.56335 -11.50755,10.69109 0,0 -1.8,-2.4 -1.8,-2.4 z"
       inkscape:connector-curvature="0" />
    <path
       style="color:#000000;fill:#666666;fill-opacity:1;fill-rule:nonzero;stroke:none;stroke-width:1px;marker:none;visibility:visible;display:inline;overflow:visible;enable-background:accumulate"
       id="path3558"
       d="m 340.2422,431.62879 c 2.43808,0.30914 6.03007,0.32693 7.26181,2.96718 0.2288,0.49045 0.22187,1.05939 0.33281,1.58909 -0.13584,2.95701 -1.60974,5.65775 -2.95061,8.2373 -1.63022,2.96048 -2.69031,6.17574 -3.8745,9.32849 -1.22813,4.04594 -2.6566,8.02862 -3.70134,12.12785 -0.16299,0.94512 -0.71902,1.88571 -0.69533,2.86801 0,0 -2.99447,-0.18217 -2.99447,-0.18217 l 0,0 c 0.10633,-1.1789 0.41034,-2.30299 0.78311,-3.42824 1.07592,-4.20395 2.52848,-8.2934 3.79962,-12.44036 1.22687,-3.26603 2.3337,-6.59327 4.02255,-9.66012 1.07563,-2.0578 2.23422,-4.2024 2.63063,-6.50794 0.0397,-0.1158 0.22099,-0.51325 0.096,-0.65729 -1.11812,-1.28853 -3.58558,-0.92764 -5.04158,-1.26015 0,0 0.33129,-2.98165 0.33129,-2.98165 z"
       inkscape:connector-curvature="0" />
    <path
       style="color:#000000;fill:#666666;fill-opacity:1;fill-rule:nonzero;stroke:none;stroke-width:1px;marker:none;visibility:visible;display:inline;overflow:visible;enable-background:accumulate"
       id="path3562"
       d="m 369.19617,435.5 c 7.64839,-0.12324 15.28872,0.20279 22.93096,0.45366 10.90983,0.67557 21.79903,-0.0505 32.66663,-0.9708 1.61371,-0.13113 3.22743,-0.26227 4.84114,-0.3934 0,0 0.24298,2.99014 0.24298,2.99014 l 0,0 c -1.61034,0.13086 -3.22067,0.26171 -4.83101,0.39256 -10.9844,0.92997 -21.99122,1.65839 -33.01817,0.97988 -7.60946,-0.2498 -15.21693,-0.57549 -22.83253,-0.45204 0,0 0,-3 0,-3 z"
       inkscape:connector-curvature="0" />
    <path
       style="color:#000000;fill:#666666;fill-opacity:1;fill-rule:nonzero;stroke:none;stroke-width:1px;marker:none;visibility:visible;display:inline;overflow:visible;enable-background:accumulate"
       id="path3566"
       d="m 426.75194,430.32609 c 2.62735,1.29737 5.07116,2.98593 7.71478,4.24479 4.2185,2.32341 -1.2759,3.15018 -2.13997,3.35336 -0.75259,0.17696 -0.69576,0.1958 -1.33582,0.53488 -1.29009,0.78527 -2.20919,1.79413 -2.70808,3.2114 0,0 -2.78256,-1.12132 -2.78256,-1.12132 l 0,0 c 0.89688,-2.07311 2.16128,-3.6751 4.17668,-4.78702 0.99667,-0.46234 1.88152,-0.75317 2.96175,-0.93998 0.2816,-0.0487 0.75074,-0.41226 0.84538,-0.14262 0.30791,0.87731 0.19987,1.86567 0.0831,2.78809 -0.0191,0.15086 -0.27395,-0.13209 -0.41092,-0.19813 -2.72481,-1.34214 -5.28782,-3.01844 -7.99436,-4.39946 0,0 1.59,-2.54399 1.59,-2.54399 z"
       inkscape:connector-curvature="0" />
    <path
       style="color:#000000;fill:#666666;fill-opacity:1;fill-rule:nonzero;stroke:none;stroke-width:1px;marker:none;visibility:visible;display:inline;overflow:visible;enable-background:accumulate"
       id="path3568"
       d="m 370.19617,464.5 c 7.05012,0 14.10024,0 21.15036,0 9.48404,0 18.96807,0 28.45211,0 4.29354,0.003 8.57104,-0.3882 12.84604,-0.73274 0,0 0.24088,2.99031 0.24088,2.99031 l 0,0 c -4.35515,0.35064 -8.71296,0.74567 -13.08692,0.74243 -9.48404,0 -18.96807,0 -28.45211,0 -7.05012,0 -14.10024,0 -21.15036,0 0,0 0,-3 0,-3 z"
       inkscape:connector-curvature="0" />
    <path
       style="color:#000000;fill:#666666;fill-opacity:1;fill-rule:nonzero;stroke:none;stroke-width:1px;marker:none;visibility:visible;display:inline;overflow:visible;enable-background:accumulate"
       id="path3570"
       d="m 428.81351,456.57882 c 2.28938,2.14431 5.0031,3.84266 7.11387,6.17283 1.69377,2.94225 -1.18855,3.48617 -3.20717,4.25473 -1.46524,0.65219 -2.67075,1.83202 -3.47981,3.20891 -0.29317,0.72689 -0.22954,0.38804 -0.27026,0.99838 0,0 -2.95569,-0.51374 -2.95569,-0.51374 l 0,0 c 0.30374,-1.42467 0.0785,-0.73712 0.67467,-2.06292 1.21844,-1.90987 2.84708,-3.55646 4.97067,-4.43697 3.18092,-1.1943 -0.73777,0.2558 1.59194,-0.55496 0.16576,-0.0577 0.38798,-0.33866 0.48903,-0.19516 0.12949,0.18389 -0.98789,1.20959 -0.0593,1.29061 -1.94774,-2.27854 -4.70596,-3.77031 -6.82029,-5.88394 0,0 1.95238,-2.27777 1.95238,-2.27777 z"
       inkscape:connector-curvature="0" />
    <path
       style="color:#000000;fill:#666666;fill-opacity:1;fill-rule:nonzero;stroke:none;stroke-width:1px;marker:none;visibility:visible;display:inline;overflow:visible;enable-background:accumulate"
       id="path3572"
       d="m 396.34809,411.09068 c 3.94004,-2.34129 7.65421,-5.03455 10.87989,-8.29434 0.44284,-0.45085 3.72351,-4.78934 2.4901,-5.0624 -0.51917,0.39753 -1.02412,0.94365 -1.48682,1.44009 -1.57991,2.23452 -2.01721,4.79463 -2.33996,7.45004 -0.68314,4.46309 -1.01671,8.96522 -1.23557,13.47144 -0.21479,2.4431 -0.58865,5.71873 -3.37004,6.5969 -0.49283,0.1556 -1.02865,0.10135 -1.54297,0.15202 -2.57503,-0.49148 -5.09912,-1.55034 -7.00954,-3.36431 -1.11702,-1.56001 -0.70776,-2.39793 0.2322,-3.84662 0,0 2.32425,1.89681 2.32425,1.89681 l 0,0 c -0.27208,-0.0465 -0.51793,-0.67888 -0.41571,-0.15191 1.1489,1.37732 3.18347,1.81506 4.78397,2.46723 0.24335,0.0544 0.51401,0.24312 0.73658,0.13068 1.25358,-0.6333 1.04537,-2.98692 1.2648,-4.02654 0.2231,-4.58055 0.56194,-9.15708 1.25473,-13.69402 0.41388,-3.29387 1.05873,-6.47525 3.15192,-9.1581 1.97376,-2.01884 4.21709,-3.21162 6.38568,-0.59978 0.14044,0.41339 0.35784,0.80822 0.42132,1.24017 0.40191,2.73467 -2.00317,5.23918 -3.51697,7.17295 -3.43772,3.44618 -7.35629,6.33233 -11.55093,8.80216 0,0 -1.45693,-2.62247 -1.45693,-2.62247 z"
       inkscape:connector-curvature="0" />
    <path
       style="color:#000000;fill:#666666;fill-opacity:1;fill-rule:nonzero;stroke:none;stroke-width:1px;marker:none;visibility:visible;display:inline;overflow:visible;enable-background:accumulate"
       id="path3574"
       d="m 398.19617,413.5 c 3.50093,0 7.00186,0 10.50279,0 0,0 0,3 0,3 l 0,0 c -3.50093,0 -7.00186,0 -10.50279,0 0,0 0,-3 0,-3 z"
       inkscape:connector-curvature="0" />
    <path
       style="color:#000000;fill:#666666;fill-opacity:1;fill-rule:nonzero;stroke:none;stroke-width:1px;marker:none;visibility:visible;display:inline;overflow:visible;enable-background:accumulate"
       id="path3580"
       d="m 396.05694,481.0823 c 0.5515,-0.37563 4.76423,-4.20092 2.98906,-4.65046 -1.15498,0.37541 -2.28909,1.34651 -3.10867,2.29333 -0.58341,0.89804 -1.47125,2.22735 -0.33817,3.02484 2.10109,0.70578 3.2924,1.42154 4.64046,3.25312 1.62608,2.87325 1.92216,6.15895 2.15664,9.38515 0.10373,2.1465 0.23097,5.27388 -1.94271,6.58413 -0.51088,0.30794 -1.13,0.38263 -1.695,0.57394 -3.49769,-0.0624 -6.35313,-2.27661 -8.33153,-5.00895 -1.41183,-3.87138 2.05265,-5.92719 5.02112,-7.47626 3.00121,-1.35577 6.1687,-2.21407 9.38251,-2.87934 0,0 0.60582,2.93819 0.60582,2.93819 l 0,0 c -2.94649,0.60493 -5.84864,1.38593 -8.60892,2.60521 -1.34458,0.68987 -3.44744,1.49418 -3.9451,3.0886 1.2161,1.81863 3.0842,3.27317 5.23123,3.80268 1.61812,0.62668 1.38732,-3.31288 1.29035,-4.01238 -0.19173,-2.68014 -0.38534,-5.42813 -1.6145,-7.86977 -0.086,-0.13046 -0.59266,-0.95789 -0.81726,-1.12922 -1.08077,-0.82442 -2.68958,-0.7624 -3.6153,-1.86196 -2.04505,-2.59756 -1.4207,-4.48285 0.35628,-7.0313 1.59539,-1.71185 4.12266,-3.86983 6.68666,-2.77684 0.4868,0.20752 0.82705,0.66042 1.24058,0.99063 0.22173,0.50931 0.5582,0.98283 0.6652,1.52791 0.58558,2.98302 -2.53228,5.36163 -4.44875,7.02875 0,0 -1.8,-2.4 -1.8,-2.4 z"
       inkscape:connector-curvature="0" />
    <path
       style="color:#000000;fill:#666666;fill-opacity:1;fill-rule:nonzero;stroke:none;stroke-width:1px;marker:none;visibility:visible;display:inline;overflow:visible;enable-background:accumulate"
       id="path3582"
       d="m 461.37294,433.34543 c -0.81312,6.36916 -1.44396,12.76308 -2.0385,19.15649 -0.63397,3.64308 -0.16163,7.46719 -0.8524,11.09767 0,0 -2.91961,-0.68987 -2.91961,-0.68987 l 0,0 c 0.29374,-3.27247 0.43491,-7.21913 0.7849,-10.68564 0.59542,-6.40025 1.22646,-12.8012 2.0405,-19.17716 0,0 2.98511,0.29851 2.98511,0.29851 z"
       inkscape:connector-curvature="0" />
    <path
       style="color:#000000;fill:#666666;fill-opacity:1;fill-rule:nonzero;stroke:none;stroke-width:1px;marker:none;visibility:visible;display:inline;overflow:visible;enable-background:accumulate"
       id="path3584"
       d="m 459.19617,431.5 c 4.79637,-0.23151 8.41902,0.0907 12.83771,2.04316 2.15641,1.2518 4.88348,3.1948 4.67724,6.06769 -0.0399,0.55534 -0.27969,1.07784 -0.41954,1.61676 -1.96205,3.38467 -5.54813,4.65767 -9.13889,5.58046 -1.93422,0.36694 -1.07106,0.21802 -2.75005,0.48873 -0.23604,0.038 -0.4728,0.0718 -0.70818,0.11373 -0.0661,0.0118 -0.20311,0.11409 -0.19589,0.0473 0.35482,-3.27958 -0.40655,-2.93827 1.57111,-2.91561 3.47456,0.12826 6.83608,0.92095 10.10985,2.0468 3.04991,1.11852 5.35784,3.01295 6.94695,5.82068 1.60718,3.87173 1.24238,6.64104 -0.63953,10.31151 -3.51277,4.75369 -7.68841,5.45289 -13.28511,5.3732 -0.96457,-0.15883 -1.93868,-0.2678 -2.8937,-0.47649 -2.18127,-0.47665 -3.09019,-0.91722 -5.18064,-1.54492 -0.54752,-0.1644 -1.10055,-0.31163 -1.65771,-0.4396 -0.2287,-0.0525 -0.83975,0.0848 -0.69666,-0.10115 0.51727,-0.6723 1.32832,-1.05535 1.99248,-1.58302 0,0 -2.45844,1.71932 -2.45844,1.71932 l 0,0 c 0.31053,-1.03331 0.33751,-2.19926 0.9316,-3.09995 0.1867,-0.28306 0.67327,0.0896 1.00364,0.16599 3.02965,0.70066 5.88868,2.0715 9.0169,2.36037 4.02864,0.10035 7.97289,-0.3165 10.57605,-3.77697 1.33826,-2.42353 1.76932,-4.82794 0.66321,-7.46119 -1.15599,-2.18537 -2.98542,-3.55905 -5.30018,-4.43275 -2.96644,-1.03396 -6.0142,-1.74989 -9.16521,-1.88205 -2.05102,-0.0263 -1.48114,0.34434 -2.19584,-3.01039 -0.0271,-0.12728 0.25338,-0.06 0.38143,-0.0831 0.59952,-0.10834 1.20439,-0.18516 1.80454,-0.28995 0.46421,-0.0811 0.92664,-0.17194 1.38996,-0.25791 2.60644,-0.65486 5.28689,-1.44978 7.03682,-3.63528 1.11763,-1.73724 -1.42041,-3.23032 -2.64119,-3.98367 -3.92083,-1.77959 -7.3355,-1.99124 -11.61273,-1.78167 0,0 0,-3 0,-3 z"
       inkscape:connector-curvature="0" />
    <path
       style="color:#000000;fill:#666666;fill-opacity:1;fill-rule:nonzero;stroke:none;stroke-width:1px;marker:none;visibility:visible;display:inline;overflow:visible;enable-background:accumulate"
       id="path3586"
       d="m 462.5,417.92344 c 0,-1.13448 0,-2.26897 0,-3.40346 0,0 3,0 3,0 l 0,0 c 0,1.13449 0,2.26898 0,3.40346 0,0 -3,0 -3,0 z"
       inkscape:connector-curvature="0" />
    <path
       style="color:#000000;fill:#666666;fill-opacity:1;fill-rule:nonzero;stroke:none;stroke-width:1px;marker:none;visibility:visible;display:inline;overflow:visible;enable-background:accumulate"
       id="path3588"
       d="m 461.21812,403.39779 c -0.90882,-2.63879 -1.76233,-5.28694 -2.79327,-7.88182 0,0 2.78882,-1.10567 2.78882,-1.10567 l 0,0 c 1.04781,2.64811 1.92709,5.34612 2.8505,8.0388 0,0 -2.84605,0.94869 -2.84605,0.94869 z"
       inkscape:connector-curvature="0" />
    <path
       style="color:#000000;fill:#666666;fill-opacity:1;fill-rule:nonzero;stroke:none;stroke-width:1px;marker:none;visibility:visible;display:inline;overflow:visible;enable-background:accumulate"
       id="path3590"
       d="m 451.99606,383.57557 c -1.71076,-3.04353 -3.44073,-6.08336 -5.34232,-9.01217 0,0 2.51763,-1.63142 2.51763,-1.63142 l 0,0 c 1.91534,2.96115 3.6749,6.02306 5.39717,9.1001 0,0 -2.57248,1.54349 -2.57248,1.54349 z"
       inkscape:connector-curvature="0" />
    <path
       style="color:#000000;fill:#666666;fill-opacity:1;fill-rule:nonzero;stroke:none;stroke-width:1px;marker:none;visibility:visible;display:inline;overflow:visible;enable-background:accumulate"
       id="path3592"
       d="m 435.31424,366.89225 c -2.2794,-1.10607 -1.11156,-0.51422 -3.49921,-1.78398 0,0 1.40991,-2.64805 1.40991,-2.64805 l 0,0 c 2.2584,1.20395 1.15444,0.64313 3.30771,1.69059 0,0 -1.21841,2.74144 -1.21841,2.74144 z"
       inkscape:connector-curvature="0" />
    <path
       style="color:#000000;fill:#666666;fill-opacity:1;fill-rule:nonzero;stroke:none;stroke-width:1px;marker:none;visibility:visible;display:inline;overflow:visible;enable-background:accumulate"
       id="path3594"
       d="m 408.7578,360.37121 c -1.99821,-0.0598 -3.85694,0.57621 -5.73017,1.17238 0,0 -0.89599,-2.86308 -0.89599,-2.86308 l 0,0 c 2.27827,-0.70255 4.53353,-1.43121 6.95745,-1.29095 0,0 -0.33129,2.98165 -0.33129,2.98165 z"
       inkscape:connector-curvature="0" />
    <path
       style="color:#000000;fill:#666666;fill-opacity:1;fill-rule:nonzero;stroke:none;stroke-width:1px;marker:none;visibility:visible;display:inline;overflow:visible;enable-background:accumulate"
       id="path3596"
       d="m 386.03082,364.96619 c -0.51603,0.46145 -1.03206,0.92291 -1.54809,1.38437 0,0 -1.99968,-2.23636 -1.99968,-2.23636 l 0,0 c 0.52408,-0.46858 1.04817,-0.93716 1.57226,-1.40574 0,0 1.97551,2.25773 1.97551,2.25773 z"
       inkscape:connector-curvature="0" />
    <path
       style="color:#000000;fill:#666666;fill-opacity:1;fill-rule:nonzero;stroke:none;stroke-width:1px;marker:none;visibility:visible;display:inline;overflow:visible;enable-background:accumulate"
       id="path3598"
       d="m 370.13887,375.85659 c -2.49298,2.36749 -4.74748,4.97348 -6.99764,7.56832 0,0 -2.26618,-1.9658 -2.26618,-1.9658 l 0,0 c 2.34751,-2.70537 4.69861,-5.42431 7.31144,-7.88029 0,0 1.95238,2.27777 1.95238,2.27777 z"
       inkscape:connector-curvature="0" />
    <path
       style="color:#000000;fill:#666666;fill-opacity:1;fill-rule:nonzero;stroke:none;stroke-width:1px;marker:none;visibility:visible;display:inline;overflow:visible;enable-background:accumulate"
       id="path3600"
       d="m 354.4823,396.85694 c -2.75312,3.68465 -5.00931,7.71605 -7.28591,11.7049 0,0 -2.60531,-1.48741 -2.60531,-1.48741 l 0,0 c 2.33949,-4.09659 4.66011,-8.23495 7.49122,-12.01749 0,0 2.4,1.8 2.4,1.8 z"
       inkscape:connector-curvature="0" />
    <path
       style="color:#000000;fill:#666666;fill-opacity:1;fill-rule:nonzero;stroke:none;stroke-width:1px;marker:none;visibility:visible;display:inline;overflow:visible;enable-background:accumulate"
       id="path3602"
       d="m 338.84919,411.46735 c 1.05828,1.95883 1.61139,4.16681 2.82242,6.04451 0.0767,0.067 0.20668,0.30021 0.23003,0.20108 0.096,-0.40779 -0.46061,-0.16065 -1.21933,-0.2993 -0.0473,-0.009 0.0638,-0.0727 0.0877,-0.11441 0.33431,-0.58256 -0.52697,0.54611 0.5421,-0.72981 0.89102,-1.31248 2.20866,-2.2969 3.58006,-3.06142 1.7366,-0.93372 3.6114,-1.6169 5.49218,-2.20173 1.35144,-0.20966 0.73058,-0.15762 1.85859,-0.19817 0,0 0.0701,2.99918 0.0701,2.99918 l 0,0 c -0.62903,4.8e-4 -0.28072,-0.0142 -1.04381,0.0655 -1.69759,0.5196 -3.38814,1.13856 -4.95451,1.97648 -1.07955,0.54662 -2.04043,1.35867 -2.71633,2.36251 -1.42279,1.64027 -2.62251,2.85768 -4.4745,0.58417 -1.23246,-2.03016 -1.96526,-4.28787 -3.01618,-6.41018 0,0 2.74144,-1.21841 2.74144,-1.21841 z"
       inkscape:connector-curvature="0" />
    <path
       style="color:#000000;fill:#cccccf;fill-opacity:1;fill-rule:nonzero;stroke:none;stroke-width:1px;marker:none;visibility:visible;display:inline;overflow:visible;enable-background:accumulate"
       id="path3606"
       d="m 243.02135,489.15564 c 3.73993,4.8315 7.56966,9.61248 11.62909,14.18189 5.45214,6.53067 12.38633,11.25307 19.71219,15.41459 10.25796,5.12564 21.2669,8.44284 32.23362,11.66014 13.3195,3.77708 26.95256,6.65787 40.76057,7.89177 3.12053,0.27886 6.2546,0.37661 9.38191,0.56491 12.74846,0.39652 25.51674,-0.78152 37.8461,-4.12769 7.32051,-1.98678 11.02546,-3.57389 18.10866,-6.24093 15.93139,-6.49129 30.51398,-15.0826 44.41178,-25.14711 5.4934,-4.26743 10.98171,-8.81343 14.70034,-14.79165 0.55066,-0.88526 0.96732,-1.84713 1.45098,-2.77069 0,0 2.65195,1.40256 2.65195,1.40256 l 0,0 c -0.5519,1.03446 -1.03198,2.11057 -1.6557,3.10338 -3.91974,6.2392 -9.62532,11.02797 -15.38854,15.48659 -2.01455,1.45747 -3.99359,2.96531 -6.04364,4.37241 -12.23662,8.39889 -25.38587,15.42603 -39.07074,21.15235 -7.24999,2.72573 -10.99279,4.32983 -18.49426,6.35712 -12.60909,3.40764 -25.66389,4.61018 -38.69806,4.19819 -3.18558,-0.19354 -6.37804,-0.29556 -9.55674,-0.58063 -13.97341,-1.25313 -27.76977,-4.16923 -41.24925,-7.99193 -11.18836,-3.28338 -22.41878,-6.67533 -32.8721,-11.93104 -7.60595,-4.33075 -14.80404,-9.25279 -20.47249,-16.03059 -4.09976,-4.62064 -7.97458,-9.44817 -11.75373,-14.33181 0,0 2.36806,-1.84183 2.36806,-1.84183 z"
       inkscape:connector-curvature="0" />
    <path
       style="color:#000000;fill:#cccccf;fill-opacity:1;fill-rule:nonzero;stroke:none;stroke-width:1px;marker:none;visibility:visible;display:inline;overflow:visible;enable-background:accumulate"
       id="path3608"
       d="m 463.2422,486.62879 c 3.48654,0.18064 6.98493,-0.37001 10.05515,-2.06569 0.76866,-0.54668 1.38363,-1.20585 1.73177,-2.09168 0.0721,-0.18349 -0.0606,-0.72014 0.0834,-0.58555 0.57791,0.53995 1.11096,1.126 1.66644,1.689 0.0996,-0.0164 0.22814,-0.12115 0.29894,-0.0491 0.005,0.005 -0.17049,0.6488 -0.20887,0.83494 -0.16025,0.77723 -0.1162,1.28971 0.0838,2.0491 0.65787,1.91918 2.23468,3.09388 3.71303,4.35526 0,0 -1.94784,2.28166 -1.94784,2.28166 l 0,0 c -1.98763,-1.69778 -3.94946,-3.37677 -4.69742,-6.00283 -0.44071,-2.30178 -0.28683,-4.72152 1.68486,-6.27034 0.79739,0.4703 1.71106,0.78391 2.39216,1.4109 0.17373,0.15993 -0.0392,0.47281 -0.0972,0.70169 -0.47212,1.86046 -1.71468,3.26842 -3.28332,4.31978 -3.64724,1.91811 -7.68764,2.68105 -11.8062,2.40456 0,0 0.33129,-2.98165 0.33129,-2.98165 z"
       inkscape:connector-curvature="0" />
    <path
       style="color:#000000;fill:#666666;fill-opacity:1;fill-rule:nonzero;stroke:none;stroke-width:1px;marker:none;visibility:visible;display:inline;overflow:visible;enable-background:accumulate"
       id="path3610"
       d="m 356.37121,548.2422 c -0.39206,4.35473 -0.81979,8.71322 -1.49904,13.03373 -0.34476,1.71342 -0.4559,3.51157 -1.24561,5.09167 0,0 -2.56952,-1.54841 -2.56952,-1.54841 l 0,0 c 0.27023,-0.85125 0.71399,-2.84816 0.85185,-4.0112 0.67813,-4.27412 1.08774,-8.58887 1.48067,-12.89708 0,0 2.98165,0.33129 2.98165,0.33129 z"
       inkscape:connector-curvature="0" />
    <path
       style="color:#000000;fill:#666666;fill-opacity:1;fill-rule:nonzero;stroke:none;stroke-width:1px;marker:none;visibility:visible;display:inline;overflow:visible;enable-background:accumulate"
       id="path3614"
       d="m 353.34809,556.09068 c 2.25235,-1.34075 4.50132,-2.69029 6.68567,-4.13948 0,0 1.65655,2.50118 1.65655,2.50118 l 0,0 c -2.2515,1.4888 -4.56293,2.88527 -6.88529,4.26077 0,0 -1.45693,-2.62247 -1.45693,-2.62247 z"
       inkscape:connector-curvature="0" />
    <path
       style="color:#000000;fill:#666666;fill-opacity:1;fill-rule:nonzero;stroke:none;stroke-width:1px;marker:none;visibility:visible;display:inline;overflow:visible;enable-background:accumulate"
       id="path3616"
       d="m 357.9177,556.05694 c 1.92506,2.50094 3.88392,4.97447 5.79911,7.4827 0,0 -2.38485,1.82003 -2.38485,1.82003 l 0,0 c -1.91898,-2.51588 -3.88564,-4.99397 -5.81426,-7.50273 0,0 2.4,-1.8 2.4,-1.8 z"
       inkscape:connector-curvature="0" />
    <path
       style="color:#000000;fill:#666666;fill-opacity:1;fill-rule:nonzero;stroke:none;stroke-width:1px;marker:none;visibility:visible;display:inline;overflow:visible;enable-background:accumulate"
       id="path3626"
       d="m 276.13887,435.85659 c -3.27043,2.95514 -6.59395,5.84978 -10.19539,8.39614 -2.15709,1.30478 -4.91655,3.18468 -7.57738,2.13937 -0.41604,-0.16344 -0.76202,-0.46747 -1.14303,-0.70121 -1.90879,-2.27245 -2.09746,-4.28275 0.33448,-6.20491 2.42889,-1.31379 4.70382,-0.63309 6.9577,0.65396 2.30301,1.36063 3.70922,3.51148 5.09763,5.70605 0.71059,1.48855 1.87888,2.59817 3.1479,3.6112 0.11355,0.0489 0.22711,0.0978 0.34066,0.14675 0,0 -1.39782,2.65445 -1.39782,2.65445 l 0,0 c -0.27737,-0.15694 -0.55475,-0.31389 -0.83212,-0.47083 -1.50033,-1.23026 -2.92951,-2.56858 -3.79497,-4.3394 -1.12633,-1.78559 -2.20324,-3.59265 -4.07389,-4.71746 -1.20929,-0.72823 -2.33733,-1.34161 -3.74657,-0.77186 -0.72848,0.18765 -0.52974,0.6317 -0.27389,1.30192 0.99665,1.61114 4.31534,-0.99876 5.23168,-1.45924 3.5295,-2.48509 6.7667,-5.33776 9.97263,-8.2227 0,0 1.95238,2.27777 1.95238,2.27777 z"
       inkscape:connector-curvature="0" />
    <path
       style="color:#000000;fill:#666666;fill-opacity:1;fill-rule:nonzero;stroke:none;stroke-width:1px;marker:none;visibility:visible;display:inline;overflow:visible;enable-background:accumulate"
       id="path3636"
       d="m 461.5,348.31579 c 0.12659,7.35554 -0.14697,14.70177 -0.45416,22.04908 -0.16377,3.23903 -0.2284,6.48316 -0.43645,9.71989 0,0 -2.99377,-0.19325 -2.99377,-0.19325 l 0,0 c 0.20839,-3.21397 0.26784,-6.43573 0.43284,-9.65197 0.30547,-7.30558 0.57844,-14.60996 0.45154,-21.92375 0,0 3,0 3,0 z"
       inkscape:connector-curvature="0" />
    <path
       style="color:#000000;fill:#666666;fill-opacity:1;fill-rule:nonzero;stroke:none;stroke-width:1px;marker:none;visibility:visible;display:inline;overflow:visible;enable-background:accumulate"
       id="path3638"
       d="m 457.2422,347.62879 c 3.57553,0.22695 6.98302,1.0537 9.83232,3.27503 2.585,3.02555 0.91209,5.38146 -1.70515,7.48824 -0.38688,0.22953 -0.7706,0.46447 -1.16063,0.68858 -0.39898,0.22926 -0.76689,0.5196 -1.19119,0.69768 -0.11021,0.0462 0.28681,-0.0941 0.28797,-0.21362 0.0213,-2.19537 -1.02358,-2.152 0.14632,-2.04917 2.21956,-0.097 4.08018,0.50703 5.89501,1.75763 2.59367,2.39591 2.90821,4.17459 1.2361,7.27341 -1.90287,2.80112 -4.92404,3.87557 -8.09087,4.54479 -0.98212,0.062 -1.99579,-0.008 -2.86413,0.50197 0,0 -1.23846,-2.73244 -1.23846,-2.73244 l 0,0 c 1.13833,-0.46189 2.23991,-0.79393 3.49187,-0.70671 2.3234,-0.47371 4.65675,-1.1205 6.12066,-3.13693 0.90026,-1.25238 0.8049,-2.24043 -0.38856,-3.29554 -1.41648,-1.04468 -2.83588,-1.27913 -4.58969,-1.23687 -5.2441,-0.88775 -1.35554,-3.64174 0.49387,-4.4531 0.93672,-0.70704 2.46747,-1.55709 1.67434,-2.7921 -2.30727,-1.95677 -5.34993,-2.37627 -8.28107,-2.6292 0,0 0.33129,-2.98165 0.33129,-2.98165 z"
       inkscape:connector-curvature="0" />
    <path
       style="color:#000000;fill:#666666;fill-opacity:1;fill-rule:nonzero;stroke:none;stroke-width:1px;marker:none;visibility:visible;display:inline;overflow:visible;enable-background:accumulate"
       id="path3169"
       d="m 637.65242,385.36055 c 3.40579,-1.36351 6.46891,-3.32132 9.07202,-5.8954 0.69617,-1.01899 2.12323,-2.39447 1.74177,-3.80178 -0.0885,-0.32644 -0.42613,-0.58657 -0.65018,-0.80113 -1.51458,-0.94794 -3.02236,-0.47355 -4.41304,0.43849 -1.70752,1.30748 -1.94866,3.21762 -2.16772,5.22197 -0.19007,4.05298 -0.18158,8.10743 -0.3745,12.16157 -0.36587,4.20846 -0.72605,8.50059 -2.29107,12.45809 -1.65997,2.6437 -3.30436,3.57582 -6.06963,1.73633 -1.11667,-0.90657 -1.49255,-1.94786 -1.52392,-3.33871 0,0 2.20644,0.0155 2.20644,0.0155 l 0,0 c -0.0485,0.67037 0.0379,1.03914 0.59163,1.52175 1.3675,1.0846 1.69972,0.67486 2.74754,-0.75622 1.5128,-3.7097 1.74702,-7.79438 2.13501,-11.7417 0.19537,-4.10099 0.17758,-8.20284 0.38569,-12.30206 0.30829,-2.69827 0.86104,-5.17522 3.1991,-6.85264 2.518,-1.49894 4.80602,-1.89894 7.26294,0.0171 0.25061,0.32771 0.56363,0.616 0.75183,0.98311 1.24058,2.41997 -0.50508,4.80212 -1.98499,6.61372 -2.84305,2.78065 -6.15478,4.93037 -9.86486,6.3956 0,0 -0.75406,-2.07365 -0.75406,-2.07365 z"
       inkscape:connector-curvature="0" />
    <path
       style="color:#000000;fill:#666666;fill-opacity:1;fill-rule:nonzero;stroke:none;stroke-width:1px;marker:none;visibility:visible;display:inline;overflow:visible;enable-background:accumulate"
       id="path3171"
       d="m 632.90275,389.417 c 3.5383,0.33423 7.09168,0.46019 10.64296,0.55973 2.03447,0.044 1.07843,0.025 2.86809,0.0582 0,0 -0.041,2.20611 -0.041,2.20611 l 0,0 c -1.80115,-0.0335 -0.83815,-0.0143 -2.88899,-0.0587 -3.60393,-0.10116 -7.20996,-0.2298 -10.80065,-0.56981 0,0 0.21955,-2.19555 0.21955,-2.19555 z"
       inkscape:connector-curvature="0" />
    <path
       style="color:#000000;fill:#666666;fill-opacity:1;fill-rule:nonzero;stroke:none;stroke-width:1px;marker:none;visibility:visible;display:inline;overflow:visible;enable-background:accumulate"
       id="path3173"
       d="m 665.11282,385.90832 c -2.37047,2.19855 -5.09542,3.93847 -7.7998,5.68628 -1.69216,0.82649 -4.16163,2.621 -6.18015,2.29912 -0.37502,-0.0598 -0.71542,-0.25505 -1.07313,-0.38258 -1.72578,-1.75062 -1.22279,-3.42064 0.39022,-4.9729 2.24974,-1.51521 3.82569,-1.29915 6.0014,0.18929 1.74188,1.54233 2.91501,3.60779 4.27643,5.47854 0.48192,0.58427 0.24587,0.38305 0.6409,0.67462 0,0 -1.4265,1.68338 -1.4265,1.68338 l 0,0 c -0.69313,-0.62036 -0.3553,-0.27175 -0.9987,-1.05996 -1.22559,-1.68532 -2.29527,-3.53084 -3.78509,-4.98859 -1.01101,-0.80262 -2.06209,-1.11583 -3.2214,-0.34714 -0.32142,0.2625 -0.72567,0.565 -0.78706,1.00662 -0.0119,0.0859 0.0277,0.17921 -0.004,0.26019 -0.0188,0.0488 -0.0867,0.0585 -0.13006,0.0877 0.11692,0.29841 0.0413,0.25428 0.59272,0.17933 1.6322,-0.22183 3.08253,-1.22119 4.50609,-1.96078 2.62107,-1.69396 5.26632,-3.37446 7.56151,-5.50841 0,0 1.43597,1.6753 1.43597,1.6753 z"
       inkscape:connector-curvature="0" />
    <path
       style="color:#000000;fill:#666666;fill-opacity:1;fill-rule:nonzero;stroke:none;stroke-width:1px;marker:none;visibility:visible;display:inline;overflow:visible;enable-background:accumulate"
       id="path3175"
       d="m 675.45196,387.85254 c 3.59701,0 7.19401,0 10.79102,0 2.07353,0 1.07184,-0.0345 3.0055,0.0904 0,0 -0.14603,2.20166 -0.14603,2.20166 l 0,0 c -1.7875,-0.12202 -0.83461,-0.0856 -2.85947,-0.0856 -3.59701,0 -7.19401,0 -10.79102,0 0,0 0,-2.2065 0,-2.2065 z"
       inkscape:connector-curvature="0" />
    <path
       style="color:#000000;fill:#666666;fill-opacity:1;fill-rule:nonzero;stroke:none;stroke-width:1px;marker:none;visibility:visible;display:inline;overflow:visible;enable-background:accumulate"
       id="path3177"
       d="m 676.09949,393.00104 c 3.39636,0.11047 6.77367,-0.20693 10.13663,-0.64329 1.74428,-0.32746 2.88941,-0.36552 4.6106,-0.044 0,0 -0.46774,2.15636 -0.46774,2.15636 l 0,0 c -1.29836,-0.34962 -2.53464,-0.13033 -3.85918,0.0759 -3.45699,0.44778 -6.92923,0.77191 -10.42031,0.66161 0,0 0,-2.2065 0,-2.2065 z"
       inkscape:connector-curvature="0" />
    <path
       style="color:#000000;fill:#666666;fill-opacity:1;fill-rule:nonzero;stroke:none;stroke-width:1px;marker:none;visibility:visible;display:inline;overflow:visible;enable-background:accumulate"
       id="path3179"
       d="m 704.62554,391.26777 c 0.9121,-1.06517 3.24366,-3.07118 2.15008,-4.66087 -1.01907,-0.35652 -2.03,0.58759 -2.67541,1.26211 -0.828,1.31941 -0.15449,2.54535 0.32596,3.86084 1.01826,2.07217 1.87284,4.17571 2.40875,6.42382 0.35825,1.83543 0.38574,3.94219 -0.73,5.556 -0.22464,0.32492 -0.52809,0.5876 -0.79214,0.8814 -2.31751,1.77565 -4.49203,1.50178 -6.96563,0.25002 -1.41719,-1.04195 -3.2955,-2.41089 -3.36521,-4.37876 -0.0145,-0.40946 0.11672,-0.81107 0.17508,-1.21661 1.1749,-2.45021 3.52619,-3.75004 5.8917,-4.84934 2.36814,-1.02208 4.90195,-1.32723 7.45699,-1.28074 2.4483,0.16919 4.89183,0.39132 7.34288,0.52115 1.16687,0.0483 0.62942,0.0664 1.61314,-0.0195 0,0 0.1672,2.20016 0.1672,2.20016 l 0,0 c -1.25133,0.0849 -0.61894,0.0759 -1.8972,0.0227 -2.42853,-0.12896 -4.85001,-0.34417 -7.27536,-0.5186 -2.21828,-0.0607 -4.42336,0.21055 -6.48459,1.07894 -1.761,0.80252 -3.49042,1.72533 -4.66017,3.32101 -0.66916,1.30033 1.22986,2.47493 2.05571,3.16306 1.43136,0.77769 2.91154,1.18125 4.36073,0.17113 1.25616,-1.10793 1.27412,-2.85337 0.95964,-4.39408 -0.50835,-2.16754 -1.37322,-4.17155 -2.33423,-6.17515 -0.84145,-2.30612 -1.4127,-4.0299 0.1953,-6.18645 1.41859,-1.35435 3.54723,-2.72592 5.49607,-1.38916 0.32583,0.2235 0.52288,0.5925 0.78431,0.88875 0.1256,0.40121 0.32553,0.78635 0.37678,1.20362 0.29427,2.3962 -1.65997,4.36146 -3.14441,5.93981 0,0 -1.43597,-1.6753 -1.43597,-1.6753 z"
       inkscape:connector-curvature="0" />
    <path
       style="color:#000000;fill:#666666;fill-opacity:1;fill-rule:nonzero;stroke:none;stroke-width:1px;marker:none;visibility:visible;display:inline;overflow:visible;enable-background:accumulate"
       id="path3181"
       d="m 731.75255,385.18047 c -1.64357,3.03413 -3.72849,5.75429 -6.35041,7.99652 -2.86311,2.03519 -4.11178,0.56553 -4.69682,-2.35911 -0.24477,-1.53549 -0.23317,-3.80519 1.86613,-3.91454 0.35245,-0.0184 0.69043,0.14683 1.03563,0.22024 2.11646,0.92054 3.84644,2.50612 5.44155,4.13828 1.41353,1.40531 2.44336,3.05847 3.27023,4.85144 0,0 -2.00402,0.92333 -2.00402,0.92333 l 0,0 c -0.72019,-1.56448 -1.60503,-3.01297 -2.84779,-4.23618 -1.32469,-1.36889 -2.76288,-2.68716 -4.4736,-3.55741 -0.0726,-0.0476 -0.21486,-0.0559 -0.21784,-0.14267 -0.004,-0.10721 0.16205,-0.15002 0.20439,-0.24858 0.0228,-0.0531 0.0234,-0.20499 -0.0238,-0.17171 -0.42197,0.29716 -0.0548,1.38494 -0.0833,1.72493 0.0739,0.41679 0.24288,0.81965 0.26218,1.24251 0.007,0.14525 -0.38764,0.24488 -0.27588,0.3379 0.31197,0.25966 1.11452,-0.68792 1.11465,-0.49024 2.41131,-2.0314 4.28715,-4.54334 5.8052,-7.30149 0,0 1.97355,0.98678 1.97355,0.98678 z"
       inkscape:connector-curvature="0" />
    <path
       style="color:#000000;fill:#666666;fill-opacity:1;fill-rule:nonzero;stroke:none;stroke-width:1px;marker:none;visibility:visible;display:inline;overflow:visible;enable-background:accumulate"
       id="path3183"
       d="m 746.94681,388.05477 c 2.6699,0.59604 5.39389,0.88829 8.11681,1.10682 0.36955,0.023 0.73911,0.046 1.10866,0.0689 0,0 -0.13727,2.20223 -0.13727,2.20223 l 0,0 c -0.38275,-0.0239 -0.76552,-0.0478 -1.14827,-0.0718 -2.82434,-0.22758 -5.64936,-0.53327 -8.41859,-1.15226 0,0 0.47866,-2.15396 0.47866,-2.15396 z"
       inkscape:connector-curvature="0" />
    <path
       style="color:#000000;fill:#666666;fill-opacity:1;fill-rule:nonzero;stroke:none;stroke-width:1px;marker:none;visibility:visible;display:inline;overflow:visible;enable-background:accumulate"
       id="path3185"
       d="m 746.05995,392.26554 c 3.1449,0 6.28979,0 9.43469,0 1.66457,0.24289 0.88963,0.0305 2.33608,0.59478 0,0 -0.86332,2.03059 -0.86332,2.03059 l 0,0 c -0.80646,-0.39965 -0.32731,-0.22386 -1.47276,-0.41887 -3.1449,0 -6.28979,0 -9.43469,0 0,0 0,-2.2065 0,-2.2065 z"
       inkscape:connector-curvature="0" />
    <path
       style="color:#000000;fill:#666666;fill-opacity:1;fill-rule:nonzero;stroke:none;stroke-width:1px;marker:none;visibility:visible;display:inline;overflow:visible;enable-background:accumulate"
       id="path3187"
       d="m 769.16809,378.88742 c 0.39473,4.28846 0.0489,8.58914 -0.30117,12.86658 -0.13371,1.29748 -0.18266,2.60574 -0.35358,3.89973 -0.0191,0.14482 0.0665,0.44197 -0.0792,0.43103 -0.77048,-0.0578 -1.49175,-0.40325 -2.23764,-0.60488 0,0 2.19283,-0.2453 2.19283,-0.2453 l 0,0 c -0.70722,0.14396 -1.40283,0.36741 -2.12167,0.43187 -0.0835,0.007 0.0408,-0.16307 0.0516,-0.24624 0.0357,-0.27467 0.0615,-0.55058 0.0881,-0.8263 0.0927,-0.96026 0.18161,-2.07377 0.26046,-3.01992 0.34033,-4.15654 0.68453,-8.33584 0.30143,-12.50334 0,0 2.19888,-0.18323 2.19888,-0.18323 z"
       inkscape:connector-curvature="0" />
    <path
       style="color:#000000;fill:#666666;fill-opacity:1;fill-rule:nonzero;stroke:none;stroke-width:1px;marker:none;visibility:visible;display:inline;overflow:visible;enable-background:accumulate"
       id="path3189"
       d="m 766.62414,388.94009 c 2.61307,-1.99843 5.14291,-4.11907 7.90018,-5.91851 0.37081,-0.20333 0.74163,-0.40667 1.11245,-0.61 0,0 1.05575,1.93753 1.05575,1.93753 l 0,0 c -0.32151,0.17391 -0.64304,0.34784 -0.96455,0.52175 -2.70975,1.75853 -5.18025,3.85763 -7.74916,5.81094 0,0 -1.35467,-1.74171 -1.35467,-1.74171 z"
       inkscape:connector-curvature="0" />
    <path
       style="color:#000000;fill:#666666;fill-opacity:1;fill-rule:nonzero;stroke:none;stroke-width:1px;marker:none;visibility:visible;display:inline;overflow:visible;enable-background:accumulate"
       id="path3191"
       d="m 771.55295,385.65906 c 2.44047,1.81053 4.60844,3.95694 6.50598,6.32451 0.72253,0.8897 0.38133,0.5223 0.99085,1.13169 0,0 -1.5742,1.54614 -1.5742,1.54614 l 0,0 c -0.74878,-0.77245 -0.36333,-0.3434 -1.14082,-1.30093 -1.77256,-2.22863 -3.81948,-4.23399 -6.10571,-5.93621 0,0 1.3239,-1.7652 1.3239,-1.7652 z"
       inkscape:connector-curvature="0" />
    <path
       style="color:#000000;fill:#666666;fill-opacity:1;fill-rule:nonzero;stroke:none;stroke-width:1px;marker:none;visibility:visible;display:inline;overflow:visible;enable-background:accumulate"
       id="path3193"
       d="m 638.80793,415.76594 c -0.35471,5.02336 -1.10948,10.00898 -1.7548,15.00093 -0.31414,2.32991 -0.72762,4.64433 -1.10084,6.96482 -0.0569,0.35406 -0.11632,0.70813 -0.1538,1.06478 -0.003,0.0265 0.06,0.0795 0.0343,0.0723 -0.68985,-0.19254 -1.36833,-0.4237 -2.0525,-0.63556 0,0 2.13789,0.546 2.13789,0.546 l 0,0 c -0.76144,0.0907 -1.52387,0.37083 -2.28432,0.27217 -0.18887,-0.0245 -0.0352,-0.38126 -0.0191,-0.57104 0.0319,-0.37557 0.10253,-0.74689 0.16234,-1.11902 0.36834,-2.29141 0.77706,-4.57673 1.08774,-6.87733 0.64182,-4.96431 1.39337,-9.92223 1.74565,-14.9178 0,0 2.19744,0.19976 2.19744,0.19976 z"
       inkscape:connector-curvature="0" />
    <path
       style="color:#000000;fill:#666666;fill-opacity:1;fill-rule:nonzero;stroke:none;stroke-width:1px;marker:none;visibility:visible;display:inline;overflow:visible;enable-background:accumulate"
       id="path3195"
       d="m 634.23879,415.52935 c 2.69541,-1.65259 5.75419,-1.96254 8.83854,-1.80455 1.69399,0.22794 3.92962,0.92129 4.1191,2.96962 0.0342,0.36941 -0.0993,0.7353 -0.1489,1.10295 -1.09664,2.09854 -3.30815,2.928 -5.47576,3.4927 -1.27744,0.27384 -1.90023,0.8938 -0.90451,-1.80422 0.0679,-0.18388 0.3918,0.0135 0.58777,0.0172 0.22587,0.004 0.4518,0.004 0.6777,0.007 1.89049,0.0868 3.47139,0.62082 4.73528,2.05286 1.44976,2.46351 0.94244,3.71116 -1.09246,5.57666 -2.42892,1.89245 -5.39017,2.60298 -8.36617,3.0834 -1.05807,0.17586 -2.02178,0.004 -3.01719,-0.32548 0,0 0.75154,-2.07457 0.75154,-2.07457 l 0,0 c 0.6258,0.27197 1.22972,0.31514 1.91638,0.22137 2.56661,-0.40833 5.14567,-0.97193 7.26641,-2.56875 1.03735,-0.82842 1.51943,-1.20946 0.84223,-2.50509 -0.72155,-1.00529 -1.89389,-1.13975 -3.05846,-1.25402 -0.32526,-0.004 -1.39631,-0.0105 -1.41062,-0.0302 -1.75739,-2.4089 -1.02846,-2.15085 0.52407,-2.53326 1.41139,-0.35481 2.76045,-0.85198 3.86922,-1.83121 0.076,-0.10926 0.28555,-0.17901 0.25375,-0.30824 -0.20522,-0.83403 -1.57647,-0.9564 -2.18667,-1.08509 -2.62899,-0.14591 -5.24589,0.065 -7.5518,1.47228 0,0 -1.16945,-1.87111 -1.16945,-1.87111 z"
       inkscape:connector-curvature="0" />
    <path
       style="color:#000000;fill:#666666;fill-opacity:1;fill-rule:nonzero;stroke:none;stroke-width:1px;marker:none;visibility:visible;display:inline;overflow:visible;enable-background:accumulate"
       id="path3197"
       d="m 652.81935,419.10839 c 2.91644,-1.74345 5.53033,-3.89033 7.78106,-6.43 1.22846,-1.72388 1.02013,-1.36934 -0.28284,-1.74227 -1.45216,-0.13983 -2.64827,0.54684 -3.42804,1.72982 -1.41365,2.23343 -1.50466,4.95852 -1.67618,7.52014 -0.0583,4.13598 0.41154,8.2468 0.77601,12.35905 0.44322,3.84409 0.52634,7.65374 -0.58246,11.38239 -0.74296,1.80236 -2.0228,3.89405 -4.30876,3.47324 -0.35187,-0.0648 -0.66684,-0.25952 -1.00027,-0.38928 -1.20922,-0.82923 -2.58408,-2.21175 -2.64176,-3.80516 -0.0134,-0.37051 0.095,-0.7354 0.14254,-1.1031 0.58574,-1.28018 0.24791,-0.66523 1.01318,-1.84502 0,0 1.84119,1.21599 1.84119,1.21599 l 0,0 c -0.53685,0.79345 -0.3082,0.41839 -0.70209,1.11518 -0.60781,0.63232 0.79616,2.04447 1.26718,2.41667 1.2799,0.90871 1.76493,-0.75802 2.27675,-1.71722 1.06295,-3.44613 0.87806,-6.99419 0.49661,-10.54892 -0.37445,-4.22614 -0.85672,-8.45179 -0.77961,-12.70253 0.20333,-2.98501 0.38706,-6.10023 2.09292,-8.66886 1.61214,-2.09905 3.25681,-2.91701 5.9273,-2.52 3.02591,1.12716 3.05776,2.891 1.21665,5.29675 -2.40908,2.69703 -5.18104,5.00164 -8.29414,6.85519 0,0 -1.13524,-1.89206 -1.13524,-1.89206 z"
       inkscape:connector-curvature="0" />
    <path
       style="color:#000000;fill:#666666;fill-opacity:1;fill-rule:nonzero;stroke:none;stroke-width:1px;marker:none;visibility:visible;display:inline;overflow:visible;enable-background:accumulate"
       id="path3199"
       d="m 651.80619,425.28054 c 2.60506,-0.32569 5.13652,-0.98172 7.63282,-1.77333 0,0 0.66681,2.10333 0.66681,2.10333 l 0,0 c -2.64173,0.83726 -5.32317,1.52527 -8.08007,1.86555 0,0 -0.21956,-2.19555 -0.21956,-2.19555 z"
       inkscape:connector-curvature="0" />
    <path
       style="color:#000000;fill:#666666;fill-opacity:1;fill-rule:nonzero;stroke:none;stroke-width:1px;marker:none;visibility:visible;display:inline;overflow:visible;enable-background:accumulate"
       id="path3201"
       d="m 671.88425,421.77899 c 2.87739,0.292 5.7656,0.44968 8.6549,0.56011 0.39141,0.0116 0.78282,0.0232 1.17424,0.0349 0,0 -0.0655,2.20552 -0.0655,2.20552 l 0,0 c -0.39767,-0.0118 -0.79536,-0.0237 -1.19304,-0.0355 -2.93444,-0.11237 -5.86776,-0.27284 -8.79011,-0.56945 0,0 0.21955,-2.19555 0.21955,-2.19555 z"
       inkscape:connector-curvature="0" />
    <path
       style="color:#000000;fill:#666666;fill-opacity:1;fill-rule:nonzero;stroke:none;stroke-width:1px;marker:none;visibility:visible;display:inline;overflow:visible;enable-background:accumulate"
       id="path3203"
       d="m 673.89299,424.62754 c 2.63129,0 5.26258,0 7.89387,0 0.34519,0.031 0.69038,0.0619 1.03556,0.0929 0,0 -0.20739,2.19674 -0.20739,2.19674 l 0,0 c -0.27606,-0.0277 -0.55211,-0.0554 -0.82817,-0.0831 -2.63129,0 -5.26258,0 -7.89387,0 0,0 0,-2.2065 0,-2.2065 z"
       inkscape:connector-curvature="0" />
    <path
       style="color:#000000;fill:#666666;fill-opacity:1;fill-rule:nonzero;stroke:none;stroke-width:1px;marker:none;visibility:visible;display:inline;overflow:visible;enable-background:accumulate"
       id="path3205"
       d="m 699.8522,417.08293 c -0.52882,4.22246 -1.23629,8.40377 -2.26665,12.53337 -0.38546,1.59588 -0.84318,3.17023 -1.36388,4.72635 0,0 -2.09185,-0.702 -2.09185,-0.702 l 0,0 c 0.50503,-1.5002 0.94152,-3.02037 1.31506,-4.55931 1.00952,-4.03307 1.6954,-8.118 2.21432,-12.24208 0,0 2.193,0.24367 2.193,0.24367 z"
       inkscape:connector-curvature="0" />
    <path
       style="color:#000000;fill:#666666;fill-opacity:1;fill-rule:nonzero;stroke:none;stroke-width:1px;marker:none;visibility:visible;display:inline;overflow:visible;enable-background:accumulate"
       id="path3207"
       d="m 692.15865,414.24931 c 2.90774,-0.29361 5.82845,-0.55655 8.75251,-0.48314 1.7426,0.18179 3.92047,0.77842 4.40768,2.74826 0.0848,0.34294 0.0403,0.70538 0.0605,1.05807 -0.47787,2.49412 -2.55658,3.6192 -4.78921,4.30731 -0.40299,0.0529 -0.80284,0.14278 -1.20897,0.15879 -0.2639,0.0104 -2.476,-0.0233 -2.58425,-0.58499 -0.38887,-2.01769 -0.1786,-1.8416 0.95884,-2.38479 1.48338,-0.38396 3.03274,-0.34519 4.55369,-0.35026 2.11762,0.11985 3.20755,1.02883 3.92164,2.973 0.44177,2.75402 -1.77746,3.76257 -4.00672,4.44018 -2.60671,0.67964 -5.31867,0.49118 -7.96791,0.79665 -0.17781,0.0383 -0.35563,0.0767 -0.53345,0.11497 0,0 -0.44617,-2.16093 -0.44617,-2.16093 l 0,0 c 0.24501,-0.049 0.49002,-0.098 0.73502,-0.14694 2.52561,-0.27373 5.09942,-0.13407 7.59052,-0.72077 0.81536,-0.22865 2.46584,-0.55396 2.54192,-1.60626 -0.28987,-0.96734 -0.74662,-1.44923 -1.82766,-1.48342 -1.25432,0.004 -2.52163,-0.0175 -3.76131,0.20031 -0.65857,-0.0804 -0.0385,0.0379 -0.54841,-1.51688 -0.008,-0.0242 -0.0929,0.0232 -0.0691,0.0324 0.15696,0.0613 0.32219,0.10218 0.48817,0.13106 0.23038,0.0401 0.46363,0.0762 0.69746,0.0752 0.27988,-10e-4 0.55711,-0.0545 0.83568,-0.0817 1.28976,-0.36819 2.68051,-0.87595 3.21405,-2.22824 0.40261,-1.20714 -1.55662,-1.47519 -2.32175,-1.56538 -2.8221,-0.0829 -5.64233,0.19763 -8.44905,0.47046 0,0 -0.24366,-2.193 -0.24366,-2.193 z"
       inkscape:connector-curvature="0" />
    <path
       style="color:#000000;fill:#666666;fill-opacity:1;fill-rule:nonzero;stroke:none;stroke-width:1px;marker:none;visibility:visible;display:inline;overflow:visible;enable-background:accumulate"
       id="path3209"
       d="m 712.20178,423.61985 c 1.43752,-1.10699 3.58302,-2.67002 3.62277,-4.67872 -0.34176,-0.65576 -1.43243,-0.41341 -2.01594,-0.18594 -0.97199,0.57891 -0.97548,1.46657 -0.82972,2.48153 0.71405,2.49504 1.28938,5.02911 1.72884,7.58641 0.42981,3.16184 0.79895,6.36152 0.36107,9.53737 -1.23932,3.57271 -3.17571,3.69007 -6.28976,2.13134 -2.09522,-1.2928 -3.78909,-2.98344 -4.55219,-5.34643 -0.0881,-2.92241 2.27255,-4.70982 4.46201,-6.22033 2.85597,-1.76726 6.12286,-2.33979 9.40552,-2.67852 1.7122,-0.11965 0.8938,-0.1077 2.45472,-0.0592 0,0 -0.0807,2.20502 -0.0807,2.20502 l 0,0 c -1.30303,-0.0569 -0.58649,-0.0585 -2.14906,0.0492 -2.91544,0.29651 -5.83222,0.76267 -8.38545,2.30522 -1.42687,0.96429 -3.03285,2.05389 -3.59015,3.77606 0.43477,1.79868 1.9869,3.00143 3.44326,4.00616 1.50632,0.8 2.28994,1.51274 3.09771,-0.4819 0.44227,-2.94073 0.01,-5.92154 -0.3518,-8.85172 -0.44343,-2.60176 -1.06523,-5.16546 -1.74689,-7.71414 -0.20638,-2.23555 0.23442,-3.78026 2.36547,-4.83242 2.30108,-0.63698 4.52749,-0.18911 4.86261,2.56564 -0.0679,0.39674 -0.0785,0.80764 -0.20358,1.19023 -0.70568,2.15918 -2.6841,3.8024 -4.43925,5.08625 0,0 -1.16945,-1.8711 -1.16945,-1.8711 z"
       inkscape:connector-curvature="0" />
    <path
       style="color:#000000;fill:#666666;fill-opacity:1;fill-rule:nonzero;stroke:none;stroke-width:1px;marker:none;visibility:visible;display:inline;overflow:visible;enable-background:accumulate"
       id="path3211"
       d="m 734.18218,420.86754 c 3.0492,-0.30132 6.12486,-0.12116 9.18209,-0.0369 0.40357,-0.0178 0.80713,-0.0356 1.21068,-0.0534 0,0 0.0924,2.20457 0.0924,2.20457 l 0,0 c -0.45464,0.0182 -0.90927,0.0363 -1.36391,0.0545 -2.96365,-0.0817 -5.94574,-0.26097 -8.90169,0.0267 0,0 -0.21956,-2.19555 -0.21956,-2.19555 z"
       inkscape:connector-curvature="0" />
    <path
       style="color:#000000;fill:#666666;fill-opacity:1;fill-rule:nonzero;stroke:none;stroke-width:1px;marker:none;visibility:visible;display:inline;overflow:visible;enable-background:accumulate"
       id="path3213"
       d="m 734.20398,424.62754 c 3.23592,0.14772 6.43146,0.45316 9.57015,1.26859 1.93974,0.83333 1.02349,0.36333 2.75714,1.39354 0,0 -1.13877,1.88994 -1.13877,1.88994 l 0,0 c -1.38037,-0.846 -0.65624,-0.4603 -2.17675,-1.1488 -2.95418,-0.77855 -5.96533,-1.04219 -9.01177,-1.19677 0,0 0,-2.2065 0,-2.2065 z"
       inkscape:connector-curvature="0" />
    <path
       style="color:#000000;fill:#666666;fill-opacity:1;fill-rule:nonzero;stroke:none;stroke-width:1px;marker:none;visibility:visible;display:inline;overflow:visible;enable-background:accumulate"
       id="path3215"
       d="m 754.719,419.87166 c 2.28138,-2.3302 4.25102,-4.9555 5.75754,-7.84804 0.64714,-1.2623 0.31395,-1.75043 2.30042,0.21897 0.1243,0.12323 -0.12439,0.3276 -0.17382,0.49551 -0.20557,0.69823 -0.23294,0.96452 -0.37325,1.71603 -0.38265,2.93722 -0.85485,5.86115 -1.46192,8.7604 -0.41897,2.38156 -1.06051,4.6963 -3.27269,5.94029 -1.56709,0.37866 -3.3381,-0.52539 -1.74335,-2.32285 0.30704,-0.34605 1.58602,-0.34345 1.91607,-0.36597 2.55626,-0.004 5.05724,0.64132 7.60656,0.73372 0.63547,-0.0259 0.38842,0.0178 0.75011,-0.0617 0,0 0.36168,2.17666 0.36168,2.17666 l 0,0 c -0.70287,0.10244 -0.30366,0.0619 -1.20043,0.0898 -2.48938,-0.10834 -4.93306,-0.6761 -7.42498,-0.73389 -0.18766,-10e-4 -0.37532,-0.003 -0.56297,-0.004 -0.0744,-1.9e-4 -0.22045,0.076 -0.22318,0.001 -0.0138,-0.37731 0.27682,-0.75244 0.18217,-1.11795 -0.0719,-0.27768 -0.63573,-0.74337 -0.72112,-0.46954 -0.0123,0.0394 0.0485,0.0667 0.0727,0.1001 1.6406,-0.52504 1.71533,-3.09793 2.09991,-4.41976 0.60651,-2.88494 1.06689,-5.79609 1.45353,-8.71836 0.0427,-0.22211 0.55532,-2.76474 0.73757,-2.7796 3.01511,-0.24583 2.25188,0.48806 1.63177,1.78352 -1.64454,3.12684 -3.76274,5.98196 -6.25936,8.48519 0,0 -1.45298,-1.66056 -1.45298,-1.66056 z"
       inkscape:connector-curvature="0" />
    <path
       style="color:#000000;fill:#666666;fill-opacity:1;fill-rule:nonzero;stroke:none;stroke-width:1px;marker:none;visibility:visible;display:inline;overflow:visible;enable-background:accumulate"
       id="path3217"
       d="m 770.55492,426.61057 c 0,2.90858 0,5.81715 0,8.72573 0.0266,0.19781 0.0533,0.39562 0.08,0.59343 0.011,-0.0159 0.022,-0.0317 0.0329,-0.0476 0,0 -2.0135,0.9025 -2.0135,0.9025 l 0,0 c -0.30658,-0.86086 -0.18676,-0.3822 -0.30592,-1.44833 0,-2.90857 0,-5.81714 0,-8.72572 0,0 2.2065,0 2.2065,0 z"
       inkscape:connector-curvature="0" />
    <path
       style="color:#000000;fill:#666666;fill-opacity:1;fill-rule:nonzero;stroke:none;stroke-width:1px;marker:none;visibility:visible;display:inline;overflow:visible;enable-background:accumulate"
       id="path3227"
       d="m 635.12821,454.59342 c -0.36431,4.65155 -1.04957,9.2726 -1.75622,13.88257 -0.36806,1.67567 -0.30574,3.49594 -1.01295,5.0837 0,0 -1.94973,-1.03305 -1.94973,-1.03305 l 0,0 c 0.35372,-1.3016 0.57859,-2.9748 0.78166,-4.38499 0.70212,-4.57986 1.38327,-9.1706 1.74424,-13.79189 0,0 2.193,0.24366 2.193,0.24366 z"
       inkscape:connector-curvature="0" />
    <path
       style="color:#000000;fill:#666666;fill-opacity:1;fill-rule:nonzero;stroke:none;stroke-width:1px;marker:none;visibility:visible;display:inline;overflow:visible;enable-background:accumulate"
       id="path3229"
       d="m 633.4187,453.96503 c 2.02578,0.0411 4.94426,-0.32265 6.52124,1.32016 0.23755,0.24747 0.35764,0.58547 0.53645,0.8782 -0.009,0.37139 0.0979,0.76386 -0.0257,1.11417 -0.53496,1.51579 -2.60095,1.95678 -3.93705,2.32683 -0.11867,0.0371 -0.3752,0.23424 -0.35602,0.11139 0.1024,-0.65565 0.23958,-1.35324 0.6334,-1.88733 0.13048,-0.17697 0.42442,0.11617 0.63975,0.16064 1.01115,0.20885 1.996,0.38825 2.9947,0.66373 1.56134,0.57765 3.48118,0.85043 4.76582,2.00798 0.24264,0.21863 0.42256,0.49814 0.63384,0.74721 0.10949,0.33074 0.3095,0.64434 0.32848,0.99222 0.14181,2.60007 -3.03051,3.69305 -4.92062,4.45683 -3.85915,1.26706 -7.90239,1.64595 -11.93756,1.3825 -1.31301,-0.24316 -4.06235,-0.50075 -3.57261,-2.63268 0.10993,-0.47853 0.58906,-0.7857 0.88358,-1.17854 0,0 1.52399,1.59565 1.52399,1.59565 l 0,0 c -0.56579,-0.3178 0.23351,0.167 -0.63023,-0.63091 -0.0348,-0.0321 -0.028,0.11947 0.0139,0.14146 0.50785,0.26597 1.42981,0.40112 1.93012,0.50355 3.70379,0.25979 7.41724,-0.10029 10.96789,-1.22913 1.17985,-0.46852 2.89339,-0.99699 3.65689,-2.06508 -0.6324,-1.20581 -3.07645,-1.48931 -4.23545,-1.96544 -0.34302,-0.0966 -3.76283,-0.85839 -3.76689,-0.86579 -1.2334,-2.25109 -1.20136,-2.10647 -0.14084,-2.43502 0.2555,-0.0705 1.04154,-0.2836 1.27281,-0.36323 0.33831,-0.11648 0.62769,-0.37093 0.97849,-0.44135 0.16167,-0.0324 0.2049,0.49316 0.28953,0.4011 0.1822,-0.0771 0.31718,-0.0913 -0.15287,-0.33762 -0.58543,-0.30679 -1.48312,-0.44951 -2.10228,-0.5201 -1.09542,-0.1249 -1.49851,-0.0808 -2.57322,-0.0558 0,0 -0.21956,-2.19554 -0.21956,-2.19554 z"
       inkscape:connector-curvature="0" />
    <path
       style="color:#000000;fill:#666666;fill-opacity:1;fill-rule:nonzero;stroke:none;stroke-width:1px;marker:none;visibility:visible;display:inline;overflow:visible;enable-background:accumulate"
       id="path3231"
       d="m 652.13944,454.64755 c 0.09,4.02588 -0.0599,8.04031 -0.33567,12.05561 0.003,0.21386 -0.44412,3.25908 -0.66942,3.32001 -2.33759,0.63223 -2.34503,-0.11209 -2.59403,-1.73088 -0.0963,-1.90888 1.0848,-3.32354 2.24083,-4.70187 1.63779,-2.11953 3.50127,-4.0506 5.42802,-5.90667 0.10268,-0.14577 2.39081,-2.42434 2.44768,-2.34795 1.43546,1.928 1.43679,1.62896 0.43578,2.4679 -1.34719,1.08203 -2.79518,2.02431 -4.19287,3.0359 0.37207,-0.0717 0.30427,-1.06461 0.35569,-1.03417 0.54476,0.32236 0.99933,0.93792 1.42483,1.39093 1.30395,1.39974 2.42304,2.96075 3.53487,4.514 0,0 -1.79527,1.28284 -1.79527,1.28284 l 0,0 c -1.05234,-1.47551 -2.11554,-2.95652 -3.34907,-4.28745 -0.94183,-1.00596 -2.93569,-2.13578 -1.4609,-3.65638 1.36029,-0.97641 2.75828,-1.90009 4.07169,-2.94202 1.1511,-0.95156 0.687,-0.93473 2.35073,0.95376 0.0608,0.069 -0.14786,0.1098 -0.21724,0.1702 -0.37559,0.32702 -0.89295,0.82168 -1.22299,1.1544 -0.28887,0.29122 -0.56831,0.59166 -0.85247,0.88749 -1.87213,1.80183 -3.68117,3.67731 -5.26982,5.73745 -0.731,0.86647 -1.65958,1.78861 -1.7447,2.97292 0.13205,1.08442 0.14326,1.00959 -1.65764,1.26715 -0.1255,0.0179 0.11326,-0.2288 0.14553,-0.35141 0.20873,-0.79319 0.277,-1.52708 0.38946,-2.34742 0.27257,-3.96501 0.42054,-7.92882 0.33048,-11.90434 0,0 2.2065,0 2.2065,0 z"
       inkscape:connector-curvature="0" />
    <path
       style="color:#000000;fill:#666666;fill-opacity:1;fill-rule:nonzero;stroke:none;stroke-width:1px;marker:none;visibility:visible;display:inline;overflow:visible;enable-background:accumulate"
       id="path3233"
       d="m 673.89299,457.72503 c 3.09699,0 6.19397,0 9.29095,0 1.27557,-0.0251 2.54062,-0.0109 3.81146,0.0919 0,0 -0.18559,2.19868 -0.18559,2.19868 l 0,0 c -1.20843,-0.10699 -2.41249,-0.0981 -3.62587,-0.0841 -3.09698,0 -6.19396,0 -9.29095,0 0,0 0,-2.2065 0,-2.2065 z"
       inkscape:connector-curvature="0" />
    <path
       style="color:#000000;fill:#666666;fill-opacity:1;fill-rule:nonzero;stroke:none;stroke-width:1px;marker:none;visibility:visible;display:inline;overflow:visible;enable-background:accumulate"
       id="path3235"
       d="m 672.42199,462.13803 c 3.24466,0 6.48932,0 9.73399,0 1.30523,-0.047 2.60349,-0.19103 3.90146,-0.32707 0,0 0.2298,2.1945 0.2298,2.1945 l 0,0 c -1.37428,0.14379 -2.749,0.29529 -4.13126,0.33907 -3.24467,0 -6.48933,0 -9.73399,0 0,0 0,-2.2065 0,-2.2065 z"
       inkscape:connector-curvature="0" />
    <path
       style="color:#000000;fill:#666666;fill-opacity:1;fill-rule:nonzero;stroke:none;stroke-width:1px;marker:none;visibility:visible;display:inline;overflow:visible;enable-background:accumulate"
       id="path3237"
       d="m 707.18918,454.41342 c -2.53209,3.18751 -5.6178,5.90003 -8.78908,8.43389 -1.51532,1.0577 -3.73041,2.04217 -4.86029,-0.16162 -0.44891,-0.87559 -0.23001,-1.89719 -0.14853,-2.80092 0.32754,-1.6753 0.83103,-3.88908 2.51573,-4.76899 0.29474,-0.15394 0.63309,-0.20366 0.94963,-0.30549 0.39227,0.0826 0.80469,0.0988 1.1768,0.24789 1.19691,0.4796 3.34528,2.69209 4.31595,3.59987 1.61905,1.54769 3.42715,2.83303 4.68112,4.71379 0.49688,1.03487 0.26262,0.56053 0.69821,1.42526 0,0 -1.97138,0.99112 -1.97138,0.99112 l 0,0 c -0.41745,-0.83174 -0.22736,-0.42732 -0.575,-1.211 -1.10938,-1.75611 -2.91559,-2.83053 -4.34029,-4.30777 -0.83827,-0.78432 -1.67296,-1.5712 -2.55598,-2.30564 -0.33588,-0.27935 -0.77981,-0.46315 -1.01128,-0.83365 -0.0304,-0.0486 0.0346,-0.10934 0.0518,-0.16401 -0.74339,-0.50289 -1.74215,2.67922 -1.74245,3.16336 -0.042,0.28829 -0.0927,0.57543 -0.12596,0.86485 -0.0207,0.17949 0.0308,0.3728 -0.0356,0.54084 -0.0363,0.092 -0.21039,0.0753 -0.24456,0.16814 -0.23281,0.63272 2.33745,-0.50812 1.84563,-0.5806 3.03808,-2.42194 5.99563,-5.01736 8.42378,-8.06398 0,0 1.74171,1.35466 1.74171,1.35466 z"
       inkscape:connector-curvature="0" />
    <path
       style="color:#000000;fill:#666666;fill-opacity:1;fill-rule:nonzero;stroke:none;stroke-width:1px;marker:none;visibility:visible;display:inline;overflow:visible;enable-background:accumulate"
       id="path3239"
       d="m 631.11216,484.1218 c 2.87942,-0.63825 4.93468,-2.03706 6.94531,-4.12296 0.38036,-0.54867 1.90371,-2.17111 1.62598,-2.97274 -0.033,-0.0951 -0.17945,0.0925 -0.27407,0.12683 -1.05425,-0.21192 -2.05762,1.08423 -2.63368,1.81188 -1.35723,2.71003 -1.36513,5.85488 -1.49451,8.81934 -0.0534,4.68425 -0.22848,9.36742 -0.61756,14.03632 -0.51699,2.64138 -0.44,5.77924 -2.0587,8.08513 -0.21473,0.30588 -0.50675,0.54945 -0.76013,0.82418 -0.38013,0.14943 -0.73283,0.4215 -1.1404,0.44831 -2.42256,0.15939 -3.26735,-2.73295 -3.77812,-4.52566 -0.23013,-0.89176 -0.36046,-1.77047 -0.37651,-2.68669 0,0 2.20648,0.008 2.20648,0.008 l 0,0 c -0.0325,0.71122 0.16583,1.38672 0.29485,2.08347 0.29427,1.07472 0.69917,2.17723 1.23011,3.11528 1.88829,-1.60314 1.68322,-5.33633 2.1836,-7.53622 0.38897,-4.63983 0.55647,-9.29429 0.612,-13.94939 0.15214,-3.4416 0.20011,-7.07573 1.9972,-10.12708 1.46127,-1.72059 3.44694,-3.42625 5.75528,-2.09624 0.24844,0.26167 0.57208,0.46849 0.74531,0.78501 1.03079,1.8833 -0.88685,3.93428 -1.93358,5.2864 -2.43098,2.49086 -4.82668,4.05834 -8.28519,4.77941 0,0 -0.24367,-2.19301 -0.24367,-2.19301 z"
       inkscape:connector-curvature="0" />
    <path
       style="color:#000000;fill:#666666;fill-opacity:1;fill-rule:nonzero;stroke:none;stroke-width:1px;marker:none;visibility:visible;display:inline;overflow:visible;enable-background:accumulate"
       id="path3241"
       d="m 621.84845,495.23553 c 3.87657,-0.1789 7.68448,-1.00324 11.51677,-1.56652 1.53475,-0.32291 3.13473,-0.26337 4.67288,-0.55102 0.11758,-0.022 -0.23373,0.0662 -0.33378,0.13177 0,0 1.58198,1.53817 1.58198,1.53817 l 0,0 c -1.51621,1.17909 -3.85297,0.52489 -5.60031,1.06414 -3.93819,0.57848 -7.85162,1.4293 -11.83754,1.58996 0,0 0,-2.2065 0,-2.2065 z"
       inkscape:connector-curvature="0" />
    <path
       style="color:#000000;fill:#666666;fill-opacity:1;fill-rule:nonzero;stroke:none;stroke-width:1px;marker:none;visibility:visible;display:inline;overflow:visible;enable-background:accumulate"
       id="path3243"
       d="m 646.99094,487.83302 c 0.0701,5.52084 -0.22559,11.03651 -0.4439,16.55122 -0.0236,0.62053 -0.12127,3.2456 -0.15922,4.07124 -0.0141,0.30679 0.25447,0.89192 -0.0513,0.91991 -2.65126,0.24271 -2.24409,-0.5435 -2.27664,-2.05255 0,0 2.20602,-0.046 2.20602,-0.046 l 0,0 c 0.0287,1.42948 0.44156,2.17264 -2.13243,1.97524 -0.295,-0.0226 0.0362,-0.59065 0.0497,-0.8862 0.038,-0.82689 0.1356,-3.44995 0.15913,-4.06892 0.21716,-5.48564 0.51217,-10.97221 0.44216,-16.46394 0,0 2.2065,0 2.2065,0 z"
       inkscape:connector-curvature="0" />
    <path
       style="color:#000000;fill:#666666;fill-opacity:1;fill-rule:nonzero;stroke:none;stroke-width:1px;marker:none;visibility:visible;display:inline;overflow:visible;enable-background:accumulate"
       id="path3245"
       d="m 644.24395,486.19212 c 2.88142,-0.87854 5.78974,-1.55385 8.7965,-1.09591 1.72463,0.47303 3.65872,2.06647 2.57217,4.06603 -0.19436,0.35768 -0.54676,0.60323 -0.82013,0.90484 -1.74774,1.16498 -3.87097,1.31455 -5.9077,1.46569 -1.13491,0.0702 -1.30846,0.32048 -0.27584,-2.1578 0.0199,-0.0477 1.66443,-0.007 2.31673,-0.009 2.05667,0.0875 4.0398,0.67906 5.82244,1.69361 2.39461,1.92363 1.28292,3.59631 -0.62719,5.27818 -2.60732,1.7159 -5.66003,2.17832 -8.717,2.21843 -1.07914,-0.243 -2.60208,-0.0606 -3.56082,-0.76155 -0.21905,-0.16014 -0.38155,-0.38591 -0.57233,-0.57886 0,0 1.89814,-1.12505 1.89814,-1.12505 l 0,0 c -0.13627,-0.10101 -0.28586,-0.18619 -0.40884,-0.30303 -0.0557,-0.053 0.13109,0.0829 0.20369,0.10812 0.19151,0.0666 0.38755,0.12083 0.58514,0.16638 0.78378,0.18067 1.01625,0.187 1.83043,0.28763 2.53721,-0.0227 5.08614,-0.35778 7.30506,-1.68689 0.58493,-0.48313 1.77032,-0.99633 0.95132,-1.69778 -1.41458,-0.85722 -3.05807,-1.28259 -4.70101,-1.39271 -0.62016,0.002 -2.30315,0.0735 -2.33539,0.009 -1.19186,-2.37128 -1.04237,-2.16746 0.1229,-2.24919 1.5454,-0.11364 3.16301,-0.19887 4.57712,-0.88972 0.13899,-0.0469 0.31556,-0.0154 0.42549,-0.11251 0.49867,-0.4407 -0.85696,-1.04244 -1.04042,-1.05624 -2.65624,-0.47531 -5.25748,0.31322 -7.80643,1.03178 0,0 -0.63403,-2.11345 -0.63403,-2.11345 z"
       inkscape:connector-curvature="0" />
    <path
       style="color:#000000;fill:#666666;fill-opacity:1;fill-rule:nonzero;stroke:none;stroke-width:1px;marker:none;visibility:visible;display:inline;overflow:visible;enable-background:accumulate"
       id="path3247"
       d="m 670.21549,489.35153 c 3.17143,0.10368 6.3268,-0.0915 9.48657,-0.32995 1.72853,-0.13702 3.45926,-0.24011 5.19119,-0.32159 0,0 0.10358,2.20407 0.10358,2.20407 l 0,0 c -1.71111,0.0803 -3.421,0.18242 -5.12874,0.31777 -3.21488,0.24259 -6.42599,0.4391 -9.6526,0.3362 0,0 0,-2.2065 0,-2.2065 z"
       inkscape:connector-curvature="0" />
    <path
       style="color:#000000;fill:#666666;fill-opacity:1;fill-rule:nonzero;stroke:none;stroke-width:1px;marker:none;visibility:visible;display:inline;overflow:visible;enable-background:accumulate"
       id="path3249"
       d="m 669.3516,493.60999 c 3.62097,-0.65497 7.29464,-0.92796 10.96308,-1.14897 1.56145,0.0128 3.18226,-0.0572 4.64017,0.5653 0,0 -0.99259,1.97064 -0.99259,1.97064 l 0,0 c -0.25395,-0.40435 -3.13042,-0.28063 -3.51502,-0.33343 -3.56771,0.21453 -7.14065,0.47747 -10.66291,1.11012 0,0 -0.43273,-2.16366 -0.43273,-2.16366 z"
       inkscape:connector-curvature="0" />
    <path
       style="color:#000000;fill:#666666;fill-opacity:1;fill-rule:nonzero;stroke:none;stroke-width:1px;marker:none;visibility:visible;display:inline;overflow:visible;enable-background:accumulate"
       id="path3251"
       d="m 693.3854,491.32744 c 1.04251,-1.47343 2.72569,-3.1431 2.49344,-5.10275 0.0128,-0.2797 -0.96033,-0.49809 -0.71841,-0.13611 -0.33738,0.98201 -0.10803,1.53816 0.3636,2.43236 1.22422,2.34701 2.27352,4.7656 3.12835,7.26999 0.89705,2.96704 1.28055,5.55013 0.23761,8.51658 -1.83372,2.96701 -3.75712,3.13121 -6.85193,1.99205 -2.38506,-1.16988 -3.96759,-3.07694 -4.87301,-5.53007 -0.57642,-2.75088 0.62335,-4.21792 2.88946,-5.56541 2.89362,-1.20301 6.06166,-1.29805 9.14938,-1.41479 1.78211,-0.14334 3.56069,0.0783 5.33868,-0.0171 0,0 0.10337,2.20408 0.10337,2.20408 l 0,0 c -1.78723,0.074 -3.56884,-0.0995 -5.35909,0.018 -2.73441,0.10236 -5.53781,0.17075 -8.1354,1.12437 -1.20966,0.65478 -2.17368,1.38961 -1.90996,2.90456 0.64193,1.8537 1.82243,3.29031 3.58275,4.21471 1.70797,0.68258 2.80146,1.00114 3.99456,-0.69119 0.90084,-2.30775 0.43829,-4.72593 -0.25534,-7.04507 -0.81734,-2.41105 -1.83604,-4.73302 -3.01179,-6.99151 -0.93038,-1.92077 -1.17809,-3.49251 0.30264,-5.19993 0.26269,-0.153 0.49996,-0.36203 0.78808,-0.45901 1.64189,-0.55264 3.08826,0.79172 3.4412,2.28556 0.0118,2.65937 -1.40615,4.62204 -3.02289,6.6267 0,0 -1.6753,-1.43597 -1.6753,-1.43597 z"
       inkscape:connector-curvature="0" />
    <path
       style="color:#000000;fill:#666666;fill-opacity:1;fill-rule:nonzero;stroke:none;stroke-width:1px;marker:none;visibility:visible;display:inline;overflow:visible;enable-background:accumulate"
       id="path3253"
       d="m 710.32516,485.24076 c 0.3988,4.21237 0.48489,8.44658 0.57129,12.67447 0.0364,1.99609 0.0572,3.99242 0.0732,5.98877 0.003,0.39284 0.006,0.78568 0.008,1.17853 10e-4,0.19907 0.20335,0.59071 0.004,0.59722 -0.75516,0.0247 -1.47001,-0.35014 -2.20501,-0.52521 0,0 2.2065,0.006 2.2065,0.006 l 0,0 c -0.73598,0.17844 -1.45093,0.55662 -2.20793,0.53532 -0.19911,-0.006 -0.003,-0.39838 -0.004,-0.59757 -0.003,-0.39183 -0.005,-0.78367 -0.008,-1.1755 -0.0159,-1.98761 -0.0366,-3.9752 -0.0728,-5.96257 -0.0849,-4.16155 -0.16871,-8.32932 -0.55825,-12.47586 0,0 2.193,-0.24366 2.193,-0.24366 z"
       inkscape:connector-curvature="0" />
    <path
       style="color:#000000;fill:#666666;fill-opacity:1;fill-rule:nonzero;stroke:none;stroke-width:1px;marker:none;visibility:visible;display:inline;overflow:visible;enable-background:accumulate"
       id="path3255"
       d="m 707.3771,483.26021 c 2.68139,-0.8303 5.40343,-1.45966 8.21319,-1.54112 2.32061,0.22279 3.66687,1.68909 4.00459,3.91775 -0.31316,2.21051 -2.11728,3.02942 -4.07675,3.47883 -1.20075,0.22864 -1.55124,0.5743 -0.70804,-1.95198 0.0628,-0.18812 0.3966,0.005 0.59491,0.007 0.23218,0.001 0.46436,3.8e-4 0.69654,5.8e-4 1.67007,-0.11071 3.22611,0.005 4.79704,0.59286 1.66261,0.7498 2.21826,2.24371 2.48523,3.92668 0.0837,2.50465 -1.50691,3.33754 -3.66751,3.89384 -2.8513,0.51094 -5.72499,-0.0204 -8.54583,-0.46831 -0.28356,-0.0275 -0.56712,-0.055 -0.85068,-0.0825 0,0 0.21785,-2.19572 0.21785,-2.19572 l 0,0 c 0.32631,0.033 0.65262,0.0661 0.97892,0.099 2.53142,0.4021 5.11156,0.90698 7.67572,0.50413 0.87633,-0.19791 1.98736,-0.33025 2.01005,-1.41915 -0.12364,-0.86709 -0.23337,-1.75083 -1.08371,-2.19395 -1.31603,-0.50359 -2.61187,-0.53661 -4.01911,-0.45042 -0.32459,-3.2e-4 -1.36873,6.7e-4 -1.37543,-0.009 -1.66517,-2.35437 -1.12427,-2.12041 0.3165,-2.40705 0.87935,-0.18571 1.71296,-0.41949 2.3617,-1.07732 -0.0161,-1.08674 -0.68609,-1.79265 -1.75286,-1.95935 -2.59254,0.063 -5.0988,0.67612 -7.57456,1.42868 0,0 -0.69776,-2.09327 -0.69776,-2.09327 z"
       inkscape:connector-curvature="0" />
    <path
       style="color:#000000;fill:#666666;fill-opacity:1;fill-rule:nonzero;stroke:none;stroke-width:1px;marker:none;visibility:visible;display:inline;overflow:visible;enable-background:accumulate"
       id="path3257"
       d="m 733.46848,488.61603 c 2.63932,7.4e-4 5.27252,0.0816 7.89949,-0.20309 1.2955,-0.0537 0.66439,-0.0812 1.89389,0.0683 0,0 -0.30902,2.18475 -0.30902,2.18475 l 0,0 c -0.78271,-0.13836 -0.33472,-0.0955 -1.34879,-0.0593 -2.70601,0.2893 -5.41706,0.22385 -8.13557,0.21576 0,0 0,-2.2065 0,-2.2065 z"
       inkscape:connector-curvature="0" />
    <path
       style="color:#000000;fill:#666666;fill-opacity:1;fill-rule:nonzero;stroke:none;stroke-width:1px;marker:none;visibility:visible;display:inline;overflow:visible;enable-background:accumulate"
       id="path3259"
       d="m 735.02746,490.82253 c 2.39726,0 4.79454,0 7.1918,0 0,0 0,2.2065 0,2.2065 l 0,0 c -2.39726,0 -4.79454,0 -7.1918,0 0,0 0,-2.2065 0,-2.2065 z"
       inkscape:connector-curvature="0" />
    <path
       style="color:#000000;fill:#666666;fill-opacity:1;fill-rule:nonzero;stroke:none;stroke-width:1px;marker:none;visibility:visible;display:inline;overflow:visible;enable-background:accumulate"
       id="path3261"
       d="m 756.58042,479.74253 c -0.0388,4.73509 -0.34676,9.46522 -0.53386,14.19683 -0.0534,0.63947 -0.0954,1.28 -0.1602,1.91842 -0.0643,0.63307 -0.19053,1.6449 -0.34579,2.31402 -0.0431,0.18586 0.0212,0.54759 -0.16964,0.5467 -2.59207,-0.0121 -2.28341,-0.0478 -2.1075,-1.46348 0.19724,-0.26518 0.39448,-0.53037 0.59172,-0.79555 0,0 1.50934,1.60951 1.50934,1.60951 l 0,0 c 0.0131,-0.0925 0.0261,-0.18495 0.0392,-0.27743 -0.62082,-0.55998 0.23313,0.16638 -2.12878,0.23742 -0.0935,0.003 0.0755,-0.17228 0.0969,-0.26334 0.0607,-0.25893 0.10905,-0.52089 0.14875,-0.78387 0.18735,-1.24141 0.20873,-1.80067 0.32125,-3.1296 0.18598,-4.70256 0.49201,-9.40368 0.53214,-14.10963 0,0 2.2065,0 2.2065,0 z"
       inkscape:connector-curvature="0" />
    <path
       style="color:#000000;fill:#666666;fill-opacity:1;fill-rule:nonzero;stroke:none;stroke-width:1px;marker:none;visibility:visible;display:inline;overflow:visible;enable-background:accumulate"
       id="path3263"
       d="m 762.46442,495.65959 c 0.16146,2.31614 -0.15816,4.61291 -0.24608,6.91712 0,0 -2.20453,-0.093 -2.20453,-0.093 l 0,0 c 0.1035,-2.27418 0.39496,-4.53817 0.24411,-6.82411 0,0 2.2065,0 2.2065,0 z"
       inkscape:connector-curvature="0" />
    <path
       style="color:#000000;fill:#666666;fill-opacity:1;fill-rule:nonzero;stroke:none;stroke-width:1px;marker:none;visibility:visible;display:inline;overflow:visible;enable-background:accumulate"
       id="path3265"
       d="m 760.66018,493.68203 c 2.61829,-0.18552 5.24914,-0.68371 7.86097,-0.25599 1.79515,0.50201 2.72161,2.33271 1.48488,3.92504 -0.21969,0.28287 -0.51851,0.49425 -0.77776,0.74138 -1.51163,1.04877 -3.308,1.31349 -5.09239,1.50287 -0.97983,0.10315 -1.08288,0.28473 -0.0873,-2.13438 0.0388,-0.0941 1.92637,-0.003 2.06808,-0.004 1.90803,-0.0811 3.19667,-0.059 4.46077,1.52364 0.81347,1.52422 0.72938,3.0651 -0.22078,4.47711 -1.85256,1.43419 -4.37899,1.27085 -6.61227,1.33454 -2.29812,-0.0933 -4.61762,-0.4938 -6.8208,-1.16647 -0.0225,-4e-4 -0.045,-7.3e-4 -0.0675,-10e-4 0,0 0.36436,-2.1762 0.36436,-2.1762 l 0,0 c 0.11858,0.0232 0.23717,0.0464 0.35575,0.0697 1.96551,0.61956 4.05514,0.952 6.10589,1.06864 1.64629,-0.0461 3.31069,-0.0617 4.91737,-0.46337 0.5429,-0.43542 0.36823,-1.29203 0.17965,-1.86419 -0.41067,-0.97189 -1.8343,-0.52183 -2.65344,-0.59564 -0.18597,7.3e-4 -2.02671,0.1443 -2.11095,0.003 -1.33536,-2.23643 -1.24321,-2.14277 -0.11073,-2.26615 1.33585,-0.14051 2.7037,-0.28917 3.88616,-0.98205 0.10883,-0.0692 0.21765,-0.13837 0.32648,-0.20756 0.0638,-0.074 0.11249,-0.1646 0.19157,-0.22208 0.13421,-0.0976 0.61829,-0.004 -0.17135,-0.39054 -2.38916,-0.46893 -4.85526,0.19397 -7.25711,0.27876 0,0 -0.21956,-2.19555 -0.21956,-2.19555 z"
       inkscape:connector-curvature="0" />
  </g>
</svg>
