<?xml version="1.0" encoding="UTF-8" standalone="no"?>
<svg
   xmlns:dc="http://purl.org/dc/elements/1.1/"
   xmlns:cc="http://creativecommons.org/ns#"
   xmlns:rdf="http://www.w3.org/1999/02/22-rdf-syntax-ns#"
   xmlns:svg="http://www.w3.org/2000/svg"
   xmlns="http://www.w3.org/2000/svg"
   xmlns:sodipodi="http://sodipodi.sourceforge.net/DTD/sodipodi-0.dtd"
   xmlns:inkscape="http://www.inkscape.org/namespaces/inkscape"
   width="1024px"
   height="768px"
   id="svg3541"
   version="1.1"
   inkscape:version="0.48.4 r9939"
   sodipodi:docname="s3.3.svg">
  <defs
     id="defs3543">
    <marker
       inkscape:stockid="Arrow2Lstart"
       orient="auto"
       refY="0.0"
       refX="0.0"
       id="Arrow2Lstart"
       style="overflow:visible">
      <path
         id="path10406"
         style="font-size:12.0;fill-rule:evenodd;stroke-width:0.62500000;stroke-linejoin:round"
         d="M 8.7185878,4.0337352 L -2.2072895,0.016013256 L 8.7185884,-4.0017078 C 6.9730900,-1.6296469 6.9831476,1.6157441 8.7185878,4.0337352 z "
         transform="scale(1.1) translate(1,0)" />
    </marker>
    <marker
       inkscape:stockid="Arrow1Lend"
       orient="auto"
       refY="0.0"
       refX="0.0"
       id="Arrow1Lend"
       style="overflow:visible;">
      <path
         id="path8472"
         d="M 0.0,0.0 L 5.0,-5.0 L -12.5,0.0 L 5.0,5.0 L 0.0,0.0 z "
         style="fill-rule:evenodd;stroke:#000000;stroke-width:1.0pt;marker-start:none;"
         transform="scale(0.8) rotate(180) translate(12.5,0)" />
    </marker>
    <marker
       inkscape:stockid="SemiCircleIn"
       orient="auto"
       refY="0.0"
       refX="0.0"
       id="SemiCircleIn"
       style="overflow:visible">
      <path
         id="path9465"
         d="M -0.37450702,-0.045692580 C -0.37450702,2.7143074 1.8654930,4.9543074 4.6254930,4.9543074 L 4.6254930,-5.0456926 C 1.8654930,-5.0456926 -0.37450702,-2.8056926 -0.37450702,-0.045692580 z "
         style="fill-rule:evenodd;stroke:#000000;stroke-width:1.0pt;marker-start:none;marker-end:none"
         transform="scale(0.6)" />
    </marker>
    <marker
       inkscape:stockid="Arrow1Mend"
       orient="auto"
       refY="0.0"
       refX="0.0"
       id="Arrow1Mend"
       style="overflow:visible;">
      <path
         id="path8478"
         d="M 0.0,0.0 L 5.0,-5.0 L -12.5,0.0 L 5.0,5.0 L 0.0,0.0 z "
         style="fill-rule:evenodd;stroke:#000000;stroke-width:1.0pt;marker-start:none;"
         transform="scale(0.4) rotate(180) translate(10,0)" />
    </marker>
    <marker
       inkscape:stockid="Arrow2Lend"
       orient="auto"
       refY="0.0"
       refX="0.0"
       id="Arrow2Lend"
       style="overflow:visible;">
      <path
         id="path8490"
         style="font-size:12.0;fill-rule:evenodd;stroke-width:0.62500000;stroke-linejoin:round;"
         d="M 8.7185878,4.0337352 L -2.2072895,0.016013256 L 8.7185884,-4.0017078 C 6.9730900,-1.6296469 6.9831476,1.6157441 8.7185878,4.0337352 z "
         transform="scale(1.1) rotate(180) translate(1,0)" />
    </marker>
  </defs>
  <sodipodi:namedview
     id="base"
     pagecolor="#ffffff"
     bordercolor="#666666"
     borderopacity="1.0"
     inkscape:pageopacity="0.0"
     inkscape:pageshadow="2"
     inkscape:zoom="1"
     inkscape:cx="441.8529"
     inkscape:cy="406.13645"
     inkscape:current-layer="g6985"
     inkscape:document-units="px"
     showgrid="true"
     inkscape:window-width="1920"
     inkscape:window-height="1020"
     inkscape:window-x="1912"
     inkscape:window-y="-8"
     inkscape:window-maximized="1"
     showguides="true"
     inkscape:guide-bbox="true"
     inkscape:snap-global="false">
    <inkscape:grid
       type="xygrid"
       id="grid5395" />
  </sodipodi:namedview>
  <metadata
     id="metadata3546">
    <rdf:RDF>
      <cc:Work
         rdf:about="">
        <dc:format>image/svg+xml</dc:format>
        <dc:type
           rdf:resource="http://purl.org/dc/dcmitype/StillImage" />
        <dc:title />
      </cc:Work>
    </rdf:RDF>
  </metadata>
  <g
     inkscape:groupmode="layer"
     id="g6985"
     inkscape:label="iteration-2.s3.3"
     style="display:inline">
    <rect
       style="color:#000000;fill:none;stroke:#aaccee;stroke-width:0.57095711999999998;stroke-linecap:butt;stroke-linejoin:miter;stroke-miterlimit:4;stroke-opacity:1;stroke-dasharray:none;stroke-dashoffset:0;marker:none;visibility:visible;display:inline;overflow:visible;enable-background:accumulate"
       id="rect3218"
       width="171.85809"
       height="166.14851"
       x="182.35643"
       y="338.78549" />
    <path
       style="fill:none;stroke:#aaccee;stroke-width:0.57095711999999998px;stroke-linecap:butt;stroke-linejoin:miter;stroke-opacity:1"
       d="m 181.78548,402.16172 171.85808,0"
       id="path3220"
       inkscape:connector-curvature="0" />
    <path
       inkscape:connector-curvature="0"
       id="path3222"
       d="m 181.78548,463.82508 171.85808,0"
       style="fill:none;stroke:#aaccee;stroke-width:0.57095711999999998px;stroke-linecap:butt;stroke-linejoin:miter;stroke-opacity:1" />
    <rect
       style="color:#000000;fill:#eeeeee;stroke:#aaccee;stroke-width:1;stroke-linecap:butt;stroke-linejoin:miter;stroke-miterlimit:4;stroke-opacity:1;stroke-dasharray:none;stroke-dashoffset:0;marker:none;visibility:visible;display:inline;overflow:visible;enable-background:accumulate"
       id="rect7935"
       width="383.63373"
       height="47.816086"
       x="22"
       y="19.192383" />
    <text
       sodipodi:linespacing="125%"
       id="text7937"
       y="47"
       x="60"
       style="font-size:15.1219511px;font-style:normal;font-variant:normal;font-weight:normal;font-stretch:normal;text-indent:0;text-align:start;text-decoration:none;line-height:125%;letter-spacing:0px;word-spacing:0px;text-transform:none;direction:ltr;block-progression:tb;writing-mode:lr-tb;text-anchor:start;baseline-shift:baseline;color:#000000;fill:#666666;fill-opacity:1;fill-rule:nonzero;stroke:none;stroke-width:1px;marker:none;visibility:visible;display:inline;overflow:visible;enable-background:accumulate;font-family:Architects Daughter;-inkscape-font-specification:Architects Daughter"
       xml:space="preserve"><tspan
         style="fill:#000000"
         y="47"
         x="60"
         sodipodi:role="line"
         id="tspan7939">category</tspan></text>
    <path
       style="color:#000000;fill:none;stroke:#000000;stroke-width:0.61914295px;marker:none;visibility:visible;display:inline;overflow:visible;enable-background:accumulate"
       id="path7942"
       d="m 33.36527,34.49982 c 1.79032,0.97428 3.33223,2.30241 4.88554,3.60398 1.09037,0.95657 2.36822,1.39102 3.77956,1.56823 1.57856,-0.0202 3.04847,-0.67052 4.40457,-1.42616 1.06877,-0.58308 0.41335,-0.19524 1.37605,-0.83325 0.19484,-0.12914 0.78272,-0.51165 0.58831,-0.38182 -1.9664,1.31301 -0.68768,0.34874 -0.2445,-0.20752 0.6254,-0.8808 0.96394,-1.79329 0.15052,-2.63851 -0.96221,-0.64623 -2.07698,-0.63458 -3.17893,-0.4928 -1.4002,0.38079 -2.66696,1.14229 -3.89058,1.90393 -0.24103,0.1664 -1.01489,0.52629 -0.72321,0.49922 0.30424,-0.0282 0.53512,-0.7032 0.76612,-0.50321 0.22586,0.19556 -0.47383,0.36471 -0.69808,0.56211 -0.73746,0.64911 -1.37307,1.38431 -1.99995,2.13685 -1.24114,1.63232 -2.15853,3.49437 -2.79432,5.43893 -0.33811,1.29527 -0.56292,2.65401 -0.42795,3.99306 0.35755,1.22757 1.49064,0.65508 2.31169,0.26128 1.29284,-0.8364 2.71061,-1.42896 4.13854,-1.98827 1.25859,-0.45469 2.53242,-0.71128 3.84351,-0.39069 0.77239,0.14245 1.35537,0.6749 2.12341,0.79738 0,0 -1.42551,1.16914 -1.42551,1.16914 l 0,0 c -0.74731,-0.18114 -1.3584,-0.65662 -2.12168,-0.80436 -1.29036,-0.26857 -2.54585,0.0166 -3.76953,0.47234 -1.42409,0.56999 -2.82731,1.1813 -4.13228,1.99617 -0.9746,0.43113 -2.1249,0.77629 -2.5266,-0.53436 -0.16079,-1.35912 0.069,-2.74389 0.39607,-4.06404 0.62292,-1.96359 1.5408,-3.84145 2.76564,-5.50185 1.57975,-1.94199 3.42702,-3.51876 5.59885,-4.80412 1.23885,-0.75639 2.5193,-1.52862 3.94964,-1.84996 1.15124,-0.12543 2.31454,-0.083 3.28951,0.62416 0.84996,0.91664 0.65914,1.87136 -0.0161,2.8622 -1.202,1.58064 -2.986,2.55342 -4.67942,3.53506 -1.38651,0.74281 -2.88211,1.38472 -4.48562,1.34303 -1.43604,-0.20248 -2.73272,-0.67655 -3.83863,-1.65365 -1.54142,-1.29583 -3.06959,-2.62394 -4.86523,-3.56542 0,0 1.45078,-1.12708 1.45078,-1.12708 z"
       inkscape:connector-curvature="0" />
    <path
       style="color:#000000;fill:#aaccee;fill-opacity:1;fill-rule:nonzero;stroke:none;stroke-width:1px;marker:none;visibility:visible;display:inline;overflow:visible;enable-background:accumulate"
       id="path7948"
       d="m 151.95694,37.5 c 5.77876,0 11.55751,0 17.33627,0 6.68112,-0.11043 13.37433,0.19532 20.05051,-0.11801 2.77106,-0.20883 1.43858,-0.0977 3.99785,-0.32878 0,0 0.26951,2.98787 0.26951,2.98787 l 0,0 c -2.63276,0.23725 -1.2567,0.12289 -4.12862,0.3377 -6.72304,0.30716 -13.4614,0.0193 -20.18925,0.12122 -5.77876,0 -11.55751,0 -17.33627,0 0,0 0,-3 0,-3 z"
       inkscape:connector-curvature="0" />
    <path
       inkscape:connector-curvature="0"
       d="m 151.95694,47.5 c 5.77876,0 11.55751,0 17.33627,0 6.68112,-0.11043 13.37433,0.19532 20.05051,-0.11801 2.77106,-0.20883 1.43858,-0.0977 3.99785,-0.32878 0,0 0.26951,2.98787 0.26951,2.98787 l 0,0 c -2.63276,0.23725 -1.2567,0.12289 -4.12862,0.3377 -6.72304,0.30716 -13.4614,0.0193 -20.18925,0.12122 -5.77876,0 -11.55751,0 -17.33627,0 0,0 0,-3 0,-3 z"
       id="path7950"
       style="color:#000000;fill:#aaccee;fill-opacity:1;fill-rule:nonzero;stroke:none;stroke-width:1px;marker:none;visibility:visible;display:inline;overflow:visible;enable-background:accumulate" />
    <path
       style="color:#000000;fill:#aaccee;fill-opacity:1;fill-rule:nonzero;stroke:none;stroke-width:1px;marker:none;visibility:visible;display:inline;overflow:visible;enable-background:accumulate"
       id="path7952"
       d="m 193.5,26.95694 c 0.15033,3.52514 1.39005,6.80254 2.86304,9.95997 1.26869,2.31223 2.60674,4.56035 4.66001,6.25163 0.86585,0.76202 1.77375,1.47602 2.68805,2.1765 0.13293,0.10185 0.55144,0.29968 0.38549,0.32216 -0.20453,0.0277 -0.36071,-0.20072 -0.54107,-0.30108 -0.45164,0.87009 -0.82162,1.78771 -1.35493,2.61027 -0.0543,0.0838 -0.19088,-0.0682 -0.29061,-0.0722 -0.29296,-0.012 -0.58508,0.0499 -0.87378,0.10102 -0.54143,0.0959 -0.79732,0.24825 -1.30951,0.47262 -2.15615,1.00913 -3.48267,2.83114 -4.8641,4.67841 -1.35724,2.10798 -2.39832,4.34342 -2.9771,6.78107 0,0 -2.91606,-0.70467 -2.91606,-0.70467 l 0,0 c 0.69306,-2.82729 1.88064,-5.44206 3.49102,-7.87354 1.70648,-2.28003 3.4524,-4.46056 6.12759,-5.65679 1.38505,-0.54462 2.74708,-0.94983 4.25197,-0.65032 0.26281,0.0523 0.74822,0.002 0.75739,0.26947 0.0348,1.01687 -0.43068,1.98883 -0.64602,2.98325 -1.47234,-0.65159 -2.61345,-1.83601 -3.86001,-2.84078 -2.35577,-2.01397 -4.01588,-4.5453 -5.4484,-7.28157 -1.65034,-3.55679 -3.00583,-7.25842 -3.14297,-11.22537 0,0 3,0 3,0 z"
       inkscape:connector-curvature="0" />
    <path
       style="color:#000000;fill:none;stroke:#000000;stroke-width:0.65089822px;marker:none;visibility:visible;display:inline;overflow:visible;enable-background:accumulate"
       id="path7954"
       d="m 252.52816,35.61552 c -1.62893,-1.09863 -3.39892,-2.04731 -5.34831,-2.38942 -0.85891,-0.11243 -1.68444,0.0821 -2.45557,0.45114 -0.16955,0.0811 -0.64966,0.37048 -0.50522,0.25026 0.35507,-0.29551 0.76272,-0.52133 1.14409,-0.78201 -0.89766,0.60143 -1.72502,1.31965 -2.35516,2.20035 -0.48374,0.88056 0.3274,1.16589 1.01052,1.50975 1.08498,0.36345 2.17993,0.70284 3.30422,0.92679 1.14076,0.35711 2.27658,0.71665 3.36937,1.20395 1.30545,0.59665 2.22536,1.63916 3.05871,2.77016 0.6841,1.04482 0.81525,2.26849 0.89778,3.4825 -3.3e-4,1.09149 -0.40628,2.07477 -0.77548,3.07695 -0.69907,1.42204 -2.12999,2.47423 -3.58365,3.02738 -1.00062,0.31354 -1.99057,0.0264 -2.92872,-0.34313 -1.07801,-0.5184 -2.10845,-1.1131 -3.13121,-1.72987 -1.00564,-0.55211 -2.15226,-0.68716 -3.2377,-1.01666 -1.05171,-0.34607 -2.06119,-0.41689 -3.10966,-0.0594 -0.51532,0.5577 -2.25588,0.93389 0.27937,-0.1932 0.15491,-0.0688 -0.23426,0.24744 -0.32884,0.38818 -0.21558,0.32078 -0.17606,0.32786 -0.18928,0.66247 0,0 -1.65374,1.01897 -1.65374,1.01897 l 0,0 c -0.12817,-1.69129 2.0981,-2.40827 3.32648,-3.17753 1.08095,-0.30158 2.11914,-0.20862 3.18433,0.14682 1.098,0.33084 2.26128,0.4688 3.2662,1.05589 1.01228,0.61486 2.03855,1.19923 3.11319,1.70131 0.91627,0.35091 1.87497,0.58599 2.83218,0.23098 0.79123,-0.35693 0.86934,-0.42966 -0.71423,0.65112 -0.12653,0.0863 0.24136,-0.18984 0.34974,-0.29814 0.21713,-0.21704 0.43264,-0.43937 0.6104,-0.68967 0.0926,-0.13037 0.15297,-0.28084 0.22944,-0.42126 0.35057,-0.98903 0.79248,-1.93597 0.81916,-3.01021 -0.073,-1.17801 -0.17952,-2.37209 -0.83732,-3.39052 -0.81367,-1.10785 -1.71088,-2.12235 -2.99758,-2.68971 -1.08634,-0.47021 -2.21018,-0.83367 -3.34385,-1.17173 -1.13537,-0.23733 -2.25231,-0.57029 -3.34178,-0.96441 -0.75582,-0.39506 -1.6335,-0.79216 -1.18659,-1.78638 0.59251,-0.91547 1.42579,-1.6503 2.32318,-2.26268 1.62745,-1.12486 2.98685,-2.27352 5.04708,-1.99332 1.96219,0.40002 3.7478,1.34415 5.40265,2.45296 0,0 -1.5442,1.16136 -1.5442,1.16136 z"
       inkscape:connector-curvature="0" />
    <path
       style="color:#000000;fill:none;stroke:#000000;stroke-width:0.65089822px;marker:none;visibility:visible;display:inline;overflow:visible;enable-background:accumulate"
       id="path7956"
       d="m 294.89348,36.10897 c 1.88215,1.02425 3.50314,2.4205 5.13611,3.78882 1.14631,1.00564 2.48969,1.46237 3.97342,1.64867 1.65952,-0.0212 3.20482,-0.70491 4.63047,-1.49931 1.12359,-0.61298 0.43456,-0.20525 1.44663,-0.87598 0.20485,-0.13578 0.82287,-0.53791 0.6185,-0.4014 -2.06726,1.38035 -0.72296,0.36662 -0.25705,-0.21817 0.65747,-0.92598 1.01339,-1.88527 0.15823,-2.77384 -1.01155,-0.67937 -2.18351,-0.66712 -3.34197,-0.51808 -1.472,0.40033 -2.80374,1.20089 -4.09011,2.00158 -0.2534,0.17494 -1.06696,0.55329 -0.76031,0.52484 0.31984,-0.0297 0.56256,-0.73928 0.80541,-0.52902 0.23746,0.20558 -0.49813,0.38341 -0.73389,0.59093 -0.77527,0.68241 -1.44349,1.45531 -2.10253,2.24644 -1.30479,1.71605 -2.26923,3.6736 -2.93763,5.7179 -0.35546,1.3617 -0.59181,2.79012 -0.44991,4.19785 0.37591,1.29055 1.56711,0.68869 2.43027,0.27469 1.35913,-0.87929 2.84963,-1.50225 4.3508,-2.09024 1.32314,-0.47801 2.6623,-0.74777 4.04065,-0.41074 0.81199,0.14977 1.42488,0.70952 2.23232,0.83828 0,0 -1.49863,1.2291 -1.49863,1.2291 l 0,0 c -0.78564,-0.19042 -1.42807,-0.69028 -2.2305,-0.84561 -1.35653,-0.28234 -2.67643,0.0175 -3.96287,0.49656 -1.49713,0.59924 -2.97232,1.24189 -4.34422,2.09856 -1.02458,0.45324 -2.23388,0.81611 -2.65618,-0.56177 -0.16905,-1.42882 0.0725,-2.88462 0.41638,-4.27248 0.65487,-2.06429 1.61981,-4.03847 2.90749,-5.78402 1.66077,-2.04161 3.60279,-3.69925 5.886,-5.05053 1.30239,-0.79519 2.64851,-1.60703 4.15222,-1.94485 1.21028,-0.13187 2.43326,-0.0873 3.45822,0.65618 0.89355,0.96365 0.69295,1.96733 -0.0169,3.00899 -1.26366,1.66171 -3.13916,2.68439 -4.91943,3.71637 -1.45761,0.78092 -3.02994,1.45575 -4.71569,1.41192 -1.5097,-0.21287 -2.87287,-0.71125 -4.0355,-1.73846 -1.62048,-1.3623 -3.22703,-2.75852 -5.11476,-3.74829 0,0 1.52518,-1.18489 1.52518,-1.18489 z"
       inkscape:connector-curvature="0" />
    <path
       style="color:#000000;fill:#339900;fill-opacity:1;fill-rule:nonzero;stroke:none;stroke-width:1px;marker:none;visibility:visible;display:inline;overflow:visible;enable-background:accumulate"
       id="path7958"
       d="m 269.75089,37.92975 c -1.73583,0.48457 -3.37771,1.17445 -4.83935,2.23091 -0.88299,0.71304 -1.47757,1.57924 -1.77345,2.66641 -0.14687,0.72196 -0.20042,0.86915 0.44519,1.05034 1.13846,0.2043 2.30975,0.15921 3.46226,0.16048 1.76948,-0.005 3.53895,-0.0133 5.30843,-0.0177 1.50827,-0.11958 3.00883,-0.31262 4.5177,-0.42679 1.12771,-0.0792 2.2584,-0.0917 3.38838,-0.0983 1.03599,-0.003 2.07199,-5.2e-4 3.10799,6.2e-4 1.03552,9.4e-4 2.07103,9.4e-4 3.10656,0.002 0.1728,2e-5 0.3456,4e-5 0.51841,5e-5 0,0 -1.5e-4,1.55566 -1.5e-4,1.55566 l 0,0 c -0.17283,-10e-6 -0.34568,-3e-5 -0.51851,-5e-5 -1.03601,-1.7e-4 -2.07202,-4.3e-4 -3.10803,-0.002 -1.03239,-9.4e-4 -2.06477,-0.004 -3.09716,-6.2e-4 -1.09393,0.007 -2.18857,0.0179 -3.28034,0.0939 -1.54655,0.11656 -3.08395,0.32209 -4.63099,0.43121 -1.77136,0.005 -3.5427,0.0128 -5.31406,0.0177 -1.33817,-0.002 -2.70883,0.0632 -4.01654,-0.26325 -1.39094,-0.58985 -1.7327,-1.47603 -1.3856,-2.92831 0.41583,-1.42077 1.18802,-2.58311 2.3631,-3.50536 1.57904,-1.12555 3.32795,-1.90885 5.19993,-2.4235 0,0 0.54623,1.45662 0.54623,1.45662 z"
       inkscape:connector-curvature="0" />
    <path
       style="color:#000000;fill:#339900;fill-opacity:1;fill-rule:nonzero;stroke:none;stroke-width:1px;marker:none;visibility:visible;display:inline;overflow:visible;enable-background:accumulate"
       id="path7960"
       d="m 284.93773,39.53613 c 0.99426,1.23128 1.96486,2.48947 3.0424,3.65013 0.98385,1.08568 0.76585,1.63773 -0.35197,2.43632 -0.68288,0.44622 -0.96743,1.12009 -1.15297,1.88178 -0.0958,0.58769 -0.0556,0.28881 -0.11935,0.89682 0,0 -1.54668,-0.16688 -1.54668,-0.16688 l 0,0 c 0.0821,-0.74284 0.0293,-0.37133 0.15863,-1.11445 0.29236,-1.11034 0.77236,-2.10477 1.75737,-2.76403 0.3295,-0.23443 0.4571,-0.3271 0.45828,-0.31676 0.016,0.13861 -0.12698,0.25737 -0.13339,0.39674 -0.004,0.0933 0.0657,0.17493 0.10317,0.26051 0.0738,0.1689 -0.5451,-1.46445 -0.31553,-0.45414 -1.08596,-1.17948 -2.07966,-2.44274 -3.08112,-3.69363 0,0 1.18116,-1.01241 1.18116,-1.01241 z"
       inkscape:connector-curvature="0" />
    <path
       style="color:#000000;fill:#6699cc;fill-opacity:1;fill-rule:nonzero;stroke:#6699cc;stroke-width:1px;marker:none;visibility:visible;display:inline;overflow:visible;enable-background:accumulate"
       id="path7966"
       d="m 222.07751,33.42929 c 2.03578,-0.4509 4.10055,-0.74462 6.17539,-0.93742 1.30968,0.0593 2.57114,-0.54401 3.86746,-0.52206 0.6976,0.56065 -0.0988,1.70309 -0.38151,2.32464 -0.67438,1.74287 -0.7289,3.63948 -0.81493,5.484 -0.14056,1.99442 -0.0521,3.96705 0.2098,5.94417 0.09,1.04842 0.73606,2.06003 0.67858,3.12044 -0.64595,0.2946 -1.25852,0.67749 -1.93783,0.8838 -0.14401,0.0437 -0.27777,-0.11624 -0.41909,-0.168 -0.14483,-0.0531 -0.29089,-0.10323 -0.43899,-0.14634 -0.49653,-0.14455 -0.9994,-0.21232 -1.511,-0.27568 -1.20292,-0.11787 -2.387,-0.20045 -3.55229,0.15451 -0.79608,0.26994 -0.43418,0.11191 -1.15341,0.48996 -0.17258,0.0907 -0.66694,0.39811 -0.51715,0.27328 0.32707,-0.27258 1.40001,-0.96959 1.05437,-0.72099 -1.64941,1.1863 -2.9285,1.99743 -0.79589,0.61404 0,0 -1.64628,0.82709 -1.64628,0.82709 l 0,0 c 0.61732,-0.45999 1.25184,-0.89774 1.85195,-1.37998 0.33773,-0.27139 -1.42105,0.99191 -1.06387,0.7467 1.18774,-0.81539 2.23795,-1.69821 3.63447,-2.08156 1.18679,-0.3078 2.39088,-0.22812 3.60316,-0.10034 0.16852,0.0229 2.45948,0.50071 2.39903,0.62228 -0.24233,0.48734 -0.7335,0.80428 -1.10025,1.20642 0.21322,-0.83809 -0.60279,-2.20832 -0.63561,-3.08752 -0.26134,-1.98863 -0.35988,-3.9706 -0.21807,-5.97688 0.08,-1.85924 0.12865,-3.76648 0.76576,-5.53592 0.15979,-0.35503 1.00328,-1.73716 0.58661,-2.01712 -1.28954,0.0587 -2.54209,0.54647 -3.84503,0.52224 -2.07184,0.19689 -4.13574,0.48925 -6.16387,0.96428 0,0 1.36849,-1.22804 1.36849,-1.22804 z"
       inkscape:connector-curvature="0" />
    <path
       style="color:#000000;fill:#6699cc;fill-opacity:1;fill-rule:nonzero;stroke:#6699cc;stroke-width:1px;marker:none;visibility:visible;display:inline;overflow:visible;enable-background:accumulate"
       id="path7970"
       d="m 224.00979,41.48069 c 1.8794,-0.42951 3.79044,-0.66522 5.7064,-0.85242 0,0 -1.37307,1.19629 -1.37307,1.19629 l 0,0 c -1.91592,0.19139 -3.82658,0.43643 -5.7034,0.87909 0,0 1.37007,-1.22296 1.37007,-1.22296 z"
       inkscape:connector-curvature="0" />
    <text
       xml:space="preserve"
       style="font-size:15.1219511px;font-style:normal;font-variant:normal;font-weight:normal;font-stretch:normal;text-indent:0;text-align:start;text-decoration:none;line-height:125%;letter-spacing:0px;word-spacing:0px;text-transform:none;direction:ltr;block-progression:tb;writing-mode:lr-tb;text-anchor:start;baseline-shift:baseline;color:#000000;fill:#666666;fill-opacity:1;fill-rule:nonzero;stroke:none;stroke-width:1px;marker:none;visibility:visible;display:inline;overflow:visible;enable-background:accumulate;font-family:Architects Daughter;-inkscape-font-specification:Architects Daughter"
       x="328"
       y="49"
       id="text7972"
       sodipodi:linespacing="125%"><tspan
         id="tspan7974"
         sodipodi:role="line"
         x="328"
         y="49"
         style="fill:#000000">skeleton</tspan></text>
    <text
       xml:space="preserve"
       style="font-size:16px;font-style:normal;font-variant:normal;font-weight:normal;font-stretch:normal;text-indent:0;text-align:start;text-decoration:none;line-height:125%;letter-spacing:0px;word-spacing:0px;text-transform:none;direction:ltr;block-progression:tb;writing-mode:lr-tb;text-anchor:start;baseline-shift:baseline;color:#000000;fill:#666666;fill-opacity:1;fill-rule:nonzero;stroke:none;stroke-width:1px;marker:none;visibility:visible;display:inline;overflow:visible;enable-background:accumulate;font-family:Architects Daughter;-inkscape-font-specification:Sans"
       x="26"
       y="104"
       id="text7497"
       sodipodi:linespacing="125%"><tspan
         sodipodi:role="line"
         x="26"
         y="104"
         id="tspan7501">Define 2 objects equivalent if they're iso. </tspan><tspan
         sodipodi:role="line"
         x="26"
         y="124"
         id="tspan7513">Pick (<tspan
   style="font-size:16px;fill:#fb8b00;stroke:#fb8b00"
   id="tspan7503">Axiom of Choice</tspan>) an object from each equivalence class and all arrows among those objects.</tspan></text>
    <path
       inkscape:connector-curvature="0"
       d="m 46.28733,236.16194 c 2.12975,3.42272 4.38013,6.76544 6.65564,10.09199 1.04941,1.49547 2.10499,2.98661 3.16506,4.47444 0.31055,0.43586 0.7938,1.27714 1.33067,1.54813 0,0 -1.18339,1.68639 -1.18339,1.68639 l 0,0 c -2.18026,-1.67251 -3.22939,-4.51066 -5.01275,-6.5458 -2.29154,-3.34998 -4.55741,-6.7165 -6.70226,-10.16326 0,0 1.74703,-1.09189 1.74703,-1.09189 z"
       id="path3023"
       style="color:#000000;fill:#666666;fill-opacity:1;fill-rule:nonzero;stroke:none;stroke-width:1px;marker:none;visibility:visible;display:inline;overflow:visible;enable-background:accumulate" />
    <path
       inkscape:connector-curvature="0"
       d="m 57.25296,240.7686 c -3.109,2.30752 -5.80876,5.10974 -8.32904,8.03404 -1.41756,1.87367 -3.11984,3.58235 -4.37993,5.57505 0,0 -1.72621,-1.12451 -1.72621,-1.12451 l 0,0 c 1.355,-2.0453 3.03046,-3.87414 4.54626,-5.79631 2.65737,-3.07707 5.50263,-6.03049 8.79703,-8.4353 0,0 1.09189,1.74703 1.09189,1.74703 z"
       id="path3025"
       style="color:#000000;fill:#666666;fill-opacity:1;fill-rule:nonzero;stroke:none;stroke-width:1px;marker:none;visibility:visible;display:inline;overflow:visible;enable-background:accumulate" />
    <path
       inkscape:connector-curvature="0"
       d="m 65.72582,246.639 c 0.94662,-1.99286 2.06845,-3.60671 4.07645,-4.59764 1.99816,-0.54547 3.36918,0.72904 4.47434,2.22237 0.68817,1.00205 1.32138,2.2616 2.57102,2.62872 0.70138,-0.45635 1.29231,-1.20617 1.86835,-1.82745 0.7103,-0.72853 1.48394,-1.38053 2.27884,-2.01267 0,0 1.27856,1.61543 1.27856,1.61543 l 0,0 c -0.71533,0.56306 -1.40552,1.15036 -2.04696,1.79828 -1.14005,1.2286 -2.238,2.6732 -4.10589,2.35401 -1.59819,-0.66216 -2.64391,-1.87379 -3.51209,-3.34738 -0.45998,-0.65438 -1.06516,-1.56025 -1.95181,-1.55663 -1.59981,0.6135 -2.3939,2.31764 -3.14208,3.7451 0,0 -1.78873,-1.02214 -1.78873,-1.02214 z"
       id="path3029"
       style="color:#000000;fill:#666666;fill-opacity:1;fill-rule:nonzero;stroke:none;stroke-width:1px;marker:none;visibility:visible;display:inline;overflow:visible;enable-background:accumulate" />
    <path
       inkscape:connector-curvature="0"
       d="m 90.6704,247.81483 c 0,-2.39215 0,-4.7843 0,-7.17645 0.005,-1.16748 -0.23211,-1.27817 2.06018,-0.11375 0.15795,0.0802 0.0358,0.35332 0.0741,0.5263 0.12066,0.54543 0.16557,0.55901 0.41322,1.03783 0.76498,0.98799 1.95302,1.0648 3.04316,0.65025 1.98429,-1.16126 3.05281,-3.28662 3.87688,-5.35006 0.27523,-0.90002 0.25158,-1.22418 2.03074,0.66812 0.21455,0.22819 -0.0692,0.62264 -0.0967,0.93463 -0.12657,1.4358 -0.0971,2.84268 -0.06,4.28251 0.29403,3.14718 0.64384,6.28657 0.84899,9.44153 0.1263,1.8823 0.28493,4.10689 -1.47294,5.32779 -0.32103,0.22297 -0.70368,0.3405 -1.05553,0.51075 -2.67289,0.7883 -5.43916,0.64781 -8.11579,-0.004 -1.71036,-0.59372 -4.0778,-1.5379 -3.98047,-3.75441 0.0181,-0.41152 0.20551,-0.79778 0.30827,-1.19668 1.29074,-2.67688 3.8223,-3.86354 6.53298,-4.661 3.42688,-0.91292 6.80379,-0.29637 10.14071,0.62239 1.02189,0.34896 2.001,0.79269 3.02498,1.13315 0,0 -0.65574,1.95303 -0.65574,1.95303 l 0,0 c -0.98658,-0.33398 -1.94001,-0.73926 -2.91714,-1.10019 -2.96749,-0.82041 -5.96396,-1.42959 -9.02133,-0.62905 -2.0511,0.57889 -4.04918,1.3753 -5.14913,3.33052 -0.084,0.14662 -0.30269,0.45396 -0.28809,0.66337 0.0672,0.96335 1.87216,1.3245 2.50188,1.63952 2.23252,0.56807 4.53625,0.68252 6.78994,0.11758 0.22581,-0.0801 0.70779,-0.2116 0.9099,-0.40658 0.82776,-0.79852 0.33715,-2.44497 0.39166,-3.41236 -0.20649,-3.18205 -0.56744,-6.3475 -0.85266,-9.52269 -0.0385,-1.52747 -0.0654,-3.02486 0.0704,-4.54813 0.0298,-0.33435 -0.19433,-0.84921 0.10478,-1.00157 0.61868,-0.31514 1.39896,-0.24658 2.07997,-0.1113 0.16931,0.0336 -0.10576,0.32864 -0.15864,0.49295 -1.0712,2.64102 -2.51187,5.24134 -5.17143,6.54624 -0.41168,0.11453 -0.81161,0.28627 -1.23507,0.34359 -1.70095,0.23023 -3.36883,-0.68051 -4.28211,-2.06859 -0.11241,-0.24555 -0.95727,-2.27326 -0.68999,-2.45515 0.58818,-0.40029 1.36157,-0.42324 2.06018,-0.55787 0.21983,-0.0424 -0.69808,1.29321 0,0.67162 0,2.39215 0,4.7843 0,7.17644 0,0 -2.06018,0 -2.06018,0 z"
       id="path3031"
       style="color:#000000;fill:#666666;fill-opacity:1;fill-rule:nonzero;stroke:none;stroke-width:1px;marker:none;visibility:visible;display:inline;overflow:visible;enable-background:accumulate" />
    <g
       transform="matrix(0.77517898,0,0,0.77517898,-464.55577,1.581703)"
       id="g3055">
      <path
         style="color:#000000;fill:#aaccee;fill-opacity:1;fill-rule:nonzero;stroke:none;stroke-width:1px;marker:none;visibility:visible;display:inline;overflow:visible;enable-background:accumulate"
         id="path3033"
         d="m 191.95694,227.5 c 5.82098,0 11.64197,0 17.46295,0 4.26962,0 8.53924,0 12.80886,0 0,0 0,3 0,3 l 0,0 c -4.26962,0 -8.53924,0 -12.80886,0 -5.82098,0 -11.64197,0 -17.46295,0 0,0 0,-3 0,-3 z"
         inkscape:connector-curvature="0"
         transform="translate(594,82)" />
      <path
         style="color:#000000;fill:#aaccee;fill-opacity:1;fill-rule:nonzero;stroke:none;stroke-width:1px;marker:none;visibility:visible;display:inline;overflow:visible;enable-background:accumulate"
         id="path3035"
         d="m 192.34543,237.62706 c 5.47092,0.48799 10.96416,0.63615 16.45299,0.76082 4.57394,0.0877 9.14874,0.11084 13.7234,0.11876 0.27778,-0.0363 0.55557,-0.0726 0.83335,-0.10887 0,0 0.35104,2.97939 0.35104,2.97939 l 0,0 c -0.39653,0.0432 -0.79306,0.0863 -1.18959,0.12948 -4.59565,-0.008 -9.19144,-0.0313 -13.78636,-0.11953 -5.56574,-0.12657 -11.13593,-0.278 -16.68334,-0.77494 0,0 0.29851,-2.98511 0.29851,-2.98511 z"
         inkscape:connector-curvature="0"
         transform="translate(594,82)" />
      <path
         style="color:#000000;fill:#aaccee;fill-opacity:1;fill-rule:nonzero;stroke:none;stroke-width:1px;marker:none;visibility:visible;display:inline;overflow:visible;enable-background:accumulate"
         id="path3037"
         d="m 196.06417,219.5509 c -1.42917,4.36247 -2.91526,8.69441 -4.61418,12.95925 -0.92614,2.31953 -2.2278,4.28227 -4.70511,4.8288 0.28677,-0.797 0.38891,-1.68727 0.86031,-2.39098 0.11441,-0.1708 0.34763,0.22031 0.52932,0.3165 1.48514,0.78629 2.21955,1.24219 3.4405,2.4805 1.72578,1.91817 2.4118,4.29471 2.7665,6.78726 0.12108,1.36934 0.0731,0.73244 0.15055,1.9102 0,0 -2.99361,0.19569 -2.99361,0.19569 l 0,0 c -0.069,-1.06304 -0.0275,-0.49868 -0.12836,-1.69279 -0.25057,-1.85599 -0.68503,-3.65298 -1.94482,-5.10785 -1.06971,-1.11784 -1.49903,-1.27748 -2.84026,-2.00415 -0.23022,-0.12473 -0.62105,-0.15079 -0.67138,-0.40774 -0.1904,-0.97216 0.006,-1.98126 0.009,-2.97189 0.0248,-0.006 0.74579,-0.0716 0.79167,-0.0982 1.05052,-0.61074 1.41953,-1.96708 1.94824,-2.95557 1.67775,-4.21149 3.14387,-8.48964 4.55513,-12.79769 0,0 2.84605,0.94869 2.84605,0.94869 z"
         inkscape:connector-curvature="0"
         transform="translate(594,82)" />
      <path
         style="color:#000000;fill:#aaccee;fill-opacity:1;fill-rule:nonzero;stroke:none;stroke-width:1px;marker:none;visibility:visible;display:inline;overflow:visible;enable-background:accumulate"
         id="path3039"
         d="m 220.61044,219.91091 c 0.51136,3.42961 1.78278,6.6857 3.56782,9.64357 1.23187,1.93466 2.68764,3.62028 4.51429,5.002 0.0742,0.37287 2.17601,0.76525 2.16005,0.93127 -0.3012,3.13261 0.10201,2.74182 -1.58088,3.2704 -1.94293,0.67553 -3.56483,1.9761 -5.00785,3.40587 -1.72381,1.84654 -2.37309,4.16631 -2.45517,6.63961 0.20326,1.3601 0.032,0.72848 0.47718,1.90437 0,0 -2.8398,0.96722 -2.8398,0.96722 l 0,0 c -0.61544,-1.93394 -0.39786,-0.93109 -0.63407,-3.01251 0.18467,-3.23428 1.05432,-6.25186 3.35439,-8.64359 1.80365,-1.74534 3.80186,-3.32521 6.2173,-4.12653 1.42453,-0.43374 0.78655,-0.47663 1.1981,2.31271 0.0102,0.0694 -0.12299,-0.0684 -0.18821,-0.0943 -0.20899,-0.083 -0.42428,-0.14946 -0.63347,-0.23195 -1.18543,-0.46747 -0.79822,-0.29704 -1.89444,-0.94295 -2.10544,-1.6344 -3.84775,-3.57426 -5.26294,-5.84321 -1.97939,-3.34276 -3.42986,-6.98346 -3.97395,-10.85069 0,0 2.98165,-0.33129 2.98165,-0.33129 z"
         inkscape:connector-curvature="0"
         transform="translate(594,82)" />
      <path
         style="color:#000000;fill:#aaccee;fill-opacity:1;fill-rule:nonzero;stroke:none;stroke-width:1px;marker:none;visibility:visible;display:inline;overflow:visible;enable-background:accumulate"
         id="path3045"
         d="m 177.78402,228.67926 c 0.60446,-1.93284 1.51026,-3.74776 2.37586,-5.57143 0,0 2.70979,1.28726 2.70979,1.28726 l 0,0 c -0.78172,1.64415 -1.60052,3.2795 -2.17522,5.01178 0,0 -2.91043,-0.72761 -2.91043,-0.72761 z"
         inkscape:connector-curvature="0"
         transform="translate(594,82)" />
      <path
         style="color:#000000;fill:#aaccee;fill-opacity:1;fill-rule:nonzero;stroke:none;stroke-width:1px;marker:none;visibility:visible;display:inline;overflow:visible;enable-background:accumulate"
         id="path3049"
         d="m 177.5,243.04306 c -0.0637,-2.71587 -0.005,-5.41194 0.29398,-8.11184 0,0 2.98151,0.33254 2.98151,0.33254 l 0,0 c -0.29074,2.58926 -0.33369,5.17428 -0.27549,7.7793 0,0 -3,0 -3,0 z"
         inkscape:connector-curvature="0"
         transform="translate(594,82)" />
    </g>
    <text
       sodipodi:linespacing="125%"
       id="text3051"
       y="229"
       x="143"
       style="font-size:14px;font-style:normal;font-variant:normal;font-weight:normal;font-stretch:normal;text-indent:0;text-align:start;text-decoration:none;line-height:125%;letter-spacing:0px;word-spacing:0px;text-transform:none;direction:ltr;block-progression:tb;writing-mode:lr-tb;text-anchor:start;baseline-shift:baseline;color:#000000;fill:#aaccee;fill-opacity:1;fill-rule:nonzero;stroke:none;stroke-width:1px;marker:none;visibility:visible;display:inline;overflow:visible;enable-background:accumulate;font-family:Architects Daughter;-inkscape-font-specification:Architects Daughter"
       xml:space="preserve"><tspan
         y="229"
         x="143"
         id="tspan3053"
         sodipodi:role="line">def</tspan></text>
    <path
       style="color:#000000;fill:#666666;fill-opacity:1;fill-rule:nonzero;stroke:none;stroke-width:1px;marker:none;visibility:visible;display:inline;overflow:visible;enable-background:accumulate"
       id="path3063"
       d="m 215.33657,244.01245 c 0.94662,-1.99286 2.06845,-3.6067 4.07645,-4.59764 1.99817,-0.54547 3.36918,0.72904 4.47434,2.22237 0.68817,1.00205 1.32138,2.2616 2.57102,2.62872 0.70138,-0.45635 1.29231,-1.20617 1.86835,-1.82744 0.7103,-0.72854 1.48394,-1.38054 2.27884,-2.01267 0,0 1.27856,1.61542 1.27856,1.61542 l 0,0 c -0.71533,0.56306 -1.40552,1.15037 -2.04696,1.79828 -1.14005,1.22861 -2.238,2.6732 -4.10589,2.35401 -1.59819,-0.66216 -2.64391,-1.87379 -3.51209,-3.34737 -0.45998,-0.65439 -1.06516,-1.56025 -1.95181,-1.55664 -1.59981,0.6135 -2.3939,2.31764 -3.14207,3.7451 0,0 -1.78874,-1.02214 -1.78874,-1.02214 z"
       inkscape:connector-curvature="0" />
    <path
       inkscape:connector-curvature="0"
       d="m 215.18607,246.12862 c 2.0936,0 4.1872,0 6.28081,0 1.54102,0 3.08205,0 4.62308,0 1.3728,0 2.7456,0 4.11839,0 0.68478,0 1.36957,0 2.05436,0 0,0 0,2.06018 0,2.06018 l 0,0 c -0.68479,0 -1.36958,0 -2.05436,0 -1.37279,0 -2.74559,0 -4.11839,0 -1.54103,0 -3.08206,0 -4.62308,0 -2.09361,0 -4.18721,0 -6.28081,0 0,0 0,-2.06018 0,-2.06018 z"
       id="path3065"
       style="color:#000000;fill:#666666;fill-opacity:1;fill-rule:nonzero;stroke:none;stroke-width:1px;marker:none;visibility:visible;display:inline;overflow:visible;enable-background:accumulate" />
    <path
       style="color:#000000;fill:#666666;fill-opacity:1;fill-rule:nonzero;stroke:none;stroke-width:1px;marker:none;visibility:visible;display:inline;overflow:visible;enable-background:accumulate"
       id="path3067"
       d="m 215.18607,250.24898 c 2.0936,0 4.1872,0 6.28081,0 1.54102,0 3.08205,0 4.62308,0 1.3728,0 2.7456,0 4.11839,0 0.68478,0 1.36957,0 2.05436,0 0,0 0,2.06018 0,2.06018 l 0,0 c -0.68479,0 -1.36958,0 -2.05436,0 -1.37279,0 -2.74559,0 -4.11839,0 -1.54103,0 -3.08206,0 -4.62308,0 -2.09361,0 -4.18721,0 -6.28081,0 0,0 0,-2.06018 0,-2.06018 z"
       inkscape:connector-curvature="0" />
    <path
       style="color:#000000;fill:#666666;fill-opacity:1;fill-rule:nonzero;stroke:none;stroke-width:1px;marker:none;visibility:visible;display:inline;overflow:visible;enable-background:accumulate"
       id="path3069"
       d="m 197.27153,236.2823 c 2.12976,3.42272 4.38013,6.76544 6.65564,10.09199 1.04942,1.49547 2.10499,2.98661 3.16506,4.47444 0.31055,0.43586 0.79381,1.27714 1.33067,1.54813 0,0 -1.18339,1.68639 -1.18339,1.68639 l 0,0 c -2.18026,-1.67251 -3.22939,-4.51066 -5.01275,-6.5458 -2.29154,-3.34998 -4.55741,-6.7165 -6.70225,-10.16326 0,0 1.74702,-1.09189 1.74702,-1.09189 z"
       inkscape:connector-curvature="0" />
    <path
       style="color:#000000;fill:#666666;fill-opacity:1;fill-rule:nonzero;stroke:none;stroke-width:1px;marker:none;visibility:visible;display:inline;overflow:visible;enable-background:accumulate"
       id="path3071"
       d="m 208.23716,240.88896 c -3.10899,2.30752 -5.80875,5.10974 -8.32903,8.03404 -1.41757,1.87367 -3.11984,3.58234 -4.37993,5.57505 0,0 -1.72622,-1.12451 -1.72622,-1.12451 l 0,0 c 1.355,-2.0453 3.03046,-3.87414 4.54626,-5.79631 2.65737,-3.07707 5.50264,-6.03049 8.79703,-8.4353 0,0 1.09189,1.74703 1.09189,1.74703 z"
       inkscape:connector-curvature="0" />
    <path
       style="color:#000000;fill:#666666;fill-opacity:1;fill-rule:nonzero;stroke:none;stroke-width:1px;marker:none;visibility:visible;display:inline;overflow:visible;enable-background:accumulate"
       id="path3073"
       d="m 240.28115,247.18828 c 0,-2.39215 0,-4.7843 0,-7.17645 0.005,-1.16747 -0.23211,-1.27817 2.06018,-0.11375 0.15795,0.0802 0.0358,0.35332 0.0741,0.5263 0.12066,0.54543 0.16557,0.55901 0.41322,1.03783 0.76498,0.988 1.95302,1.0648 3.04316,0.65025 1.98429,-1.16125 3.05281,-3.28662 3.87688,-5.35006 0.27523,-0.90002 0.25158,-1.22418 2.03075,0.66813 0.21454,0.22818 -0.0692,0.62263 -0.0967,0.93462 -0.12657,1.4358 -0.0971,2.84269 -0.06,4.28251 0.29403,3.14719 0.64384,6.28657 0.84899,9.44153 0.1263,1.8823 0.28493,4.10689 -1.47294,5.32779 -0.32103,0.22298 -0.70368,0.3405 -1.05553,0.51076 -2.67289,0.78829 -5.43916,0.64781 -8.11579,-0.004 -1.71036,-0.59373 -4.0778,-1.53791 -3.98047,-3.75441 0.0181,-0.41152 0.20551,-0.79779 0.30827,-1.19669 1.29074,-2.67688 3.8223,-3.86354 6.53298,-4.66099 3.42688,-0.91292 6.80379,-0.29638 10.14071,0.62238 1.02189,0.34896 2.001,0.79269 3.02498,1.13315 0,0 -0.65574,1.95304 -0.65574,1.95304 l 0,0 c -0.98657,-0.33399 -1.94001,-0.73926 -2.91713,-1.1002 -2.9675,-0.82041 -5.96397,-1.42959 -9.02134,-0.62904 -2.0511,0.57888 -4.04918,1.3753 -5.14913,3.33051 -0.084,0.14662 -0.30269,0.45396 -0.28808,0.66337 0.0672,0.96335 1.87215,1.3245 2.50187,1.63953 2.23252,0.56806 4.53625,0.68251 6.78994,0.11757 0.22581,-0.0801 0.70779,-0.2116 0.9099,-0.40658 0.82776,-0.79852 0.33715,-2.44497 0.39166,-3.41235 -0.20649,-3.18206 -0.56744,-6.3475 -0.85266,-9.52269 -0.0385,-1.52748 -0.0654,-3.02487 0.0704,-4.54814 0.0298,-0.33435 -0.19433,-0.8492 0.10478,-1.00157 0.61868,-0.31514 1.39896,-0.24657 2.07997,-0.1113 0.16931,0.0336 -0.10576,0.32864 -0.15864,0.49295 -1.0712,2.64102 -2.51187,5.24134 -5.17143,6.54624 -0.41168,0.11453 -0.81161,0.28627 -1.23507,0.34359 -1.70094,0.23023 -3.36882,-0.6805 -4.28211,-2.06859 -0.11241,-0.24555 -0.95727,-2.27326 -0.68999,-2.45515 0.58818,-0.40029 1.36158,-0.42324 2.06018,-0.55787 0.21983,-0.0424 -0.69808,1.29321 0,0.67162 0,2.39215 0,4.7843 0,7.17645 0,0 -2.06018,0 -2.06018,0 z"
       inkscape:connector-curvature="0" />
    <text
       sodipodi:linespacing="125%"
       id="text3075"
       y="190"
       x="31"
       style="font-size:14px;font-style:normal;font-variant:normal;font-weight:normal;font-stretch:normal;text-indent:0;text-align:start;text-decoration:none;line-height:125%;letter-spacing:0px;word-spacing:0px;text-transform:none;direction:ltr;block-progression:tb;writing-mode:lr-tb;text-anchor:start;baseline-shift:baseline;color:#000000;fill:#666666;fill-opacity:1;fill-rule:nonzero;stroke:none;stroke-width:1px;marker:none;visibility:visible;display:inline;overflow:visible;enable-background:accumulate;font-family:Architects Daughter;-inkscape-font-specification:Architects Daughter"
       xml:space="preserve"><tspan
         y="190"
         x="31"
         id="tspan3077"
         sodipodi:role="line">Equivalence relation on Ob(<tspan
   id="tspan3079"
   style="font-size:14px;fill:none;stroke:#666666">C</tspan>):</tspan></text>
    <path
       style="color:#000000;fill:#666666;fill-opacity:1;fill-rule:nonzero;stroke:none;stroke-width:1px;marker:none;visibility:visible;display:inline;overflow:visible;enable-background:accumulate"
       id="path3136"
       d="m 203.44521,365.30592 c 0.83782,-2.23287 2.12596,-4.18725 3.90909,-5.76155 1.47524,-1.18439 3.27621,-1.38168 4.77333,-0.0888 0.30845,0.26636 0.55104,0.60059 0.82656,0.90089 1.49556,2.366 2.17966,5.1309 2.78502,7.83522 -0.03,0.0768 0.59545,2.08956 0.21551,2.20436 -1.75581,0.53047 -1.81356,-0.0547 -2.55285,-1.08102 -0.87019,-1.15634 -1.75153,-2.32245 -2.91059,-3.20281 -1.11798,-0.7181 -1.42128,-0.55619 -2.4131,0.16281 -0.85909,0.71603 -1.18325,1.69817 -1.36447,2.76109 -0.026,0.94467 0.86095,1.34455 1.63103,1.62707 1.24541,0.22655 2.32126,-0.38978 3.26095,-1.13531 0.69923,-0.69436 1.28091,-1.48294 2.02233,-2.13262 0,0 1.1134,1.30165 1.1134,1.30165 l 0,0 c -0.77868,0.64112 -1.30782,1.53056 -2.08334,2.18242 -1.44405,1.10852 -3.08125,1.8588 -4.9333,1.38061 -1.56156,-0.62911 -2.85157,-1.67321 -2.69768,-3.52262 0.276,-1.51373 0.8231,-2.88103 2.06891,-3.8656 1.62955,-1.11283 2.76755,-1.2527 4.44332,-0.11431 1.27569,1.00064 2.29792,2.25109 3.25238,3.55648 0.28115,0.3903 0.70399,0.97639 0.70223,0.97859 -1.36011,1.70152 -1.12288,0.7791 -1.2225,0.23382 -0.0589,-0.3222 -0.13594,-0.6408 -0.2039,-0.96121 -0.54108,-2.42774 -1.15289,-4.90003 -2.39723,-7.07479 -1.04199,-1.24881 -1.74061,-1.73792 -3.18939,-0.65569 -1.56995,1.35241 -2.66369,3.08083 -3.41074,5.013 0,0 -1.62497,-0.54166 -1.62497,-0.54166 z"
       inkscape:connector-curvature="0" />
    <path
       style="color:#000000;fill:#666666;fill-opacity:1;fill-rule:nonzero;stroke:none;stroke-width:1px;marker:none;visibility:visible;display:inline;overflow:visible;enable-background:accumulate"
       id="path3138"
       d="m 219.18317,367.948 c 0,2.13502 0,4.27004 0,6.40506 0,0 -1.71287,0 -1.71287,0 l 0,0 c 0,-2.13502 0,-4.27004 0,-6.40506 0,0 1.71287,0 1.71287,0 z"
       inkscape:connector-curvature="0" />
    <path
       style="color:#000000;fill:#666666;fill-opacity:1;fill-rule:nonzero;stroke:none;stroke-width:1px;marker:none;visibility:visible;display:inline;overflow:visible;enable-background:accumulate"
       id="path3142"
       d="m 272.5416,361.91859 c 0.6648,-1.45176 1.35158,-3.11844 2.63037,-4.15989 0.25539,-0.20798 0.55681,-0.35196 0.83522,-0.52794 0.33246,-0.0689 0.65829,-0.22364 0.99738,-0.20658 2.32876,0.1172 3.58854,3.06738 4.48423,4.79733 0.99714,2.2574 1.67831,4.6562 2.27054,7.04963 0.038,0.93854 0.18726,0.93005 -1.80305,0.67579 -0.0181,-0.002 -0.93006,-0.97955 -1.06828,-1.11664 -0.31705,-0.31444 -0.83131,-0.76371 -1.1623,-1.05823 -0.93856,-0.79933 -1.96806,-1.32233 -3.21148,-1.14973 -1.09342,0.16312 -2.03334,0.63853 -2.63079,1.57829 -0.22475,0.7571 0.66496,0.94332 1.23774,1.12544 1.53786,0.44213 3.06894,-0.0605 4.50936,-0.60979 1.03881,-0.39097 1.97529,-0.97883 3.01155,-1.37849 0,0 0.60958,1.60073 0.60958,1.60073 l 0,0 c -1.04079,0.38991 -1.9649,1.01508 -3.01664,1.38042 -1.82874,0.68332 -3.74719,1.22431 -5.68145,0.62323 -1.79396,-0.66806 -2.97124,-1.69035 -2.08343,-3.70929 0.94507,-1.3236 2.24353,-2.10182 3.87198,-2.31474 1.82145,-0.14382 3.13705,0.39539 4.52262,1.57467 0.63189,0.56298 1.2376,1.13173 1.82237,1.74351 0.15746,0.16472 0.56422,0.28372 0.47373,0.49285 -0.18896,0.43665 -1.58741,0.85814 -1.065,0.95031 -0.55075,-2.26478 -1.20878,-4.53122 -2.12949,-6.67303 -0.40317,-0.78563 -1.80251,-3.55031 -2.7218,-3.88629 -0.11542,-0.0422 -0.24561,-0.009 -0.36843,-0.0133 -1.43111,0.73244 -2.09772,2.42361 -2.73072,3.81317 0,0 -1.60381,-0.60143 -1.60381,-0.60143 z"
       inkscape:connector-curvature="0" />
    <path
       style="color:#000000;fill:#666666;fill-opacity:1;fill-rule:nonzero;stroke:none;stroke-width:1px;marker:none;visibility:visible;display:inline;overflow:visible;enable-background:accumulate"
       id="path3144"
       d="m 285.10899,367.43685 c 1.71515,-1.13144 3.13429,-1.81549 5.14331,-1.02914 1.60599,1.21354 1.45825,2.58564 0.25694,4.03362 0.76647,0.0319 -3.3553,1.90553 -2.46781,1.40805 -0.0208,-0.46236 -0.18719,-0.94134 -0.0625,-1.38707 0.0399,-0.14252 0.29534,0.0198 0.4432,0.0258 0.82966,0.0336 1.66194,0.0159 2.49195,0.0106 1.06504,-0.009 2.1301,-0.0159 3.19516,-0.0204 0,0 0.007,1.71285 0.007,1.71285 l 0,0 c -1.06382,0.005 -2.12762,0.0114 -3.19141,0.0204 -0.32544,0.002 -3.06577,0.0635 -3.17798,-0.0521 -0.41117,-0.42357 -0.62136,-1.0039 -0.93203,-1.50584 0.7342,-0.57196 1.7177,-0.67234 2.40109,-1.33556 0.40101,-0.42555 0.7887,-0.78763 0.33341,-1.34824 -1.09303,-0.69169 -2.53036,0.28155 -3.44496,0.86089 0,0 -0.99559,-1.39382 -0.99559,-1.39382 z"
       inkscape:connector-curvature="0" />
    <path
       style="color:#000000;fill:#cccccf;fill-opacity:1;fill-rule:nonzero;stroke:none;stroke-width:1px;marker:none;visibility:visible;display:inline;overflow:visible;enable-background:accumulate"
       id="path3146"
       d="m 230.42884,364.19307 c 4.02531,0 8.05063,0 12.07594,0 4.57247,0.0298 9.1605,0.10263 13.71944,0.48508 1.70394,0.18667 0.91493,0.0871 2.36832,0.28834 0,0 -0.23555,1.69659 -0.23555,1.69659 l 0,0 c -1.39041,-0.19355 -0.63196,-0.0973 -2.27668,-0.27811 -4.51065,-0.38231 -9.05141,-0.44635 -13.57553,-0.47903 -4.02531,0 -8.05063,0 -12.07594,0 0,0 0,-1.71287 0,-1.71287 z"
       inkscape:connector-curvature="0" />
    <path
       style="color:#000000;fill:#cccccf;fill-opacity:1;fill-rule:nonzero;stroke:none;stroke-width:1px;marker:none;visibility:visible;display:inline;overflow:visible;enable-background:accumulate"
       id="path3148"
       d="m 257.07013,362.4903 c 1.35821,0.82467 2.72956,2.68001 4.38027,2.86646 0.0333,-0.0109 0.13402,-0.0405 0.0999,-0.0327 -0.85239,0.19592 -0.0797,-0.0159 -0.53721,1.38018 -0.0241,0.0735 -0.15015,-0.0373 -0.22606,-0.052 -0.36213,-0.0699 -0.408,-0.0662 -0.79686,-0.10895 -0.91834,0.0155 -1.72478,0.36118 -2.49074,0.84007 -0.36085,0.29129 -0.65511,0.66245 -0.94101,1.02591 -0.13137,0.16703 -0.48879,0.60445 -0.27856,0.57343 0,0 -1.71032,-0.0935 -1.71032,-0.0935 l 0,0 c 0.19381,-1.27133 1.06164,-2.17429 2.03464,-2.96609 1.10189,-0.6657 2.26887,-1.12573 3.58093,-1.08152 0.26493,0.0313 1.491,0.0745 1.63654,0.35261 0.81528,1.5581 0.54333,1.83235 -0.69437,1.84464 -2.01062,-0.45796 -3.47587,-1.97738 -5.08485,-3.17827 0,0 1.02772,-1.3703 1.02772,-1.3703 z"
       inkscape:connector-curvature="0" />
    <path
       style="color:#000000;fill:#cccccf;fill-opacity:1;fill-rule:nonzero;stroke:none;stroke-width:1px;marker:none;visibility:visible;display:inline;overflow:visible;enable-background:accumulate"
       id="path3150"
       d="m 260.13315,358.39384 c -1.75829,-1.63478 -3.75425,-2.99132 -5.86237,-4.12955 -2.47196,-1.33584 -5.21574,-1.69462 -7.97055,-1.92151 -3.44203,-0.30218 -6.86895,-0.10987 -10.29456,0.2518 -2.55564,0.40071 -5.2079,0.75149 -7.52574,1.96645 -0.70839,0.5188 -1.37946,1.3639 -1.52524,2.25917 0.11457,0.003 0.0615,0.0216 0.046,-0.16197 0,0 -1.4513,0.90975 -1.4513,0.90975 l 0,0 c -0.31921,-0.70454 -0.22311,-0.32417 -0.26016,-1.14784 0.37661,-1.38238 1.17881,-2.61047 2.40693,-3.38213 2.52584,-1.28073 5.34767,-1.75018 8.12986,-2.14685 3.53231,-0.37229 7.06705,-0.56589 10.61587,-0.25539 2.99124,0.24987 5.96508,0.66877 8.6454,2.12275 2.24898,1.22417 4.38568,2.66682 6.25709,4.42413 0,0 -1.21119,1.21119 -1.21119,1.21119 z"
       inkscape:connector-curvature="0" />
    <path
       style="color:#000000;fill:#cccccf;fill-opacity:1;fill-rule:nonzero;stroke:none;stroke-width:1px;marker:none;visibility:visible;display:inline;overflow:visible;enable-background:accumulate"
       id="path3152"
       d="m 225.4637,353.03482 c 0.0301,0.91812 -0.0262,1.8333 -0.24783,2.72739 -0.12185,0.49161 -0.3597,0.93521 -0.46674,1.4275 0.018,-0.0283 0.0361,-0.0566 0.0541,-0.0849 -0.0208,-0.0962 -0.10926,-0.20211 -0.0622,-0.28856 0.0312,-0.0575 0.0963,0.0894 0.15089,0.12556 0.25952,0.17192 0.55795,0.30908 0.838,0.44473 0.87531,0.51614 1.73337,1.05462 2.58824,1.60273 0.32803,0.23461 0.58994,0.54929 0.98525,0.65693 0,0 -0.65353,1.58329 -0.65353,1.58329 l 0,0 c -0.46713,-0.21612 -0.88835,-0.43168 -1.25743,-0.79904 -0.79984,-0.51461 -1.60539,-1.01508 -2.41966,-1.50746 -0.92512,-0.4617 -1.94231,-0.94449 -1.88614,-2.14558 0.32781,-1.23993 0.86311,-2.40791 0.66421,-3.74257 0,0 1.71287,0 1.71287,0 z"
       inkscape:connector-curvature="0" />
    <path
       style="color:#000000;fill:#cccccf;fill-opacity:1;fill-rule:nonzero;stroke:none;stroke-width:1px;marker:none;visibility:visible;display:inline;overflow:visible;enable-background:accumulate"
       id="path3156"
       d="m 229.64235,373.02318 c 1.57141,2.24547 3.87293,3.7115 6.23759,4.99693 3.37106,1.72966 6.71752,2.28693 10.46455,2.29905 4.06013,-0.17829 8.03093,-1.12195 11.95837,-2.10395 1.59552,-0.63233 4.02296,-0.42964 5.17226,-1.91939 0,0 1.28195,1.13602 1.28195,1.13602 l 0,0 c -1.60825,1.70154 -3.87586,1.85444 -6.03896,2.44515 -4.06609,1.01548 -8.17782,1.98684 -12.38233,2.15502 -4.08582,-0.0278 -7.59983,-0.62673 -11.27586,-2.50807 -2.58903,-1.41584 -5.09144,-3.04364 -6.81139,-5.50517 0,0 1.39382,-0.99559 1.39382,-0.99559 z"
       inkscape:connector-curvature="0" />
    <path
       style="color:#000000;fill:#cccccf;fill-opacity:1;fill-rule:nonzero;stroke:none;stroke-width:1px;marker:none;visibility:visible;display:inline;overflow:visible;enable-background:accumulate"
       id="path3160"
       d="m 261.80111,374.54521 c 1.6081,0.24317 3.17595,0.38749 4.76934,0.0307 1.72072,-0.90036 -0.84931,0.44227 1.24489,0.79745 -0.46918,0.31479 -0.48498,1.13329 -0.61091,1.62847 -0.14198,1.06813 -0.74981,2.31497 -0.37259,3.38572 0,0 -1.65923,0.42531 -1.65923,0.42531 l 0,0 c -0.31146,-1.42528 0.0389,-2.83483 0.3718,-4.23327 0.27833,-1.09412 0.47662,-2.29516 1.63172,-2.79535 0.28631,-0.013 0.59411,-0.14839 0.85894,-0.0388 0.26686,0.1104 0.49853,0.36222 0.58717,0.63707 0.35709,1.10731 -0.93356,1.60383 -1.68409,1.86636 -1.78765,0.38676 -3.54787,0.28004 -5.34949,-0.004 0,0 0.21245,-1.69964 0.21245,-1.69964 z"
       inkscape:connector-curvature="0" />
    <path
       style="color:#000000;fill:#666666;fill-opacity:1;fill-rule:nonzero;stroke:none;stroke-width:1px;marker:none;visibility:visible;display:inline;overflow:visible;enable-background:accumulate"
       id="path3164"
       d="m 211.76073,427.25924 c 0,2.88372 0,5.76744 0,8.65116 -0.13734,2.20854 -0.13211,4.44748 -0.47842,6.63857 -0.0513,0.12477 -0.0233,0.40798 -0.15389,0.37429 -1.5857,-0.40905 -2.1582,-1.03438 -0.77063,-1.78931 0.38602,-0.21003 0.82114,-0.2485 1.24264,-0.31872 1.46969,-0.16996 2.95197,0.007 4.39783,-0.33613 0.72282,-0.26656 1.32883,-0.7891 1.14053,-1.60477 -0.53982,-0.84746 -1.24862,-1.20595 -2.23208,-0.99181 -1.14205,0.35119 -1.52224,1.3085 -1.80454,2.37462 -0.13282,0.75713 -0.0784,0.37626 -0.16307,1.14265 0,0 -1.70189,-0.19365 -1.70189,-0.19365 l 0,0 c 0.10832,-0.92946 0.0378,-0.46108 0.21384,-1.40477 0.49328,-1.73453 1.34985,-3.1547 3.21596,-3.61486 0.30516,-0.032 0.6089,-0.10875 0.91546,-0.0959 1.56803,0.0659 2.79763,1.19901 3.26274,2.63508 0.0715,1.91591 -0.71476,2.76147 -2.46978,3.42421 -1.49169,0.32392 -2.99409,0.25048 -4.5103,0.35759 -0.19405,0.0274 -0.40083,0.13907 -0.58385,0.069 -0.0764,-0.0292 0.15028,-0.27174 -0.001,-0.24531 -1.64868,-0.47639 -1.46066,-0.79892 -1.68885,-0.0551 0.34754,-2.0976 0.30613,-4.25125 0.45655,-6.36573 0,-2.88373 0,-5.76744 0,-8.65116 0,0 1.71287,0 1.71287,0 z"
       inkscape:connector-curvature="0" />
    <path
       style="color:#000000;fill:#666666;fill-opacity:1;fill-rule:nonzero;stroke:none;stroke-width:1px;marker:none;visibility:visible;display:inline;overflow:visible;enable-background:accumulate"
       id="path3166"
       d="m 223.02288,438.93247 c -0.37689,1.78616 -0.59922,3.59791 -0.78232,5.41242 0,0 -1.70419,-0.17224 -1.70419,-0.17224 l 0,0 c 0.19046,-1.88144 0.42214,-3.75997 0.81443,-5.61176 0,0 1.67208,0.37158 1.67208,0.37158 z"
       inkscape:connector-curvature="0" />
    <path
       style="color:#000000;fill:#cccccf;fill-opacity:1;fill-rule:nonzero;stroke:none;stroke-width:1px;marker:none;visibility:visible;display:inline;overflow:visible;enable-background:accumulate"
       id="path3168"
       d="m 213.96964,383.97273 c -0.35221,3.39006 -0.37816,6.80349 -0.43191,10.2081 0.0105,5.9935 -0.12456,11.98195 -0.32697,17.97151 -0.12412,3.19455 -0.19252,6.39084 -0.29091,9.58615 -0.0413,0.77561 0.0552,0.25044 -1.53202,-0.46808 0,0 1.58931,0.63875 1.58931,0.63875 l 0,0 c -1.83938,-0.0451 -1.81238,0.54879 -1.76935,-0.22341 0.0986,-3.19702 0.1668,-6.39502 0.29107,-9.59126 0.20208,-5.97931 0.33674,-11.95747 0.32621,-17.94073 0.0548,-3.46654 0.0824,-6.9421 0.44493,-10.39348 0,0 1.69964,0.21245 1.69964,0.21245 z"
       inkscape:connector-curvature="0" />
    <path
       style="color:#000000;fill:#cccccf;fill-opacity:1;fill-rule:nonzero;stroke:none;stroke-width:1px;marker:none;visibility:visible;display:inline;overflow:visible;enable-background:accumulate"
       id="path3172"
       d="m 209.65886,414.70305 c 0.52493,0.78924 1.19814,1.46032 1.76784,2.21496 0.33707,0.44649 0.60536,0.95354 0.98954,1.36266 -0.66819,-0.54841 0.32699,0.17006 -0.90512,-0.16863 -0.0786,-0.0216 0.11532,-0.11525 0.17243,-0.17341 0.34677,-0.35318 0.68998,-0.70992 1.03518,-1.06463 0.92194,-1.08097 2.07091,-1.89973 3.17947,-2.76801 0,0 1.05428,1.34997 1.05428,1.34997 l 0,0 c -1.04992,0.81784 -2.13716,1.58834 -3.00624,2.61267 -0.6129,0.62978 -1.27444,1.6324 -2.26311,1.64614 -0.20676,0.003 -0.36391,-0.19649 -0.54587,-0.29473 -1.02179,-1.17982 -1.83259,-2.55068 -2.87222,-3.7214 0,0 1.39382,-0.99559 1.39382,-0.99559 z"
       inkscape:connector-curvature="0" />
    <path
       style="color:#000000;fill:#cccccf;fill-opacity:1;fill-rule:nonzero;stroke:none;stroke-width:1px;marker:none;visibility:visible;display:inline;overflow:visible;enable-background:accumulate"
       id="path3174"
       d="m 203.60937,380.97805 c -2.64473,2.46066 -4.53338,5.55507 -6.26959,8.68785 -2.10726,4.36994 -3.64828,9.03196 -4.41667,13.82941 -0.15614,0.97485 -0.23935,1.95998 -0.35902,2.93997 -0.34678,4.76313 0.33598,8.66146 2.38073,12.93789 0.57774,1.20142 1.44299,2.0693 2.5004,2.83382 0,0 -1.01217,1.38182 -1.01217,1.38182 l 0,0 c -1.27555,-0.94416 -2.33321,-2.02465 -3.03496,-3.47973 -2.20058,-4.64626 -2.90467,-8.71567 -2.53408,-13.88275 0.12634,-1.0215 0.21514,-2.04835 0.37901,-3.06451 0.80176,-4.97186 2.40459,-9.8025 4.59917,-14.32726 1.81779,-3.2694 3.79614,-6.49574 6.55599,-9.06769 0,0 1.21119,1.21118 1.21119,1.21118 z"
       inkscape:connector-curvature="0" />
    <path
       style="color:#000000;fill:#cccccf;fill-opacity:1;fill-rule:nonzero;stroke:none;stroke-width:1px;marker:none;visibility:visible;display:inline;overflow:visible;enable-background:accumulate"
       id="path3176"
       d="m 199.35003,420.10704 c 0.35666,1.41068 1.23641,2.66193 1.45324,4.10588 -0.0957,0.24856 -0.0963,0.55996 -0.28718,0.74569 -0.67559,0.65716 -1.78177,0.13776 -2.49736,-0.14402 -0.74268,-0.3182 -1.55427,-0.59757 -2.37191,-0.53108 -0.833,0.0876 -1.50041,0.40996 -1.93685,1.12623 -0.45984,0.79009 -0.7773,1.63892 -0.93647,2.53625 0,0 -1.68199,-0.32381 -1.68199,-0.32381 l 0,0 c 0.22919,-1.1277 0.59971,-2.20539 1.21192,-3.18998 0.90138,-1.21582 1.77497,-1.70069 3.27907,-1.86035 1.07138,-0.0166 2.11542,0.207 3.09091,0.65992 1.75831,0.79422 0.63126,-0.35391 0.42392,1.13512 -0.3363,-1.22375 -0.98693,-2.41297 -1.35111,-3.65842 0,0 1.60381,-0.60143 1.60381,-0.60143 z"
       inkscape:connector-curvature="0" />
    <path
       style="color:#000000;fill:#666666;fill-opacity:1;fill-rule:nonzero;stroke:none;stroke-width:1px;marker:none;visibility:visible;display:inline;overflow:visible;enable-background:accumulate"
       id="path3182"
       d="m 277.99175,427.25924 c 0,2.54199 0,5.08397 0,7.62596 -0.0281,1.78536 0.11184,3.57327 -0.17386,5.34187 -0.15164,0.975 -0.57841,2.50891 -1.97197,1.87991 -0.22858,-0.10318 -0.29448,-0.40603 -0.44171,-0.60904 -0.48207,-1.70318 0.4687,-2.24733 2.03517,-1.88219 1.02514,0.28783 2.04425,0.45646 3.09414,0.23925 1.14555,-0.36835 1.49207,-1.18013 1.76962,-2.26176 0.15444,-1.19055 -0.54878,-2.1328 -1.65062,-2.50826 -1.43804,-0.20055 -2.105,1.08619 -2.60546,2.21386 -0.41786,0.93831 -0.45828,1.74834 -0.21201,2.72041 0,0 -1.67128,0.37517 -1.67128,0.37517 l 0,0 c -0.27677,-1.34464 -0.25418,-2.53276 0.32607,-3.80899 0.99182,-2.11436 2.27814,-3.63629 4.82801,-3.07883 0.30343,0.14097 0.62802,0.24328 0.9103,0.42289 1.39353,0.88668 1.98212,2.529 1.72943,4.10734 -0.50599,1.82816 -1.22453,2.92832 -3.11214,3.50241 -1.29609,0.22157 -2.5472,0.1163 -3.80986,-0.25889 -0.10673,-0.0275 -0.22394,-0.0287 -0.32019,-0.0824 -0.10022,-0.0559 0.16096,-0.16987 0.2072,-0.27488 0.046,-0.10441 0.0536,-0.22246 0.0657,-0.33591 0.008,-0.0726 -0.24429,0.49519 -0.0174,0.21825 -1.28057,-0.87725 -1.2428,0.85782 -0.9369,-0.33774 0.0435,-0.16995 0.0624,-0.34524 0.0936,-0.51786 0.27947,-1.67412 0.10463,-3.37427 0.15128,-5.06465 0,-2.54199 0,-5.08397 0,-7.62596 0,0 1.71287,0 1.71287,0 z"
       inkscape:connector-curvature="0" />
    <path
       style="color:#000000;fill:#666666;fill-opacity:1;fill-rule:nonzero;stroke:none;stroke-width:1px;marker:none;visibility:visible;display:inline;overflow:visible;enable-background:accumulate"
       id="path3184"
       d="m 285.18187,438.82811 c 1.72025,-0.82886 3.51931,-1.61459 5.45268,-1.63564 0.26474,0.11718 0.59579,0.14072 0.79422,0.35155 1.45879,1.54995 -0.79504,3.64241 -1.75368,4.71609 -0.67049,0.69066 -1.43068,1.29936 -2.03715,2.05182 -0.1327,0.16464 -0.43715,0.59034 -0.36944,0.68504 0.0374,0.0523 0.0861,-0.0956 0.12912,-0.14339 0.0312,-0.0135 0.06,-0.0455 0.0936,-0.0406 0.21037,0.0305 0.40151,0.14322 0.60913,0.18887 0.61446,0.13509 1.22942,0.18405 1.8555,0.22855 1.48719,0.15501 2.95676,-0.10008 4.42722,-0.28482 0.83986,-0.0921 0.45637,-0.0233 1.15426,-0.18423 0,0 0.36807,1.67285 0.36807,1.67285 l 0,0 c -0.87146,0.18505 -0.43509,0.11534 -1.30885,0.21089 -1.58223,0.19873 -3.16536,0.4594 -4.76518,0.29365 -1.53271,-0.11411 -3.22163,-0.19043 -4.09001,-1.6484 -0.0241,-0.30223 -0.10939,-0.6058 -0.0722,-0.90669 0.15219,-1.23105 1.99492,-2.39255 2.72954,-3.26587 0.52319,-0.58309 0.83675,-0.90561 1.30054,-1.52014 0.12489,-0.16547 0.22873,-0.34592 0.34868,-0.51499 0.0525,-0.0739 0.0794,-0.19557 0.16826,-0.21362 0.70559,-0.14335 0.0468,0.30663 0.40316,0.0362 -1.61571,-0.0685 -3.14155,0.79696 -4.58767,1.41002 0,0 -0.84983,-1.48719 -0.84983,-1.48719 z"
       inkscape:connector-curvature="0" />
    <path
       style="color:#000000;fill:#cccccf;fill-opacity:1;fill-rule:nonzero;stroke:none;stroke-width:1px;marker:none;visibility:visible;display:inline;overflow:visible;enable-background:accumulate"
       id="path3186"
       d="m 232.00998,429.10022 c 2.66699,-2.02106 5.73128,-3.30175 8.85436,-4.42928 3.7657,-1.2367 7.69341,-2.31347 11.69731,-2.12701 0.79125,0.0368 1.5752,0.16866 2.3628,0.25299 4.09695,0.74809 7.30139,3.23047 10.28396,5.97248 0.31522,0.33155 0.63045,0.66309 0.94569,0.99463 0,0 -1.24305,1.17846 -1.24305,1.17846 l 0,0 c -0.28753,-0.30425 -0.57506,-0.60851 -0.86259,-0.91276 -2.70742,-2.49465 -5.5952,-4.80841 -9.31073,-5.53014 -0.71963,-0.081 -1.43567,-0.20572 -2.15888,-0.24287 -3.81082,-0.19581 -7.54967,0.85708 -11.13384,2.02567 -2.97729,1.0707 -5.89943,2.28289 -8.43944,4.21165 0,0 -0.99559,-1.39382 -0.99559,-1.39382 z"
       inkscape:connector-curvature="0" />
    <path
       style="color:#000000;fill:#cccccf;fill-opacity:1;fill-rule:nonzero;stroke:none;stroke-width:1px;marker:none;visibility:visible;display:inline;overflow:visible;enable-background:accumulate"
       id="path3188"
       d="m 268.28548,426.75658 c 0.14979,1.86102 0.28136,3.7245 0.46341,5.58278 -0.004,1.69158 -1.06451,1.42724 -2.21958,1.19181 -0.84138,-0.10145 -1.73735,-0.35102 -2.55543,-0.0428 -0.59528,0.36687 -0.87131,0.96975 -1.19115,1.56042 0,0 -1.50555,-0.81686 -1.50555,-0.81686 l 0,0 c 0.53893,-0.99152 1.10453,-1.91114 2.18932,-2.37955 1.13227,-0.31671 2.25878,-0.21811 3.40729,0.001 0.0651,0.0135 0.62289,0.12363 0.73235,0.16242 0.12747,0.0452 -0.96586,0.5801 -0.59205,0.67757 0.0611,0.0159 0.02,-0.12478 0.0301,-0.18716 -0.18692,-1.91366 -0.32694,-3.83242 -0.47155,-5.74954 0,0 1.71287,0 1.71287,0 z"
       inkscape:connector-curvature="0" />
    <path
       style="color:#000000;fill:#cccccf;fill-opacity:1;fill-rule:nonzero;stroke:none;stroke-width:1px;marker:none;visibility:visible;display:inline;overflow:visible;enable-background:accumulate"
       id="path3190"
       d="m 235.37356,441.47847 c 1.80028,2.26011 3.81013,4.28573 6.09522,6.05178 3.24472,2.23455 7.08819,3.0827 10.94287,3.4823 4.64299,0.22112 8.287,-1.75143 11.7734,-4.60317 1.30544,-1.12483 2.31981,-2.45915 3.07956,-3.99288 0,0 1.52995,0.7702 1.52995,0.7702 l 0,0 c -0.88741,1.73986 -2.02763,3.27565 -3.52818,4.55107 -4.00841,3.24849 -7.72754,5.18069 -13.03433,4.97822 -4.17257,-0.44679 -8.31558,-1.38608 -11.8127,-3.83199 -2.37114,-1.84326 -4.47509,-3.93847 -6.34629,-6.29081 0,0 1.3005,-1.11472 1.3005,-1.11472 z"
       inkscape:connector-curvature="0" />
    <path
       style="color:#000000;fill:#cccccf;fill-opacity:1;fill-rule:nonzero;stroke:none;stroke-width:1px;marker:none;visibility:visible;display:inline;overflow:visible;enable-background:accumulate"
       id="path3192"
       d="m 234.59901,442.17243 c 0,1.73288 0,3.46577 0,5.19867 0,0.0784 0,0.15689 0,0.23533 0,0.003 0.003,0.009 0,0.009 -1.84717,-0.25158 -1.71287,0.3323 -1.71287,-0.64899 0,-0.82824 -0.0186,-0.38571 0.0728,-1.32676 0.30577,-1.34547 0.1325,-2.75241 0.43267,-4.08773 0.87285,-1.50071 2.63517,-1.39395 4.17161,-1.4438 1.14308,-0.0213 2.28639,-0.006 3.42949,0.004 0,0 -0.0151,1.71281 -0.0151,1.71281 l 0,0 c -1.11988,-0.01 -2.23996,-0.0247 -3.35981,-0.005 -0.54977,0.0172 -0.8732,0.0199 -1.41842,0.0657 -0.23868,0.0201 -0.80312,0.18863 -1.07045,0.14733 -0.032,-0.005 -0.0516,-0.0392 -0.0774,-0.0588 -0.16236,0.50029 -0.0825,1.00021 -0.11378,1.52132 -0.0465,0.7767 -0.20524,1.54538 -0.27501,2.31977 -0.085,0.7649 -0.0638,0.38127 -0.0638,1.15089 0,0.13563 0.12683,0.35883 0,0.40689 -1.79222,0.67906 -1.71285,0.75637 -1.71287,-0.002 0,-1.7329 0,-3.46579 0,-5.19868 0,0 1.71287,0 1.71287,0 z"
       inkscape:connector-curvature="0" />
    <path
       style="color:#000000;fill:#cccccf;fill-opacity:1;fill-rule:nonzero;stroke:none;stroke-width:1px;marker:none;visibility:visible;display:inline;overflow:visible;enable-background:accumulate"
       id="path3194"
       d="m 309.72358,364.19307 c 1.45455,0 2.9091,0 4.36364,0 0,0 0,1.71287 0,1.71287 l 0,0 c -1.45454,0 -2.90909,0 -4.36364,0 0,0 0,-1.71287 0,-1.71287 z"
       inkscape:connector-curvature="0" />
    <path
       style="color:#000000;fill:#cccccf;fill-opacity:1;fill-rule:nonzero;stroke:none;stroke-width:1px;marker:none;visibility:visible;display:inline;overflow:visible;enable-background:accumulate"
       id="path3196"
       d="m 324.50017,364.19307 c 1.64902,0 3.29805,0 4.94708,0 0,0 0,1.71287 0,1.71287 l 0,0 c -1.64903,0 -3.29806,0 -4.94708,0 0,0 0,-1.71287 0,-1.71287 z"
       inkscape:connector-curvature="0" />
    <path
       style="color:#000000;fill:#cccccf;fill-opacity:1;fill-rule:nonzero;stroke:none;stroke-width:1px;marker:none;visibility:visible;display:inline;overflow:visible;enable-background:accumulate"
       id="path3198"
       d="m 339.34505,364.19307 c 1.67983,0.0106 3.35928,-0.0456 5.03576,0.0705 0,0 -0.12198,1.70852 -0.12198,1.70852 l 0,0 c -1.63513,-0.12072 -3.2751,-0.048 -4.91378,-0.0661 0,0 0,-1.71287 0,-1.71287 z"
       inkscape:connector-curvature="0" />
    <path
       inkscape:connector-curvature="0"
       d="m 309.72358,432.70792 c 1.45455,0 2.9091,0 4.36364,0 0,0 0,1.71287 0,1.71287 l 0,0 c -1.45454,0 -2.90909,0 -4.36364,0 0,0 0,-1.71287 0,-1.71287 z"
       id="path3200"
       style="color:#000000;fill:#cccccf;fill-opacity:1;fill-rule:nonzero;stroke:none;stroke-width:1px;marker:none;visibility:visible;display:inline;overflow:visible;enable-background:accumulate" />
    <path
       inkscape:connector-curvature="0"
       d="m 324.50017,432.70792 c 1.64902,0 3.29805,0 4.94708,0 0,0 0,1.71287 0,1.71287 l 0,0 c -1.64903,0 -3.29806,0 -4.94708,0 0,0 0,-1.71287 0,-1.71287 z"
       id="path3202"
       style="color:#000000;fill:#cccccf;fill-opacity:1;fill-rule:nonzero;stroke:none;stroke-width:1px;marker:none;visibility:visible;display:inline;overflow:visible;enable-background:accumulate" />
    <path
       inkscape:connector-curvature="0"
       d="m 339.34505,432.70792 c 1.67983,0.0106 3.35928,-0.0456 5.03576,0.0705 0,0 -0.12198,1.70852 -0.12198,1.70852 l 0,0 c -1.63513,-0.12072 -3.2751,-0.048 -4.91378,-0.0661 0,0 0,-1.71287 0,-1.71287 z"
       id="path3204"
       style="color:#000000;fill:#cccccf;fill-opacity:1;fill-rule:nonzero;stroke:none;stroke-width:1px;marker:none;visibility:visible;display:inline;overflow:visible;enable-background:accumulate" />
    <path
       style="color:#000000;fill:#cccccf;fill-opacity:1;fill-rule:nonzero;stroke:none;stroke-width:1px;marker:none;visibility:visible;display:inline;overflow:visible;enable-background:accumulate"
       id="path3212"
       d="m 284.48508,388.65659 c 0,-1.45454 0,-2.90909 0,-4.36364 0,0 -1.71287,0 -1.71287,0 l 0,0 c 0,1.45455 0,2.9091 0,4.36364 0,0 1.71287,0 1.71287,0 z"
       inkscape:connector-curvature="0" />
    <path
       style="color:#000000;fill:#cccccf;fill-opacity:1;fill-rule:nonzero;stroke:none;stroke-width:1px;marker:none;visibility:visible;display:inline;overflow:visible;enable-background:accumulate"
       id="path3214"
       d="m 284.48508,404.01662 c 0,-1.64903 0,-3.29805 0,-4.94708 0,0 -1.71287,0 -1.71287,0 l 0,0 c 0,1.64903 0,3.29805 0,4.94708 0,0 1.71287,0 1.71287,0 z"
       inkscape:connector-curvature="0" />
    <path
       style="color:#000000;fill:#cccccf;fill-opacity:1;fill-rule:nonzero;stroke:none;stroke-width:1px;marker:none;visibility:visible;display:inline;overflow:visible;enable-background:accumulate"
       id="path3216"
       d="m 284.5467,418.95018 c -0.0106,-1.67982 0.0456,-3.35928 -0.0705,-5.03576 0,0 -1.70852,0.12198 -1.70852,0.12198 l 0,0 c 0.12072,1.63514 0.048,3.27511 0.0661,4.91378 0,0 1.71287,0 1.71287,0 z"
       inkscape:connector-curvature="0" />
    <path
       style="color:#000000;fill:#cccccf;fill-opacity:1;fill-rule:nonzero;stroke:none;stroke-width:1px;marker:none;visibility:visible;display:inline;overflow:visible;enable-background:accumulate"
       id="path3224"
       d="m 244.63447,482.95215 c 1.45455,0 2.9091,0 4.36364,0 0,0 0,1.71287 0,1.71287 l 0,0 c -1.45454,0 -2.90909,0 -4.36364,0 0,0 0,-1.71287 0,-1.71287 z"
       inkscape:connector-curvature="0" />
    <path
       style="color:#000000;fill:#cccccf;fill-opacity:1;fill-rule:nonzero;stroke:none;stroke-width:1px;marker:none;visibility:visible;display:inline;overflow:visible;enable-background:accumulate"
       id="path3226"
       d="m 259.41106,482.95215 c 1.64903,0 3.29805,0 4.94708,0 0,0 0,1.71287 0,1.71287 l 0,0 c -1.64903,0 -3.29805,0 -4.94708,0 0,0 0,-1.71287 0,-1.71287 z"
       inkscape:connector-curvature="0" />
    <path
       style="color:#000000;fill:#cccccf;fill-opacity:1;fill-rule:nonzero;stroke:none;stroke-width:1px;marker:none;visibility:visible;display:inline;overflow:visible;enable-background:accumulate"
       id="path3228"
       d="m 274.25594,482.95215 c 1.67983,0.0106 3.35929,-0.0456 5.03576,0.0705 0,0 -0.12197,1.70852 -0.12197,1.70852 l 0,0 c -1.63514,-0.12072 -3.27511,-0.048 -4.91379,-0.0661 0,0 0,-1.71287 0,-1.71287 z"
       inkscape:connector-curvature="0" />
    <text
       xml:space="preserve"
       style="font-size:14px;font-style:normal;font-variant:normal;font-weight:normal;font-stretch:normal;text-indent:0;text-align:start;text-decoration:none;line-height:125%;letter-spacing:0px;word-spacing:0px;text-transform:none;direction:ltr;block-progression:tb;writing-mode:lr-tb;text-anchor:start;baseline-shift:baseline;color:#000000;fill:#666666;fill-opacity:1;fill-rule:nonzero;stroke:none;stroke-width:1px;marker:none;visibility:visible;display:inline;overflow:visible;enable-background:accumulate;font-family:Architects Daughter;-inkscape-font-specification:Architects Daughter"
       x="70"
       y="403"
       id="text3230"
       sodipodi:linespacing="125%"><tspan
         sodipodi:role="line"
         id="tspan3232"
         x="70"
         y="403">equivalence</tspan><tspan
         sodipodi:role="line"
         x="70"
         y="420.5"
         id="tspan3234">classes</tspan></text>
    <path
       style="color:#000000;fill:none;stroke:#666666;stroke-width:0.69941229000000005px;marker:none;visibility:visible;display:inline;overflow:visible;enable-background:accumulate"
       id="path3240"
       d="m 332.80665,313.77698 c 2.8745,0.0376 4.98119,1.14866 7.22606,2.8265 1.6549,1.16389 2.56117,3.07493 4.17513,4.2611 1.27661,0.65808 2.19911,-0.37916 3.02179,-1.27368 1.13309,-1.64799 2.15157,-3.43073 2.13792,-5.47506 -0.49356,-1.69712 -2.28265,-1.90951 -3.80871,-1.90025 -2.72108,0.23345 -4.75862,1.81759 -6.38112,3.89698 -1.70722,2.72784 -2.42021,5.83609 -2.90916,8.97315 -0.0286,1.30023 -0.76177,3.36881 0.27789,4.46516 1.31145,0.92645 3.11602,0.87591 4.65731,0.96562 2.43408,0.20632 4.8342,-0.0469 7.2155,-0.53322 1.37383,-0.29661 2.251,-1.11494 3.02688,-2.22557 0.0675,-0.13649 0.135,-0.27297 0.2025,-0.40946 0,0 1.85951,0.97203 1.85951,0.97203 l 0,0 c -0.11868,0.21967 -0.23736,0.43934 -0.35603,0.65901 -1.10382,1.51542 -2.42011,2.66219 -4.31408,3.06001 -2.55968,0.52008 -5.14273,0.78793 -7.75791,0.57179 -2.1987,-0.13144 -4.61673,-0.16858 -6.25038,-1.85377 -0.17675,-0.28118 -0.39135,-0.54187 -0.53024,-0.84355 -0.72701,-1.57909 -0.21756,-3.51994 -0.10391,-5.15277 0.54999,-3.4947 1.37884,-6.94851 3.33931,-9.95372 2.23353,-2.77004 4.41491,-4.34436 8.05201,-4.68973 2.90714,0.0794 5.28022,0.86153 5.87851,4.03702 -0.0902,2.57671 -1.16678,4.8361 -2.71306,6.87989 -1.7302,1.78527 -3.40538,2.87505 -5.81586,1.49935 -1.58477,-1.23591 -2.60948,-2.97591 -4.16396,-4.25265 -1.80481,-1.36332 -3.62875,-2.40018 -5.9659,-2.40594 0,0 0,-2.09824 0,-2.09824 z"
       inkscape:connector-curvature="0" />
    <path
       style="color:#000000;fill:#fb8b00;fill-opacity:1;fill-rule:nonzero;stroke:none;stroke-width:1px;marker:none;visibility:visible;display:inline;overflow:visible;enable-background:accumulate"
       id="path3242"
       d="m 381.89628,424.9824 c 5.798,-5.84458 13.03565,-9.2857 20.55166,-12.35771 12.06687,-4.24485 24.83842,-5.36319 37.5385,-5.4437 9.61696,0.13608 19.17043,1.73423 28.21386,5.00263 4.3163,1.56873 7.88784,4.19386 11.05739,7.44192 0.99725,0.82009 0.51066,0.62106 1.33258,0.84361 0,0 -1.17095,2.76204 -1.17095,2.76204 l 0,0 c -1.6413,-0.79098 -0.86646,-0.29396 -2.31067,-1.51241 -2.84908,-2.93089 -6.0368,-5.30482 -9.93177,-6.71512 -8.70033,-3.1714 -17.91729,-4.67119 -27.17246,-4.82272 -12.31807,0.0695 -24.70968,1.13732 -36.42371,5.22167 -7.09492,2.88608 -14.09414,6.18066 -19.56311,11.70111 0,0 -2.12132,-2.12132 -2.12132,-2.12132 z"
       inkscape:connector-curvature="0" />
    <path
       style="color:#000000;fill:#fb8b00;fill-opacity:1;fill-rule:nonzero;stroke:none;stroke-width:1px;marker:none;visibility:visible;display:inline;overflow:visible;enable-background:accumulate"
       id="path3246"
       d="m 478.70352,408.75116 c 1.00903,4.04497 2.46131,7.96006 3.90847,11.86369 0.68673,1.65815 4.14701,5.94044 -1.07807,5.42392 -1.52158,-0.32137 -2.81787,0.19356 -3.86724,1.2968 -1.30819,1.43276 -1.93487,3.31572 -1.73268,5.23868 0.41175,1.3816 0.18102,0.66873 0.70047,2.1359 0,0 -2.83161,0.99097 -2.83161,0.99097 l 0,0 c -0.65055,-1.87723 -0.35666,-0.89433 -0.86387,-2.95396 -0.0878,-2.83363 0.62525,-5.48758 2.64798,-7.57373 1.75641,-1.61121 3.84137,-2.58369 6.27529,-2.11663 0.16751,0.0216 0.53701,-0.10058 0.50253,0.0648 -0.14234,0.68265 -0.57057,2.53376 -0.86841,1.90323 -0.32647,-0.69115 -0.61825,-1.04283 -0.98989,-1.78884 -0.25707,-0.51604 -0.47162,-1.0522 -0.70743,-1.57829 -1.49449,-4.03134 -2.99062,-8.07613 -4.02411,-12.25571 0,0 2.92857,-0.65079 2.92857,-0.65079 z"
       inkscape:connector-curvature="0" />
    <text
       xml:space="preserve"
       style="font-size:14px;font-style:normal;font-variant:normal;font-weight:normal;font-stretch:normal;text-indent:0;text-align:start;text-decoration:none;line-height:125%;letter-spacing:0px;word-spacing:0px;text-transform:none;direction:ltr;block-progression:tb;writing-mode:lr-tb;text-anchor:start;baseline-shift:baseline;color:#000000;fill:#fb8b00;fill-opacity:1;fill-rule:nonzero;stroke:none;stroke-width:1px;marker:none;visibility:visible;display:inline;overflow:visible;enable-background:accumulate;font-family:Architects Daughter;-inkscape-font-specification:Architects Daughter"
       x="408"
       y="379"
       id="text3248"
       sodipodi:linespacing="125%"><tspan
         sodipodi:role="line"
         x="408"
         y="379"
         id="tspan3252">Axiom of </tspan><tspan
         sodipodi:role="line"
         x="408"
         y="396.5"
         id="tspan3256">Choice</tspan></text>
    <rect
       y="338.78549"
       x="522.35645"
       height="166.14851"
       width="67.858093"
       id="rect3258"
       style="color:#000000;fill:none;stroke:#aaccee;stroke-width:0.57095712;stroke-linecap:butt;stroke-linejoin:miter;stroke-miterlimit:4;stroke-opacity:1;stroke-dasharray:none;stroke-dashoffset:0;marker:none;visibility:visible;display:inline;overflow:visible;enable-background:accumulate" />
    <path
       inkscape:connector-curvature="0"
       id="path3260"
       d="m 521.78548,402.16172 68.85808,0"
       style="fill:none;stroke:#aaccee;stroke-width:0.57095712px;stroke-linecap:butt;stroke-linejoin:miter;stroke-opacity:1"
       sodipodi:nodetypes="cc" />
    <path
       style="fill:none;stroke:#aaccee;stroke-width:0.57095712px;stroke-linecap:butt;stroke-linejoin:miter;stroke-opacity:1"
       d="m 521.78548,463.82508 67.85808,0"
       id="path3262"
       inkscape:connector-curvature="0"
       sodipodi:nodetypes="cc" />
    <path
       inkscape:connector-curvature="0"
       d="m 543.44521,365.30592 c 0.83782,-2.23287 2.12596,-4.18725 3.90909,-5.76155 1.47524,-1.18439 3.27621,-1.38168 4.77333,-0.0888 0.30845,0.26636 0.55104,0.60059 0.82656,0.90089 1.49556,2.366 2.17966,5.1309 2.78502,7.83522 -0.03,0.0768 0.59545,2.08956 0.21551,2.20436 -1.75581,0.53047 -1.81356,-0.0547 -2.55285,-1.08102 -0.87019,-1.15634 -1.75153,-2.32245 -2.91059,-3.20281 -1.11798,-0.7181 -1.42128,-0.55619 -2.4131,0.16281 -0.85909,0.71603 -1.18325,1.69817 -1.36447,2.76109 -0.026,0.94467 0.86095,1.34455 1.63103,1.62707 1.24541,0.22655 2.32126,-0.38978 3.26095,-1.13531 0.69923,-0.69436 1.28091,-1.48294 2.02233,-2.13262 0,0 1.1134,1.30165 1.1134,1.30165 l 0,0 c -0.77868,0.64112 -1.30782,1.53056 -2.08334,2.18242 -1.44405,1.10852 -3.08125,1.8588 -4.9333,1.38061 -1.56156,-0.62911 -2.85157,-1.67321 -2.69768,-3.52262 0.276,-1.51373 0.8231,-2.88103 2.06891,-3.8656 1.62955,-1.11283 2.76755,-1.2527 4.44332,-0.11431 1.27569,1.00064 2.29792,2.25109 3.25238,3.55648 0.28115,0.3903 0.70399,0.97639 0.70223,0.97859 -1.36011,1.70152 -1.12288,0.7791 -1.2225,0.23382 -0.0589,-0.3222 -0.13594,-0.6408 -0.2039,-0.96121 -0.54108,-2.42774 -1.15289,-4.90003 -2.39723,-7.07479 -1.04199,-1.24881 -1.74061,-1.73792 -3.18939,-0.65569 -1.56995,1.35241 -2.66369,3.08083 -3.41074,5.013 0,0 -1.62497,-0.54166 -1.62497,-0.54166 z"
       id="path3264"
       style="color:#000000;fill:#fb8b00;fill-opacity:1;fill-rule:nonzero;stroke:none;stroke-width:1px;marker:none;visibility:visible;display:inline;overflow:visible;enable-background:accumulate" />
    <path
       inkscape:connector-curvature="0"
       d="m 559.18317,367.948 c 0,2.13502 0,4.27004 0,6.40506 0,0 -1.71287,0 -1.71287,0 l 0,0 c 0,-2.13502 0,-4.27004 0,-6.40506 0,0 1.71287,0 1.71287,0 z"
       id="path3266"
       style="color:#000000;fill:#fb8b00;fill-opacity:1;fill-rule:nonzero;stroke:none;stroke-width:1px;marker:none;visibility:visible;display:inline;overflow:visible;enable-background:accumulate" />
    <path
       inkscape:connector-curvature="0"
       d="m 551.76073,427.25924 c 0,2.88372 0,5.76744 0,8.65116 -0.13734,2.20854 -0.13211,4.44748 -0.47842,6.63857 -0.0513,0.12477 -0.0233,0.40798 -0.15389,0.37429 -1.5857,-0.40905 -2.1582,-1.03438 -0.77063,-1.78931 0.38602,-0.21003 0.82114,-0.2485 1.24264,-0.31872 1.46969,-0.16996 2.95197,0.007 4.39783,-0.33613 0.72282,-0.26656 1.32883,-0.7891 1.14053,-1.60477 -0.53982,-0.84746 -1.24862,-1.20595 -2.23208,-0.99181 -1.14205,0.35119 -1.52224,1.3085 -1.80454,2.37462 -0.13282,0.75713 -0.0784,0.37626 -0.16307,1.14265 0,0 -1.70189,-0.19365 -1.70189,-0.19365 l 0,0 c 0.10832,-0.92946 0.0378,-0.46108 0.21384,-1.40477 0.49328,-1.73453 1.34985,-3.1547 3.21596,-3.61486 0.30516,-0.032 0.6089,-0.10875 0.91546,-0.0959 1.56803,0.0659 2.79763,1.19901 3.26274,2.63508 0.0715,1.91591 -0.71476,2.76147 -2.46978,3.42421 -1.49169,0.32392 -2.99409,0.25048 -4.5103,0.35759 -0.19405,0.0274 -0.40083,0.13907 -0.58385,0.069 -0.0764,-0.0292 0.15028,-0.27174 -0.001,-0.24531 -1.64868,-0.47639 -1.46066,-0.79892 -1.68885,-0.0551 0.34754,-2.0976 0.30613,-4.25125 0.45655,-6.36573 0,-2.88373 0,-5.76744 0,-8.65116 0,0 1.71287,0 1.71287,0 z"
       id="path3284"
       style="color:#000000;fill:#fb8b00;fill-opacity:1;fill-rule:nonzero;stroke:none;stroke-width:1px;marker:none;visibility:visible;display:inline;overflow:visible;enable-background:accumulate" />
    <path
       inkscape:connector-curvature="0"
       d="m 553.96964,383.97273 c -0.35221,3.39006 -0.37816,6.80349 -0.43191,10.2081 0.0105,5.9935 -0.12456,11.98195 -0.32697,17.97151 -0.12412,3.19455 -0.19252,6.39084 -0.29091,9.58615 -0.0413,0.77561 0.0552,0.25044 -1.53202,-0.46808 0,0 1.58931,0.63875 1.58931,0.63875 l 0,0 c -1.83938,-0.0451 -1.81238,0.54879 -1.76935,-0.22341 0.0986,-3.19702 0.1668,-6.39502 0.29107,-9.59126 0.20208,-5.97931 0.33674,-11.95747 0.32621,-17.94073 0.0548,-3.46654 0.0824,-6.9421 0.44493,-10.39348 0,0 1.69964,0.21245 1.69964,0.21245 z"
       id="path3288"
       style="color:#000000;fill:#666666;fill-opacity:1;fill-rule:nonzero;stroke:none;stroke-width:1px;marker:none;visibility:visible;display:inline;overflow:visible;enable-background:accumulate" />
    <path
       inkscape:connector-curvature="0"
       d="m 549.65886,414.70305 c 0.52493,0.78924 1.19814,1.46032 1.76784,2.21496 0.33707,0.44649 0.60536,0.95354 0.98954,1.36266 -0.66819,-0.54841 0.32699,0.17006 -0.90512,-0.16863 -0.0786,-0.0216 0.11532,-0.11525 0.17243,-0.17341 0.34677,-0.35318 0.68998,-0.70992 1.03518,-1.06463 0.92194,-1.08097 2.07091,-1.89973 3.17947,-2.76801 0,0 1.05428,1.34997 1.05428,1.34997 l 0,0 c -1.04992,0.81784 -2.13716,1.58834 -3.00624,2.61267 -0.6129,0.62978 -1.27444,1.6324 -2.26311,1.64614 -0.20676,0.003 -0.36391,-0.19649 -0.54587,-0.29473 -1.02179,-1.17982 -1.83259,-2.55068 -2.87222,-3.7214 0,0 1.39382,-0.99559 1.39382,-0.99559 z"
       id="path3290"
       style="color:#000000;fill:#666666;fill-opacity:1;fill-rule:nonzero;stroke:none;stroke-width:1px;marker:none;visibility:visible;display:inline;overflow:visible;enable-background:accumulate" />
    <path
       inkscape:connector-curvature="0"
       d="m 543.60937,380.97805 c -2.64473,2.46066 -4.53338,5.55507 -6.26959,8.68785 -2.10726,4.36994 -3.64828,9.03196 -4.41667,13.82941 -0.15614,0.97485 -0.23935,1.95998 -0.35902,2.93997 -0.34678,4.76313 0.33598,8.66146 2.38073,12.93789 0.57774,1.20142 1.44299,2.0693 2.5004,2.83382 0,0 -1.01217,1.38182 -1.01217,1.38182 l 0,0 c -1.27555,-0.94416 -2.33321,-2.02465 -3.03496,-3.47973 -2.20058,-4.64626 -2.90467,-8.71567 -2.53408,-13.88275 0.12634,-1.0215 0.21514,-2.04835 0.37901,-3.06451 0.80176,-4.97186 2.40459,-9.8025 4.59917,-14.32726 1.81779,-3.2694 3.79614,-6.49574 6.55599,-9.06769 0,0 1.21119,1.21118 1.21119,1.21118 z"
       id="path3292"
       style="color:#000000;fill:#666666;fill-opacity:1;fill-rule:nonzero;stroke:none;stroke-width:1px;marker:none;visibility:visible;display:inline;overflow:visible;enable-background:accumulate" />
    <path
       inkscape:connector-curvature="0"
       d="m 539.35003,420.10704 c 0.35666,1.41068 1.23641,2.66193 1.45324,4.10588 -0.0957,0.24856 -0.0963,0.55996 -0.28718,0.74569 -0.67559,0.65716 -1.78177,0.13776 -2.49736,-0.14402 -0.74268,-0.3182 -1.55427,-0.59757 -2.37191,-0.53108 -0.833,0.0876 -1.50041,0.40996 -1.93685,1.12623 -0.45984,0.79009 -0.7773,1.63892 -0.93647,2.53625 0,0 -1.68199,-0.32381 -1.68199,-0.32381 l 0,0 c 0.22919,-1.1277 0.59971,-2.20539 1.21192,-3.18998 0.90138,-1.21582 1.77497,-1.70069 3.27907,-1.86035 1.07138,-0.0166 2.11542,0.207 3.09091,0.65992 1.75831,0.79422 0.63126,-0.35391 0.42392,1.13512 -0.3363,-1.22375 -0.98693,-2.41297 -1.35111,-3.65842 0,0 1.60381,-0.60143 1.60381,-0.60143 z"
       id="path3294"
       style="color:#000000;fill:#666666;fill-opacity:1;fill-rule:nonzero;stroke:none;stroke-width:1px;marker:none;visibility:visible;display:inline;overflow:visible;enable-background:accumulate" />
    <path
       inkscape:connector-curvature="0"
       d="m 544.63447,482.95215 c 1.45455,0 2.9091,0 4.36364,0 0,0 0,1.71287 0,1.71287 l 0,0 c -1.45454,0 -2.90909,0 -4.36364,0 0,0 0,-1.71287 0,-1.71287 z"
       id="path3332"
       style="color:#000000;fill:#cccccf;fill-opacity:1;fill-rule:nonzero;stroke:none;stroke-width:1px;marker:none;visibility:visible;display:inline;overflow:visible;enable-background:accumulate" />
    <path
       inkscape:connector-curvature="0"
       d="m 559.41106,482.95215 c 1.64903,0 3.29805,0 4.94708,0 0,0 0,1.71287 0,1.71287 l 0,0 c -1.64903,0 -3.29805,0 -4.94708,0 0,0 0,-1.71287 0,-1.71287 z"
       id="path3334"
       style="color:#000000;fill:#cccccf;fill-opacity:1;fill-rule:nonzero;stroke:none;stroke-width:1px;marker:none;visibility:visible;display:inline;overflow:visible;enable-background:accumulate" />
    <path
       inkscape:connector-curvature="0"
       d="m 574.25594,482.95215 c 1.67983,0.0106 3.35929,-0.0456 5.03576,0.0705 0,0 -0.12197,1.70852 -0.12197,1.70852 l 0,0 c -1.63514,-0.12072 -3.27511,-0.048 -4.91379,-0.0661 0,0 0,-1.71287 0,-1.71287 z"
       id="path3336"
       style="color:#000000;fill:#cccccf;fill-opacity:1;fill-rule:nonzero;stroke:none;stroke-width:1px;marker:none;visibility:visible;display:inline;overflow:visible;enable-background:accumulate" />
    <path
       style="color:#000000;fill:none;fill-opacity:1;fill-rule:nonzero;stroke:#666666;stroke-width:1px;marker:none;visibility:visible;display:inline;overflow:visible;enable-background:accumulate"
       id="path3340"
       d="m 588.22164,316.34296 c -2.00337,-1.96203 -4.37545,-3.37301 -7.026,-4.24558 -1.6146,-0.22258 -3.31877,-0.22023 -4.77215,0.59469 -0.75702,0.77778 -0.81327,1.84222 -0.52502,2.83186 0.69582,1.31858 2.0521,1.99791 3.40622,2.46063 1.79534,0.48626 3.66728,0.50792 5.51419,0.53866 2.62225,0.11196 3.88863,1.78519 4.46039,4.1624 0.44477,2.55751 0.31369,4.26031 -1.87278,5.88805 -1.93064,1.01949 -3.93735,0.86333 -6.0002,0.48361 -1.63716,-0.29615 -3.15745,-0.96116 -4.79802,-1.26166 -1.62825,-0.25428 -3.24507,-0.35093 -4.86396,-0.0407 -1.39491,0.35985 -2.40623,1.08711 -3.32835,2.16548 -0.0325,0.0866 -0.14753,0.18209 -0.0973,0.25973 0.19373,0.29959 0.17714,-0.78428 -0.0369,-1.06969 -0.19269,-0.25689 -0.55884,-0.31653 -0.83825,-0.4748 0,0 0.17724,2.99476 0.17724,2.99476 l 0,0 c -0.49895,-0.14528 -1.09932,-0.10112 -1.49686,-0.43582 -1.14005,-0.95985 -0.58431,-2.31382 0.0503,-3.26777 1.39154,-1.52766 2.96749,-2.65741 5.02044,-3.1211 1.98703,-0.36225 3.9721,-0.28956 5.96496,0.041 1.63801,0.31124 3.16951,0.92255 4.79143,1.26044 1.29523,0.23996 2.52497,0.47838 3.80025,-0.0355 1.12915,-0.4336 0.69868,-1.75912 0.60072,-2.72949 -0.2127,-1.08162 -0.31752,-1.75498 -1.58379,-1.81935 -2.17301,-0.0372 -4.37261,-0.086 -6.47221,-0.7129 -2.34382,-0.86181 -4.42788,-2.18388 -5.32641,-4.63671 -0.45696,-2.40965 -0.0213,-4.68298 2.10842,-6.16246 2.24128,-1.06096 4.63641,-1.28844 7.07044,-0.75802 3.08182,1.04662 5.86411,2.66814 8.19453,4.96894 0,0 -2.12132,2.12132 -2.12132,2.12132 z"
       inkscape:connector-curvature="0" />
    <path
       inkscape:connector-curvature="0"
       d="m 563.02288,438.93247 c -0.37689,1.78616 -0.59922,3.59791 -0.78232,5.41242 0,0 -1.70419,-0.17224 -1.70419,-0.17224 l 0,0 c 0.19046,-1.88144 0.42214,-3.75997 0.81443,-5.61176 0,0 1.67208,0.37158 1.67208,0.37158 z"
       id="path3342"
       style="color:#000000;fill:#fb8b00;fill-opacity:1;fill-rule:nonzero;stroke:none;stroke-width:1px;marker:none;visibility:visible;display:inline;overflow:visible;enable-background:accumulate" />
  </g>
</svg>
