<?xml version="1.0" encoding="UTF-8" standalone="no"?>
<!-- Created with Inkscape (http://www.inkscape.org/) -->

<svg
   xmlns:dc="http://purl.org/dc/elements/1.1/"
   xmlns:cc="http://creativecommons.org/ns#"
   xmlns:rdf="http://www.w3.org/1999/02/22-rdf-syntax-ns#"
   xmlns:svg="http://www.w3.org/2000/svg"
   xmlns="http://www.w3.org/2000/svg"
   xmlns:xlink="http://www.w3.org/1999/xlink"
   xmlns:sodipodi="http://sodipodi.sourceforge.net/DTD/sodipodi-0.dtd"
   xmlns:inkscape="http://www.inkscape.org/namespaces/inkscape"
   width="1024px"
   height="768px"
   viewBox="0 0 1024 768"
   id="SVGRoot"
   version="1.1"
   inkscape:version="0.91+devel+osxmenu r12897"
   sodipodi:docname="endofunctors-on-2.svg">
  <sodipodi:namedview
     id="base"
     pagecolor="#3c4747"
     bordercolor="#ffffff"
     borderopacity="1"
     inkscape:pageopacity="0"
     inkscape:pageshadow="2"
     inkscape:zoom="1"
     inkscape:cx="433.27971"
     inkscape:cy="393.90588"
     inkscape:document-units="px"
     inkscape:current-layer="layer1"
     showgrid="true"
     inkscape:window-width="1440"
     inkscape:window-height="851"
     inkscape:window-x="0"
     inkscape:window-y="23"
     inkscape:window-maximized="0"
     inkscape:showpageshadow="false"
     inkscape:snap-global="false"
     showguides="true"
     inkscape:guide-bbox="true"
     borderlayer="true">
    <inkscape:grid
       type="xygrid"
       id="grid13174"
       color="#b5357b"
       opacity="0.1254902"
       empcolor="#5d6e79"
       empopacity="0.25098039"
       enabled="true"
       empspacing="15" />
  </sodipodi:namedview>
  <defs
     id="defs8685">
    <symbol
       id="zero">
      <path
         id="path12217"
         d="m 319.05191,300.68165 c -0.35071,0.13875 -0.70412,0.27085 -1.05212,0.41625 -0.98511,0.41158 -3.79515,1.95759 -2.85558,1.4506 2.18904,-1.1812 4.25482,-2.61355 6.54486,-3.58456 0.68026,-0.28844 -1.11305,0.97418 -1.63109,1.50105 -0.58632,0.59631 -1.1189,1.24319 -1.67836,1.86478 -5.63792,6.77366 -7.84823,15.33975 -9.44019,23.81643 -0.25069,2.49103 -1.09764,8.15925 0.61493,10.49992 0.34707,0.47436 1.00893,0.76271 1.59653,0.74858 0.71347,-0.0172 2.65255,-1.04857 1.97177,-0.83438 -1.74806,0.54997 -3.45286,1.22901 -5.1793,1.84352 6.61113,-7.68126 10.23828,-17.14627 12.58733,-26.86958 0.37525,-2.48033 1.81354,-7.54403 -0.0825,-9.86386 -0.74801,-0.9152 -1.64699,-0.84715 -2.68334,-1.0046 0,0 8.26662,-4.77274 8.26662,-4.77274 l 0,0 c 1.00693,0.14494 1.96895,0.0565 2.64852,1.0247 1.71146,2.43825 -0.22531,7.80514 -0.63146,10.27607 -2.62951,9.66555 -6.08405,18.89317 -12.44868,26.78953 -3.51711,2.41285 -6.9652,4.92951 -10.55131,7.23855 -0.64597,0.41593 -1.34637,0.91322 -2.11465,0.91687 -3.25243,0.0155 -1.52636,-10.35772 -1.31545,-11.7658 1.5889,-8.20661 3.4197,-16.73772 8.7517,-23.41893 0.64729,-0.73522 2.28317,-2.71385 3.1806,-3.29145 4.41349,-2.84061 9.0459,-5.83305 13.96193,-7.86578 0,0 -8.46077,4.88483 -8.46077,4.88483 z"
         inkscape:connector-curvature="0" />
    </symbol>
    <symbol
       id="one">
      <path
         inkscape:connector-curvature="0"
         d="m 280.44184,298.67504 c -3.35816,4.40815 -6.86015,8.73189 -11.01478,12.41422 -1.1322,0.97396 -2.34654,1.8395 -3.58264,2.67354 0,0 -8.36365,4.82875 -8.36365,4.82875 l 0,0 c 1.35536,-0.89985 2.69118,-1.82907 3.93762,-2.87848 4.09782,-3.57143 7.66003,-7.73144 10.70436,-12.235 0,0 8.31909,-4.80303 8.31909,-4.80303 z"
         id="path12102" />
      <path
         inkscape:connector-curvature="0"
         d="m 280.60684,299.43561 c -3.15495,10.25028 -4.47484,20.97105 -5.00355,31.65103 -0.25012,4.77915 0.0133,9.39969 1.06335,14.05986 0,0 -7.86292,4.53966 -7.86292,4.53966 l 0,0 c -0.88651,-4.75266 -1.11566,-9.53911 -0.5428,-14.36041 0.91772,-10.45009 2.27642,-20.85405 4.17531,-31.17284 0,0 8.17061,-4.7173 8.17061,-4.7173 z"
         id="path12106" />
    </symbol>
    <symbol
       id="two">
      <path
         id="path10995"
         d="m 368.90027,305.59872 c 0.41424,-1.56545 1.01405,-3.31867 2.04852,-4.60144 0.39816,-0.49372 0.8766,-0.939 1.41917,-1.26751 9.50787,-5.75664 6.17494,-5.28813 11.54976,-5.63037 0.57833,0.12312 1.193,0.133 1.73501,0.36936 3.77018,1.64409 4.18748,6.32832 4.56888,9.80766 0.39643,6.59243 -2.16864,11.94276 -5.88192,17.17566 -2.13422,3.01235 -4.79646,5.53523 -7.72073,7.75697 -1.03217,0.75873 -2.06533,1.51907 -3.14077,2.21609 -0.42928,0.1988 -0.62818,0.53962 -0.82282,0.95743 -0.14228,0.33558 -0.24864,0.68425 -0.32482,1.04013 -0.0146,0.0234 -0.004,0.0692 -0.006,0.09 -2.77177,1.40443 -5.47044,2.96355 -8.31532,4.21327 -0.27374,0.12026 0.29543,-0.52097 0.46722,-0.76569 0.59464,-0.84707 1.34069,-1.61634 2.24115,-2.14113 3.08504,-1.79796 6.20146,-3.54153 9.30218,-5.31229 2.62853,-1.22722 4.31508,1.80984 5.62185,3.62004 1.67514,2.51405 3.36199,4.44935 6.5119,4.61782 0.40043,-0.11357 0.81939,-0.17521 1.20129,-0.34071 0.44689,-0.19366 1.70091,-0.94884 1.26645,-0.72872 -2.36619,1.19885 -4.59232,2.70066 -7.06312,3.66564 -0.58513,0.22853 0.85329,-0.92254 1.26166,-1.39985 0.8026,-0.93807 1.2431,-1.55201 1.96818,-2.51613 0.64899,-0.93421 1.34737,-1.84702 1.88539,-2.85316 0.0842,-0.14407 0.01,-0.17593 -0.009,-0.34262 0.29619,-0.86071 0.86011,-1.55339 1.46103,-2.2204 0.16755,-0.18614 0.34701,-0.36023 0.53914,-0.52012 0,0 8.65179,-4.99511 8.65179,-4.99511 l 0,0 c -0.22242,0.1748 -0.43258,0.36412 -0.62678,0.57071 -0.60463,0.6423 -1.19338,1.30462 -1.40148,2.18602 0.048,0.20249 0.13948,0.16763 0.001,0.34732 -0.6975,1.05051 -1.47251,2.0476 -2.23192,3.05323 -0.74063,0.94492 -2.36522,3.3254 -3.26265,3.93493 -2.63026,1.78642 -7.86331,5.69403 -11.98295,6.97529 -3.24433,-0.18409 -4.66958,-2.13231 -6.36816,-4.7008 -1.36778,-1.76263 -3.23061,-4.67294 -5.8151,-3.50848 2.4925,-1.45849 4.98501,-2.91697 7.47751,-4.37546 -0.28249,0.20097 -0.58094,0.38122 -0.84749,0.60292 -0.48024,0.39944 -1.72588,2.21845 -1.78995,2.26295 -2.86683,1.9913 -5.86907,3.78023 -8.8036,5.67034 0.007,-0.0275 0.0105,-0.0725 0.0244,-0.1008 0.11595,-0.3664 0.24557,-0.72848 0.39711,-1.08187 0.18846,-0.4147 0.36391,-0.74656 0.79116,-0.93915 1.18396,-0.75411 2.3259,-1.57249 3.45923,-2.39995 3.02976,-2.29082 5.82254,-4.87931 8.07388,-7.96087 3.84355,-5.23434 6.35332,-10.52265 5.90667,-17.18995 -0.45961,-3.42603 -1.18089,-8.06022 -4.85973,-9.63973 -0.54445,-0.23377 -1.15951,-0.24461 -1.73926,-0.36691 -4.00419,0.24255 -3.51747,0.48261 4.81129,-3.81568 0.56403,-0.29108 -1.02448,0.77207 -1.42035,1.26819 -0.97791,1.22556 -1.51984,2.92253 -1.77031,4.44082 0,0 -8.4387,4.87208 -8.4387,4.87208 z"
         inkscape:connector-curvature="0" />
    </symbol>
    <g
       id="use12525">
      <path
         inkscape:connector-curvature="0"
         d="m 719.82682,147.19302 c -2.88111,-0.1686 -5.7279,-0.61441 -8.61981,-0.63402 -3.30742,0.13895 -6.42046,0.99123 -9.44128,2.28273 -0.3883,0.21305 -0.77659,0.4261 -1.16488,0.63915 2.13686,-1.22084 4.26096,-2.46427 6.41057,-3.66252 0.33289,-0.18556 -0.65209,0.39665 -0.95843,0.62336 -1.03113,0.76316 -1.6693,1.61703 -2.36102,2.68186 -1.29706,2.05032 -1.59006,4.0729 -0.62231,6.28281 1.50148,2.56545 4.22131,3.98973 6.7568,5.34336 3.06036,1.80129 6.53261,2.67391 9.71888,4.18423 2.31019,1.16071 4.11666,2.8301 5.37189,5.069 1.11529,2.69664 1.85901,5.57521 2.36474,8.44657 0.68183,2.9822 0.51075,5.90331 -0.12798,8.85816 -0.36819,1.20721 -1.21829,1.86529 -2.28371,2.45485 -5.99011,3.31468 -6.80818,4.65583 -11.77071,5.35929 -3.06028,0.56294 -5.8042,-0.39779 -8.56391,-1.58464 -1.98615,-0.90734 -3.92531,-1.91591 -5.91842,-2.80663 -1.27185,-0.42029 -2.56051,-0.77288 -3.84432,-1.16467 -1.01316,-0.30377 -2.06246,-0.4232 -3.11485,-0.47264 -0.93491,-0.0654 -1.87166,-0.0157 -2.80734,-0.0165 -0.3785,0.002 -0.75689,0.0123 -1.13509,0.0269 -2.70016,-2.24055 6.00232,-4.60989 9.0211,-4.47385 0,0 -7.63711,4.40929 -7.63711,4.40929 l 0,0 c -4.41306,0.17138 3.20737,-2.00262 6.47941,-4.47537 0.35407,0.0106 0.70828,0.0158 1.06251,0.0149 0.92589,-0.007 1.85162,0.0413 2.77766,0.0336 1.03986,0.0681 2.07389,0.18129 3.07322,0.49667 1.26143,0.4175 2.55133,0.7307 3.79396,1.19374 1.92031,0.96593 3.81468,1.98119 5.75982,2.89821 2.75168,1.19357 5.46488,2.17226 8.52749,1.60567 0.50949,-0.0753 1.02244,-0.12988 1.52846,-0.22569 0.47977,-0.0908 1.81885,-0.62417 1.42635,-0.33373 -1.96526,1.45415 -4.14824,2.58831 -6.22235,3.88247 0.73466,-0.46299 1.30149,-0.71403 1.81306,-1.44971 0.20784,-0.29889 0.30124,-0.66287 0.45186,-0.9943 0.74447,-2.98429 1.01445,-5.90773 0.28312,-8.94773 -0.60098,-2.84889 -1.32009,-5.6978 -2.49908,-8.369 -1.24604,-2.20427 -3.03547,-3.9423 -5.301,-5.10993 -3.15399,-1.50234 -6.51097,-2.5551 -9.56999,-4.2702 -2.60322,-1.33189 -5.44949,-2.59581 -7.063,-5.16657 -0.91782,-2.36864 -0.59203,-4.16822 0.73346,-6.34699 0.88756,-1.42685 1.86424,-2.44861 3.32488,-3.30834 7.53064,-4.43257 5.91948,-3.53768 9.77897,-5.65113 2.99796,-1.27561 6.08939,-2.09605 9.36826,-2.24058 2.98216,-0.0115 5.92861,0.49551 8.90847,0.46736 0,0 -7.70835,4.45043 -7.70835,4.45043 z"
         id="path12898" />
    </g>
    <symbol
       id="a">
      <path
         inkscape:connector-curvature="0"
         d="m 529.05125,322.68203 c -0.35083,0.13882 -0.70721,0.2644 -1.0525,0.41647 -1.34812,0.59373 -3.36989,1.71786 -2.59786,1.34658 2.21415,-1.0648 4.2229,-2.66461 6.60239,-3.27643 0.84434,-0.21709 -1.15689,1.30761 -1.67425,2.00932 -0.62863,0.85262 -1.17247,1.76462 -1.75871,2.64692 -1.92994,3.70429 -5.35613,9.1953 -4.8494,13.59095 0.0597,0.51774 0.32856,0.98919 0.49284,1.48379 2.61311,3.42135 6.52998,1.98417 9.79338,0.38842 -1.9823,1.03813 -3.82842,2.39378 -5.94689,3.1144 -0.80299,0.27313 1.28245,-1.11405 1.86856,-1.72714 0.64221,-0.67178 1.2358,-1.38995 1.80997,-2.12074 1.69728,-2.16025 2.98104,-4.4411 4.2114,-6.88408 1.57302,-3.82047 3.1512,-8.04284 2.1375,-12.18795 -0.55478,-0.65332 -0.94705,-1.32544 -1.84956,-1.56415 -2.57282,-0.68049 -9.30678,3.38958 2.73748,-2.38881 0,0 -7.87884,4.54885 -7.87884,4.54885 l 0,0 c 3.45071,-2.17895 6.81967,-4.49308 10.35213,-6.53683 0.56865,-0.32901 2.41582,-0.61914 3.13262,-0.44027 0.93465,0.23323 1.25739,0.91061 1.78346,1.60231 0.75958,4.23203 -0.83086,8.51035 -2.45628,12.372 -1.64973,3.31183 -4.73913,8.66072 -7.8639,10.71693 -3.29697,2.16952 -6.74201,4.10519 -10.11302,6.15779 -3.23726,1.58496 -7.40634,3.24495 -9.96476,-0.28946 -0.12494,-0.51732 -0.35633,-1.02007 -0.37482,-1.55194 -0.15029,-4.32294 3.26542,-10.01075 5.13091,-13.75347 0.4447,-0.70594 2.31234,-3.88828 3.17991,-4.51014 4.13843,-2.96638 8.79202,-6.02237 13.61033,-8.04891 0,0 -8.46209,4.88559 -8.46209,4.88559 z"
         id="path11628" />
      <path
         inkscape:connector-curvature="0"
         d="m 548.97684,317.40317 c -1.69547,5.16594 -3.42497,10.31467 -4.85411,15.56274 -0.816,3.79485 -1.95796,7.7088 -1.74243,11.63084 0.10753,1.45213 1.05447,1.88198 2.35222,2.01751 3.16412,-0.76187 7.75813,-3.61964 -7.04568,4.22227 -0.27044,0.14326 0.44995,-0.41512 0.66784,-0.63002 1.62926,-1.60696 -0.20258,0.1043 1.70858,-1.64704 1.79311,-1.68477 3.49388,-3.56111 5.5693,-4.90288 4.17673,-2.56548 7.95766,-5.70194 12.84457,-6.1161 0.54686,-0.0374 1.09493,-0.0571 1.64306,-0.0547 0,0 -8.62072,4.97717 -8.62072,4.97717 l 0,0 c -0.50861,-0.04 -1.01963,-0.0378 -1.52898,-0.0112 -4.05678,0.32238 -9.83408,3.89289 4.04244,-3.63362 -2.09305,1.35207 -3.82884,3.21682 -5.62076,4.93259 -3.51063,3.2901 -7.20503,6.85432 -12.18511,7.78566 -1.33556,-0.15483 -2.25423,-0.57684 -2.19701,-2.10711 0.14067,-4.03995 1.30989,-8.02178 2.25145,-11.92472 1.4425,-5.07337 3.11982,-10.08761 4.28319,-15.23313 0,0 8.43215,-4.8683 8.43215,-4.8683 z"
         id="path11630" />
    </symbol>
    <symbol
       id="k">
      <path
         inkscape:connector-curvature="0"
         d="m 533.62127,297.16204 c -5.98891,7.48005 -7.96212,17.0307 -9.71996,26.2166 -1.07316,7.24238 -0.61611,14.45587 0.45863,21.6474 0,0 -7.51798,4.34052 -7.51798,4.34052 l 0,0 c -0.65211,-7.29587 -0.94107,-14.5972 -0.0272,-21.89653 1.71444,-8.76487 3.2662,-17.89775 8.36775,-25.4359 0,0 8.43871,-4.87209 8.43871,-4.87209 z"
         id="path11076" />
      <path
         inkscape:connector-curvature="0"
         d="m 526.95383,320.55427 c 3.16795,-0.0119 6.20131,-0.82727 9.14332,-1.93327 -2.17627,1.21008 -4.25147,2.62317 -6.52881,3.63024 -0.70674,0.31253 1.21088,-0.9665 1.75222,-1.51797 2.78305,-2.83514 4.91609,-6.31878 7.07326,-9.62992 1.11298,-1.79865 2.27238,-3.5773 3.24833,-5.45654 0.0508,-0.0795 0.0785,-0.16721 0.10991,-0.25389 0,0 8.65102,-4.99467 8.65102,-4.99467 l 0,0 c -0.061,0.1 -0.121,0.2007 -0.18633,0.29801 -1.2625,1.95562 -2.56801,3.88314 -3.86765,5.81411 -2.19306,3.22022 -4.26604,6.73532 -6.96483,9.56732 -2.85531,2.99624 -9.73531,6.24058 -11.55041,7.31412 -3.01975,1.12566 -6.12658,1.85327 -9.35229,2.05392 0,0 8.47226,-4.89146 8.47226,-4.89146 z"
         id="path11078" />
      <path
         inkscape:connector-curvature="0"
         d="m 520.35931,326.08841 c 1.33479,-0.41106 10.51268,-8.028 14.66984,-5.96616 0.47198,0.23409 0.83834,0.63832 1.25751,0.95748 2.90826,3.14321 3.20252,7.66623 3.54613,11.73896 0.35571,2.28243 0.49228,5.7578 2.86457,7.06498 1.40957,0.77669 3.08321,0.52259 4.58066,0.49463 0.84601,-0.19676 1.69202,-0.39353 2.53803,-0.59029 0,0 -7.97454,4.6041 -7.97454,4.6041 l 0,0 c -0.8533,0.20098 -1.70661,0.40195 -2.55991,0.60293 -1.47538,0.0558 -3.33718,0.34698 -4.75629,-0.39324 -2.40084,-1.25229 -2.44394,-4.897 -2.73752,-7.13833 -0.38594,-4.08207 -0.73889,-8.53447 -3.74414,-11.62464 -1.2224,-0.86287 -1.19506,-1.08193 -2.65697,-1.25851 -3.66884,-0.44315 -11.82632,5.82664 3.45019,-3.38643 0,0 -8.47756,4.89452 -8.47756,4.89452 z"
         id="path11092" />
    </symbol>
    <symbol
       id="x">
      <g
         id="g11345_transform"
         transform="matrix(0.90186375,0,0,0.90186375,411.88183,-38.13322)">
        <path
           inkscape:connector-curvature="0"
           d="m 526.95383,320.55427 c 4.04497,0.36781 7.97333,1.79498 11.24188,4.24505 0.86601,0.64915 1.62901,1.42541 2.44351,2.13812 2.70571,2.42036 4.51104,5.43479 6.35253,8.51093 2.71612,4.53716 4.99364,9.13277 7.17523,13.9496 0,0 -7.19141,4.15196 -7.19141,4.15196 l 0,0 c -0.7868,-1.69468 -1.50642,-3.4222 -2.3604,-5.08404 -3.14694,-6.12397 -7.0587,-12.01012 -11.7834,-17.02082 -0.83023,-0.70362 -1.61254,-1.46806 -2.49069,-2.11087 -3.45711,-2.53061 -7.58396,-3.90899 -11.85951,-3.88847 0,0 8.47226,-4.89146 8.47226,-4.89146 z"
           id="path11335" />
        <path
           inkscape:connector-curvature="0"
           d="m 556.32344,314.52986 c -0.28114,4.21644 -2.258,8.04393 -4.8916,11.26109 -3.47698,3.46325 -7.59183,6.20787 -11.54277,9.09433 -3.96851,3.05909 -7.55577,6.61426 -10.47783,10.6859 -0.55915,1.30376 -2.52407,3.24736 -1.77271,4.7875 0,0 -8.54047,4.93084 -8.54047,4.93084 l 0,0 c -0.68491,-1.36836 1.61878,-3.85439 2.16965,-5.01666 3.05791,-4.05378 6.64325,-7.70576 10.67622,-10.80045 3.89124,-2.86258 7.9613,-5.56257 11.37849,-8.99949 2.54975,-3.1469 4.77742,-6.89989 4.59337,-11.0889 0,0 8.40765,-4.85416 8.40765,-4.85416 z"
           id="path11343" />
      </g>
    </symbol>
    <symbol
       id="y">
      <path
         id="path11355"
         d="m 920.3683,268.96362 c 3.533,-2.90946 6.2875,-6.63712 9.0408,-10.26277 0.7646,-1.06036 1.5824,-2.08778 2.2849,-3.19206 11.7918,-10.08142 8.1779,-4.72266 6.416,-1.05636 -0.9816,2.92261 -3.156,6.03968 -2.8699,9.27482 0.036,0.40756 0.2132,0.79007 0.3197,1.1851 0.769,1.28066 2.0539,1.64805 3.5051,1.27585 0.6663,-0.17091 2.4886,-1.15766 1.9053,-0.79306 -8.8108,5.50677 -6.2452,3.62668 -3.0543,0.91908 3.8307,-3.72937 7.2953,-7.81613 10.5527,-12.04992 0.4174,-0.63001 0.9635,-1.19285 1.3105,-1.86948 12.429,-7.54839 7.7558,-4.45545 4.4149,0.3795 -3.658,5.22464 -5.8994,11.2182 -8.185,17.12244 -2.1002,5.25258 -3.0283,11.01539 -5.7498,16.02126 -0.433,0.79634 -0.9875,1.52027 -1.4812,2.2804 -1.5333,2.08274 -3.3529,3.97222 -5.6173,5.26139 -9.5667,5.44667 -5.9901,4.55242 -10.6071,5.5633 -2.0962,0.0247 -2.9163,-1.62341 -3.4073,-3.40016 -0.3024,-1.15061 -0.4506,-2.32073 -0.4494,-3.50774 -0.069,-1.5357 0.8764,-2.60957 1.9583,-3.57028 5.0471,-3.89338 10.7538,-6.96191 16.8281,-8.86862 5.1174,-1.45513 9.9898,-3.59877 14.887,-5.64821 1.9324,-0.81352 3.866,-1.62422 5.7924,-2.45186 3.5879,-1.59261 -5.5948,3.62595 -8.7533,5.0308 29.0023,-16.6152 -5.2404,3.08708 1.4012,-0.85653 3.6375,-2.18599 7.2298,-4.53912 11.1789,-6.13027 0.1198,-0.0508 0.243,-0.0937 0.3664,-0.1337 -2e-4,0.002 0,0.003 0,0.004 0,0 -8.6592,4.99937 -8.6592,4.99937 l 0,0 c 0.001,-0.001 0,-0.002 0,-0.004 -0.102,0.0303 -0.2101,0.055 -0.3083,0.1002 -3.3785,1.28827 -8.2487,4.38705 5.9097,-3.73589 -5.6802,3.38432 -18.4348,10.8175 -1.2356,0.76094 3.2715,-1.18562 -5.4902,3.77481 -8.4855,4.92204 -1.7453,0.69815 -3.4838,1.41342 -5.2241,2.12376 -4.9456,2.03186 -9.8459,4.20297 -14.988,5.70651 -1.4973,0.48528 -2.2553,0.69613 -3.672,1.27792 -0.5485,0.22526 -2.1268,1.03945 -1.625,0.72348 12.6743,-7.9816 7.6002,-4.67351 5.0005,-2.67732 -1.0383,0.94313 -1.9465,2.0107 -1.8375,3.50057 0.017,1.19923 0.048,2.40321 0.3301,3.5766 0.5052,1.75038 1.3228,3.35081 3.3681,3.42277 3.7112,-0.7305 1.4996,-0.41667 -6.0445,4.05052 -0.4366,0.25853 0.8676,-0.52809 1.2812,-0.82201 1.8085,-1.28512 3.3617,-2.84185 4.6734,-4.63411 0.5166,-0.77333 1.0912,-1.51088 1.5498,-2.32 2.8339,-5.00078 3.8192,-10.78996 5.885,-16.09933 2.1367,-5.8162 4.4347,-11.62196 7.762,-16.8782 3.7014,-5.73505 4.6073,-5.73466 12.3901,-10.08189 -0.5238,0.7194 -1.1186,1.38499 -1.6741,2.07939 -3.5449,4.23699 -7.1462,8.44122 -11.061,12.34338 -5.2316,4.53487 -2.5322,2.45642 -12.8174,8.24444 -1.35,0.75974 -3.4621,1.59293 -4.9657,0.58434 -0.3194,-0.21421 -0.4562,-0.61919 -0.6843,-0.92878 -0.085,-0.40738 -0.2392,-0.80628 -0.2555,-1.22216 -0.1284,-3.28592 2.1235,-6.30799 2.9959,-9.34755 2.277,-5.45857 2.6175,-3.71614 10.4359,-8.74111 0.042,-0.0271 -0.1284,0.15313 -0.09,0.12027 -0.9001,1.15914 -1.8206,2.30231 -2.7337,3.4512 -2.7806,3.46934 -5.4481,7.0958 -8.7479,10.0936 0,0 -8.4596,4.88417 -8.4596,4.88417 z"
         inkscape:connector-curvature="0" />
    </symbol>
  </defs>
  <metadata
     id="metadata8688">
    <rdf:RDF>
      <cc:Work
         rdf:about="">
        <dc:format>image/svg+xml</dc:format>
        <dc:type
           rdf:resource="http://purl.org/dc/dcmitype/StillImage" />
        <dc:title />
      </cc:Work>
    </rdf:RDF>
  </metadata>
  <g
     inkscape:groupmode="layer"
     id="layer2"
     inkscape:label="bg fill"
     sodipodi:insensitive="true">
    <rect
       style="opacity:1;fill:#3c4747;fill-opacity:1;fill-rule:evenodd;stroke:none;stroke-width:0.99999994;stroke-linecap:butt;stroke-linejoin:miter;stroke-miterlimit:4;stroke-dasharray:none;stroke-dashoffset:0;stroke-opacity:1"
       id="rect9061"
       width="1064"
       height="800"
       x="-18"
       y="-15" />
  </g>
  <g
     id="layer1"
     inkscape:groupmode="layer"
     inkscape:label="Layer 1">
    <g
       id="g21882"
       transform="translate(4,5)">
      <rect
         style="opacity:0.2;fill:#666666;fill-opacity:1;fill-rule:evenodd;stroke:#cccccc;stroke-width:0.73578942;stroke-linecap:butt;stroke-linejoin:miter;stroke-miterlimit:4;stroke-dasharray:none;stroke-dashoffset:0;stroke-opacity:1"
         id="rect21880"
         width="121.5543"
         height="45.946224"
         x="9.8678894"
         y="8.8678589" />
      <text
         sodipodi:linespacing="125%"
         id="text21876"
         y="40"
         x="21"
         style="font-style:normal;font-variant:normal;font-weight:normal;font-stretch:normal;font-size:25px;line-height:125%;font-family:'Sansita One';-inkscape-font-specification:'Sansita One';text-indent:0;text-align:start;text-decoration:none;text-decoration-line:none;text-decoration-style:solid;text-decoration-color:#000000;letter-spacing:0px;word-spacing:0px;text-transform:none;direction:ltr;block-progression:tb;writing-mode:lr-tb;baseline-shift:baseline;text-anchor:start;white-space:normal;opacity:1;fill:#ffffff;fill-opacity:1;stroke:none;stroke-width:1px;stroke-linecap:butt;stroke-linejoin:miter;stroke-miterlimit:4;stroke-dasharray:none;stroke-dashoffset:0;stroke-opacity:1"
         xml:space="preserve"><tspan
           y="40"
           x="21"
           id="tspan21878"
           sodipodi:role="line">Remark</tspan></text>
    </g>
    <text
       xml:space="preserve"
       style="font-style:normal;font-variant:normal;font-weight:normal;font-stretch:normal;font-size:20px;line-height:125%;font-family:'Sansita One';-inkscape-font-specification:'Sansita One';text-indent:0;text-align:start;text-decoration:none;text-decoration-line:none;text-decoration-style:solid;text-decoration-color:#000000;letter-spacing:0px;word-spacing:0px;text-transform:none;direction:ltr;block-progression:tb;writing-mode:lr-tb;baseline-shift:baseline;text-anchor:start;opacity:1;fill:#bdcdd4;fill-opacity:1;stroke:none;stroke-width:1px;stroke-linecap:butt;stroke-linejoin:miter;stroke-miterlimit:4;stroke-dasharray:none;stroke-dashoffset:0;stroke-opacity:1"
       x="157"
       y="46"
       id="text21887"
       sodipodi:linespacing="125%"><tspan
         sodipodi:role="line"
         id="tspan21889"
         x="157"
         y="46">endofunctors on <tspan
   style="stroke:#bdcdd4;fill:none"
   id="tspan9274">2</tspan></tspan></text>
    <a
       xlink:href="../../commutative-squares/two-nat-trans-of-com-sq.1.svg"
       id="a9265"
       transform="translate(849,222)">
      <g
         id="g9267" />
    </a>
    <text
       sodipodi:linespacing="125%"
       id="text8840"
       y="102"
       x="33"
       style="color:#000000;font-style:normal;font-variant:normal;font-weight:normal;font-stretch:normal;font-size:17.5px;line-height:125%;font-family:Chalkboard;-inkscape-font-specification:Chalkboard;text-indent:0;text-align:start;text-decoration:none;text-decoration-line:none;text-decoration-style:solid;text-decoration-color:#000000;letter-spacing:0px;word-spacing:0px;text-transform:none;direction:ltr;block-progression:tb;writing-mode:lr-tb;baseline-shift:baseline;text-anchor:start;clip-rule:nonzero;display:inline;overflow:visible;visibility:visible;opacity:1;isolation:auto;mix-blend-mode:normal;color-interpolation:sRGB;color-interpolation-filters:linearRGB;solid-color:#000000;solid-opacity:1;fill:#999999;fill-opacity:1;fill-rule:nonzero;stroke:none;stroke-width:1px;stroke-linecap:butt;stroke-linejoin:miter;stroke-miterlimit:4;stroke-dasharray:none;stroke-dashoffset:0;stroke-opacity:1;color-rendering:auto;image-rendering:auto;shape-rendering:auto;text-rendering:auto;enable-background:accumulate"
       xml:space="preserve"><tspan
         id="tspan8864"
         y="102"
         x="33"
         sodipodi:role="line">what are the functors</tspan></text>
    <use
       style="fill:none;stroke:#cccccc;stroke-width:3.06526828;stroke-miterlimit:4;stroke-dasharray:none"
       transform="matrix(0.46295819,0,0,0.46295819,276.1062,77.50544)"
       height="100%"
       width="100%"
       y="0"
       x="0"
       xlink:href="#two"
       id="use11000" />
    <use
       id="use9276"
       xlink:href="#two"
       x="0"
       y="0"
       width="100%"
       height="100%"
       transform="matrix(0.46295819,0,0,0.46295819,4.1062,-7.49456)"
       style="fill:none;stroke:#cccccc;stroke-width:3.06526828;stroke-miterlimit:4;stroke-dasharray:none" />
    <use
       style="fill:none;stroke:#cccccc;stroke-width:3.06526828;stroke-miterlimit:4;stroke-dasharray:none"
       transform="matrix(0.46295819,0,0,0.46295819,-111.8938,-7.49456)"
       height="100%"
       width="100%"
       y="0"
       x="0"
       xlink:href="#two"
       id="use9278" />
    <use
       id="use9280"
       xlink:href="#a"
       x="0"
       y="0"
       width="100%"
       height="100%"
       transform="matrix(0.41743646,0,0,0.41743646,-104.63599,-13.79797)"
       style="fill:#cccccc" />
    <path
       sodipodi:nodetypes="cc"
       style="opacity:1;fill:none;fill-opacity:1;fill-rule:evenodd;stroke:#999999;stroke-width:2.5;stroke-linecap:butt;stroke-linejoin:miter;stroke-miterlimit:4;stroke-dasharray:none;stroke-dashoffset:0;stroke-opacity:1"
       d="m 84,144 73,0"
       id="path9282"
       inkscape:connector-curvature="0" />
    <path
       style="opacity:1;fill:#999999;fill-opacity:1;stroke:none;stroke-width:0.99999994;stroke-linecap:butt;stroke-linejoin:miter;stroke-miterlimit:4;stroke-dasharray:none;stroke-dashoffset:0;stroke-opacity:1"
       id="path9284"
       d="m 152.50615,138.09194 c 1.0783,0.99196 2.24654,1.87159 3.40309,2.76773 1.01115,0.71572 1.92081,1.57805 2.95128,2.26403 0.48566,0.5059 1.42324,0.22774 1.90914,0.65577 -0.52621,0.51514 -1.00228,1.08706 -1.57861,1.54543 -0.0552,0.0439 -1.0989,-0.0103 -1.22404,-5.9e-4 -0.41878,0.0325 -0.50483,0.0914 -0.90451,0.22876 -0.1563,0.0797 -0.31916,0.14766 -0.46888,0.23911 -0.44168,0.26974 -0.66192,0.46996 -1.03597,0.82907 -0.16849,0.16176 -0.67181,0.64806 -0.49218,0.49876 0.31677,-0.2633 0.55937,-0.61725 0.90477,-0.8417 0.18545,-0.12052 -0.27403,0.34724 -0.41104,0.52086 -0.58774,0.81049 -1.06871,1.68936 -1.52618,2.57767 0,0 -1.71956,1.02134 -1.71956,1.02134 l 0,0 c 0.43899,-0.91283 0.93643,-1.79535 1.4877,-2.64545 1.14713,-1.52383 2.53567,-3.14064 4.34424,-3.88112 0.62985,-0.15041 1.20592,-0.15604 1.8485,-0.16629 0.11912,-0.002 0.40257,-0.11975 0.35729,-0.01 -0.22854,0.55621 -0.65107,1.0112 -0.9766,1.5168 0.0895,0.0798 0.058,0.0397 -0.14505,-0.006 -0.60116,-0.13479 -1.20107,-0.27796 -1.72782,-0.61554 -1.03036,-0.70265 -1.95643,-1.5547 -2.97048,-2.28205 -1.17027,-0.9058 -2.34993,-1.79838 -3.4393,-2.80304 0,0 1.41421,-1.41421 1.41421,-1.41421 z"
       inkscape:connector-curvature="0" />
    <g
       id="g9324"
       transform="translate(56,-100)">
      <rect
         y="210"
         x="164"
         height="46"
         width="35"
         id="rect9322"
         style="opacity:0.2;fill:#666666;fill-opacity:1;fill-rule:evenodd;stroke:#cccccc;stroke-width:0.99999994;stroke-linecap:butt;stroke-linejoin:miter;stroke-miterlimit:4;stroke-dasharray:none;stroke-dashoffset:0;stroke-opacity:1" />
      <g
         transform="translate(-2,1)"
         style="fill:#ff9900"
         id="g9318">
        <path
           style="opacity:1;fill:#ff9900;fill-opacity:1;stroke:none;stroke-width:0.99999994;stroke-linecap:butt;stroke-linejoin:miter;stroke-miterlimit:4;stroke-dasharray:none;stroke-dashoffset:0;stroke-opacity:1"
           id="path9314"
           d="m 178.96229,227.67064 c -1.68706,-1.89887 -3.14972,-3.96405 -3.43167,-6.53285 0.0663,-2.93996 2.43768,-5.33108 4.98382,-6.6093 2.60033,-1.07856 3.9799,-1.15245 6.5277,0.15133 1.90156,1.25537 2.88034,3.18016 3.3759,5.33785 -0.21727,2.95224 -2.41318,5.06248 -4.15383,7.26295 -1.29593,1.9469 -3.34053,3.9116 -2.2339,6.35085 0.86086,0.74641 0.37196,0.46276 1.47379,0.83859 0,0 -2.59213,3.04645 -2.59213,3.04645 l 0,0 c -1.38814,-0.62936 -0.75861,-0.21471 -1.88739,-1.24579 -1.57996,-2.97407 0.0654,-4.56513 1.72085,-7.08794 1.6586,-2.14512 3.66771,-4.0469 4.53487,-6.68426 -0.35243,-1.94682 -1.15176,-3.7042 -2.87546,-4.81127 -2.20149,-1.03898 -3.75137,-0.81663 -5.87378,0.31488 -1.54798,1.14901 -0.80348,0.65495 1.42347,-1.67005 0.14985,-0.15646 -0.33253,0.2831 -0.46333,0.45581 -0.43136,0.56959 -0.71691,1.25017 -0.75182,1.96162 -0.008,2.43973 1.58116,4.36546 3.10216,6.14445 0,0 -2.87925,2.77668 -2.87925,2.77668 z"
           inkscape:connector-curvature="0" />
        <path
           style="opacity:1;fill:#ff9900;fill-opacity:1;stroke:none;stroke-width:0.99999994;stroke-linecap:butt;stroke-linejoin:miter;stroke-miterlimit:4;stroke-dasharray:none;stroke-dashoffset:0;stroke-opacity:1"
           id="path9316"
           d="m 182.29636,247.38369 c -0.26071,-2.14646 -0.8982,-4.25992 -0.35512,-6.39213 0,0 3.39047,-2.12244 3.39047,-2.12244 l 0,0 c -0.1355,0.27612 -0.32584,0.53154 -0.40649,0.82834 -0.4554,1.67596 0.58108,3.56416 0.53919,5.24421 0,0 -3.16805,2.44202 -3.16805,2.44202 z"
           inkscape:connector-curvature="0" />
      </g>
    </g>
    <text
       sodipodi:linespacing="125%"
       id="text9330"
       y="221"
       x="44"
       style="color:#000000;font-style:normal;font-variant:normal;font-weight:normal;font-stretch:normal;font-size:17.5px;line-height:125%;font-family:Chalkboard;-inkscape-font-specification:Chalkboard;text-indent:0;text-align:start;text-decoration:none;text-decoration-line:none;text-decoration-style:solid;text-decoration-color:#000000;letter-spacing:0px;word-spacing:0px;text-transform:none;direction:ltr;block-progression:tb;writing-mode:lr-tb;baseline-shift:baseline;text-anchor:start;clip-rule:nonzero;display:inline;overflow:visible;visibility:visible;opacity:1;isolation:auto;mix-blend-mode:normal;color-interpolation:sRGB;color-interpolation-filters:linearRGB;solid-color:#000000;solid-opacity:1;fill:#999999;fill-opacity:1;fill-rule:nonzero;stroke:none;stroke-width:1px;stroke-linecap:butt;stroke-linejoin:miter;stroke-miterlimit:4;stroke-dasharray:none;stroke-dashoffset:0;stroke-opacity:1;color-rendering:auto;image-rendering:auto;shape-rendering:auto;text-rendering:auto;enable-background:accumulate"
       xml:space="preserve"><tspan
         y="221"
         x="44"
         id="tspan9332"
         sodipodi:role="line">a has to map ↓ to one of 0, ↓, or 1; </tspan><tspan
         id="tspan9354"
         y="243.27008"
         x="44"
         sodipodi:role="line">once this is decided, 0 &amp; 1 are </tspan><tspan
         y="265.14508"
         x="44"
         sodipodi:role="line"
         id="tspan9415">forced by functoriality:</tspan></text>
    <use
       style="fill:#cccccc"
       transform="matrix(0.41743646,0,0,0.41743646,-17.63599,170.20203)"
       height="100%"
       width="100%"
       y="0"
       x="0"
       xlink:href="#a"
       id="use9417" />
    <g
       transform="translate(-255,-1.5)"
       id="g9419">
      <path
         style="opacity:1;fill:none;fill-opacity:1;fill-rule:evenodd;stroke:#999999;stroke-width:2.5;stroke-linecap:butt;stroke-linejoin:miter;stroke-miterlimit:4;stroke-dasharray:none;stroke-dashoffset:0;stroke-opacity:1"
         d="m 510.88465,308.38059 22.74569,0"
         id="path9421"
         inkscape:connector-curvature="0"
         sodipodi:nodetypes="cc" />
      <path
         sodipodi:nodetypes="cc"
         inkscape:connector-curvature="0"
         id="path9423"
         d="m 510.88465,313.75559 22.74569,0"
         style="opacity:1;fill:none;fill-opacity:1;fill-rule:evenodd;stroke:#999999;stroke-width:2.5;stroke-linecap:butt;stroke-linejoin:miter;stroke-miterlimit:4;stroke-dasharray:none;stroke-dashoffset:0;stroke-opacity:1" />
    </g>
    <g
       transform="matrix(0.74704972,0,0,0.62108084,-27.33381,194.82311)"
       id="g9443">
      <path
         style="opacity:1;fill:#cccccc;fill-opacity:1;stroke:none;stroke-width:0.99999994;stroke-linecap:butt;stroke-linejoin:miter;stroke-miterlimit:4;stroke-dasharray:none;stroke-dashoffset:0;stroke-opacity:1"
         id="path9445"
         d="m 349.61803,166.66175 c 0,4.99551 0,9.99101 0,14.98652 0,4.6202 0,9.2404 0,13.8606 0,0.67122 0.0909,0.56718 -0.40611,-0.0822 0,0 -2.1846,3.35075 -2.1846,3.35075 l 0,0 c -0.76629,-0.55677 -0.64535,-0.203 -0.64535,-0.91737 0,-4.6202 0,-9.2404 0,-13.8606 0,-4.99551 0,-9.99101 0,-14.98652 0,0 3.23606,-2.35114 3.23606,-2.35114 z"
         inkscape:connector-curvature="0" />
      <path
         style="opacity:1;fill:#cccccc;fill-opacity:1;stroke:none;stroke-width:0.99999994;stroke-linecap:butt;stroke-linejoin:miter;stroke-miterlimit:4;stroke-dasharray:none;stroke-dashoffset:0;stroke-opacity:1"
         id="path9447"
         d="m 343.0123,187.18387 c 2.25805,2.53375 4.30393,5.31468 5.80763,8.36414 1.05,2.35674 0.94767,2.5408 -2.70355,3.69176 -0.25425,0.0801 0.0332,-0.66944 0.33102,-1.5439 1.52969,-2.34937 3.78602,-4.22868 5.70906,-6.2138 0.62935,-0.64965 -2.57681,2.53962 -1.93845,1.89882 1.13444,-1.1388 2.28453,-2.26192 3.4268,-3.39287 0.92923,-0.66261 1.89225,-1.29066 2.73727,-2.05837 0,0 -1.88045,3.53043 -1.88045,3.53043 l 0,0 c -0.90108,0.68917 -1.82635,1.34745 -2.69185,2.08219 3.95824,-4.04433 1.11619,-1.13927 -1.47508,1.50087 -0.61585,0.62746 1.2028,-1.2845 1.84574,-1.88418 0.29853,-0.27845 -0.54017,0.61224 -0.81025,0.91836 -0.27791,0.27575 -0.56074,0.54663 -0.83371,0.82727 -0.22793,0.23434 -0.44581,0.47824 -0.66872,0.71736 -1.26702,2.23433 -0.31308,1.00936 -3.7558,4.09669 -0.047,0.0421 0.11699,-0.0805 0.12384,-0.14327 0.0563,-0.51524 -0.23361,-0.94478 -0.42743,-1.39477 -1.41577,-2.99345 -3.44561,-5.68851 -5.6245,-8.1683 0,0 2.82843,-2.82843 2.82843,-2.82843 z"
         inkscape:connector-curvature="0" />
    </g>
    <path
       style="opacity:1;fill:#999999;fill-opacity:1;stroke:none;stroke-width:0.99999994;stroke-linecap:butt;stroke-linejoin:miter;stroke-miterlimit:4;stroke-dasharray:none;stroke-dashoffset:0;stroke-opacity:1"
       id="path9493"
       d="m 225.67108,296.18167 c -0.18094,0.17963 -0.78287,0.62475 -0.54281,0.53888 0.28659,-0.1025 0.681,-0.89714 0.6943,-0.59306 0.0164,0.37531 -0.47138,0.58625 -0.68095,0.89803 -0.26408,0.39286 -0.50685,0.80018 -0.73819,1.21317 -0.77338,1.38068 -0.76791,1.49771 -1.38246,2.98885 -1.25276,3.50265 -1.72866,7.17634 -2.01462,10.86296 -0.17382,2.72757 0.23216,5.44308 1.10077,8.02555 0.18599,0.40318 0.29115,0.88193 0.5735,1.23625 -0.74699,-0.61239 -1.50868,1.96643 -1.47202,0.846 0,0 1.61901,-1.17423 1.61901,-1.17423 l 0,0 c 0.017,0.76277 -0.7788,2.34205 -1.54935,1.75419 -0.3754,-0.36112 -0.48926,-0.93317 -0.70834,-1.38275 -0.90776,-2.61845 -1.35187,-5.37792 -1.19913,-8.15395 0.27295,-3.7178 0.73047,-7.41925 1.94703,-10.96556 1.19562,-3.04408 2.68948,-5.75265 5.2934,-7.85959 0,0 -0.94014,1.76526 -0.94014,1.76526 z"
       inkscape:connector-curvature="0" />
    <path
       style="opacity:1;fill:#999999;fill-opacity:1;stroke:none;stroke-width:0.99999994;stroke-linecap:butt;stroke-linejoin:miter;stroke-miterlimit:4;stroke-dasharray:none;stroke-dashoffset:0;stroke-opacity:1"
       id="path9505"
       d="m 242.65601,294.48238 c 0.73316,1.614 1.63731,3.21057 2.08713,4.93918 0.46449,1.78501 0.78395,4.31078 0.82345,6.12828 0.0265,1.21725 -0.0837,2.43365 -0.12552,3.65047 -0.32551,4.57247 -1.48652,8.98374 -3.05674,13.26799 0,0 -1.69736,1.05781 -1.69736,1.05781 l 0,0 c 1.59237,-4.24591 2.77599,-8.6203 3.12707,-13.1627 0.0513,-1.20396 0.17092,-2.40695 0.15382,-3.61187 -0.0243,-1.71241 -0.32953,-4.34766 -0.7569,-6.04452 -0.42971,-1.70611 -1.32895,-3.27483 -2.02964,-4.87361 0,0 1.47469,-1.35103 1.47469,-1.35103 z"
       inkscape:connector-curvature="0" />
    <use
       id="use10948"
       xlink:href="#k"
       x="0"
       y="0"
       width="100%"
       height="100%"
       transform="matrix(0.44580947,0,0,0.44580947,59.7735,162.35133)"
       style="fill:#cccccc" />
    <path
       style="opacity:1;fill:none;fill-opacity:1;fill-rule:evenodd;stroke:#268bd2;stroke-width:2.5;stroke-linecap:butt;stroke-linejoin:miter;stroke-miterlimit:4;stroke-dasharray:none;stroke-dashoffset:0;stroke-opacity:1"
       d="m 338,305 48,0"
       id="path10966"
       inkscape:connector-curvature="0" />
    <path
       inkscape:connector-curvature="0"
       id="path10968"
       d="m 338,313 48,0"
       style="opacity:1;fill:none;fill-opacity:1;fill-rule:evenodd;stroke:#268bd2;stroke-width:2.5;stroke-linecap:butt;stroke-linejoin:miter;stroke-miterlimit:4;stroke-dasharray:none;stroke-dashoffset:0;stroke-opacity:1" />
    <path
       style="opacity:1;fill:#268bd2;fill-opacity:1;stroke:none;stroke-width:0.99999994;stroke-linecap:butt;stroke-linejoin:miter;stroke-miterlimit:4;stroke-dasharray:none;stroke-dashoffset:0;stroke-opacity:1"
       id="path10972"
       d="m 379.89268,292.06426 c 3.27833,3.23812 6.18838,6.82935 8.92026,10.5333 1.09593,1.17514 1.60055,2.97288 3.0002,3.85667 0.32184,0.11123 0.72406,0.0243 1.06261,-0.0376 0.54986,0.0462 0.86117,-0.30901 1.30961,-0.59633 0.25458,-0.17022 0.51616,-0.33466 0.7395,-0.54511 -1.74215,3.08089 -1.53221,3.32718 -3.71648,3.33592 -0.0832,0.0646 -0.17411,0.12018 -0.24948,0.19369 -0.37002,0.36088 -1.50403,1.41102 -1.08669,1.10611 0.57451,-0.41975 1.24051,-1.94431 1.64567,-1.35942 0.42702,0.61646 -0.90556,1.19622 -1.33087,1.81386 -0.46073,0.66907 -0.88411,1.36312 -1.32616,2.04467 -1.97219,3.0096 -3.86537,6.06647 -5.54517,9.24939 -0.22988,0.39443 -0.44734,0.9943 -0.70884,1.31065 -3.2589,1.72369 -3.848,2.42386 -2.52208,1.08383 0,0 3.56251,-1.81894 3.56251,-1.81894 l 0,0 c -1.58969,1.59943 -0.31206,0.39208 -4.37042,2.95122 -0.0303,-0.52614 0.43716,-1.01379 0.59249,-1.49631 1.64675,-3.21392 3.51766,-6.29831 5.51051,-9.30939 1.85173,-2.97324 4.81902,-8.15615 8.17835,-9.00639 2.18104,-2.1e-4 1.54578,-0.0825 -0.54346,3.41557 -0.27729,0.16383 -0.54606,0.34228 -0.83052,0.49409 -0.51098,0.2638 -1.01691,0.40854 -1.59389,0.4157 -0.52081,0.0174 -1.04656,-0.007 -1.4945,-0.30989 -1.43855,-1.01496 -2.1123,-2.70822 -3.19516,-4.04999 -2.70371,-3.67503 -5.5863,-7.2371 -8.83641,-10.4469 0,0 2.82842,-2.82842 2.82842,-2.82842 z"
       inkscape:connector-curvature="0" />
    <rect
       y="245.71811"
       x="432.60321"
       height="119.01425"
       width="39.226307"
       id="rect10976"
       style="opacity:0.2;fill:#666666;fill-opacity:1;fill-rule:evenodd;stroke:#cccccc;stroke-width:0.41460949;stroke-linecap:butt;stroke-linejoin:miter;stroke-miterlimit:4;stroke-dasharray:none;stroke-dashoffset:0;stroke-opacity:1" />
    <path
       style="opacity:1;fill:none;fill-opacity:1;fill-rule:evenodd;stroke:#999999;stroke-width:1.03652382;stroke-linecap:butt;stroke-linejoin:miter;stroke-miterlimit:4;stroke-dasharray:none;stroke-dashoffset:0;stroke-opacity:1"
       d="m 454.97315,277.9611 0,48.56331"
       id="path10979"
       inkscape:connector-curvature="0"
       sodipodi:nodetypes="cc" />
    <path
       style="opacity:1;fill:#999999;fill-opacity:1;stroke:none;stroke-width:0.41460949;stroke-linecap:butt;stroke-linejoin:miter;stroke-miterlimit:4;stroke-dasharray:none;stroke-dashoffset:0;stroke-opacity:1"
       id="path10981"
       d="m 452.15547,323.67933 c 1.31767,0.86068 2.49242,1.92225 3.5962,3.03908 0.50321,0.59785 1.08752,1.33746 0.88514,2.16719 -0.4547,0.36152 -0.86549,0.78656 -1.3641,1.08455 -0.0776,0.0463 -0.1675,-0.0721 -0.2401,-0.12591 -0.35466,-0.26298 -0.47307,-0.69188 -0.54011,-1.10253 -0.0673,-1.40686 0.81475,-1.86131 1.84426,-2.82606 0.76807,-0.51417 1.62772,-0.86581 2.48418,-1.20452 0.97947,-0.37433 2.02578,-0.53925 3.015,-0.8708 0.1274,-0.042 0.25486,-0.084 0.38227,-0.12599 0,0 -0.88876,1.40018 -0.88876,1.40018 l 0,0 c -0.12882,0.0411 -0.2576,0.0823 -0.38642,0.12337 -1.00053,0.28287 -2.01595,0.51448 -2.99062,0.88605 -0.83544,0.34802 -1.68141,0.69916 -2.409,1.24809 0.28583,-0.30094 0.579,-0.59509 0.85749,-0.90283 0.0706,-0.078 -0.15912,0.1381 -0.23317,0.21293 -0.29579,0.29904 -0.33082,0.65497 -0.35184,1.06004 0.007,1.3703 1.19557,0.31775 -0.65102,1.90751 0.68585,-0.09 -0.35939,-1.58282 -0.58734,-1.75999 -1.09042,-1.10391 -2.25315,-2.14944 -3.55536,-2.99958 0,0 1.1333,-1.21078 1.1333,-1.21078 z"
       inkscape:connector-curvature="0" />
    <use
       id="use11049"
       xlink:href="#zero"
       x="0"
       y="0"
       width="100%"
       height="100%"
       transform="matrix(0.26018082,0,0,0.26018082,373.89445,181.66736)"
       style="fill:#cccccc" />
    <use
       id="use11051"
       xlink:href="#one"
       x="0"
       y="0"
       width="100%"
       height="100%"
       transform="matrix(0.26018082,0,0,0.26018082,384.29383,260.22714)"
       style="fill:#cccccc" />
    <rect
       style="opacity:0.2;fill:#666666;fill-opacity:1;fill-rule:evenodd;stroke:#cccccc;stroke-width:0.41460949;stroke-linecap:butt;stroke-linejoin:miter;stroke-miterlimit:4;stroke-dasharray:none;stroke-dashoffset:0;stroke-opacity:1"
       id="rect11179"
       width="39.226307"
       height="119.01425"
       x="552.60321"
       y="245.71811" />
    <path
       sodipodi:nodetypes="cc"
       inkscape:connector-curvature="0"
       id="path11181"
       d="m 574.97315,277.9611 0,48.56331"
       style="opacity:1;fill:none;fill-opacity:1;fill-rule:evenodd;stroke:#999999;stroke-width:1.03652382;stroke-linecap:butt;stroke-linejoin:miter;stroke-miterlimit:4;stroke-dasharray:none;stroke-dashoffset:0;stroke-opacity:1" />
    <path
       inkscape:connector-curvature="0"
       d="m 572.15547,323.67933 c 1.31767,0.86068 2.49242,1.92225 3.5962,3.03908 0.50321,0.59785 1.08752,1.33746 0.88514,2.16719 -0.4547,0.36152 -0.86549,0.78656 -1.3641,1.08455 -0.0776,0.0463 -0.1675,-0.0721 -0.2401,-0.12591 -0.35466,-0.26298 -0.47307,-0.69188 -0.54011,-1.10253 -0.0673,-1.40686 0.81475,-1.86131 1.84426,-2.82606 0.76807,-0.51417 1.62772,-0.86581 2.48418,-1.20452 0.97947,-0.37433 2.02578,-0.53925 3.015,-0.8708 0.1274,-0.042 0.25486,-0.084 0.38227,-0.12599 0,0 -0.88876,1.40018 -0.88876,1.40018 l 0,0 c -0.12882,0.0411 -0.2576,0.0823 -0.38642,0.12337 -1.00053,0.28287 -2.01595,0.51448 -2.99062,0.88605 -0.83544,0.34802 -1.68141,0.69916 -2.409,1.24809 0.28583,-0.30094 0.579,-0.59509 0.85749,-0.90283 0.0706,-0.078 -0.15912,0.1381 -0.23317,0.21293 -0.29579,0.29904 -0.33082,0.65497 -0.35184,1.06004 0.007,1.3703 1.19557,0.31775 -0.65102,1.90751 0.68585,-0.09 -0.35939,-1.58282 -0.58734,-1.75999 -1.09042,-1.10391 -2.25315,-2.14944 -3.55536,-2.99958 0,0 1.1333,-1.21078 1.1333,-1.21078 z"
       id="path11183"
       style="opacity:1;fill:#999999;fill-opacity:1;stroke:none;stroke-width:0.41460949;stroke-linecap:butt;stroke-linejoin:miter;stroke-miterlimit:4;stroke-dasharray:none;stroke-dashoffset:0;stroke-opacity:1" />
    <use
       id="use11221"
       xlink:href="#x"
       x="0"
       y="0"
       width="100%"
       height="100%"
       transform="matrix(0.27040368,0,0,0.27040368,331.02452,194.38695)"
       style="fill:#cccccc" />
    <use
       id="use11247"
       xlink:href="#y"
       x="0"
       y="0"
       width="100%"
       height="100%"
       transform="matrix(0.29515669,0,0,0.29515669,299.15996,266.9656)"
       style="fill:#cccccc" />
    <use
       style="fill:#cccccc"
       transform="matrix(0.28327026,0,0,0.28327026,412.91273,209.76481)"
       height="100%"
       width="100%"
       y="0"
       x="0"
       xlink:href="#k"
       id="use11259" />
    <use
       id="use11261"
       xlink:href="#a"
       x="0"
       y="0"
       width="100%"
       height="100%"
       transform="matrix(0.41743646,0,0,0.41743646,286.03337,147.93709)"
       style="fill:#cccccc" />
    <path
       style="opacity:1;fill:none;fill-opacity:1;fill-rule:evenodd;stroke:#999999;stroke-width:2.5;stroke-linecap:butt;stroke-linejoin:miter;stroke-miterlimit:4;stroke-dasharray:none;stroke-dashoffset:0;stroke-opacity:1"
       d="m 483.92955,304.66517 55.65864,0"
       id="path11263"
       inkscape:connector-curvature="0"
       sodipodi:nodetypes="cc" />
    <path
       style="opacity:1;fill:#999999;fill-opacity:1;stroke:none;stroke-width:0.99999994;stroke-linecap:butt;stroke-linejoin:miter;stroke-miterlimit:4;stroke-dasharray:none;stroke-dashoffset:0;stroke-opacity:1"
       id="path11269"
       d="m 535.87649,294.53472 c 0.8787,2.37721 2.00227,4.6442 3.42897,6.73782 0.56616,0.98757 1.30228,1.11419 2.34477,1.167 0.47103,0.0132 0.94425,0.0131 1.41067,-0.0569 1.06288,-0.51607 -1.53877,3.2121 -3.03542,3.22273 -0.66659,-0.0106 -1.20097,0.42989 -1.75657,0.81803 -0.26621,0.25068 -1.06446,1.00311 -0.79864,0.75203 2.83884,-2.68139 1.85934,-1.8647 0.85803,-0.61599 -0.68716,0.85693 -1.26123,1.77967 -1.82095,2.72132 -0.34538,0.65254 -0.77947,1.27772 -0.9023,2.01634 0,0 -3.27652,2.29442 -3.27652,2.29442 l 0,0 c 0.0186,-0.86035 0.24779,-1.56958 0.71578,-2.30893 1.7937,-3.23791 4.17176,-6.15406 7.21834,-8.32689 0.70013,-0.34815 1.32101,-0.67678 2.11917,-0.58261 1.7953,0.0406 -0.15338,3.38265 -1.60738,3.29164 -0.51015,0.0127 -1.02103,0.0166 -1.52996,-0.0295 -1.21937,-0.1419 -2.19832,-0.54843 -2.86993,-1.64059 -1.46596,-2.12767 -2.65009,-4.42365 -3.53334,-6.85471 0,0 3.03528,-2.6052 3.03528,-2.6052 z"
       inkscape:connector-curvature="0" />
    <use
       id="use11271"
       xlink:href="#two"
       x="0"
       y="0"
       width="100%"
       height="100%"
       transform="matrix(0.46295819,0,0,0.46295819,396.1062,77.50544)"
       style="fill:none;stroke:#cccccc;stroke-width:3.06526828;stroke-miterlimit:4;stroke-dasharray:none" />
    <g
       id="g11273"
       transform="matrix(0.65610736,0,0,0.54547334,213.10331,204.42399)">
      <path
         inkscape:connector-curvature="0"
         d="m 349.61803,166.66175 c 0,4.99551 0,9.99101 0,14.98652 0,4.6202 0,9.2404 0,13.8606 0,0.67122 0.0909,0.56718 -0.40611,-0.0822 0,0 -2.1846,3.35075 -2.1846,3.35075 l 0,0 c -0.76629,-0.55677 -0.64535,-0.203 -0.64535,-0.91737 0,-4.6202 0,-9.2404 0,-13.8606 0,-4.99551 0,-9.99101 0,-14.98652 0,0 3.23606,-2.35114 3.23606,-2.35114 z"
         id="path11275"
         style="opacity:1;fill:#cccccc;fill-opacity:1;stroke:none;stroke-width:0.99999994;stroke-linecap:butt;stroke-linejoin:miter;stroke-miterlimit:4;stroke-dasharray:none;stroke-dashoffset:0;stroke-opacity:1" />
      <path
         inkscape:connector-curvature="0"
         d="m 343.0123,187.18387 c 2.25805,2.53375 4.30393,5.31468 5.80763,8.36414 1.05,2.35674 0.94767,2.5408 -2.70355,3.69176 -0.25425,0.0801 0.0332,-0.66944 0.33102,-1.5439 1.52969,-2.34937 3.78602,-4.22868 5.70906,-6.2138 0.62935,-0.64965 -2.57681,2.53962 -1.93845,1.89882 1.13444,-1.1388 2.28453,-2.26192 3.4268,-3.39287 0.92923,-0.66261 1.89225,-1.29066 2.73727,-2.05837 0,0 -1.88045,3.53043 -1.88045,3.53043 l 0,0 c -0.90108,0.68917 -1.82635,1.34745 -2.69185,2.08219 3.95824,-4.04433 1.11619,-1.13927 -1.47508,1.50087 -0.61585,0.62746 1.2028,-1.2845 1.84574,-1.88418 0.29853,-0.27845 -0.54017,0.61224 -0.81025,0.91836 -0.27791,0.27575 -0.56074,0.54663 -0.83371,0.82727 -0.22793,0.23434 -0.44581,0.47824 -0.66872,0.71736 -1.26702,2.23433 -0.31308,1.00936 -3.7558,4.09669 -0.047,0.0421 0.11699,-0.0805 0.12384,-0.14327 0.0563,-0.51524 -0.23361,-0.94478 -0.42743,-1.39477 -1.41577,-2.99345 -3.44561,-5.68851 -5.6245,-8.1683 0,0 2.82843,-2.82843 2.82843,-2.82843 z"
         id="path11277"
         style="opacity:1;fill:#cccccc;fill-opacity:1;stroke:none;stroke-width:0.99999994;stroke-linecap:butt;stroke-linejoin:miter;stroke-miterlimit:4;stroke-dasharray:none;stroke-dashoffset:0;stroke-opacity:1" />
    </g>
    <use
       id="use11279"
       xlink:href="#a"
       x="0"
       y="0"
       width="100%"
       height="100%"
       transform="matrix(0.41743646,0,0,0.41743646,442.36401,128.20203)"
       style="fill:#cccccc" />
    <g
       id="g11281"
       transform="translate(205,-41.5)">
      <path
         sodipodi:nodetypes="cc"
         inkscape:connector-curvature="0"
         id="path11283"
         d="m 510.88465,308.38059 22.74569,0"
         style="opacity:1;fill:none;fill-opacity:1;fill-rule:evenodd;stroke:#999999;stroke-width:2.5;stroke-linecap:butt;stroke-linejoin:miter;stroke-miterlimit:4;stroke-dasharray:none;stroke-dashoffset:0;stroke-opacity:1" />
      <path
         style="opacity:1;fill:none;fill-opacity:1;fill-rule:evenodd;stroke:#999999;stroke-width:2.5;stroke-linecap:butt;stroke-linejoin:miter;stroke-miterlimit:4;stroke-dasharray:none;stroke-dashoffset:0;stroke-opacity:1"
         d="m 510.88465,313.75559 22.74569,0"
         id="path11285"
         inkscape:connector-curvature="0"
         sodipodi:nodetypes="cc" />
    </g>
    <path
       inkscape:connector-curvature="0"
       d="m 685.67108,254.18167 c -0.18094,0.17963 -0.78287,0.62475 -0.54281,0.53888 0.28659,-0.1025 0.681,-0.89714 0.6943,-0.59306 0.0164,0.37531 -0.47138,0.58625 -0.68095,0.89803 -0.26408,0.39286 -0.50685,0.80018 -0.73819,1.21317 -0.77338,1.38068 -0.76791,1.49771 -1.38246,2.98885 -1.25276,3.50265 -1.72866,7.17634 -2.01462,10.86296 -0.17382,2.72757 0.23216,5.44308 1.10077,8.02555 0.18599,0.40318 0.29115,0.88193 0.5735,1.23625 -0.74699,-0.61239 -1.50868,1.96643 -1.47202,0.846 0,0 1.61901,-1.17423 1.61901,-1.17423 l 0,0 c 0.017,0.76277 -0.7788,2.34205 -1.54935,1.75419 -0.3754,-0.36112 -0.48926,-0.93317 -0.70834,-1.38275 -0.90776,-2.61845 -1.35187,-5.37792 -1.19913,-8.15395 0.27295,-3.7178 0.73047,-7.41925 1.94703,-10.96556 1.19562,-3.04408 2.68948,-5.75265 5.2934,-7.85959 0,0 -0.94014,1.76526 -0.94014,1.76526 z"
       id="path11293"
       style="opacity:1;fill:#999999;fill-opacity:1;stroke:none;stroke-width:0.99999994;stroke-linecap:butt;stroke-linejoin:miter;stroke-miterlimit:4;stroke-dasharray:none;stroke-dashoffset:0;stroke-opacity:1" />
    <path
       inkscape:connector-curvature="0"
       d="m 702.65601,252.48238 c 0.73316,1.614 1.63731,3.21057 2.08713,4.93918 0.46449,1.78501 0.78395,4.31078 0.82345,6.12828 0.0265,1.21725 -0.0837,2.43365 -0.12552,3.65047 -0.32551,4.57247 -1.48652,8.98374 -3.05674,13.26799 0,0 -1.69736,1.05781 -1.69736,1.05781 l 0,0 c 1.59237,-4.24591 2.77599,-8.6203 3.12707,-13.1627 0.0513,-1.20396 0.17092,-2.40695 0.15382,-3.61187 -0.0243,-1.71241 -0.32953,-4.34766 -0.7569,-6.04452 -0.42971,-1.70611 -1.32895,-3.27483 -2.02964,-4.87361 0,0 1.47469,-1.35103 1.47469,-1.35103 z"
       id="path11295"
       style="opacity:1;fill:#999999;fill-opacity:1;stroke:none;stroke-width:0.99999994;stroke-linecap:butt;stroke-linejoin:miter;stroke-miterlimit:4;stroke-dasharray:none;stroke-dashoffset:0;stroke-opacity:1" />
    <use
       style="fill:#cccccc"
       transform="matrix(0.41539797,0,0,0.41539797,579.23884,190.44985)"
       height="100%"
       width="100%"
       y="0"
       x="0"
       xlink:href="#one"
       id="use11299" />
    <use
       style="fill:#cccccc"
       transform="matrix(0.41539797,0,0,0.41539797,561.67828,133.24927)"
       height="100%"
       width="100%"
       y="0"
       x="0"
       xlink:href="#zero"
       id="use11301" />
    <use
       style="fill:#cccccc"
       transform="matrix(0.40956865,0,0,0.40956865,391.13148,159.60214)"
       height="100%"
       width="100%"
       y="0"
       x="0"
       xlink:href="#x"
       id="use11303" />
    <use
       style="fill:#cccccc"
       transform="matrix(0.43257421,0,0,0.43257421,352.9154,214.96817)"
       height="100%"
       width="100%"
       y="0"
       x="0"
       xlink:href="#y"
       id="use11305" />
    <use
       style="fill:#cccccc"
       transform="matrix(0.41743646,0,0,0.41743646,442.36401,188.20203)"
       height="100%"
       width="100%"
       y="0"
       x="0"
       xlink:href="#a"
       id="use11307" />
    <g
       transform="translate(205,18.5)"
       id="g11309">
      <path
         style="opacity:1;fill:none;fill-opacity:1;fill-rule:evenodd;stroke:#999999;stroke-width:2.5;stroke-linecap:butt;stroke-linejoin:miter;stroke-miterlimit:4;stroke-dasharray:none;stroke-dashoffset:0;stroke-opacity:1"
         d="m 510.88465,308.38059 22.74569,0"
         id="path11311"
         inkscape:connector-curvature="0"
         sodipodi:nodetypes="cc" />
      <path
         sodipodi:nodetypes="cc"
         inkscape:connector-curvature="0"
         id="path11313"
         d="m 510.88465,313.75559 22.74569,0"
         style="opacity:1;fill:none;fill-opacity:1;fill-rule:evenodd;stroke:#999999;stroke-width:2.5;stroke-linecap:butt;stroke-linejoin:miter;stroke-miterlimit:4;stroke-dasharray:none;stroke-dashoffset:0;stroke-opacity:1" />
    </g>
    <path
       style="opacity:1;fill:#999999;fill-opacity:1;stroke:none;stroke-width:0.99999994;stroke-linecap:butt;stroke-linejoin:miter;stroke-miterlimit:4;stroke-dasharray:none;stroke-dashoffset:0;stroke-opacity:1"
       id="path11315"
       d="m 685.67108,314.18167 c -0.18094,0.17963 -0.78287,0.62475 -0.54281,0.53888 0.28659,-0.1025 0.681,-0.89714 0.6943,-0.59306 0.0164,0.37531 -0.47138,0.58625 -0.68095,0.89803 -0.26408,0.39286 -0.50685,0.80018 -0.73819,1.21317 -0.77338,1.38068 -0.76791,1.49771 -1.38246,2.98885 -1.25276,3.50265 -1.72866,7.17634 -2.01462,10.86296 -0.17382,2.72757 0.23216,5.44308 1.10077,8.02555 0.18599,0.40318 0.29115,0.88193 0.5735,1.23625 -0.74699,-0.61239 -1.50868,1.96643 -1.47202,0.846 0,0 1.61901,-1.17423 1.61901,-1.17423 l 0,0 c 0.017,0.76277 -0.7788,2.34205 -1.54935,1.75419 -0.3754,-0.36112 -0.48926,-0.93317 -0.70834,-1.38275 -0.90776,-2.61845 -1.35187,-5.37792 -1.19913,-8.15395 0.27295,-3.7178 0.73047,-7.41925 1.94703,-10.96556 1.19562,-3.04408 2.68948,-5.75265 5.2934,-7.85959 0,0 -0.94014,1.76526 -0.94014,1.76526 z"
       inkscape:connector-curvature="0" />
    <path
       style="opacity:1;fill:#999999;fill-opacity:1;stroke:none;stroke-width:0.99999994;stroke-linecap:butt;stroke-linejoin:miter;stroke-miterlimit:4;stroke-dasharray:none;stroke-dashoffset:0;stroke-opacity:1"
       id="path11317"
       d="m 702.65601,312.48238 c 0.73316,1.614 1.63731,3.21057 2.08713,4.93918 0.46449,1.78501 0.78395,4.31078 0.82345,6.12828 0.0265,1.21725 -0.0837,2.43365 -0.12552,3.65047 -0.32551,4.57247 -1.48652,8.98374 -3.05674,13.26799 0,0 -1.69736,1.05781 -1.69736,1.05781 l 0,0 c 1.59237,-4.24591 2.77599,-8.6203 3.12707,-13.1627 0.0513,-1.20396 0.17092,-2.40695 0.15382,-3.61187 -0.0243,-1.71241 -0.32953,-4.34766 -0.7569,-6.04452 -0.42971,-1.70611 -1.32895,-3.27483 -2.02964,-4.87361 0,0 1.47469,-1.35103 1.47469,-1.35103 z"
       inkscape:connector-curvature="0" />
    <text
       xml:space="preserve"
       style="color:#000000;font-style:normal;font-variant:normal;font-weight:normal;font-stretch:normal;font-size:17.5px;line-height:125%;font-family:Chalkboard;-inkscape-font-specification:Chalkboard;text-indent:0;text-align:start;text-decoration:none;text-decoration-line:none;text-decoration-style:solid;text-decoration-color:#000000;letter-spacing:0px;word-spacing:0px;text-transform:none;direction:ltr;block-progression:tb;writing-mode:lr-tb;baseline-shift:baseline;text-anchor:start;clip-rule:nonzero;display:inline;overflow:visible;visibility:visible;opacity:1;isolation:auto;mix-blend-mode:normal;color-interpolation:sRGB;color-interpolation-filters:linearRGB;solid-color:#000000;solid-opacity:1;fill:#666666;fill-opacity:1;fill-rule:nonzero;stroke:none;stroke-width:1px;stroke-linecap:butt;stroke-linejoin:miter;stroke-miterlimit:4;stroke-dasharray:none;stroke-dashoffset:0;stroke-opacity:1;color-rendering:auto;image-rendering:auto;shape-rendering:auto;text-rendering:auto;enable-background:accumulate"
       x="812"
       y="279"
       id="text11323"
       sodipodi:linespacing="125%"><tspan
         sodipodi:role="line"
         x="812"
         y="279"
         id="tspan11325">if a is a functor,</tspan><tspan
         sodipodi:role="line"
         x="812"
         y="300.875"
         id="tspan11327">it must preserve </tspan><tspan
         sodipodi:role="line"
         x="812"
         y="322.75"
         id="tspan11329">dom and cod</tspan></text>
    <text
       xml:space="preserve"
       style="color:#000000;font-style:normal;font-variant:normal;font-weight:normal;font-stretch:normal;font-size:17.5px;line-height:125%;font-family:Chalkboard;-inkscape-font-specification:Chalkboard;text-indent:0;text-align:start;text-decoration:none;text-decoration-line:none;text-decoration-style:solid;text-decoration-color:#000000;letter-spacing:0px;word-spacing:0px;text-transform:none;direction:ltr;block-progression:tb;writing-mode:lr-tb;baseline-shift:baseline;text-anchor:start;clip-rule:nonzero;display:inline;overflow:visible;visibility:visible;opacity:1;isolation:auto;mix-blend-mode:normal;color-interpolation:sRGB;color-interpolation-filters:linearRGB;solid-color:#000000;solid-opacity:1;fill:#999999;fill-opacity:1;fill-rule:nonzero;stroke:none;stroke-width:1px;stroke-linecap:butt;stroke-linejoin:miter;stroke-miterlimit:4;stroke-dasharray:none;stroke-dashoffset:0;stroke-opacity:1;color-rendering:auto;image-rendering:auto;shape-rendering:auto;text-rendering:auto;enable-background:accumulate"
       x="33"
       y="424"
       id="text11335"
       sodipodi:linespacing="125%"><tspan
         sodipodi:role="line"
         x="33"
         y="424"
         id="tspan11337">only 3 choices are possible and so there are exactly 3 functors:</tspan></text>
    <use
       id="use11339"
       xlink:href="#two"
       x="0"
       y="0"
       width="100%"
       height="100%"
       transform="matrix(0.46295819,0,0,0.46295819,-78.956246,340.39453)"
       style="fill:none;stroke:#cccccc;stroke-width:3.06507158;stroke-miterlimit:4;stroke-dasharray:none" />
    <use
       id="use11341"
       xlink:href="#one"
       x="0"
       y="0"
       width="100%"
       height="100%"
       transform="matrix(0.48470705,0,0,0.48470705,59.805512,330.50632)"
       style="fill:none;stroke:#cccccc;stroke-width:2.92754149;stroke-miterlimit:4;stroke-dasharray:none" />
    <g
       id="g11383"
       transform="translate(-30.284267,-17.677669)">
      <g
         transform="matrix(0.74704972,0,0,0.62108084,7.66619,371.82311)"
         id="g11343">
        <path
           style="opacity:1;fill:#cccccc;fill-opacity:1;stroke:none;stroke-width:0.99999994;stroke-linecap:butt;stroke-linejoin:miter;stroke-miterlimit:4;stroke-dasharray:none;stroke-dashoffset:0;stroke-opacity:1"
           id="path11345"
           d="m 349.61803,166.66175 c 0,4.99551 0,9.99101 0,14.98652 0,4.6202 0,9.2404 0,13.8606 0,0.67122 0.0909,0.56718 -0.40611,-0.0822 0,0 -2.1846,3.35075 -2.1846,3.35075 l 0,0 c -0.76629,-0.55677 -0.64535,-0.203 -0.64535,-0.91737 0,-4.6202 0,-9.2404 0,-13.8606 0,-4.99551 0,-9.99101 0,-14.98652 0,0 3.23606,-2.35114 3.23606,-2.35114 z"
           inkscape:connector-curvature="0" />
        <path
           style="opacity:1;fill:#cccccc;fill-opacity:1;stroke:none;stroke-width:0.99999994;stroke-linecap:butt;stroke-linejoin:miter;stroke-miterlimit:4;stroke-dasharray:none;stroke-dashoffset:0;stroke-opacity:1"
           id="path11347"
           d="m 343.0123,187.18387 c 2.25805,2.53375 4.30393,5.31468 5.80763,8.36414 1.05,2.35674 0.94767,2.5408 -2.70355,3.69176 -0.25425,0.0801 0.0332,-0.66944 0.33102,-1.5439 1.52969,-2.34937 3.78602,-4.22868 5.70906,-6.2138 0.62935,-0.64965 -2.57681,2.53962 -1.93845,1.89882 1.13444,-1.1388 2.28453,-2.26192 3.4268,-3.39287 0.92923,-0.66261 1.89225,-1.29066 2.73727,-2.05837 0,0 -1.88045,3.53043 -1.88045,3.53043 l 0,0 c -0.90108,0.68917 -1.82635,1.34745 -2.69185,2.08219 3.95824,-4.04433 1.11619,-1.13927 -1.47508,1.50087 -0.61585,0.62746 1.2028,-1.2845 1.84574,-1.88418 0.29853,-0.27845 -0.54017,0.61224 -0.81025,0.91836 -0.27791,0.27575 -0.56074,0.54663 -0.83371,0.82727 -0.22793,0.23434 -0.44581,0.47824 -0.66872,0.71736 -1.26702,2.23433 -0.31308,1.00936 -3.7558,4.09669 -0.047,0.0421 0.11699,-0.0805 0.12384,-0.14327 0.0563,-0.51524 -0.23361,-0.94478 -0.42743,-1.39477 -1.41577,-2.99345 -3.44561,-5.68851 -5.6245,-8.1683 0,0 2.82843,-2.82843 2.82843,-2.82843 z"
           inkscape:connector-curvature="0" />
      </g>
      <path
         inkscape:connector-curvature="0"
         d="m 262.34573,475.32687 c 3.02159,0 6.04317,0 9.06476,0 0.79503,0 1.59007,0 2.38511,0 0.84723,0.87336 0.32811,0.35537 0.22782,0.73808 2.4e-4,0.0538 4.7e-4,0.10765 7e-4,0.16147 0,0 -2.27309,1.68316 -2.27309,1.68316 l 0,0 c -0.005,-0.0602 -0.01,-0.12045 -0.0148,-0.18067 -0.10438,-0.67537 -0.17208,-0.71185 0.39686,-0.11379 -0.79504,0 -1.59007,0 -2.38511,0 -3.02159,0 -6.04317,0 -9.06476,0 0,0 1.66251,-2.28825 1.66251,-2.28825 z"
         id="path11367"
         style="opacity:1;fill:#cccccc;fill-opacity:1;stroke:none;stroke-width:0.99999994;stroke-linecap:butt;stroke-linejoin:miter;stroke-miterlimit:4;stroke-dasharray:none;stroke-dashoffset:0;stroke-opacity:1" />
    </g>
    <g
       id="g11377"
       transform="translate(217.42493,-19.091883)">
      <g
         id="g11369"
         transform="matrix(0.74704972,0,0,0.62108084,47.66619,371.82311)">
        <path
           inkscape:connector-curvature="0"
           d="m 349.61803,166.66175 c 0,4.99551 0,9.99101 0,14.98652 0,4.6202 0,9.2404 0,13.8606 0,0.67122 0.0909,0.56718 -0.40611,-0.0822 0,0 -2.1846,3.35075 -2.1846,3.35075 l 0,0 c -0.76629,-0.55677 -0.64535,-0.203 -0.64535,-0.91737 0,-4.6202 0,-9.2404 0,-13.8606 0,-4.99551 0,-9.99101 0,-14.98652 0,0 3.23606,-2.35114 3.23606,-2.35114 z"
           id="path11371"
           style="opacity:1;fill:#cccccc;fill-opacity:1;stroke:none;stroke-width:0.99999994;stroke-linecap:butt;stroke-linejoin:miter;stroke-miterlimit:4;stroke-dasharray:none;stroke-dashoffset:0;stroke-opacity:1" />
        <path
           inkscape:connector-curvature="0"
           d="m 343.0123,187.18387 c 2.25805,2.53375 4.30393,5.31468 5.80763,8.36414 1.05,2.35674 0.94767,2.5408 -2.70355,3.69176 -0.25425,0.0801 0.0332,-0.66944 0.33102,-1.5439 1.52969,-2.34937 3.78602,-4.22868 5.70906,-6.2138 0.62935,-0.64965 -2.57681,2.53962 -1.93845,1.89882 1.13444,-1.1388 2.28453,-2.26192 3.4268,-3.39287 0.92923,-0.66261 1.89225,-1.29066 2.73727,-2.05837 0,0 -1.88045,3.53043 -1.88045,3.53043 l 0,0 c -0.90108,0.68917 -1.82635,1.34745 -2.69185,2.08219 3.95824,-4.04433 1.11619,-1.13927 -1.47508,1.50087 -0.61585,0.62746 1.2028,-1.2845 1.84574,-1.88418 0.29853,-0.27845 -0.54017,0.61224 -0.81025,0.91836 -0.27791,0.27575 -0.56074,0.54663 -0.83371,0.82727 -0.22793,0.23434 -0.44581,0.47824 -0.66872,0.71736 -1.26702,2.23433 -0.31308,1.00936 -3.7558,4.09669 -0.047,0.0421 0.11699,-0.0805 0.12384,-0.14327 0.0563,-0.51524 -0.23361,-0.94478 -0.42743,-1.39477 -1.41577,-2.99345 -3.44561,-5.68851 -5.6245,-8.1683 0,0 2.82843,-2.82843 2.82843,-2.82843 z"
           id="path11373"
           style="opacity:1;fill:#cccccc;fill-opacity:1;stroke:none;stroke-width:0.99999994;stroke-linecap:butt;stroke-linejoin:miter;stroke-miterlimit:4;stroke-dasharray:none;stroke-dashoffset:0;stroke-opacity:1" />
      </g>
      <path
         style="opacity:1;fill:#cccccc;fill-opacity:1;stroke:none;stroke-width:0.99999994;stroke-linecap:butt;stroke-linejoin:miter;stroke-miterlimit:4;stroke-dasharray:none;stroke-dashoffset:0;stroke-opacity:1"
         id="path11375"
         d="m 302.34573,495.32687 c 3.02159,0 6.04317,0 9.06476,0 0.79503,0 1.59007,0 2.38511,0 0.84723,0.87336 0.32811,0.35537 0.22782,0.73808 2.4e-4,0.0538 4.7e-4,0.10765 7e-4,0.16147 0,0 -2.27309,1.68316 -2.27309,1.68316 l 0,0 c -0.005,-0.0602 -0.01,-0.12045 -0.0148,-0.18067 -0.10438,-0.67537 -0.17208,-0.71185 0.39686,-0.11379 -0.79504,0 -1.59007,0 -2.38511,0 -3.02159,0 -6.04317,0 -9.06476,0 0,0 1.66251,-2.28825 1.66251,-2.28825 z"
         inkscape:connector-curvature="0" />
    </g>
    <path
       style="opacity:1;fill:none;fill-opacity:1;fill-rule:evenodd;stroke:#999999;stroke-width:2.5;stroke-linecap:butt;stroke-linejoin:miter;stroke-miterlimit:4;stroke-dasharray:10, 2.5;stroke-dashoffset:0;stroke-opacity:1"
       d="m 113.96551,490.81414 54.44722,0"
       id="path11389"
       inkscape:connector-curvature="0" />
    <path
       style="opacity:1;fill:#999999;fill-opacity:1;stroke:none;stroke-width:0.99999994;stroke-linecap:butt;stroke-linejoin:miter;stroke-miterlimit:4;stroke-dasharray:none;stroke-dashoffset:0;stroke-opacity:1"
       id="path11391"
       d="m 169.02161,481.19562 c 0.83197,1.85651 1.67001,3.71173 2.83794,5.38421 0.68175,1.05143 1.78256,1.53125 2.87109,2.04878 0.31087,0.13861 0.618,0.29006 0.9413,0.39803 -1.04246,1.82127 -1.17184,2.16982 -2.48899,2.20255 -1.0431,0.0195 -1.52463,-0.17011 -2.38387,0.55893 -0.20535,0.2225 -0.87993,0.81597 -0.61605,0.66749 0.44674,-0.25136 0.67224,-1.04985 1.18076,-0.98523 0.41006,0.0521 -0.45344,0.69199 -0.65692,1.05181 -0.51073,0.90316 -0.89958,1.86295 -1.28011,2.82524 -0.26907,0.74411 -0.47187,1.512 -0.5887,2.29465 -0.13863,0.89717 -1.05084,0.69018 -2.20888,1.34617 0,0 2.44447,-1.42288 2.44447,-1.42288 l 0,0 c -1.3904,1.02343 -2.48612,2.93348 -2.55329,1.69791 0.0318,-0.82819 0.27655,-1.6348 0.50238,-2.42566 1.10203,-2.94851 2.50825,-5.57978 5.1736,-7.5087 0.86794,-0.3989 1.70008,-0.4256 2.64569,-0.39047 1.54704,0.014 0.63775,0.21546 -0.98577,2.25691 -0.33249,-0.13654 -0.66158,-0.28118 -0.98592,-0.43619 -1.16878,-0.56569 -2.33716,-1.12779 -3.07845,-2.24937 -1.19591,-1.6869 -2.06657,-3.55778 -2.89475,-5.44693 0,0 2.12447,-1.86725 2.12447,-1.86725 z"
       inkscape:connector-curvature="0" />
    <use
       style="fill:none;stroke:#cccccc;stroke-width:3.06507158;stroke-miterlimit:4;stroke-dasharray:none"
       transform="matrix(0.46295819,0,0,0.46295819,113.04375,340.39453)"
       height="100%"
       width="100%"
       y="0"
       x="0"
       xlink:href="#two"
       id="use11393" />
    <path
       inkscape:connector-curvature="0"
       id="path11395"
       d="m 209.96551,490.81414 54.44722,0"
       style="opacity:1;fill:none;fill-opacity:1;fill-rule:evenodd;stroke:#999999;stroke-width:2.5;stroke-linecap:butt;stroke-linejoin:miter;stroke-miterlimit:4;stroke-dasharray:none;stroke-dashoffset:0;stroke-opacity:1" />
    <path
       inkscape:connector-curvature="0"
       d="m 263.02161,481.19562 c 0.83197,1.85651 1.67001,3.71173 2.83794,5.38421 0.68175,1.05143 1.78256,1.53125 2.87109,2.04878 0.31087,0.13861 0.618,0.29006 0.9413,0.39803 -1.04246,1.82127 -1.17184,2.16982 -2.48899,2.20255 -1.0431,0.0195 -1.52463,-0.17011 -2.38387,0.55893 -0.20535,0.2225 -0.87993,0.81597 -0.61605,0.66749 0.44674,-0.25136 0.67224,-1.04985 1.18076,-0.98523 0.41006,0.0521 -0.45344,0.69199 -0.65692,1.05181 -0.51073,0.90316 -0.89958,1.86295 -1.28011,2.82524 -0.26907,0.74411 -0.47187,1.512 -0.5887,2.29465 -0.13863,0.89717 -1.05084,0.69018 -2.20888,1.34617 0,0 2.44447,-1.42288 2.44447,-1.42288 l 0,0 c -1.3904,1.02343 -2.48612,2.93348 -2.55329,1.69791 0.0318,-0.82819 0.27655,-1.6348 0.50238,-2.42566 1.10203,-2.94851 2.50825,-5.57978 5.1736,-7.5087 0.86794,-0.3989 1.70008,-0.4256 2.64569,-0.39047 1.54704,0.014 0.63775,0.21546 -0.98577,2.25691 -0.33249,-0.13654 -0.66158,-0.28118 -0.98592,-0.43619 -1.16878,-0.56569 -2.33716,-1.12779 -3.07845,-2.24937 -1.19591,-1.6869 -2.06657,-3.55778 -2.89475,-5.44693 0,0 2.12447,-1.86725 2.12447,-1.86725 z"
       id="path11397"
       style="opacity:1;fill:#999999;fill-opacity:1;stroke:none;stroke-width:0.99999994;stroke-linecap:butt;stroke-linejoin:miter;stroke-miterlimit:4;stroke-dasharray:none;stroke-dashoffset:0;stroke-opacity:1" />
    <use
       style="fill:none;stroke:#cccccc;stroke-width:3.06507158;stroke-miterlimit:4;stroke-dasharray:none"
       transform="matrix(0.46295819,0,0,0.46295819,209.04375,340.39453)"
       height="100%"
       width="100%"
       y="0"
       x="0"
       xlink:href="#two"
       id="use11399" />
    <use
       style="fill:none;stroke:#cccccc;stroke-width:2.92754149;stroke-miterlimit:4;stroke-dasharray:none"
       transform="matrix(0.48470705,0,0,0.48470705,347.80551,330.50632)"
       height="100%"
       width="100%"
       y="0"
       x="0"
       xlink:href="#one"
       id="use11401" />
    <path
       inkscape:connector-curvature="0"
       id="path11413"
       d="m 401.96551,490.81414 54.44722,0"
       style="opacity:1;fill:none;fill-opacity:1;fill-rule:evenodd;stroke:#999999;stroke-width:2.5;stroke-linecap:butt;stroke-linejoin:miter;stroke-miterlimit:4;stroke-dasharray:10, 2.5;stroke-dashoffset:0;stroke-opacity:1" />
    <path
       inkscape:connector-curvature="0"
       d="m 457.02161,481.19562 c 0.83197,1.85651 1.67001,3.71173 2.83794,5.38421 0.68175,1.05143 1.78256,1.53125 2.87109,2.04878 0.31087,0.13861 0.618,0.29006 0.9413,0.39803 -1.04246,1.82127 -1.17184,2.16982 -2.48899,2.20255 -1.0431,0.0195 -1.52463,-0.17011 -2.38387,0.55893 -0.20535,0.2225 -0.87993,0.81597 -0.61605,0.66749 0.44674,-0.25136 0.67224,-1.04985 1.18076,-0.98523 0.41006,0.0521 -0.45344,0.69199 -0.65692,1.05181 -0.51073,0.90316 -0.89958,1.86295 -1.28011,2.82524 -0.26907,0.74411 -0.47187,1.512 -0.5887,2.29465 -0.13863,0.89717 -1.05084,0.69018 -2.20888,1.34617 0,0 2.44447,-1.42288 2.44447,-1.42288 l 0,0 c -1.3904,1.02343 -2.48612,2.93348 -2.55329,1.69791 0.0318,-0.82819 0.27655,-1.6348 0.50238,-2.42566 1.10203,-2.94851 2.50825,-5.57978 5.1736,-7.5087 0.86794,-0.3989 1.70008,-0.4256 2.64569,-0.39047 1.54704,0.014 0.63775,0.21546 -0.98577,2.25691 -0.33249,-0.13654 -0.66158,-0.28118 -0.98592,-0.43619 -1.16878,-0.56569 -2.33716,-1.12779 -3.07845,-2.24937 -1.19591,-1.6869 -2.06657,-3.55778 -2.89475,-5.44693 0,0 2.12447,-1.86725 2.12447,-1.86725 z"
       id="path11415"
       style="opacity:1;fill:#999999;fill-opacity:1;stroke:none;stroke-width:0.99999994;stroke-linecap:butt;stroke-linejoin:miter;stroke-miterlimit:4;stroke-dasharray:none;stroke-dashoffset:0;stroke-opacity:1" />
    <use
       id="use11417"
       xlink:href="#two"
       x="0"
       y="0"
       width="100%"
       height="100%"
       transform="matrix(0.46295819,0,0,0.46295819,401.04375,340.39453)"
       style="fill:none;stroke:#cccccc;stroke-width:3.06507158;stroke-miterlimit:4;stroke-dasharray:none" />
    <path
       style="opacity:1;fill:none;fill-opacity:1;fill-rule:evenodd;stroke:#999999;stroke-width:2.5;stroke-linecap:butt;stroke-linejoin:miter;stroke-miterlimit:4;stroke-dasharray:none;stroke-dashoffset:0;stroke-opacity:1"
       d="m 497.96551,490.81414 54.44722,0"
       id="path11419"
       inkscape:connector-curvature="0" />
    <path
       style="opacity:1;fill:#999999;fill-opacity:1;stroke:none;stroke-width:0.99999994;stroke-linecap:butt;stroke-linejoin:miter;stroke-miterlimit:4;stroke-dasharray:none;stroke-dashoffset:0;stroke-opacity:1"
       id="path11421"
       d="m 551.02161,481.19562 c 0.83197,1.85651 1.67001,3.71173 2.83794,5.38421 0.68175,1.05143 1.78256,1.53125 2.87109,2.04878 0.31087,0.13861 0.618,0.29006 0.9413,0.39803 -1.04246,1.82127 -1.17184,2.16982 -2.48899,2.20255 -1.0431,0.0195 -1.52463,-0.17011 -2.38387,0.55893 -0.20535,0.2225 -0.87993,0.81597 -0.61605,0.66749 0.44674,-0.25136 0.67224,-1.04985 1.18076,-0.98523 0.41006,0.0521 -0.45344,0.69199 -0.65692,1.05181 -0.51073,0.90316 -0.89958,1.86295 -1.28011,2.82524 -0.26907,0.74411 -0.47187,1.512 -0.5887,2.29465 -0.13863,0.89717 -1.05084,0.69018 -2.20888,1.34617 0,0 2.44447,-1.42288 2.44447,-1.42288 l 0,0 c -1.3904,1.02343 -2.48612,2.93348 -2.55329,1.69791 0.0318,-0.82819 0.27655,-1.6348 0.50238,-2.42566 1.10203,-2.94851 2.50825,-5.57978 5.1736,-7.5087 0.86794,-0.3989 1.70008,-0.4256 2.64569,-0.39047 1.54704,0.014 0.63775,0.21546 -0.98577,2.25691 -0.33249,-0.13654 -0.66158,-0.28118 -0.98592,-0.43619 -1.16878,-0.56569 -2.33716,-1.12779 -3.07845,-2.24937 -1.19591,-1.6869 -2.06657,-3.55778 -2.89475,-5.44693 0,0 2.12447,-1.86725 2.12447,-1.86725 z"
       inkscape:connector-curvature="0" />
    <use
       id="use11433"
       xlink:href="#two"
       x="0"
       y="0"
       width="100%"
       height="100%"
       transform="matrix(0.46295819,0,0,0.46295819,495.04375,340.39453)"
       style="fill:none;stroke:#cccccc;stroke-width:3.06507158;stroke-miterlimit:4;stroke-dasharray:none" />
    <use
       style="fill:none;stroke:#cccccc;stroke-width:3.06507158;stroke-miterlimit:4;stroke-dasharray:none"
       transform="matrix(0.46295819,0,0,0.46295819,639.04375,340.39453)"
       height="100%"
       width="100%"
       y="0"
       x="0"
       xlink:href="#two"
       id="use11441" />
    <path
       inkscape:connector-curvature="0"
       id="path11443"
       d="m 694.96551,490.81414 95.44722,0"
       style="opacity:1;fill:none;fill-opacity:1;fill-rule:evenodd;stroke:#999999;stroke-width:2.5;stroke-linecap:butt;stroke-linejoin:miter;stroke-miterlimit:4;stroke-dasharray:none;stroke-dashoffset:0;stroke-opacity:1"
       sodipodi:nodetypes="cc" />
    <path
       inkscape:connector-curvature="0"
       d="m 789.02161,481.19562 c 0.83197,1.85651 1.67001,3.71173 2.83794,5.38421 0.68175,1.05143 1.78256,1.53125 2.87109,2.04878 0.31087,0.13861 0.618,0.29006 0.9413,0.39803 -1.04246,1.82127 -1.17184,2.16982 -2.48899,2.20255 -1.0431,0.0195 -1.52463,-0.17011 -2.38387,0.55893 -0.20535,0.2225 -0.87993,0.81597 -0.61605,0.66749 0.44674,-0.25136 0.67224,-1.04985 1.18076,-0.98523 0.41006,0.0521 -0.45344,0.69199 -0.65692,1.05181 -0.51073,0.90316 -0.89958,1.86295 -1.28011,2.82524 -0.26907,0.74411 -0.47187,1.512 -0.5887,2.29465 -0.13863,0.89717 -1.05084,0.69018 -2.20888,1.34617 0,0 2.44447,-1.42288 2.44447,-1.42288 l 0,0 c -1.3904,1.02343 -2.48612,2.93348 -2.55329,1.69791 0.0318,-0.82819 0.27655,-1.6348 0.50238,-2.42566 1.10203,-2.94851 2.50825,-5.57978 5.1736,-7.5087 0.86794,-0.3989 1.70008,-0.4256 2.64569,-0.39047 1.54704,0.014 0.63775,0.21546 -0.98577,2.25691 -0.33249,-0.13654 -0.66158,-0.28118 -0.98592,-0.43619 -1.16878,-0.56569 -2.33716,-1.12779 -3.07845,-2.24937 -1.19591,-1.6869 -2.06657,-3.55778 -2.89475,-5.44693 0,0 2.12447,-1.86725 2.12447,-1.86725 z"
       id="path11445"
       style="opacity:1;fill:#999999;fill-opacity:1;stroke:none;stroke-width:0.99999994;stroke-linecap:butt;stroke-linejoin:miter;stroke-miterlimit:4;stroke-dasharray:none;stroke-dashoffset:0;stroke-opacity:1" />
    <use
       style="fill:none;stroke:#cccccc;stroke-width:3.06507158;stroke-miterlimit:4;stroke-dasharray:none"
       transform="matrix(0.46295819,0,0,0.46295819,568.04375,321.39453)"
       height="100%"
       width="100%"
       y="0"
       x="0"
       xlink:href="#two"
       id="use11447" />
  </g>
</svg>
