<?xml version="1.0" encoding="UTF-8" standalone="no"?>
<svg
   xmlns:dc="http://purl.org/dc/elements/1.1/"
   xmlns:cc="http://creativecommons.org/ns#"
   xmlns:rdf="http://www.w3.org/1999/02/22-rdf-syntax-ns#"
   xmlns:svg="http://www.w3.org/2000/svg"
   xmlns="http://www.w3.org/2000/svg"
   xmlns:xlink="http://www.w3.org/1999/xlink"
   xmlns:sodipodi="http://sodipodi.sourceforge.net/DTD/sodipodi-0.dtd"
   xmlns:inkscape="http://www.inkscape.org/namespaces/inkscape"
   width="1024px"
   height="768px"
   id="svg3541"
   version="1.1"
   inkscape:version="0.48.4 r9939"
   sodipodi:docname="s1.svg">
  <defs
     id="defs3543">
    <marker
       inkscape:stockid="Arrow2Lstart"
       orient="auto"
       refY="0.0"
       refX="0.0"
       id="Arrow2Lstart"
       style="overflow:visible">
      <path
         id="path10406"
         style="font-size:12.0;fill-rule:evenodd;stroke-width:0.62500000;stroke-linejoin:round"
         d="M 8.7185878,4.0337352 L -2.2072895,0.016013256 L 8.7185884,-4.0017078 C 6.9730900,-1.6296469 6.9831476,1.6157441 8.7185878,4.0337352 z "
         transform="scale(1.1) translate(1,0)" />
    </marker>
    <marker
       inkscape:stockid="Arrow1Lend"
       orient="auto"
       refY="0.0"
       refX="0.0"
       id="Arrow1Lend"
       style="overflow:visible;">
      <path
         id="path8472"
         d="M 0.0,0.0 L 5.0,-5.0 L -12.5,0.0 L 5.0,5.0 L 0.0,0.0 z "
         style="fill-rule:evenodd;stroke:#000000;stroke-width:1.0pt;marker-start:none;"
         transform="scale(0.8) rotate(180) translate(12.5,0)" />
    </marker>
    <marker
       inkscape:stockid="SemiCircleIn"
       orient="auto"
       refY="0.0"
       refX="0.0"
       id="SemiCircleIn"
       style="overflow:visible">
      <path
         id="path9465"
         d="M -0.37450702,-0.045692580 C -0.37450702,2.7143074 1.8654930,4.9543074 4.6254930,4.9543074 L 4.6254930,-5.0456926 C 1.8654930,-5.0456926 -0.37450702,-2.8056926 -0.37450702,-0.045692580 z "
         style="fill-rule:evenodd;stroke:#000000;stroke-width:1.0pt;marker-start:none;marker-end:none"
         transform="scale(0.6)" />
    </marker>
    <marker
       inkscape:stockid="Arrow1Mend"
       orient="auto"
       refY="0.0"
       refX="0.0"
       id="Arrow1Mend"
       style="overflow:visible;">
      <path
         id="path8478"
         d="M 0.0,0.0 L 5.0,-5.0 L -12.5,0.0 L 5.0,5.0 L 0.0,0.0 z "
         style="fill-rule:evenodd;stroke:#000000;stroke-width:1.0pt;marker-start:none;"
         transform="scale(0.4) rotate(180) translate(10,0)" />
    </marker>
    <marker
       inkscape:stockid="Arrow2Lend"
       orient="auto"
       refY="0.0"
       refX="0.0"
       id="Arrow2Lend"
       style="overflow:visible;">
      <path
         id="path8490"
         style="font-size:12.0;fill-rule:evenodd;stroke-width:0.62500000;stroke-linejoin:round;"
         d="M 8.7185878,4.0337352 L -2.2072895,0.016013256 L 8.7185884,-4.0017078 C 6.9730900,-1.6296469 6.9831476,1.6157441 8.7185878,4.0337352 z "
         transform="scale(1.1) rotate(180) translate(1,0)" />
    </marker>
  </defs>
  <sodipodi:namedview
     id="base"
     pagecolor="#ffffff"
     bordercolor="#666666"
     borderopacity="1.0"
     inkscape:pageopacity="0.0"
     inkscape:pageshadow="2"
     inkscape:zoom="1"
     inkscape:cx="461.43511"
     inkscape:cy="353.87807"
     inkscape:current-layer="svg3541"
     inkscape:document-units="px"
     showgrid="true"
     inkscape:window-width="1920"
     inkscape:window-height="1020"
     inkscape:window-x="1912"
     inkscape:window-y="-8"
     inkscape:window-maximized="1"
     showguides="true"
     inkscape:guide-bbox="true"
     inkscape:snap-global="false">
    <inkscape:grid
       type="xygrid"
       id="grid5395" />
  </sodipodi:namedview>
  <metadata
     id="metadata3546">
    <rdf:RDF>
      <cc:Work
         rdf:about="">
        <dc:format>image/svg+xml</dc:format>
        <dc:type
           rdf:resource="http://purl.org/dc/dcmitype/StillImage" />
        <dc:title />
      </cc:Work>
    </rdf:RDF>
  </metadata>
  <g
     inkscape:groupmode="layer"
     id="layer3"
     inkscape:label="iteration-1.s1"
     style="display:inline">
    <text
       xml:space="preserve"
       style="font-size:20px;font-style:normal;font-variant:normal;font-weight:normal;font-stretch:normal;text-indent:0;text-align:start;text-decoration:none;line-height:125%;letter-spacing:0px;word-spacing:0px;text-transform:none;direction:ltr;block-progression:tb;writing-mode:lr-tb;text-anchor:start;baseline-shift:baseline;color:#000000;fill:#666666;fill-opacity:1;fill-rule:nonzero;stroke:none;stroke-width:1px;marker:none;visibility:visible;display:inline;overflow:visible;enable-background:accumulate;font-family:Architects Daughter;-inkscape-font-specification:Architects Daughter"
       x="42"
       y="90"
       id="text4677"
       sodipodi:linespacing="125%"><tspan
         sodipodi:role="line"
         x="42"
         y="90"
         id="tspan4681">After getting rid of noise (internal isos), </tspan><tspan
         sodipodi:role="line"
         x="42"
         y="115"
         id="tspan4683">two categories basically become iso.</tspan></text>
    <rect
       style="color:#000000;fill:none;stroke:#aaccee;stroke-width:1;stroke-linecap:butt;stroke-linejoin:miter;stroke-miterlimit:4;stroke-opacity:1;stroke-dasharray:none;stroke-dashoffset:0;marker:none;visibility:visible;display:inline;overflow:visible;enable-background:accumulate"
       id="rect4695"
       width="465.16141"
       height="65.926224"
       x="35"
       y="62" />
    <text
       xml:space="preserve"
       style="font-size:20px;font-style:normal;font-variant:normal;font-weight:normal;font-stretch:normal;text-indent:0;text-align:start;text-decoration:none;line-height:125%;letter-spacing:0px;word-spacing:0px;text-transform:none;direction:ltr;block-progression:tb;writing-mode:lr-tb;text-anchor:start;baseline-shift:baseline;color:#000000;fill:#666666;fill-opacity:1;fill-rule:nonzero;stroke:none;stroke-width:1px;marker:none;visibility:visible;display:inline;overflow:visible;enable-background:accumulate;font-family:Architects Daughter;-inkscape-font-specification:Architects Daughter"
       x="593.19922"
       y="213.55078"
       id="text4504"
       sodipodi:linespacing="125%"><tspan
         sodipodi:role="line"
         id="tspan4506"
         x="593.19922"
         y="213.55078">extract figure out of category</tspan><tspan
         sodipodi:role="line"
         x="593.19922"
         y="238.55078"
         id="tspan4512">so to take all non-iso objects and</tspan><tspan
         sodipodi:role="line"
         x="593.19922"
         y="263.55078"
         id="tspan4516">all arrows amongst them:</tspan><tspan
         sodipodi:role="line"
         x="593.19922"
         y="288.55078"
         id="tspan4518" /></text>
    <text
       xml:space="preserve"
       style="font-size:20px;font-style:normal;font-variant:normal;font-weight:normal;font-stretch:normal;text-indent:0;text-align:start;text-decoration:none;line-height:125%;letter-spacing:0px;word-spacing:0px;text-transform:none;direction:ltr;block-progression:tb;writing-mode:lr-tb;text-anchor:start;baseline-shift:baseline;color:#000000;fill:#666666;fill-opacity:1;fill-rule:nonzero;stroke:none;stroke-width:1px;marker:none;visibility:visible;display:inline;overflow:visible;enable-background:accumulate;font-family:Architects Daughter;-inkscape-font-specification:Architects Daughter"
       x="44.199219"
       y="264.55078"
       id="text4520"
       sodipodi:linespacing="125%"><tspan
         sodipodi:role="line"
         x="44.199219"
         y="264.55078"
         id="tspan4563">Define:</tspan><tspan
         sodipodi:role="line"
         x="44.199219"
         y="289.55078"
         id="tspan4571"> (I) process of &quot;skeleton&quot; extraction.</tspan><tspan
         sodipodi:role="line"
         x="44.199219"
         y="314.55078"
         id="tspan4575"> (II) 2 categories equivalent when their </tspan><tspan
         sodipodi:role="line"
         x="44.199219"
         y="339.55078"
         id="tspan4808">   skeletons are iso. </tspan><tspan
         sodipodi:role="line"
         x="44.199219"
         y="364.55078"
         id="tspan4554" /></text>
    <text
       xml:space="preserve"
       style="font-size:20px;font-style:normal;font-variant:normal;font-weight:normal;font-stretch:normal;text-indent:0;text-align:start;text-decoration:none;line-height:125%;letter-spacing:0px;word-spacing:0px;text-transform:none;direction:ltr;block-progression:tb;writing-mode:lr-tb;text-anchor:start;baseline-shift:baseline;color:#000000;fill:#6699cc;fill-opacity:1;fill-rule:nonzero;stroke:none;stroke-width:1px;marker:none;visibility:visible;display:inline;overflow:visible;enable-background:accumulate;font-family:Architects Daughter;-inkscape-font-specification:Architects Daughter"
       x="222"
       y="54"
       id="text4784"
       sodipodi:linespacing="125%"><tspan
         sodipodi:role="line"
         id="tspan4786"
         x="222"
         y="54">Idea</tspan></text>
    <path
       style="fill:#cccccf;stroke:#cccccf;stroke-width:1px;stroke-linecap:butt;stroke-linejoin:miter;stroke-opacity:1"
       d="m 246,137 0,48"
       id="path4788"
       inkscape:connector-curvature="0" />
    <path
       style="color:#000000;fill:#cccccf;fill-opacity:1;fill-rule:nonzero;stroke:none;stroke-width:1px;marker:none;visibility:visible;display:inline;overflow:visible;enable-background:accumulate"
       id="path4790"
       d="m 237.8131,172.98486 c 1.93511,2.62697 4.04527,5.11537 6.09623,7.65184 1.3063,1.60677 2.08768,3.54405 2.69586,5.50414 0.20097,0.56704 0.37075,1.12787 0.65611,1.65958 0.47795,0.89056 2.55951,0.66082 -1.80752,1.46208 -0.23332,0.0428 0.10379,-0.46292 0.15569,-0.69438 0.45319,-2.19777 1.53274,-4.11866 2.80685,-5.93408 1.66731,-2.25782 3.62502,-4.27142 5.70853,-6.14344 0.28266,-0.20496 0.56109,-0.41592 0.848,-0.61489 1.08751,-0.75417 2.16578,-1.52258 3.27504,-2.24439 0.95643,-0.62235 2.08925,-0.82161 3.02063,-1.4764 0,0 -2.1536,2.06198 -2.1536,2.06198 l 0,0 c -0.68601,0.39625 -1.4154,0.62877 -2.12535,0.97884 -0.30215,0.14897 -1.12745,0.72282 -0.88377,0.49021 0.30798,-0.29398 2.89019,-2.02956 0.66875,-0.52505 -2.1089,1.83561 -4.05561,3.85642 -5.74707,6.08713 -1.27925,1.77683 -2.37908,3.64805 -2.84922,5.81422 -0.7947,4.58056 -3.4218,3.69865 -4.05814,0.70519 -0.58542,-1.92795 -1.35138,-3.83305 -2.62367,-5.41716 -2.0422,-2.55162 -4.14312,-5.05203 -6.11337,-7.6605 0,0 2.43002,-1.70492 2.43002,-1.70492 z"
       inkscape:connector-curvature="0" />
    <text
       xml:space="preserve"
       style="font-size:20px;font-style:normal;font-variant:normal;font-weight:normal;font-stretch:normal;text-indent:0;text-align:start;text-decoration:none;line-height:125%;letter-spacing:0px;word-spacing:0px;text-transform:none;direction:ltr;block-progression:tb;writing-mode:lr-tb;text-anchor:start;baseline-shift:baseline;color:#000000;fill:#6699cc;fill-opacity:1;fill-rule:nonzero;stroke:none;stroke-width:1px;marker:none;visibility:visible;display:inline;overflow:visible;enable-background:accumulate;font-family:Architects Daughter;-inkscape-font-specification:Architects Daughter"
       x="131"
       y="227"
       id="text4792"
       sodipodi:linespacing="125%"><tspan
         sodipodi:role="line"
         id="tspan4794"
         x="131"
         y="227">Steps to Formalization</tspan></text>
    <rect
       y="238"
       x="35"
       height="111.92622"
       width="465.16141"
       id="rect4810"
       style="color:#000000;fill:none;stroke:#aaccee;stroke-width:1;stroke-linecap:butt;stroke-linejoin:miter;stroke-miterlimit:4;stroke-opacity:1;stroke-dasharray:none;stroke-dashoffset:0;marker:none;visibility:visible;display:inline;overflow:visible;enable-background:accumulate" />
    <path
       style="color:#000000;fill:#cccccf;fill-opacity:1;fill-rule:nonzero;stroke:none;stroke-width:1px;marker:none;visibility:visible;display:inline;overflow:visible;enable-background:accumulate"
       id="path5979"
       d="m 450.06624,277.77273 c 1.92329,-4.7873 5.2222,-8.85207 9.19706,-12.10971 1.23937,-1.01573 2.5765,-1.90595 3.86475,-2.85893 12.35133,-8.82374 27.03466,-12.33718 41.65784,-15.31751 16.64425,-2.99205 33.56536,-3.76173 50.43447,-4.26859 7.37512,-0.18711 14.7526,-0.24018 22.12979,-0.24134 0,0 -2.22404,1.89812 -2.22404,1.89812 l 0,0 c -7.33786,-0.0545 -14.67652,-0.0139 -22.01286,0.15353 -16.85075,0.47862 -33.75393,1.25073 -50.37341,4.2786 -12.87867,2.65611 -25.48673,5.71819 -37.05042,12.24054 -5.70714,4.17297 -10.35716,8.03076 -13.03796,14.76595 0,0 -2.58522,1.45934 -2.58522,1.45934 z"
       inkscape:connector-curvature="0" />
    <path
       style="color:#000000;fill:#cccccf;fill-opacity:1;fill-rule:nonzero;stroke:none;stroke-width:1px;marker:none;visibility:visible;display:inline;overflow:visible;enable-background:accumulate"
       id="path5981"
       d="m 576.37623,235.16523 c 0.50262,2.68715 1.20287,5.45576 3.11515,7.48828 3.59554,1.44829 -1.02904,2.32667 -2.70477,2.92779 -0.27117,0.14041 -1.05113,0.61303 -0.8135,0.42125 0.4689,-0.37845 0.92944,-0.84271 1.51448,-0.987 0.41363,-0.10201 -0.6523,0.54957 -0.95527,0.84908 -0.99021,0.97889 -1.71257,2.09467 -2.4265,3.27888 -1.01712,1.91128 -1.32403,3.99236 -1.45551,6.11892 0,0 -2.52097,1.52599 -2.52097,1.52599 l 0,0 c 0.10284,-2.15973 0.39072,-4.27548 1.3765,-6.23672 1.76262,-3.03952 4.15447,-5.54954 7.48272,-6.97315 1.08441,-0.31262 1.48374,-0.44339 1.36401,-0.2716 -1.66833,2.39375 -1.65037,2.18544 -3.26766,1.0817 -1.93206,-2.09978 -2.67195,-4.89212 -3.2219,-7.64 0,0 2.51322,-1.58342 2.51322,-1.58342 z"
       inkscape:connector-curvature="0" />
    <path
       inkscape:connector-curvature="0"
       d="m 757.1285,299.56827 c 2.8916,1.5736 5.382,3.71871 7.8908,5.82092 1.7611,1.545 3.825,2.24669 6.1045,2.5329 2.5496,-0.0326 4.9237,-1.08297 7.114,-2.30344 1.7262,-0.94176 0.6676,-0.31534 2.2225,-1.3458 0.3147,-0.2086 1.2642,-0.8264 0.9502,-0.6167 -3.176,2.12069 -1.1107,0.56326 -0.3949,-0.33517 1.0101,-1.42262 1.5569,-2.89641 0.2431,-4.26156 -1.5541,-1.04374 -3.3546,-1.02492 -5.1344,-0.79594 -2.2615,0.61504 -4.3075,1.84495 -6.2838,3.0751 -0.3893,0.26877 -1.6392,0.85004 -1.1681,0.80632 0.4914,-0.0456 0.8643,-1.13577 1.2374,-0.81275 0.3648,0.31585 -0.7653,0.58905 -1.1275,0.90788 -1.1911,1.04841 -2.2177,2.23584 -3.2302,3.4513 -2.0046,2.63642 -3.4863,5.64389 -4.5132,8.78461 -0.5461,2.09204 -0.9092,4.28658 -0.6912,6.44934 0.5775,1.9827 2.4076,1.05805 3.7337,0.422 2.0881,-1.3509 4.378,-2.30796 6.6843,-3.21132 2.0328,-0.73439 4.0902,-1.14881 6.2078,-0.63103 1.2475,0.23009 2.1891,1.09006 3.4296,1.28788 0,0 -2.3024,1.88832 -2.3024,1.88832 l 0,0 c -1.207,-0.29256 -2.194,-1.06052 -3.4268,-1.29915 -2.0841,-0.43377 -4.1119,0.0269 -6.0883,0.76289 -2.3001,0.92062 -4.5665,1.90797 -6.6742,3.2241 -1.5741,0.69632 -3.432,1.25382 -4.0808,-0.86308 -0.2597,-2.19515 0.1114,-4.43174 0.6397,-6.56397 1.0061,-3.17146 2.4886,-6.20446 4.4669,-8.88622 2.5515,-3.13659 5.5351,-5.68329 9.0429,-7.75932 2.0009,-1.22167 4.069,-2.46893 6.3792,-2.98794 1.8594,-0.20259 3.7383,-0.13412 5.313,1.00811 1.3728,1.4805 1.0646,3.02249 -0.026,4.62284 -1.9414,2.55294 -4.8228,4.12412 -7.5579,5.7096 -2.2394,1.19975 -4.655,2.23652 -7.2449,2.16917 -2.3194,-0.32703 -4.4137,-1.0927 -6.1999,-2.67086 -2.4896,-2.09294 -4.9578,-4.23802 -7.858,-5.75863 0,0 2.3432,-1.8204 2.3432,-1.8204 z"
       id="path5985"
       style="color:#000000;fill:none;stroke:#666666;stroke-width:1px;marker:none;visibility:visible;display:inline;overflow:visible;enable-background:accumulate" />
    <path
       inkscape:connector-curvature="0"
       d="m 680.9765,299.29403 c -2.5026,-1.68786 -5.2219,-3.14536 -8.2168,-3.67096 -1.3196,-0.17272 -2.5879,0.12614 -3.7726,0.69311 -0.2605,0.12463 -0.9981,0.56919 -0.7762,0.38449 0.5455,-0.454 1.1718,-0.80095 1.7577,-1.20143 -1.3791,0.92399 -2.6502,2.02742 -3.6183,3.38047 -0.7432,1.35284 0.503,1.79121 1.5525,2.3195 1.6669,0.55837 3.3491,1.0798 5.0764,1.42386 1.7526,0.54864 3.4976,1.10101 5.1765,1.84967 2.0056,0.91666 3.4189,2.51831 4.6992,4.25591 1.051,1.60519 1.2525,3.48516 1.3793,5.3503 -5e-4,1.67689 -0.6242,3.18754 -1.1914,4.72723 -1.074,2.18472 -3.2724,3.80125 -5.5057,4.65109 -1.5373,0.48169 -3.0582,0.0406 -4.4995,-0.52717 -1.6562,-0.79644 -3.2393,-1.71011 -4.8106,-2.65767 -1.545,-0.84821 -3.3066,-1.05571 -4.9742,-1.56194 -1.6158,-0.53167 -3.1667,-0.64048 -4.7775,-0.0913 -0.7917,0.8568 -3.4658,1.43475 0.4292,-0.29684 0.238,-0.10584 -0.3599,0.38015 -0.5052,0.59638 -0.3312,0.49282 -0.2705,0.5037 -0.2908,1.01778 0,0 -2.5407,1.56548 -2.5407,1.56548 l 0,0 c -0.1969,-2.5984 3.2234,-3.69992 5.1106,-4.88176 1.6607,-0.46333 3.2557,-0.32052 4.8922,0.22556 1.6869,0.50829 3.4741,0.72024 5.018,1.62221 1.5552,0.94463 3.1319,1.84243 4.7829,2.61378 1.4077,0.53912 2.8806,0.9003 4.3512,0.35488 1.2156,-0.54838 1.3356,-0.66012 -1.0973,1.00033 -0.1944,0.13267 0.3708,-0.29167 0.5373,-0.45804 0.3336,-0.33345 0.6647,-0.67502 0.9378,-1.05957 0.1423,-0.20029 0.235,-0.43147 0.3525,-0.64721 0.5386,-1.51947 1.2175,-2.97429 1.2585,-4.62469 -0.1121,-1.80982 -0.2758,-3.64433 -1.2864,-5.20898 -1.2501,-1.70204 -2.6285,-3.26066 -4.6053,-4.13232 -1.669,-0.72239 -3.3956,-1.28079 -5.1373,-1.80017 -1.7443,-0.36463 -3.4603,-0.87614 -5.1341,-1.48166 -1.1612,-0.60693 -2.5096,-1.21703 -1.823,-2.74447 0.9103,-1.40648 2.1905,-2.53543 3.5692,-3.47626 2.5003,-1.72816 4.5888,-3.49289 7.754,-3.0624 3.0146,0.61456 5.7579,2.06507 8.3003,3.76856 0,0 -2.3724,1.78424 -2.3724,1.78424 z"
       id="path5987"
       style="color:#000000;fill:none;stroke:#666666;stroke-width:1px;marker:none;visibility:visible;display:inline;overflow:visible;enable-background:accumulate" />
    <path
       style="color:#000000;fill:#666666;fill-opacity:1;fill-rule:nonzero;stroke:none;stroke-width:1px;marker:none;visibility:visible;display:inline;overflow:visible;enable-background:accumulate"
       id="path5991"
       d="m 733.70616,306.12396 c 1.5512,2.83167 3.54717,5.38331 5.76145,7.72193 0.26126,0.20964 0.50023,0.45059 0.78379,0.62893 0.81507,0.51262 1.10313,0.0802 1.03002,0.12659 -3.22392,2.04479 -1.48463,1.59596 -2.931,0.86824 -1.02169,-0.34285 -2.06836,-0.4536 -3.084,-0.0169 -0.27756,0.11934 -1.03831,0.61493 -0.79399,0.43719 0.54542,-0.39679 1.13366,-0.73111 1.70049,-1.09666 -1.54661,1.42954 -2.56664,3.2741 -3.25101,5.24319 -0.0828,0.32982 -0.16549,0.65963 -0.24824,0.98945 0,0 -2.56709,1.49053 -2.56709,1.49053 l 0,0 c 0.0786,-0.33736 0.15716,-0.67473 0.23574,-1.01209 0.65358,-2.00987 1.65781,-3.8855 3.16917,-5.38886 2.41596,-1.74575 4.2033,-3.63675 7.20516,-2.46264 2.72136,1.72024 -2.54671,4.27121 -3.64776,1.92469 -2.21926,-2.37268 -4.22243,-4.94992 -5.81811,-7.78764 0,0 2.45538,-1.66595 2.45538,-1.66595 z"
       inkscape:connector-curvature="0" />
    <text
       xml:space="preserve"
       style="font-size:20px;font-style:normal;font-variant:normal;font-weight:normal;font-stretch:normal;text-indent:0;text-align:start;text-decoration:none;line-height:125%;letter-spacing:0px;word-spacing:0px;text-transform:none;direction:ltr;block-progression:tb;writing-mode:lr-tb;text-anchor:start;baseline-shift:baseline;color:#000000;fill:#666666;fill-opacity:1;fill-rule:nonzero;stroke:none;stroke-width:1px;marker:none;visibility:visible;display:inline;overflow:visible;enable-background:accumulate;font-family:Architects Daughter;-inkscape-font-specification:Architects Daughter"
       x="814"
       y="320"
       id="text5995"
       sodipodi:linespacing="125%"><tspan
         sodipodi:role="line"
         id="tspan5997"
         x="814"
         y="320">skeleton</tspan></text>
    <path
       style="color:#000000;fill:#666666;fill-opacity:1;fill-rule:nonzero;stroke:none;stroke-width:1px;marker:none;visibility:visible;display:inline;overflow:visible;enable-background:accumulate"
       id="path6005"
       d="m 708.49609,301.94619 c -3.13781,2.20078 -5.78382,5.0245 -8.00621,8.13041 -1.21863,2.12535 -2.40759,3.72796 0.27034,5.0846 3.50142,1.05415 7.20339,0.84069 10.80457,0.62018 4.48845,-0.57505 8.97573,-1.12994 13.48782,-1.48336 2.63027,-0.20073 5.26776,-0.25562 7.90457,-0.2729 1.26372,0.0456 2.43906,0.0807 3.60136,-0.44705 0,0 -2.18844,2.01768 -2.18844,2.01768 l 0,0 c -1.19905,0.41656 -2.40547,0.39834 -3.66786,0.3579 -2.62583,0.0182 -5.25228,0.0742 -7.87169,0.27236 -4.51032,0.35163 -8.99347,0.92156 -13.4828,1.47198 -3.64492,0.21399 -7.41313,0.42674 -10.93589,-0.72189 -2.69842,-1.49974 -1.89657,-3.20244 -0.52397,-5.51768 2.19103,-3.12938 4.82535,-5.97755 7.94138,-8.20844 0,0 2.66682,-1.30379 2.66682,-1.30379 z"
       inkscape:connector-curvature="0" />
    <path
       style="color:#000000;fill:#cccccf;fill-opacity:1;fill-rule:nonzero;stroke:none;stroke-width:1px;marker:none;visibility:visible;display:inline;overflow:visible;enable-background:accumulate"
       id="path6007"
       d="m 172.71306,345.14175 c -4.07404,5.55093 -6.23159,12.14199 -7.9322,18.73147 -1.21201,5.49173 -1.92319,11.41476 0.14342,16.81779 1.20249,3.14383 1.99583,3.70391 4.07867,6.25658 3.82344,3.22549 1.78436,1.78911 6.11882,4.30692 0,0 -2.28888,1.75445 -2.28888,1.75445 l 0,0 c -4.37667,-2.57176 -2.31665,-1.10812 -6.18107,-4.3895 -2.10907,-2.59407 -2.91705,-3.17316 -4.14234,-6.36009 -2.09229,-5.44193 -1.41419,-11.41122 -0.20485,-16.95268 1.66753,-6.58753 3.7839,-13.18723 7.78613,-18.7738 0,0 2.6223,-1.39114 2.6223,-1.39114 z"
       inkscape:connector-curvature="0" />
    <path
       style="color:#000000;fill:#cccccf;fill-opacity:1;fill-rule:nonzero;stroke:none;stroke-width:1px;marker:none;visibility:visible;display:inline;overflow:visible;enable-background:accumulate"
       id="path6009"
       d="m 178.26646,385.18085 c -0.0139,3.05181 -0.0201,6.10378 8.3e-4,9.15558 0.018,1.30175 0.20824,0.96907 -2.64231,1.44405 -0.18562,0.0309 -0.14702,-0.35082 -0.26088,-0.50065 -0.30793,-0.40522 -0.56328,-0.47655 -1.00439,-0.71261 -1.71029,-0.64974 -3.48225,-0.58753 -5.2542,-0.31625 0.48268,-0.57583 -2.07893,1.01015 -1.55997,0.75603 0.62952,-0.30827 1.14455,-0.92865 1.83972,-1.01851 0.30938,-0.04 -0.31154,0.54356 -0.42211,0.83526 -0.1304,0.34403 -0.19827,0.70861 -0.29741,1.06292 0,0 -2.56715,1.48482 -2.56715,1.48482 l 0,0 c 0.70339,-2.92769 2.37408,-4.22353 5.23688,-5.08135 1.81973,-0.24968 3.65778,-0.25913 5.38569,0.46136 2.44764,1.44678 1.30652,1.54841 -0.99971,3.60969 -0.009,0.008 0.004,-0.0232 0.005,-0.0348 0.002,-0.14559 0.004,-0.29118 0.006,-0.43676 0.0208,-3.05214 0.0148,-6.10445 8.3e-4,-9.1566 0,0 2.53292,-1.55217 2.53292,-1.55217 z"
       inkscape:connector-curvature="0" />
    <path
       style="color:#000000;fill:none;stroke:#666666;stroke-width:1px;marker:none;visibility:visible;display:inline;overflow:visible;enable-background:accumulate"
       id="path6011"
       d="m 245.1285,419.56827 c 2.8916,1.5736 5.382,3.71871 7.8908,5.82092 1.7611,1.545 3.825,2.24669 6.1045,2.5329 2.5496,-0.0326 4.9237,-1.08297 7.114,-2.30344 1.7262,-0.94176 0.6676,-0.31534 2.2225,-1.3458 0.3147,-0.2086 1.2642,-0.8264 0.9502,-0.6167 -3.176,2.12069 -1.1107,0.56326 -0.3949,-0.33517 1.0101,-1.42262 1.5569,-2.89641 0.2431,-4.26156 -1.5541,-1.04374 -3.3546,-1.02492 -5.1344,-0.79594 -2.2615,0.61504 -4.3075,1.84495 -6.2838,3.0751 -0.3893,0.26877 -1.6392,0.85004 -1.1681,0.80632 0.4914,-0.0456 0.8643,-1.13577 1.2374,-0.81275 0.3648,0.31585 -0.7653,0.58905 -1.1275,0.90788 -1.1911,1.04841 -2.2177,2.23584 -3.2302,3.4513 -2.0046,2.63642 -3.4863,5.64389 -4.5132,8.78461 -0.5461,2.09204 -0.9092,4.28658 -0.6912,6.44934 0.5775,1.9827 2.4076,1.05805 3.7337,0.422 2.0881,-1.3509 4.378,-2.30796 6.6843,-3.21132 2.0328,-0.73439 4.0902,-1.14881 6.2078,-0.63103 1.2475,0.23009 2.1891,1.09006 3.4296,1.28788 0,0 -2.3024,1.88832 -2.3024,1.88832 l 0,0 c -1.207,-0.29256 -2.194,-1.06052 -3.4268,-1.29915 -2.0841,-0.43377 -4.1119,0.0269 -6.0883,0.76289 -2.3001,0.92062 -4.5665,1.90797 -6.6742,3.2241 -1.5741,0.69632 -3.432,1.25382 -4.0808,-0.86308 -0.2597,-2.19515 0.1114,-4.43174 0.6397,-6.56397 1.0061,-3.17146 2.4886,-6.20446 4.4669,-8.88622 2.5515,-3.13659 5.5351,-5.68329 9.0429,-7.75932 2.0009,-1.22167 4.069,-2.46893 6.3792,-2.98794 1.8594,-0.20259 3.7383,-0.13412 5.313,1.00811 1.3728,1.4805 1.0646,3.02249 -0.026,4.62284 -1.9414,2.55294 -4.8228,4.12412 -7.5579,5.7096 -2.2394,1.19975 -4.655,2.23652 -7.2449,2.16917 -2.3194,-0.32703 -4.4137,-1.0927 -6.1999,-2.67086 -2.4896,-2.09294 -4.9578,-4.23802 -7.858,-5.75863 0,0 2.3432,-1.8204 2.3432,-1.8204 z"
       inkscape:connector-curvature="0" />
    <path
       style="color:#000000;fill:none;stroke:#666666;stroke-width:1px;marker:none;visibility:visible;display:inline;overflow:visible;enable-background:accumulate"
       id="path6013"
       d="m 80.9765,419.29403 c -2.5026,-1.68786 -5.2219,-3.14536 -8.2168,-3.67096 -1.3196,-0.17272 -2.5879,0.12614 -3.7726,0.69311 -0.2605,0.12463 -0.9981,0.56919 -0.7762,0.38449 0.5455,-0.454 1.1718,-0.80095 1.7577,-1.20143 -1.3791,0.92399 -2.6502,2.02742 -3.6183,3.38047 -0.7432,1.35284 0.503,1.79121 1.5525,2.3195 1.6669,0.55837 3.3491,1.0798 5.0764,1.42386 1.7526,0.54864 3.4976,1.10101 5.1765,1.84967 2.0056,0.91666 3.4189,2.51831 4.6992,4.25591 1.051,1.60519 1.2525,3.48516 1.3793,5.3503 -5e-4,1.67689 -0.6242,3.18754 -1.1914,4.72723 -1.074,2.18472 -3.2724,3.80125 -5.5057,4.65109 -1.5373,0.48169 -3.0582,0.0406 -4.4995,-0.52717 -1.6562,-0.79644 -3.2393,-1.71011 -4.8106,-2.65767 -1.545,-0.84821 -3.3066,-1.05571 -4.9742,-1.56194 -1.6158,-0.53167 -3.1667,-0.64048 -4.7775,-0.0913 -0.7917,0.8568 -3.4658,1.43475 0.4292,-0.29684 0.238,-0.10584 -0.3599,0.38015 -0.5052,0.59638 -0.3312,0.49282 -0.2705,0.5037 -0.2908,1.01778 0,0 -2.5407,1.56548 -2.5407,1.56548 l 0,0 c -0.1969,-2.5984 3.2234,-3.69992 5.1106,-4.88176 1.6607,-0.46333 3.2557,-0.32052 4.8922,0.22556 1.6869,0.50829 3.4741,0.72024 5.018,1.62221 1.5552,0.94463 3.1319,1.84243 4.7829,2.61378 1.4077,0.53912 2.8806,0.9003 4.3512,0.35488 1.2156,-0.54838 1.3356,-0.66012 -1.0973,1.00033 -0.1944,0.13267 0.3708,-0.29167 0.5373,-0.45804 0.3336,-0.33345 0.6647,-0.67502 0.9378,-1.05957 0.1423,-0.20029 0.235,-0.43147 0.3525,-0.64721 0.5386,-1.51947 1.2175,-2.97429 1.2585,-4.62469 -0.1121,-1.80982 -0.2758,-3.64433 -1.2864,-5.20898 -1.2501,-1.70204 -2.6285,-3.26066 -4.6053,-4.13232 -1.669,-0.72239 -3.3956,-1.28079 -5.1373,-1.80017 -1.7443,-0.36463 -3.4603,-0.87614 -5.1341,-1.48166 -1.1612,-0.60693 -2.5096,-1.21703 -1.823,-2.74447 0.9103,-1.40648 2.1905,-2.53543 3.5692,-3.47626 2.5003,-1.72816 4.5888,-3.49289 7.754,-3.0624 3.0146,0.61456 5.7579,2.06507 8.3003,3.76856 0,0 -2.3724,1.78424 -2.3724,1.78424 z"
       inkscape:connector-curvature="0" />
    <text
       sodipodi:linespacing="125%"
       id="text6017"
       y="440"
       x="102"
       style="font-size:20px;font-style:normal;font-variant:normal;font-weight:normal;font-stretch:normal;text-indent:0;text-align:start;text-decoration:none;line-height:125%;letter-spacing:0px;word-spacing:0px;text-transform:none;direction:ltr;block-progression:tb;writing-mode:lr-tb;text-anchor:start;baseline-shift:baseline;color:#000000;fill:#666666;fill-opacity:1;fill-rule:nonzero;stroke:none;stroke-width:1px;marker:none;visibility:visible;display:inline;overflow:visible;enable-background:accumulate;font-family:Architects Daughter;-inkscape-font-specification:Architects Daughter"
       xml:space="preserve"><tspan
         y="440"
         x="102"
         id="tspan6019"
         sodipodi:role="line">skeleton of</tspan></text>
    <path
       inkscape:connector-curvature="0"
       d="m 80.9765,461.29403 c -2.5026,-1.68786 -5.2219,-3.14536 -8.2168,-3.67096 -1.3196,-0.17272 -2.5879,0.12614 -3.7726,0.69311 -0.2605,0.12463 -0.9981,0.56919 -0.7762,0.38449 0.5455,-0.454 1.1718,-0.80095 1.7577,-1.20143 -1.3791,0.92399 -2.6502,2.02742 -3.6183,3.38047 -0.7432,1.35284 0.503,1.79121 1.5525,2.3195 1.6669,0.55837 3.3491,1.0798 5.0764,1.42386 1.7526,0.54864 3.4976,1.10101 5.1765,1.84967 2.0056,0.91666 3.4189,2.51831 4.6992,4.25591 1.051,1.60519 1.2525,3.48516 1.3793,5.3503 -5e-4,1.67689 -0.6242,3.18754 -1.1914,4.72723 -1.074,2.18472 -3.2724,3.80125 -5.5057,4.65109 -1.5373,0.48169 -3.0582,0.0406 -4.4995,-0.52717 -1.6562,-0.79644 -3.2393,-1.71011 -4.8106,-2.65767 -1.545,-0.84821 -3.3066,-1.05571 -4.9742,-1.56194 -1.6158,-0.53167 -3.1667,-0.64048 -4.7775,-0.0913 -0.7917,0.8568 -3.4658,1.43475 0.4292,-0.29684 0.238,-0.10584 -0.3599,0.38015 -0.5052,0.59638 -0.3312,0.49282 -0.2705,0.5037 -0.2908,1.01778 0,0 -2.5407,1.56548 -2.5407,1.56548 l 0,0 c -0.1969,-2.5984 3.2234,-3.69992 5.1106,-4.88176 1.6607,-0.46333 3.2557,-0.32052 4.8922,0.22556 1.6869,0.50829 3.4741,0.72024 5.018,1.62221 1.5552,0.94463 3.1319,1.84243 4.7829,2.61378 1.4077,0.53912 2.8806,0.9003 4.3512,0.35488 1.2156,-0.54838 1.3356,-0.66012 -1.0973,1.00033 -0.1944,0.13267 0.3708,-0.29167 0.5373,-0.45804 0.3336,-0.33345 0.6647,-0.67502 0.9378,-1.05957 0.1423,-0.20029 0.235,-0.43147 0.3525,-0.64721 0.5386,-1.51947 1.2175,-2.97429 1.2585,-4.62469 -0.1121,-1.80982 -0.2758,-3.64433 -1.2864,-5.20898 -1.2501,-1.70204 -2.6285,-3.26066 -4.6053,-4.13232 -1.669,-0.72239 -3.3956,-1.28079 -5.1373,-1.80017 -1.7443,-0.36463 -3.4603,-0.87614 -5.1341,-1.48166 -1.1612,-0.60693 -2.5096,-1.21703 -1.823,-2.74447 0.9103,-1.40648 2.1905,-2.53543 3.5692,-3.47626 2.5003,-1.72816 4.5888,-3.49289 7.754,-3.0624 3.0146,0.61456 5.7579,2.06507 8.3003,3.76856 0,0 -2.3724,1.78424 -2.3724,1.78424 z"
       id="path6025"
       style="color:#000000;fill:none;stroke:#666666;stroke-width:1px;marker:none;visibility:visible;display:inline;overflow:visible;enable-background:accumulate" />
    <path
       style="color:#000000;fill:#666666;fill-opacity:1;fill-rule:nonzero;stroke:none;stroke-width:1px;marker:none;visibility:visible;display:inline;overflow:visible;enable-background:accumulate"
       id="path6037"
       d="m 91.26489,452.30143 c -0.21976,3.67913 -0.54016,7.33981 -1.13521,10.97746 0,0 -2.51742,1.48649 -2.51742,1.48649 l 0,0 c 0.60447,-3.6154 0.92099,-7.25393 1.12285,-10.9137 0,0 2.52978,-1.55025 2.52978,-1.55025 z"
       inkscape:connector-curvature="0" />
    <path
       inkscape:connector-curvature="0"
       d="m 417.1285,419.56827 c 2.8916,1.5736 5.382,3.71871 7.8908,5.82092 1.7611,1.545 3.825,2.24669 6.1045,2.5329 2.5496,-0.0326 4.9237,-1.08297 7.114,-2.30344 1.7262,-0.94176 0.6676,-0.31534 2.2225,-1.3458 0.3147,-0.2086 1.2642,-0.8264 0.9502,-0.6167 -3.176,2.12069 -1.1107,0.56326 -0.3949,-0.33517 1.0101,-1.42262 1.5569,-2.89641 0.2431,-4.26156 -1.5541,-1.04374 -3.3546,-1.02492 -5.1344,-0.79594 -2.2615,0.61504 -4.3075,1.84495 -6.2838,3.0751 -0.3893,0.26877 -1.6392,0.85004 -1.1681,0.80632 0.4914,-0.0456 0.8643,-1.13577 1.2374,-0.81275 0.3648,0.31585 -0.7653,0.58905 -1.1275,0.90788 -1.1911,1.04841 -2.2177,2.23584 -3.2302,3.4513 -2.0046,2.63642 -3.4863,5.64389 -4.5132,8.78461 -0.5461,2.09204 -0.9092,4.28658 -0.6912,6.44934 0.5775,1.9827 2.4076,1.05805 3.7337,0.422 2.0881,-1.3509 4.378,-2.30796 6.6843,-3.21132 2.0328,-0.73439 4.0902,-1.14881 6.2078,-0.63103 1.2475,0.23009 2.1891,1.09006 3.4296,1.28788 0,0 -2.3024,1.88832 -2.3024,1.88832 l 0,0 c -1.207,-0.29256 -2.194,-1.06052 -3.4268,-1.29915 -2.0841,-0.43377 -4.1119,0.0269 -6.0883,0.76289 -2.3001,0.92062 -4.5665,1.90797 -6.6742,3.2241 -1.5741,0.69632 -3.432,1.25382 -4.0808,-0.86308 -0.2597,-2.19515 0.1114,-4.43174 0.6397,-6.56397 1.0061,-3.17146 2.4886,-6.20446 4.4669,-8.88622 2.5515,-3.13659 5.5351,-5.68329 9.0429,-7.75932 2.0009,-1.22167 4.069,-2.46893 6.3792,-2.98794 1.8594,-0.20259 3.7383,-0.13412 5.313,1.00811 1.3728,1.4805 1.0646,3.02249 -0.026,4.62284 -1.9414,2.55294 -4.8228,4.12412 -7.5579,5.7096 -2.2394,1.19975 -4.655,2.23652 -7.2449,2.16917 -2.3194,-0.32703 -4.4137,-1.0927 -6.1999,-2.67086 -2.4896,-2.09294 -4.9578,-4.23802 -7.858,-5.75863 0,0 2.3432,-1.8204 2.3432,-1.8204 z"
       id="path6041"
       style="color:#000000;fill:none;stroke:#000000;stroke-width:1px;marker:none;visibility:visible;display:inline;overflow:visible;enable-background:accumulate" />
    <path
       style="color:#000000;fill:none;stroke:#000000;stroke-width:1px;marker:none;visibility:visible;display:inline;overflow:visible;enable-background:accumulate"
       id="path6043"
       d="m 417.1285,461.56827 c 2.8916,1.5736 5.382,3.71871 7.8908,5.82092 1.7611,1.545 3.825,2.24669 6.1045,2.5329 2.5496,-0.0326 4.9237,-1.08297 7.114,-2.30344 1.7262,-0.94176 0.6676,-0.31534 2.2225,-1.3458 0.3147,-0.2086 1.2642,-0.8264 0.9502,-0.6167 -3.176,2.12069 -1.1107,0.56326 -0.3949,-0.33517 1.0101,-1.42262 1.5569,-2.89641 0.2431,-4.26156 -1.5541,-1.04374 -3.3546,-1.02492 -5.1344,-0.79594 -2.2615,0.61504 -4.3075,1.84495 -6.2838,3.0751 -0.3893,0.26877 -1.6392,0.85004 -1.1681,0.80632 0.4914,-0.0456 0.8643,-1.13577 1.2374,-0.81275 0.3648,0.31585 -0.7653,0.58905 -1.1275,0.90788 -1.1911,1.04841 -2.2177,2.23584 -3.2302,3.4513 -2.0046,2.63642 -3.4863,5.64389 -4.5132,8.78461 -0.5461,2.09204 -0.9092,4.28658 -0.6912,6.44934 0.5775,1.9827 2.4076,1.05805 3.7337,0.422 2.0881,-1.3509 4.378,-2.30796 6.6843,-3.21132 2.0328,-0.73439 4.0902,-1.14881 6.2078,-0.63103 1.2475,0.23009 2.1891,1.09006 3.4296,1.28788 0,0 -2.3024,1.88832 -2.3024,1.88832 l 0,0 c -1.207,-0.29256 -2.194,-1.06052 -3.4268,-1.29915 -2.0841,-0.43377 -4.1119,0.0269 -6.0883,0.76289 -2.3001,0.92062 -4.5665,1.90797 -6.6742,3.2241 -1.5741,0.69632 -3.432,1.25382 -4.0808,-0.86308 -0.2597,-2.19515 0.1114,-4.43174 0.6397,-6.56397 1.0061,-3.17146 2.4886,-6.20446 4.4669,-8.88622 2.5515,-3.13659 5.5351,-5.68329 9.0429,-7.75932 2.0009,-1.22167 4.069,-2.46893 6.3792,-2.98794 1.8594,-0.20259 3.7383,-0.13412 5.313,1.00811 1.3728,1.4805 1.0646,3.02249 -0.026,4.62284 -1.9414,2.55294 -4.8228,4.12412 -7.5579,5.7096 -2.2394,1.19975 -4.655,2.23652 -7.2449,2.16917 -2.3194,-0.32703 -4.4137,-1.0927 -6.1999,-2.67086 -2.4896,-2.09294 -4.9578,-4.23802 -7.858,-5.75863 0,0 2.3432,-1.8204 2.3432,-1.8204 z"
       inkscape:connector-curvature="0" />
    <path
       style="color:#000000;fill:#000000;fill-opacity:1;fill-rule:nonzero;stroke:none;stroke-width:1px;marker:none;visibility:visible;display:inline;overflow:visible;enable-background:accumulate"
       id="path6045"
       d="m 453.26489,452.30143 c -0.21976,3.67913 -0.54016,7.33981 -1.13521,10.97746 0,0 -2.51742,1.48649 -2.51742,1.48649 l 0,0 c 0.60447,-3.6154 0.92099,-7.25393 1.12285,-10.9137 0,0 2.52978,-1.55025 2.52978,-1.55025 z"
       inkscape:connector-curvature="0" />
    <text
       xml:space="preserve"
       style="font-size:20px;font-style:normal;font-variant:normal;font-weight:normal;font-stretch:normal;text-indent:0;text-align:start;text-decoration:none;line-height:125%;letter-spacing:0px;word-spacing:0px;text-transform:none;direction:ltr;block-progression:tb;writing-mode:lr-tb;text-anchor:start;baseline-shift:baseline;color:#000000;fill:#000000;fill-opacity:1;fill-rule:nonzero;stroke:none;stroke-width:1px;marker:none;visibility:visible;display:inline;overflow:visible;enable-background:accumulate;font-family:Architects Daughter;-inkscape-font-specification:Architects Daughter"
       x="477"
       y="455"
       id="text6047"
       sodipodi:linespacing="125%"><tspan
         sodipodi:role="line"
         id="tspan6049"
         x="477"
         y="455">equivalent</tspan></text>
    <path
       style="color:#000000;fill:#aaccee;fill-opacity:1;fill-rule:nonzero;stroke:none;stroke-width:1px;marker:none;visibility:visible;display:inline;overflow:visible;enable-background:accumulate"
       id="path6051"
       d="m 624.82645,433.12805 c -2.86039,4.80675 -5.89266,9.50942 -8.9839,14.17017 -2.17946,2.77911 -3.64833,6.26245 -6.50153,8.459 -0.15701,0.27648 -0.17395,-0.18274 -0.1018,-0.21723 0.46678,-0.22318 2.41377,0.99863 2.7721,1.21886 2.58782,2.02313 4.09685,4.98576 5.40954,7.92376 0.66657,1.53663 1.03203,3.16577 1.34671,4.80241 0.1416,0.73643 0.16007,1.66091 0.54307,2.32867 0,0 -2.46353,1.6897 -2.46353,1.6897 l 0,0 c -0.9661,-1.73132 -0.61021,-5.3688 -1.87083,-7.17799 -1.28189,-2.88532 -2.75631,-5.80818 -5.32391,-7.76394 -0.64186,-0.3811 -0.94408,-0.60259 -1.62612,-0.86006 -0.33572,-0.12673 -0.72055,-0.0815 -1.05617,-0.20847 -0.51824,-0.19613 -0.45942,-0.18493 -0.30777,-0.42217 2.9763,-2.07364 4.42572,-5.62864 6.6224,-8.4045 3.08605,-4.63595 6.10378,-9.321 8.9319,-14.11967 0,0 2.60984,-1.41854 2.60984,-1.41854 z"
       inkscape:connector-curvature="0" />
    <path
       style="color:#000000;fill:#aaccee;fill-opacity:1;fill-rule:nonzero;stroke:none;stroke-width:1px;marker:none;visibility:visible;display:inline;overflow:visible;enable-background:accumulate"
       id="path6053"
       d="m 617.19381,443.90457 c 6.49612,-0.55802 13.0231,-0.62455 19.53867,-0.72564 8.39556,-0.13314 16.7869,0.33096 25.17616,0.60379 1.03553,0.0297 2.07106,0.0593 3.10658,0.089 0,0 -2.21457,1.87989 -2.21457,1.87989 l 0,0 c -1.03245,-0.0328 -2.06491,-0.0655 -3.09736,-0.0983 -8.37955,-0.29713 -16.76302,-0.75672 -25.14983,-0.60727 -6.53468,0.1097 -13.08408,0.18257 -19.59416,0.81012 0,0 2.23451,-1.95163 2.23451,-1.95163 z"
       inkscape:connector-curvature="0" />
    <path
       inkscape:connector-curvature="0"
       d="m 617.19381,459.90457 c 6.49612,-0.55802 13.0231,-0.62455 19.53867,-0.72564 8.39556,-0.13314 16.7869,0.33096 25.17616,0.60379 1.03553,0.0297 2.07106,0.0593 3.10658,0.089 0,0 -2.21457,1.87989 -2.21457,1.87989 l 0,0 c -1.03245,-0.0328 -2.06491,-0.0655 -3.09736,-0.0983 -8.37955,-0.29713 -16.76302,-0.75672 -25.14983,-0.60727 -6.53468,0.1097 -13.08408,0.18257 -19.59416,0.81012 0,0 2.23451,-1.95163 2.23451,-1.95163 z"
       id="path6055"
       style="color:#000000;fill:#aaccee;fill-opacity:1;fill-rule:nonzero;stroke:none;stroke-width:1px;marker:none;visibility:visible;display:inline;overflow:visible;enable-background:accumulate" />
    <path
       inkscape:connector-curvature="0"
       d="m 658.55588,433.12805 c 2.86039,4.80675 5.89266,9.50942 8.9839,14.17017 2.17946,2.77911 3.64833,6.26245 6.50153,8.459 0.15701,0.27648 0.17395,-0.18274 0.1018,-0.21723 -0.46678,-0.22318 -2.41377,0.99863 -2.7721,1.21886 -2.58782,2.02313 -4.09685,4.98576 -5.40954,7.92376 -0.66657,1.53663 -1.03203,3.16577 -1.34671,4.80241 -0.1416,0.73643 -0.16007,1.66091 -0.54307,2.32867 0,0 2.46353,1.6897 2.46353,1.6897 l 0,0 c 0.9661,-1.73132 0.61021,-5.3688 1.87083,-7.17799 1.28189,-2.88532 2.75631,-5.80818 5.32391,-7.76394 0.64186,-0.3811 0.94408,-0.60259 1.62612,-0.86006 0.33572,-0.12673 0.72055,-0.0815 1.05617,-0.20847 0.51824,-0.19613 0.45942,-0.18493 0.30777,-0.42217 -2.9763,-2.07364 -4.42572,-5.62864 -6.6224,-8.4045 -3.08605,-4.63595 -6.10378,-9.321 -8.9319,-14.11967 0,0 -2.60984,-1.41854 -2.60984,-1.41854 z"
       id="path6057"
       style="color:#000000;fill:#aaccee;fill-opacity:1;fill-rule:nonzero;stroke:none;stroke-width:1px;marker:none;visibility:visible;display:inline;overflow:visible;enable-background:accumulate" />
    <text
       xml:space="preserve"
       style="font-size:20px;font-style:normal;font-variant:normal;font-weight:normal;font-stretch:normal;text-indent:0;text-align:start;text-decoration:none;line-height:125%;letter-spacing:0px;word-spacing:0px;text-transform:none;direction:ltr;block-progression:tb;writing-mode:lr-tb;text-anchor:start;baseline-shift:baseline;color:#000000;fill:#aaccee;fill-opacity:1;fill-rule:nonzero;stroke:none;stroke-width:1px;marker:none;visibility:visible;display:inline;overflow:visible;enable-background:accumulate;font-family:Architects Daughter;-inkscape-font-specification:Architects Daughter"
       x="622"
       y="426"
       id="text6059"
       sodipodi:linespacing="125%"><tspan
         sodipodi:role="line"
         id="tspan6061"
         x="622"
         y="426">def</tspan></text>
    <path
       inkscape:connector-curvature="0"
       d="m 728.9765,441.29403 c -2.5026,-1.68786 -5.2219,-3.14536 -8.2168,-3.67096 -1.3196,-0.17272 -2.5879,0.12614 -3.7726,0.69311 -0.2605,0.12463 -0.9981,0.56919 -0.7762,0.38449 0.5455,-0.454 1.1718,-0.80095 1.7577,-1.20143 -1.3791,0.92399 -2.6502,2.02742 -3.6183,3.38047 -0.7432,1.35284 0.503,1.79121 1.5525,2.3195 1.6669,0.55837 3.3491,1.0798 5.0764,1.42386 1.7526,0.54864 3.4976,1.10101 5.1765,1.84967 2.0056,0.91666 3.4189,2.51831 4.6992,4.25591 1.051,1.60519 1.2525,3.48516 1.3793,5.3503 -5e-4,1.67689 -0.6242,3.18754 -1.1914,4.72723 -1.074,2.18472 -3.2724,3.80125 -5.5057,4.65109 -1.5373,0.48169 -3.0582,0.0406 -4.4995,-0.52717 -1.6562,-0.79644 -3.2393,-1.71011 -4.8106,-2.65767 -1.545,-0.84821 -3.3066,-1.05571 -4.9742,-1.56194 -1.6158,-0.53167 -3.1667,-0.64048 -4.7775,-0.0913 -0.7917,0.8568 -3.4658,1.43475 0.4292,-0.29684 0.238,-0.10584 -0.3599,0.38015 -0.5052,0.59638 -0.3312,0.49282 -0.2705,0.5037 -0.2908,1.01778 0,0 -2.5407,1.56548 -2.5407,1.56548 l 0,0 c -0.1969,-2.5984 3.2234,-3.69992 5.1106,-4.88176 1.6607,-0.46333 3.2557,-0.32052 4.8922,0.22556 1.6869,0.50829 3.4741,0.72024 5.018,1.62221 1.5552,0.94463 3.1319,1.84243 4.7829,2.61378 1.4077,0.53912 2.8806,0.9003 4.3512,0.35488 1.2156,-0.54838 1.3356,-0.66012 -1.0973,1.00033 -0.1944,0.13267 0.3708,-0.29167 0.5373,-0.45804 0.3336,-0.33345 0.6647,-0.67502 0.9378,-1.05957 0.1423,-0.20029 0.235,-0.43147 0.3525,-0.64721 0.5386,-1.51947 1.2175,-2.97429 1.2585,-4.62469 -0.1121,-1.80982 -0.2758,-3.64433 -1.2864,-5.20898 -1.2501,-1.70204 -2.6285,-3.26066 -4.6053,-4.13232 -1.669,-0.72239 -3.3956,-1.28079 -5.1373,-1.80017 -1.7443,-0.36463 -3.4603,-0.87614 -5.1341,-1.48166 -1.1612,-0.60693 -2.5096,-1.21703 -1.823,-2.74447 0.9103,-1.40648 2.1905,-2.53543 3.5692,-3.47626 2.5003,-1.72816 4.5888,-3.49289 7.754,-3.0624 3.0146,0.61456 5.7579,2.06507 8.3003,3.76856 0,0 -2.3724,1.78424 -2.3724,1.78424 z"
       id="path6063"
       style="color:#000000;fill:none;stroke:#000000;stroke-width:1px;marker:none;visibility:visible;display:inline;overflow:visible;enable-background:accumulate" />
    <path
       style="color:#000000;fill:none;stroke:#000000;stroke-width:1px;marker:none;visibility:visible;display:inline;overflow:visible;enable-background:accumulate"
       id="path6065"
       d="m 804.9765,441.29403 c -2.5026,-1.68786 -5.2219,-3.14536 -8.2168,-3.67096 -1.3196,-0.17272 -2.5879,0.12614 -3.7726,0.69311 -0.2605,0.12463 -0.9981,0.56919 -0.7762,0.38449 0.5455,-0.454 1.1718,-0.80095 1.7577,-1.20143 -1.3791,0.92399 -2.6502,2.02742 -3.6183,3.38047 -0.7432,1.35284 0.503,1.79121 1.5525,2.3195 1.6669,0.55837 3.3491,1.0798 5.0764,1.42386 1.7526,0.54864 3.4976,1.10101 5.1765,1.84967 2.0056,0.91666 3.4189,2.51831 4.6992,4.25591 1.051,1.60519 1.2525,3.48516 1.3793,5.3503 -5e-4,1.67689 -0.6242,3.18754 -1.1914,4.72723 -1.074,2.18472 -3.2724,3.80125 -5.5057,4.65109 -1.5373,0.48169 -3.0582,0.0406 -4.4995,-0.52717 -1.6562,-0.79644 -3.2393,-1.71011 -4.8106,-2.65767 -1.545,-0.84821 -3.3066,-1.05571 -4.9742,-1.56194 -1.6158,-0.53167 -3.1667,-0.64048 -4.7775,-0.0913 -0.7917,0.8568 -3.4658,1.43475 0.4292,-0.29684 0.238,-0.10584 -0.3599,0.38015 -0.5052,0.59638 -0.3312,0.49282 -0.2705,0.5037 -0.2908,1.01778 0,0 -2.5407,1.56548 -2.5407,1.56548 l 0,0 c -0.1969,-2.5984 3.2234,-3.69992 5.1106,-4.88176 1.6607,-0.46333 3.2557,-0.32052 4.8922,0.22556 1.6869,0.50829 3.4741,0.72024 5.018,1.62221 1.5552,0.94463 3.1319,1.84243 4.7829,2.61378 1.4077,0.53912 2.8806,0.9003 4.3512,0.35488 1.2156,-0.54838 1.3356,-0.66012 -1.0973,1.00033 -0.1944,0.13267 0.3708,-0.29167 0.5373,-0.45804 0.3336,-0.33345 0.6647,-0.67502 0.9378,-1.05957 0.1423,-0.20029 0.235,-0.43147 0.3525,-0.64721 0.5386,-1.51947 1.2175,-2.97429 1.2585,-4.62469 -0.1121,-1.80982 -0.2758,-3.64433 -1.2864,-5.20898 -1.2501,-1.70204 -2.6285,-3.26066 -4.6053,-4.13232 -1.669,-0.72239 -3.3956,-1.28079 -5.1373,-1.80017 -1.7443,-0.36463 -3.4603,-0.87614 -5.1341,-1.48166 -1.1612,-0.60693 -2.5096,-1.21703 -1.823,-2.74447 0.9103,-1.40648 2.1905,-2.53543 3.5692,-3.47626 2.5003,-1.72816 4.5888,-3.49289 7.754,-3.0624 3.0146,0.61456 5.7579,2.06507 8.3003,3.76856 0,0 -2.3724,1.78424 -2.3724,1.78424 z"
       inkscape:connector-curvature="0" />
    <path
       inkscape:connector-curvature="0"
       d="m 815.26489,432.30143 c -0.21976,3.67913 -0.54016,7.33981 -1.13521,10.97746 0,0 -2.51742,1.48649 -2.51742,1.48649 l 0,0 c 0.60447,-3.6154 0.92099,-7.25393 1.12285,-10.9137 0,0 2.52978,-1.55025 2.52978,-1.55025 z"
       id="path6067"
       style="color:#000000;fill:#000000;fill-opacity:1;fill-rule:nonzero;stroke:none;stroke-width:1px;marker:none;visibility:visible;display:inline;overflow:visible;enable-background:accumulate" />
    <path
       style="color:#000000;fill:#666666;fill-opacity:1;fill-rule:nonzero;stroke:#000000;stroke-width:1px;marker:none;visibility:visible;display:inline;overflow:visible;enable-background:accumulate"
       id="path6071"
       d="m 782.81702,459.22686 c -0.61127,0.14799 -1.22253,0.29598 -1.8338,0.44397 0,0 2.19063,-1.96349 2.19063,-1.96349 l 0,0 c 0.61867,-0.15191 1.23735,-0.30382 1.85602,-0.45573 0,0 -2.21285,1.97525 -2.21285,1.97525 z"
       inkscape:connector-curvature="0" />
    <path
       style="color:#000000;fill:#000000;fill-opacity:1;fill-rule:nonzero;stroke:none;stroke-width:1px;marker:none;visibility:visible;display:inline;overflow:visible;enable-background:accumulate"
       id="path6073"
       d="m 747.08639,458.03535 c 4.48616,0.0187 8.97237,0.0161 13.45856,0.0149 2.71194,-0.005 5.42392,2.9e-4 8.13583,-0.0165 0,0 -2.26254,1.9324 -2.26254,1.9324 l 0,0 c -2.69903,-0.017 -5.39813,-0.0116 -8.09719,-0.0165 -4.49786,-0.001 -8.99574,-0.004 -13.49357,0.0149 0,0 2.25891,-1.9293 2.25891,-1.9293 z"
       inkscape:connector-curvature="0" />
    <path
       inkscape:connector-curvature="0"
       d="m 747.08639,452.03535 c 4.48616,0.0187 8.97237,0.0161 13.45856,0.0149 2.71194,-0.005 5.42392,2.9e-4 8.13583,-0.0165 0,0 -2.26254,1.9324 -2.26254,1.9324 l 0,0 c -2.69903,-0.017 -5.39813,-0.0116 -8.09719,-0.0165 -4.49786,-0.001 -8.99574,-0.004 -13.49357,0.0149 0,0 2.25891,-1.9293 2.25891,-1.9293 z"
       id="path6075"
       style="color:#000000;fill:#000000;fill-opacity:1;fill-rule:nonzero;stroke:none;stroke-width:1px;marker:none;visibility:visible;display:inline;overflow:visible;enable-background:accumulate" />
    <path
       style="color:#000000;fill:#000000;fill-opacity:1;fill-rule:nonzero;stroke:none;stroke-width:1px;marker:none;visibility:visible;display:inline;overflow:visible;enable-background:accumulate"
       id="path6077"
       d="m 745.39505,447.95622 c 2.74545,-2.29885 5.57647,-5.27364 9.31691,-5.51869 1.48445,0.26646 2.43828,1.54394 3.30767,2.68157 0.92496,1.24631 1.88406,2.07398 3.37416,2.53255 1.52496,0.40702 2.95152,-0.0401 4.18055,-0.96173 -3.50699,2.54351 -1.6882,1.01082 -1.01763,0.0964 0.49597,-0.67632 0.91334,-1.3978 1.38413,-2.0915 0.32489,-0.53108 0.65014,-1.04839 1.10236,-1.47691 0,0 2.68089,-1.32051 2.68089,-1.32051 l 0,0 c -0.55011,0.32912 -0.83381,0.85304 -1.15749,1.40067 -1.58252,2.20741 -2.45584,4.08081 -5.13626,5.45925 -1.34302,0.84999 -2.7921,1.22354 -4.35863,0.75498 -1.51645,-0.51492 -2.53383,-1.39416 -3.48426,-2.67472 -0.81354,-1.06069 -1.69935,-2.29652 -3.11865,-2.44988 -0.80139,0.0895 -1.07962,0.0666 -1.85939,0.39596 -0.41582,0.17566 -0.8712,0.93178 -1.20169,0.62432 -0.31626,-0.29422 1.3653,-1.058 1.03599,-0.77846 -0.41576,0.35292 -0.8638,0.66594 -1.2957,0.99892 -0.36922,0.32663 -0.73844,0.65327 -1.10766,0.97991 0,0 -2.6453,1.34785 -2.6453,1.34785 z"
       inkscape:connector-curvature="0" />
    <rect
       style="color:#000000;fill:none;stroke:#aaccee;stroke-width:1;stroke-linecap:butt;stroke-linejoin:miter;stroke-miterlimit:4;stroke-opacity:1;stroke-dasharray:none;stroke-dashoffset:0;marker:none;visibility:visible;display:inline;overflow:visible;enable-background:accumulate"
       id="rect6079"
       width="795.99982"
       height="106"
       x="35"
       y="401" />
    <path
       inkscape:connector-curvature="0"
       d="m 245.1285,463.56827 c 2.8916,1.5736 5.382,3.71871 7.8908,5.82092 1.7611,1.545 3.825,2.24669 6.1045,2.5329 2.5496,-0.0326 4.9237,-1.08297 7.114,-2.30344 1.7262,-0.94176 0.6676,-0.31534 2.2225,-1.3458 0.3147,-0.2086 1.2642,-0.8264 0.9502,-0.6167 -3.176,2.12069 -1.1107,0.56326 -0.3949,-0.33517 1.0101,-1.42262 1.5569,-2.89641 0.2431,-4.26156 -1.5541,-1.04374 -3.3546,-1.02492 -5.1344,-0.79594 -2.2615,0.61504 -4.3075,1.84495 -6.2838,3.0751 -0.3893,0.26877 -1.6392,0.85004 -1.1681,0.80632 0.4914,-0.0456 0.8643,-1.13577 1.2374,-0.81275 0.3648,0.31585 -0.7653,0.58905 -1.1275,0.90788 -1.1911,1.04841 -2.2177,2.23584 -3.2302,3.4513 -2.0046,2.63642 -3.4863,5.64389 -4.5132,8.78461 -0.5461,2.09204 -0.9092,4.28658 -0.6912,6.44934 0.5775,1.9827 2.4076,1.05805 3.7337,0.422 2.0881,-1.3509 4.378,-2.30796 6.6843,-3.21132 2.0328,-0.73439 4.0902,-1.14881 6.2078,-0.63103 1.2475,0.23009 2.1891,1.09006 3.4296,1.28788 0,0 -2.3024,1.88832 -2.3024,1.88832 l 0,0 c -1.207,-0.29256 -2.194,-1.06052 -3.4268,-1.29915 -2.0841,-0.43377 -4.1119,0.0269 -6.0883,0.76289 -2.3001,0.92062 -4.5665,1.90797 -6.6742,3.2241 -1.5741,0.69632 -3.432,1.25382 -4.0808,-0.86308 -0.2597,-2.19515 0.1114,-4.43174 0.6397,-6.56397 1.0061,-3.17146 2.4886,-6.20446 4.4669,-8.88622 2.5515,-3.13659 5.5351,-5.68329 9.0429,-7.75932 2.0009,-1.22167 4.069,-2.46893 6.3792,-2.98794 1.8594,-0.20259 3.7383,-0.13412 5.313,1.00811 1.3728,1.4805 1.0646,3.02249 -0.026,4.62284 -1.9414,2.55294 -4.8228,4.12412 -7.5579,5.7096 -2.2394,1.19975 -4.655,2.23652 -7.2449,2.16917 -2.3194,-0.32703 -4.4137,-1.0927 -6.1999,-2.67086 -2.4896,-2.09294 -4.9578,-4.23802 -7.858,-5.75863 0,0 2.3432,-1.8204 2.3432,-1.8204 z"
       id="path6085"
       style="color:#000000;fill:none;stroke:#666666;stroke-width:1px;marker:none;visibility:visible;display:inline;overflow:visible;enable-background:accumulate" />
    <text
       xml:space="preserve"
       style="font-size:20px;font-style:normal;font-variant:normal;font-weight:normal;font-stretch:normal;text-indent:0;text-align:start;text-decoration:none;line-height:125%;letter-spacing:0px;word-spacing:0px;text-transform:none;direction:ltr;block-progression:tb;writing-mode:lr-tb;text-anchor:start;baseline-shift:baseline;color:#000000;fill:#666666;fill-opacity:1;fill-rule:nonzero;stroke:none;stroke-width:1px;marker:none;visibility:visible;display:inline;overflow:visible;enable-background:accumulate;font-family:Architects Daughter;-inkscape-font-specification:Architects Daughter"
       x="102"
       y="484"
       id="text6087"
       sodipodi:linespacing="125%"><tspan
         sodipodi:role="line"
         id="tspan6089"
         x="102"
         y="484">skeleton of</tspan></text>
    <path
       inkscape:connector-curvature="0"
       d="m 281.26489,454.30143 c -0.21976,3.67913 -0.54016,7.33981 -1.13521,10.97746 0,0 -2.51742,1.48649 -2.51742,1.48649 l 0,0 c 0.60447,-3.6154 0.92099,-7.25393 1.12285,-10.9137 0,0 2.52978,-1.55025 2.52978,-1.55025 z"
       id="path6091"
       style="color:#000000;fill:#666666;fill-opacity:1;fill-rule:nonzero;stroke:none;stroke-width:1px;marker:none;visibility:visible;display:inline;overflow:visible;enable-background:accumulate" />
    <path
       style="color:#000000;fill:none;stroke:#cccccf;stroke-width:2;stroke-linecap:butt;stroke-linejoin:miter;stroke-miterlimit:4;stroke-opacity:1;stroke-dasharray:none;stroke-dashoffset:0;marker:none;visibility:visible;display:inline;overflow:visible;enable-background:accumulate"
       d="m 581,200 0,118"
       id="path3767"
       inkscape:connector-curvature="0"
       sodipodi:nodetypes="cc" />
  </g>
  <a
     xlink:href="s2.svg"
     id="a3074"
     style="display:inline"
     transform="translate(80.67022,-28.094995)">
    <path
       inkscape:connector-curvature="0"
       id="path3936"
       d="m 702.67506,599.63376 0,12.92247 28.2254,0 0,10.20196 21.08404,-18.36352 -19.72378,-14.96287 0,9.86189 z"
       style="fill:#b3defd;stroke:#f0a513;stroke-width:1;stroke-linecap:butt;stroke-linejoin:miter;stroke-miterlimit:4;stroke-opacity:1;stroke-dasharray:none" />
  </a>
</svg>
