<?xml version="1.0" encoding="UTF-8" standalone="no"?>
<svg
   xmlns:dc="http://purl.org/dc/elements/1.1/"
   xmlns:cc="http://creativecommons.org/ns#"
   xmlns:rdf="http://www.w3.org/1999/02/22-rdf-syntax-ns#"
   xmlns:svg="http://www.w3.org/2000/svg"
   xmlns="http://www.w3.org/2000/svg"
   xmlns:xlink="http://www.w3.org/1999/xlink"
   xmlns:sodipodi="http://sodipodi.sourceforge.net/DTD/sodipodi-0.dtd"
   xmlns:inkscape="http://www.inkscape.org/namespaces/inkscape"
   width="1024px"
   height="768px"
   id="svg3541"
   version="1.1"
   inkscape:version="0.48.4 r9939"
   sodipodi:docname="s2.svg">
  <defs
     id="defs3543">
    <marker
       inkscape:stockid="Arrow2Lstart"
       orient="auto"
       refY="0.0"
       refX="0.0"
       id="Arrow2Lstart"
       style="overflow:visible">
      <path
         id="path10406"
         style="font-size:12.0;fill-rule:evenodd;stroke-width:0.62500000;stroke-linejoin:round"
         d="M 8.7185878,4.0337352 L -2.2072895,0.016013256 L 8.7185884,-4.0017078 C 6.9730900,-1.6296469 6.9831476,1.6157441 8.7185878,4.0337352 z "
         transform="scale(1.1) translate(1,0)" />
    </marker>
    <marker
       inkscape:stockid="Arrow1Lend"
       orient="auto"
       refY="0.0"
       refX="0.0"
       id="Arrow1Lend"
       style="overflow:visible;">
      <path
         id="path8472"
         d="M 0.0,0.0 L 5.0,-5.0 L -12.5,0.0 L 5.0,5.0 L 0.0,0.0 z "
         style="fill-rule:evenodd;stroke:#000000;stroke-width:1.0pt;marker-start:none;"
         transform="scale(0.8) rotate(180) translate(12.5,0)" />
    </marker>
    <marker
       inkscape:stockid="SemiCircleIn"
       orient="auto"
       refY="0.0"
       refX="0.0"
       id="SemiCircleIn"
       style="overflow:visible">
      <path
         id="path9465"
         d="M -0.37450702,-0.045692580 C -0.37450702,2.7143074 1.8654930,4.9543074 4.6254930,4.9543074 L 4.6254930,-5.0456926 C 1.8654930,-5.0456926 -0.37450702,-2.8056926 -0.37450702,-0.045692580 z "
         style="fill-rule:evenodd;stroke:#000000;stroke-width:1.0pt;marker-start:none;marker-end:none"
         transform="scale(0.6)" />
    </marker>
    <marker
       inkscape:stockid="Arrow1Mend"
       orient="auto"
       refY="0.0"
       refX="0.0"
       id="Arrow1Mend"
       style="overflow:visible;">
      <path
         id="path8478"
         d="M 0.0,0.0 L 5.0,-5.0 L -12.5,0.0 L 5.0,5.0 L 0.0,0.0 z "
         style="fill-rule:evenodd;stroke:#000000;stroke-width:1.0pt;marker-start:none;"
         transform="scale(0.4) rotate(180) translate(10,0)" />
    </marker>
    <marker
       inkscape:stockid="Arrow2Lend"
       orient="auto"
       refY="0.0"
       refX="0.0"
       id="Arrow2Lend"
       style="overflow:visible;">
      <path
         id="path8490"
         style="font-size:12.0;fill-rule:evenodd;stroke-width:0.62500000;stroke-linejoin:round;"
         d="M 8.7185878,4.0337352 L -2.2072895,0.016013256 L 8.7185884,-4.0017078 C 6.9730900,-1.6296469 6.9831476,1.6157441 8.7185878,4.0337352 z "
         transform="scale(1.1) rotate(180) translate(1,0)" />
    </marker>
  </defs>
  <sodipodi:namedview
     id="base"
     pagecolor="#ffffff"
     bordercolor="#666666"
     borderopacity="1.0"
     inkscape:pageopacity="0.0"
     inkscape:pageshadow="2"
     inkscape:zoom="1"
     inkscape:cx="347.71471"
     inkscape:cy="342.19907"
     inkscape:current-layer="g6093"
     inkscape:document-units="px"
     showgrid="true"
     inkscape:window-width="1920"
     inkscape:window-height="1020"
     inkscape:window-x="1912"
     inkscape:window-y="-8"
     inkscape:window-maximized="1"
     showguides="true"
     inkscape:guide-bbox="true"
     inkscape:snap-global="false">
    <inkscape:grid
       type="xygrid"
       id="grid5395" />
  </sodipodi:namedview>
  <metadata
     id="metadata3546">
    <rdf:RDF>
      <cc:Work
         rdf:about="">
        <dc:format>image/svg+xml</dc:format>
        <dc:type
           rdf:resource="http://purl.org/dc/dcmitype/StillImage" />
        <dc:title />
      </cc:Work>
    </rdf:RDF>
  </metadata>
  <g
     style="display:inline"
     inkscape:label="iteration-1.s2"
     id="g6093"
     inkscape:groupmode="layer">
    <text
       sodipodi:linespacing="125%"
       id="text6095"
       y="90"
       x="42"
       style="font-size:20px;font-style:normal;font-variant:normal;font-weight:normal;font-stretch:normal;text-indent:0;text-align:start;text-decoration:none;line-height:125%;letter-spacing:0px;word-spacing:0px;text-transform:none;direction:ltr;block-progression:tb;writing-mode:lr-tb;text-anchor:start;baseline-shift:baseline;color:#000000;fill:#cccccf;fill-opacity:1;fill-rule:nonzero;stroke:none;stroke-width:1px;marker:none;visibility:visible;display:inline;overflow:visible;enable-background:accumulate;font-family:Architects Daughter;-inkscape-font-specification:Architects Daughter"
       xml:space="preserve"><tspan
         id="tspan6097"
         y="90"
         x="42"
         sodipodi:role="line">After getting rid of noise (internal isos), </tspan><tspan
         id="tspan6099"
         y="115"
         x="42"
         sodipodi:role="line">two categories basically become iso.</tspan></text>
    <rect
       y="62"
       x="35"
       height="65.926224"
       width="465.16141"
       id="rect6101"
       style="color:#000000;fill:none;stroke:#cccccf;stroke-width:1;stroke-linecap:butt;stroke-linejoin:miter;stroke-miterlimit:4;stroke-opacity:1;stroke-dasharray:none;stroke-dashoffset:0;marker:none;visibility:visible;display:inline;overflow:visible;enable-background:accumulate" />
    <text
       sodipodi:linespacing="125%"
       id="text6103"
       y="213.55078"
       x="593.19922"
       style="font-size:20px;font-style:normal;font-variant:normal;font-weight:normal;font-stretch:normal;text-indent:0;text-align:start;text-decoration:none;line-height:125%;letter-spacing:0px;word-spacing:0px;text-transform:none;direction:ltr;block-progression:tb;writing-mode:lr-tb;text-anchor:start;baseline-shift:baseline;color:#000000;fill:#666666;fill-opacity:1;fill-rule:nonzero;stroke:none;stroke-width:1px;marker:none;visibility:visible;display:inline;overflow:visible;enable-background:accumulate;font-family:Architects Daughter;-inkscape-font-specification:Architects Daughter"
       xml:space="preserve"><tspan
         y="213.55078"
         x="593.19922"
         id="tspan6105"
         sodipodi:role="line"
         style="fill:#cccccf"><tspan
           style="fill:#0197fd"
           id="tspan6387">extract</tspan><tspan
           style="fill:#eeeeee"
           id="tspan6980"> figure out of category</tspan></tspan><tspan
         id="tspan6107"
         y="238.55078"
         x="593.19922"
         sodipodi:role="line"
         style="fill:#cccccf"><tspan
           style="fill:#eeeeee"
           id="tspan6982">so to take all </tspan><tspan
           style="fill:#0197fd"
           id="tspan6389">non-iso objects and</tspan></tspan><tspan
         id="tspan6109"
         y="263.55078"
         x="593.19922"
         sodipodi:role="line"
         style="fill:#cccccf"><tspan
   style="fill:#eeeeee"
   id="tspan3614">all </tspan><tspan
   style="fill:#0197fd"
   id="tspan6391">arrows amongst them</tspan>:</tspan><tspan
         id="tspan6111"
         y="288.55078"
         x="593.19922"
         sodipodi:role="line" /></text>
    <text
       sodipodi:linespacing="125%"
       id="text6113"
       y="264.55078"
       x="44.199219"
       style="font-size:20px;font-style:normal;font-variant:normal;font-weight:normal;font-stretch:normal;text-indent:0;text-align:start;text-decoration:none;line-height:125%;letter-spacing:0px;word-spacing:0px;text-transform:none;direction:ltr;block-progression:tb;writing-mode:lr-tb;text-anchor:start;baseline-shift:baseline;color:#000000;fill:#666666;fill-opacity:1;fill-rule:nonzero;stroke:none;stroke-width:1px;marker:none;visibility:visible;display:inline;overflow:visible;enable-background:accumulate;font-family:Architects Daughter;-inkscape-font-specification:Architects Daughter"
       xml:space="preserve"><tspan
         id="tspan6115"
         y="264.55078"
         x="44.199219"
         sodipodi:role="line">Define:</tspan><tspan
         id="tspan6117"
         y="289.55078"
         x="44.199219"
         sodipodi:role="line"> (I) process of &quot;skeleton&quot; extraction.</tspan><tspan
         id="tspan6119"
         y="314.55078"
         x="44.199219"
         sodipodi:role="line"
         style="fill:#cccccf"> (II) 2 categories equivalent when their </tspan><tspan
         id="tspan6121"
         y="339.55078"
         x="44.199219"
         sodipodi:role="line"
         style="fill:#cccccf">   skeletons are iso. </tspan><tspan
         id="tspan6123"
         y="364.55078"
         x="44.199219"
         sodipodi:role="line" /></text>
    <text
       sodipodi:linespacing="125%"
       id="text6137"
       y="54"
       x="222"
       style="font-size:20px;font-style:normal;font-variant:normal;font-weight:normal;font-stretch:normal;text-indent:0;text-align:start;text-decoration:none;line-height:125%;letter-spacing:0px;word-spacing:0px;text-transform:none;direction:ltr;block-progression:tb;writing-mode:lr-tb;text-anchor:start;baseline-shift:baseline;color:#000000;fill:#cccccf;fill-opacity:1;fill-rule:nonzero;stroke:none;stroke-width:1px;marker:none;visibility:visible;display:inline;overflow:visible;enable-background:accumulate;font-family:Architects Daughter;-inkscape-font-specification:Architects Daughter"
       xml:space="preserve"><tspan
         y="54"
         x="222"
         id="tspan6139"
         sodipodi:role="line">Idea</tspan></text>
    <path
       inkscape:connector-curvature="0"
       id="path6141"
       d="m 246,137 0,48"
       style="fill:#cccccf;stroke:#cccccf;stroke-width:1px;stroke-linecap:butt;stroke-linejoin:miter;stroke-opacity:1" />
    <path
       inkscape:connector-curvature="0"
       d="m 237.8131,172.98486 c 1.93511,2.62697 4.04527,5.11537 6.09623,7.65184 1.3063,1.60677 2.08768,3.54405 2.69586,5.50414 0.20097,0.56704 0.37075,1.12787 0.65611,1.65958 0.47795,0.89056 2.55951,0.66082 -1.80752,1.46208 -0.23332,0.0428 0.10379,-0.46292 0.15569,-0.69438 0.45319,-2.19777 1.53274,-4.11866 2.80685,-5.93408 1.66731,-2.25782 3.62502,-4.27142 5.70853,-6.14344 0.28266,-0.20496 0.56109,-0.41592 0.848,-0.61489 1.08751,-0.75417 2.16578,-1.52258 3.27504,-2.24439 0.95643,-0.62235 2.08925,-0.82161 3.02063,-1.4764 0,0 -2.1536,2.06198 -2.1536,2.06198 l 0,0 c -0.68601,0.39625 -1.4154,0.62877 -2.12535,0.97884 -0.30215,0.14897 -1.12745,0.72282 -0.88377,0.49021 0.30798,-0.29398 2.89019,-2.02956 0.66875,-0.52505 -2.1089,1.83561 -4.05561,3.85642 -5.74707,6.08713 -1.27925,1.77683 -2.37908,3.64805 -2.84922,5.81422 -0.7947,4.58056 -3.4218,3.69865 -4.05814,0.70519 -0.58542,-1.92795 -1.35138,-3.83305 -2.62367,-5.41716 -2.0422,-2.55162 -4.14312,-5.05203 -6.11337,-7.6605 0,0 2.43002,-1.70492 2.43002,-1.70492 z"
       id="path6143"
       style="color:#000000;fill:#cccccf;fill-opacity:1;fill-rule:nonzero;stroke:none;stroke-width:1px;marker:none;visibility:visible;display:inline;overflow:visible;enable-background:accumulate" />
    <text
       sodipodi:linespacing="125%"
       id="text6145"
       y="227"
       x="131"
       style="font-size:20px;font-style:normal;font-variant:normal;font-weight:normal;font-stretch:normal;text-indent:0;text-align:start;text-decoration:none;line-height:125%;letter-spacing:0px;word-spacing:0px;text-transform:none;direction:ltr;block-progression:tb;writing-mode:lr-tb;text-anchor:start;baseline-shift:baseline;color:#000000;fill:#cccccf;fill-opacity:1;fill-rule:nonzero;stroke:none;stroke-width:1px;marker:none;visibility:visible;display:inline;overflow:visible;enable-background:accumulate;font-family:Architects Daughter;-inkscape-font-specification:Architects Daughter"
       xml:space="preserve"><tspan
         y="227"
         x="131"
         id="tspan6147"
         sodipodi:role="line">Steps to Formalization</tspan></text>
    <rect
       style="color:#000000;fill:none;stroke:#cccccf;stroke-width:1;stroke-linecap:butt;stroke-linejoin:miter;stroke-miterlimit:4;stroke-opacity:1;stroke-dasharray:none;stroke-dashoffset:0;marker:none;visibility:visible;display:inline;overflow:visible;enable-background:accumulate"
       id="rect6149"
       width="465.16141"
       height="111.92622"
       x="35"
       y="238" />
    <path
       sodipodi:type="arc"
       style="color:#000000;fill:#666666;stroke:none;stroke-width:1;marker:none;visibility:visible;display:inline;overflow:visible;enable-background:accumulate"
       id="path6163"
       sodipodi:cx="684"
       sodipodi:cy="66"
       sodipodi:rx="3"
       sodipodi:ry="3"
       d="m 687,66 a 3,3 0 1 1 -6,0 3,3 0 1 1 6,0 z"
       transform="matrix(0,-1.3333333,1.3333333,0,756.9959,1337.9959)" />
    <path
       style="fill:none;stroke:#d9bb7a;stroke-width:1.41421354px;stroke-linecap:butt;stroke-linejoin:miter;stroke-opacity:1"
       d="m 856.9959,437.49589 c 24.2846,13.92752 42.6713,9.92915 59,0"
       id="path6165"
       inkscape:connector-curvature="0"
       sodipodi:nodetypes="cc" />
    <path
       transform="matrix(0,-1.3333333,1.3333333,0,840.9959,1337.9959)"
       d="m 687,66 a 3,3 0 1 1 -6,0 3,3 0 1 1 6,0 z"
       sodipodi:ry="3"
       sodipodi:rx="3"
       sodipodi:cy="66"
       sodipodi:cx="684"
       id="path6167"
       style="color:#000000;fill:#d9bb7a;stroke:none;stroke-width:1;marker:none;visibility:visible;display:inline;overflow:visible;enable-background:accumulate"
       sodipodi:type="arc" />
    <path
       sodipodi:nodetypes="cc"
       inkscape:connector-curvature="0"
       id="path6169"
       d="m 856.9959,414.50411 c 24.2846,-13.92752 42.6713,-9.92915 59,0"
       style="fill:none;stroke:#d9bb7a;stroke-width:1.41421354px;stroke-linecap:butt;stroke-linejoin:miter;stroke-opacity:1" />
    <path
       style="color:#000000;fill:#d9bb7a;fill-opacity:1;fill-rule:nonzero;stroke:none;stroke-width:1px;marker:none;visibility:visible;display:inline;overflow:visible;enable-background:accumulate"
       id="path6171"
       d="m 865.4023,415.61966 c -2.8781,-0.2905 -5.7553,-0.75411 -8.6504,-0.5005 0.1642,-0.0338 -0.689,0.11529 -0.6944,-0.11951 0,-0.19604 0.2901,-0.27433 0.3814,-0.44786 0.211,-0.40108 0.2863,-0.68924 0.434,-1.12679 0.2819,-1.63573 -0.4717,-2.71476 -1.77,-3.61303 -0.8533,-0.61863 -0.4549,-0.28424 -1.1982,-0.9996 0,0 -1.7436,2.41163 -1.7436,2.41163 l 0,0 c 0.7793,0.73819 0.3672,0.39609 1.2364,1.02629 1.2119,0.83921 1.8487,1.86754 1.4635,3.37254 -0.3142,0.82708 -1.2074,2.15348 0.3642,2.04427 2.8728,-0.32327 5.7367,0.1567 8.5937,0.46578 0,0 1.5834,-2.51322 1.5834,-2.51322 z"
       inkscape:connector-curvature="0" />
    <path
       inkscape:connector-curvature="0"
       d="m 908.1611,437.32559 c 2.8781,0.2905 5.7553,0.75411 8.6504,0.5005 -0.1642,0.0338 0.689,-0.11529 0.6944,0.11951 0,0.19604 -0.2901,0.27433 -0.3814,0.44786 -0.211,0.40108 -0.2863,0.68924 -0.434,1.12679 -0.2819,1.63573 0.4717,2.71476 1.77,3.61303 0.8533,0.61863 0.4549,0.28424 1.1982,0.9996 0,0 1.7436,-2.41163 1.7436,-2.41163 l 0,0 c -0.7793,-0.73819 -0.3672,-0.39609 -1.2364,-1.02629 -1.2119,-0.83921 -1.8487,-1.86754 -1.4634,-3.37254 0.3141,-0.82708 1.2073,-2.15348 -0.3643,-2.04427 -2.8728,0.32327 -5.7367,-0.1567 -8.5937,-0.46578 0,0 -1.5834,2.51322 -1.5834,2.51322 z"
       id="path6173"
       style="color:#000000;fill:#d9bb7a;fill-opacity:1;fill-rule:nonzero;stroke:none;stroke-width:1px;marker:none;visibility:visible;display:inline;overflow:visible;enable-background:accumulate" />
    <g
       transform="translate(98,274)"
       style="fill:#d9bb7a"
       id="g6175">
      <path
         style="color:#000000;fill:#d9bb7a;fill-opacity:1;fill-rule:nonzero;stroke:none;stroke-width:1px;marker:none;visibility:visible;display:inline;overflow:visible;enable-background:accumulate"
         id="path6177"
         d="m 783.08639,156.03535 c 3.95061,0.0165 7.90126,0.0118 11.85188,0.0106 2.43548,-0.002 1.24773,-8.6e-4 3.56326,-0.003 0,0 -2.24184,1.91472 -2.24184,1.91472 l 0,0 c -2.31014,-0.002 -1.12498,-0.001 -3.5555,-0.003 -3.9589,-0.001 -7.91783,-0.006 -11.87671,0.0106 0,0 2.25891,-1.9293 2.25891,-1.9293 z"
         inkscape:connector-curvature="0" />
      <path
         inkscape:connector-curvature="0"
         d="m 783.08639,152.03535 c 3.95061,0.0165 7.90126,0.0118 11.85188,0.0106 2.43548,-0.002 1.24773,-8.6e-4 3.56326,-0.003 0,0 -2.24184,1.91472 -2.24184,1.91472 l 0,0 c -2.31014,-0.002 -1.12498,-0.001 -3.5555,-0.003 -3.9589,-0.001 -7.91783,-0.006 -11.87671,0.0106 0,0 2.25891,-1.9293 2.25891,-1.9293 z"
         id="path6179"
         style="color:#000000;fill:#d9bb7a;fill-opacity:1;fill-rule:nonzero;stroke:none;stroke-width:1px;marker:none;visibility:visible;display:inline;overflow:visible;enable-background:accumulate" />
      <path
         style="color:#000000;fill:#d9bb7a;fill-opacity:1;fill-rule:nonzero;stroke:none;stroke-width:1px;marker:none;visibility:visible;display:inline;overflow:visible;enable-background:accumulate"
         id="path6181"
         d="m 781.84816,149.89372 c 1.26265,-0.96421 2.45507,-2.0646 3.82706,-2.84835 0.49563,-0.26468 1.03762,-0.32925 1.58222,-0.35496 0.45917,-0.0352 0.89695,-0.01 1.32594,0.17474 0.36304,0.23095 0.70034,0.47563 1.0087,0.78535 0.331,0.26244 0.59292,0.614 0.94339,0.84718 0.27085,0.25159 0.61464,0.36229 0.93904,0.50969 0.37408,0.14719 0.77509,0.16487 1.16905,0.18232 0.44235,0.0263 0.87066,0.0266 1.30178,-0.0812 0.39851,-0.0345 0.73516,-0.23812 1.09215,-0.40752 0.0641,-0.0384 0.12982,-0.0739 0.19246,-0.11507 0.0684,-0.0449 0.13358,-0.0953 0.20037,-0.14289 0.0723,-0.0438 0.28426,-0.18296 0.21664,-0.13142 -3.71026,2.82785 -0.56856,0.22079 0.57193,-0.39393 0.67755,-0.48002 1.6886,-1.22058 -1.40058,1.0552 -0.0487,0.0359 0.0949,-0.0756 0.14201,-0.1139 0.15739,-0.12819 0.11067,-0.0893 0.26077,-0.22938 0.67345,-0.50162 1.34691,-1.00324 2.02037,-1.50486 -0.58089,0.43239 -2.32333,1.72987 -1.74265,1.29717 0.72011,-0.53658 1.35162,-1.2748 2.18315,-1.57399 0.3152,-0.11342 0.0544,0.0186 0.33475,-0.13953 0.37703,-0.1627 0.75159,-0.31949 1.15048,-0.41103 0.0753,-0.0125 0.15076,-0.0249 0.22613,-0.0374 0,0 -1.7298,1.64123 -1.7298,1.64123 l 0,0 c -0.0723,0.0163 -0.14464,0.0327 -0.21696,0.049 -0.38585,0.11555 -0.75821,0.2765 -1.12508,0.44828 -0.0867,0.036 -0.24676,0.0999 -0.33008,0.14518 -0.0507,0.0276 -0.19333,0.12814 -0.14704,0.0927 0.57532,-0.43998 2.31998,-1.73131 1.7346,-1.30683 -0.71315,0.51713 -4.302,3.24543 -0.28317,0.19625 -0.53501,0.43397 0.27526,-0.23509 -0.25503,0.24385 -0.76995,0.69538 -1.63805,1.28478 -2.501,1.84988 -0.0608,0.0401 -0.24052,0.16479 -0.18237,0.1204 0.55833,-0.4262 2.25362,-1.67361 1.68328,-1.26608 -0.88312,0.63101 -1.727,1.40897 -2.69643,1.91464 -0.36174,0.17878 -0.7312,0.30998 -1.12812,0.36624 -0.4428,0.0791 -0.8907,0.05 -1.33772,0.033 -0.4164,-0.028 -0.83669,-0.0685 -1.22444,-0.24753 -0.33439,-0.15719 -0.68387,-0.28255 -0.96345,-0.54544 -0.34634,-0.26037 -0.62845,-0.6025 -0.96227,-0.88078 -0.28973,-0.27956 -0.607,-0.51285 -0.95387,-0.70519 -0.41351,-0.13574 -0.83451,-0.13444 -1.26392,-0.10044 -0.52587,0.0432 -1.03988,0.14407 -1.50434,0.42941 -0.82892,0.52247 -0.43018,0.28315 1.23727,-0.97658 0.11437,-0.0864 -0.22706,0.17532 -0.34101,0.26237 -0.60545,0.46257 -0.10158,0.0653 -0.68888,0.5486 -0.0963,0.0793 -0.19386,0.15673 -0.29079,0.2351 0,0 -2.07454,1.08649 -2.07454,1.08649 z"
         inkscape:connector-curvature="0" />
    </g>
    <path
       transform="matrix(0,-1.3333333,1.3333333,0,756.9959,1437.9959)"
       d="m 687,66 a 3,3 0 1 1 -6,0 3,3 0 1 1 6,0 z"
       sodipodi:ry="3"
       sodipodi:rx="3"
       sodipodi:cy="66"
       sodipodi:cx="684"
       id="path6183"
       style="color:#000000;fill:#666666;stroke:none;stroke-width:1;marker:none;visibility:visible;display:inline;overflow:visible;enable-background:accumulate"
       sodipodi:type="arc" />
    <path
       sodipodi:nodetypes="cc"
       inkscape:connector-curvature="0"
       id="path6185"
       d="m 856.9959,537.49589 c 24.2846,13.92752 42.6713,9.92915 59,0"
       style="fill:none;stroke:#d9bb7a;stroke-width:1.41421354px;stroke-linecap:butt;stroke-linejoin:miter;stroke-opacity:1" />
    <path
       sodipodi:type="arc"
       style="color:#000000;fill:#d9bb7a;stroke:none;stroke-width:1;marker:none;visibility:visible;display:inline;overflow:visible;enable-background:accumulate"
       id="path6187"
       sodipodi:cx="684"
       sodipodi:cy="66"
       sodipodi:rx="3"
       sodipodi:ry="3"
       d="m 687,66 a 3,3 0 1 1 -6,0 3,3 0 1 1 6,0 z"
       transform="matrix(0,-1.3333333,1.3333333,0,840.9959,1437.9959)" />
    <path
       style="fill:none;stroke:#d9bb7a;stroke-width:1.41421354px;stroke-linecap:butt;stroke-linejoin:miter;stroke-opacity:1"
       d="m 856.9959,514.50411 c 24.2846,-13.92752 42.6713,-9.92915 59,0"
       id="path6189"
       inkscape:connector-curvature="0"
       sodipodi:nodetypes="cc" />
    <path
       inkscape:connector-curvature="0"
       d="m 865.4023,515.61966 c -2.8781,-0.2905 -5.7553,-0.75411 -8.6504,-0.5005 0.1642,-0.0338 -0.689,0.11529 -0.6944,-0.11951 0,-0.19604 0.2901,-0.27433 0.3814,-0.44786 0.211,-0.40108 0.2863,-0.68924 0.434,-1.12679 0.2819,-1.63573 -0.4717,-2.71476 -1.77,-3.61303 -0.8533,-0.61863 -0.4549,-0.28424 -1.1982,-0.9996 0,0 -1.7436,2.41163 -1.7436,2.41163 l 0,0 c 0.7793,0.73819 0.3672,0.39609 1.2364,1.02629 1.2119,0.83921 1.8487,1.86754 1.4635,3.37254 -0.3142,0.82708 -1.2074,2.15348 0.3642,2.04427 2.8728,-0.32327 5.7367,0.1567 8.5937,0.46578 0,0 1.5834,-2.51322 1.5834,-2.51322 z"
       id="path6191"
       style="color:#000000;fill:#d9bb7a;fill-opacity:1;fill-rule:nonzero;stroke:none;stroke-width:1px;marker:none;visibility:visible;display:inline;overflow:visible;enable-background:accumulate" />
    <path
       style="color:#000000;fill:#d9bb7a;fill-opacity:1;fill-rule:nonzero;stroke:none;stroke-width:1px;marker:none;visibility:visible;display:inline;overflow:visible;enable-background:accumulate"
       id="path6193"
       d="m 908.1611,537.32559 c 2.8781,0.2905 5.7553,0.75411 8.6504,0.5005 -0.1642,0.0338 0.689,-0.11529 0.6944,0.11951 0,0.19604 -0.2901,0.27433 -0.3814,0.44786 -0.211,0.40108 -0.2863,0.68924 -0.434,1.12679 -0.2819,1.63573 0.4717,2.71476 1.77,3.61303 0.8533,0.61863 0.4549,0.28424 1.1982,0.9996 0,0 1.7436,-2.41163 1.7436,-2.41163 l 0,0 c -0.7793,-0.73819 -0.3672,-0.39609 -1.2364,-1.02629 -1.2119,-0.83921 -1.8487,-1.86754 -1.4634,-3.37254 0.3141,-0.82708 1.2073,-2.15348 -0.3643,-2.04427 -2.8728,0.32327 -5.7367,-0.1567 -8.5937,-0.46578 0,0 -1.5834,2.51322 -1.5834,2.51322 z"
       inkscape:connector-curvature="0" />
    <g
       id="g6195"
       style="fill:#d9bb7a"
       transform="translate(98,374)">
      <path
         inkscape:connector-curvature="0"
         d="m 783.08639,156.03535 c 3.95061,0.0165 7.90126,0.0118 11.85188,0.0106 2.43548,-0.002 1.24773,-8.6e-4 3.56326,-0.003 0,0 -2.24184,1.91472 -2.24184,1.91472 l 0,0 c -2.31014,-0.002 -1.12498,-0.001 -3.5555,-0.003 -3.9589,-0.001 -7.91783,-0.006 -11.87671,0.0106 0,0 2.25891,-1.9293 2.25891,-1.9293 z"
         id="path6197"
         style="color:#000000;fill:#d9bb7a;fill-opacity:1;fill-rule:nonzero;stroke:none;stroke-width:1px;marker:none;visibility:visible;display:inline;overflow:visible;enable-background:accumulate" />
      <path
         style="color:#000000;fill:#d9bb7a;fill-opacity:1;fill-rule:nonzero;stroke:none;stroke-width:1px;marker:none;visibility:visible;display:inline;overflow:visible;enable-background:accumulate"
         id="path6199"
         d="m 783.08639,152.03535 c 3.95061,0.0165 7.90126,0.0118 11.85188,0.0106 2.43548,-0.002 1.24773,-8.6e-4 3.56326,-0.003 0,0 -2.24184,1.91472 -2.24184,1.91472 l 0,0 c -2.31014,-0.002 -1.12498,-0.001 -3.5555,-0.003 -3.9589,-0.001 -7.91783,-0.006 -11.87671,0.0106 0,0 2.25891,-1.9293 2.25891,-1.9293 z"
         inkscape:connector-curvature="0" />
      <path
         inkscape:connector-curvature="0"
         d="m 781.84816,149.89372 c 1.26265,-0.96421 2.45507,-2.0646 3.82706,-2.84835 0.49563,-0.26468 1.03762,-0.32925 1.58222,-0.35496 0.45917,-0.0352 0.89695,-0.01 1.32594,0.17474 0.36304,0.23095 0.70034,0.47563 1.0087,0.78535 0.331,0.26244 0.59292,0.614 0.94339,0.84718 0.27085,0.25159 0.61464,0.36229 0.93904,0.50969 0.37408,0.14719 0.77509,0.16487 1.16905,0.18232 0.44235,0.0263 0.87066,0.0266 1.30178,-0.0812 0.39851,-0.0345 0.73516,-0.23812 1.09215,-0.40752 0.0641,-0.0384 0.12982,-0.0739 0.19246,-0.11507 0.0684,-0.0449 0.13358,-0.0953 0.20037,-0.14289 0.0723,-0.0438 0.28426,-0.18296 0.21664,-0.13142 -3.71026,2.82785 -0.56856,0.22079 0.57193,-0.39393 0.67755,-0.48002 1.6886,-1.22058 -1.40058,1.0552 -0.0487,0.0359 0.0949,-0.0756 0.14201,-0.1139 0.15739,-0.12819 0.11067,-0.0893 0.26077,-0.22938 0.67345,-0.50162 1.34691,-1.00324 2.02037,-1.50486 -0.58089,0.43239 -2.32333,1.72987 -1.74265,1.29717 0.72011,-0.53658 1.35162,-1.2748 2.18315,-1.57399 0.3152,-0.11342 0.0544,0.0186 0.33475,-0.13953 0.37703,-0.1627 0.75159,-0.31949 1.15048,-0.41103 0.0753,-0.0125 0.15076,-0.0249 0.22613,-0.0374 0,0 -1.7298,1.64123 -1.7298,1.64123 l 0,0 c -0.0723,0.0163 -0.14464,0.0327 -0.21696,0.049 -0.38585,0.11555 -0.75821,0.2765 -1.12508,0.44828 -0.0867,0.036 -0.24676,0.0999 -0.33008,0.14518 -0.0507,0.0276 -0.19333,0.12814 -0.14704,0.0927 0.57532,-0.43998 2.31998,-1.73131 1.7346,-1.30683 -0.71315,0.51713 -4.302,3.24543 -0.28317,0.19625 -0.53501,0.43397 0.27526,-0.23509 -0.25503,0.24385 -0.76995,0.69538 -1.63805,1.28478 -2.501,1.84988 -0.0608,0.0401 -0.24052,0.16479 -0.18237,0.1204 0.55833,-0.4262 2.25362,-1.67361 1.68328,-1.26608 -0.88312,0.63101 -1.727,1.40897 -2.69643,1.91464 -0.36174,0.17878 -0.7312,0.30998 -1.12812,0.36624 -0.4428,0.0791 -0.8907,0.05 -1.33772,0.033 -0.4164,-0.028 -0.83669,-0.0685 -1.22444,-0.24753 -0.33439,-0.15719 -0.68387,-0.28255 -0.96345,-0.54544 -0.34634,-0.26037 -0.62845,-0.6025 -0.96227,-0.88078 -0.28973,-0.27956 -0.607,-0.51285 -0.95387,-0.70519 -0.41351,-0.13574 -0.83451,-0.13444 -1.26392,-0.10044 -0.52587,0.0432 -1.03988,0.14407 -1.50434,0.42941 -0.82892,0.52247 -0.43018,0.28315 1.23727,-0.97658 0.11437,-0.0864 -0.22706,0.17532 -0.34101,0.26237 -0.60545,0.46257 -0.10158,0.0653 -0.68888,0.5486 -0.0963,0.0793 -0.19386,0.15673 -0.29079,0.2351 0,0 -2.07454,1.08649 -2.07454,1.08649 z"
         id="path6201"
         style="color:#000000;fill:#d9bb7a;fill-opacity:1;fill-rule:nonzero;stroke:none;stroke-width:1px;marker:none;visibility:visible;display:inline;overflow:visible;enable-background:accumulate" />
    </g>
    <path
       inkscape:connector-curvature="0"
       id="path6203"
       d="m 929,455 0,43"
       style="fill:none;stroke:#cccccf;stroke-width:1px;stroke-linecap:butt;stroke-linejoin:miter;stroke-opacity:1" />
    <path
       inkscape:connector-curvature="0"
       d="m 924.0152,495.5738 c 2.1911,1.49472 4.2732,3.33626 5.7496,5.55842 0.7622,1.25476 1.3526,1.06362 -1.9333,1.90521 -0.2401,0.0615 0.3719,-2.10783 0.4022,-2.20953 1.1615,-2.97316 3.5023,-4.32674 6.0835,-6.04169 0.9494,-0.58051 0.4673,-0.30988 1.4457,-0.81308 0,0 -2.1658,2.03947 -2.1658,2.03947 l 0,0 c -0.9637,0.52032 -0.4839,0.24826 -1.4389,0.81708 0.5446,-0.41582 1.0882,-0.83301 1.6338,-1.24745 0.2405,-0.18262 -0.4955,0.34807 -0.7182,0.55201 -0.9601,0.8795 -1.682,2.07028 -2.259,3.21855 -0.2383,0.71057 -0.3258,0.82852 -0.397,1.54795 -0.02,0.20653 0.1325,0.47343 -0.012,0.6225 -2.3697,2.44643 -2.156,2.8574 -3.0793,1.30557 -1.4278,-2.19829 -3.4963,-4.00853 -5.6672,-5.44567 0,0 2.3558,-1.80934 2.3558,-1.80934 z"
       id="path6205"
       style="color:#000000;fill:#cccccf;fill-opacity:1;fill-rule:nonzero;stroke:none;stroke-width:1px;marker:none;visibility:visible;display:inline;overflow:visible;enable-background:accumulate" />
    <path
       inkscape:connector-curvature="0"
       id="path6207"
       d="m 915,459 -55,35"
       style="fill:none;stroke:#cccccf;stroke-width:1px;stroke-linecap:butt;stroke-linejoin:miter;stroke-opacity:1" />
    <path
       inkscape:connector-curvature="0"
       d="m 861.1563,484.19672 c -0.4844,3.17207 -1.7918,6.12426 -2.6381,9.19628 -0.3448,2.18935 0.8141,1.72599 2.425,2.01851 1.0008,0.30853 2.7947,0.19191 3.4983,1.14955 0.1175,0.15992 0.1125,0.3806 0.1687,0.57091 0,0 -2.5115,1.61313 -2.5115,1.61313 l 0,0 c -0.1206,-1.24929 -2.531,-1.1703 -3.4521,-1.43816 -1.6322,-0.2588 -3.0699,-0.3222 -2.6931,-2.43425 0.8187,-3.06716 2.1716,-5.99292 2.651,-9.15553 0,0 2.5518,-1.52044 2.5518,-1.52044 z"
       id="path6209"
       style="color:#000000;fill:#cccccf;fill-opacity:1;fill-rule:nonzero;stroke:none;stroke-width:1px;marker:none;visibility:visible;display:inline;overflow:visible;enable-background:accumulate" />
    <path
       style="fill:none;stroke:#cccccf;stroke-width:1px;stroke-linecap:butt;stroke-linejoin:miter;stroke-opacity:1"
       d="m 856.3928,459 55,35"
       id="path6211"
       inkscape:connector-curvature="0" />
    <path
       style="color:#000000;fill:#cccccf;fill-opacity:1;fill-rule:nonzero;stroke:none;stroke-width:1px;marker:none;visibility:visible;display:inline;overflow:visible;enable-background:accumulate"
       id="path6213"
       d="m 910.2366,484.19672 c 0.4843,3.17207 1.7918,6.12426 2.6381,9.19628 0.3447,2.18935 -0.8141,1.72599 -2.425,2.01851 -1.0009,0.30853 -2.7948,0.19191 -3.4984,1.14955 -0.1174,0.15992 -0.1124,0.3806 -0.1686,0.57091 0,0 2.5115,1.61313 2.5115,1.61313 l 0,0 c 0.1205,-1.24929 2.531,-1.1703 3.452,-1.43816 1.6323,-0.2588 3.07,-0.3222 2.6932,-2.43425 -0.8188,-3.06716 -2.1717,-5.99292 -2.651,-9.15553 0,0 -2.5518,-1.52044 -2.5518,-1.52044 z"
       inkscape:connector-curvature="0" />
    <path
       style="fill:#666666;stroke:#666666;stroke-width:1px;stroke-linecap:butt;stroke-linejoin:miter;stroke-opacity:1"
       d="m 843,455 0,43"
       id="path6215"
       inkscape:connector-curvature="0" />
    <path
       style="color:#000000;fill:#666666;fill-opacity:1;fill-rule:nonzero;stroke:none;stroke-width:1px;marker:none;visibility:visible;display:inline;overflow:visible;enable-background:accumulate"
       id="path6217"
       d="m 838.0152,495.5738 c 2.1911,1.49472 4.2732,3.33626 5.7496,5.55842 0.7622,1.25476 1.3526,1.06362 -1.9333,1.90521 -0.2401,0.0615 0.3719,-2.10783 0.4022,-2.20953 1.1615,-2.97316 3.5023,-4.32674 6.0835,-6.04169 0.9494,-0.58051 0.4673,-0.30988 1.4457,-0.81308 0,0 -2.1658,2.03947 -2.1658,2.03947 l 0,0 c -0.9637,0.52032 -0.4839,0.24826 -1.4389,0.81708 0.5446,-0.41582 1.0882,-0.83301 1.6338,-1.24745 0.2405,-0.18262 -0.4955,0.34807 -0.7182,0.55201 -0.9601,0.8795 -1.682,2.07028 -2.259,3.21855 -0.2383,0.71057 -0.3258,0.82852 -0.397,1.54795 -0.02,0.20653 0.1325,0.47343 -0.012,0.6225 -2.3697,2.44643 -2.156,2.8574 -3.0793,1.30557 -1.4278,-2.19829 -3.4963,-4.00853 -5.6672,-5.44567 0,0 2.3558,-1.80934 2.3558,-1.80934 z"
       inkscape:connector-curvature="0" />
    <path
       style="fill:none;stroke:#666666;stroke-width:1.41421354px;stroke-linecap:butt;stroke-linejoin:miter;stroke-opacity:1"
       d="m 825.5,446 c -13.9275,24.2846 -9.9291,42.67133 0,59"
       id="path6219"
       inkscape:connector-curvature="0"
       sodipodi:nodetypes="cc" />
    <path
       inkscape:connector-curvature="0"
       d="m 825.6703,497.16523 c -0.2905,2.87806 -0.7541,5.75524 -0.5005,8.65043 -0.034,-0.16424 0.1153,0.68891 -0.1195,0.69438 -0.1961,0.005 -0.2743,-0.2901 -0.4479,-0.38141 -0.401,-0.21106 -0.6892,-0.28635 -1.1268,-0.43404 -1.6357,-0.2819 -2.7147,0.47173 -3.613,1.77006 -0.6186,0.85325 -0.2842,0.45487 -0.9996,1.19812 0,0 2.4116,1.74362 2.4116,1.74362 l 0,0 c 0.7382,-0.77927 0.3961,-0.36715 1.0263,-1.23638 0.8392,-1.21191 1.8676,-1.84873 3.3726,-1.46345 0.8271,0.31419 2.1534,1.20733 2.0442,-0.36424 -0.3232,-2.87279 0.1567,-5.73674 0.4658,-8.59367 0,0 -2.5132,-1.58342 -2.5132,-1.58342 z"
       id="path6221"
       style="color:#000000;fill:#666666;fill-opacity:1;fill-rule:nonzero;stroke:none;stroke-width:1px;marker:none;visibility:visible;display:inline;overflow:visible;enable-background:accumulate" />
    <path
       sodipodi:nodetypes="cc"
       inkscape:connector-curvature="0"
       id="path6223"
       d="m 946.4682,446 c 13.9275,24.2846 9.9291,42.67133 0,59"
       style="fill:none;stroke:#cccccf;stroke-width:1.41421354px;stroke-linecap:butt;stroke-linejoin:miter;stroke-opacity:1" />
    <path
       style="color:#000000;fill:#cccccf;fill-opacity:1;fill-rule:nonzero;stroke:none;stroke-width:1px;marker:none;visibility:visible;display:inline;overflow:visible;enable-background:accumulate"
       id="path6225"
       d="m 946.2979,497.16523 c 0.2905,2.87806 0.7541,5.75524 0.5005,8.65043 0.034,-0.16424 -0.1153,0.68891 0.1195,0.69438 0.196,0.005 0.2743,-0.2901 0.4479,-0.38141 0.401,-0.21106 0.6892,-0.28635 1.1268,-0.43404 1.6357,-0.2819 2.7147,0.47173 3.613,1.77006 0.6186,0.85325 0.2842,0.45487 0.9996,1.19812 0,0 -2.4116,1.74362 -2.4116,1.74362 l 0,0 c -0.7382,-0.77927 -0.3961,-0.36715 -1.0263,-1.23638 -0.8392,-1.21191 -1.8676,-1.84873 -3.3726,-1.46345 -0.8271,0.31419 -2.1535,1.20733 -2.0442,-0.36424 0.3232,-2.87279 -0.1567,-5.73674 -0.4658,-8.59367 0,0 2.5132,-1.58342 2.5132,-1.58342 z"
       inkscape:connector-curvature="0" />
    <rect
       y="394"
       x="803"
       height="332"
       width="164"
       id="rect6227"
       style="color:#000000;fill:none;stroke:#eeeeee;stroke-width:1;stroke-linecap:butt;stroke-linejoin:miter;stroke-miterlimit:4;stroke-opacity:1;stroke-dasharray:none;stroke-dashoffset:0;marker:none;visibility:visible;display:inline;overflow:visible;enable-background:accumulate" />
    <path
       inkscape:connector-curvature="0"
       d="m 804.1285,358.56827 c 2.8916,1.5736 5.382,3.71871 7.8908,5.82092 1.7611,1.545 3.825,2.24669 6.1045,2.5329 2.5496,-0.0326 4.9237,-1.08297 7.114,-2.30344 1.7262,-0.94176 0.6676,-0.31534 2.2225,-1.3458 0.3147,-0.2086 1.2642,-0.8264 0.9502,-0.6167 -3.176,2.12069 -1.1107,0.56326 -0.3949,-0.33517 1.0101,-1.42262 1.5569,-2.89641 0.2431,-4.26156 -1.5541,-1.04374 -3.3546,-1.02492 -5.1344,-0.79594 -2.2615,0.61504 -4.3075,1.84495 -6.2838,3.0751 -0.3893,0.26877 -1.6392,0.85004 -1.1681,0.80632 0.4914,-0.0456 0.8643,-1.13577 1.2374,-0.81275 0.3648,0.31585 -0.7653,0.58905 -1.1275,0.90788 -1.1911,1.04841 -2.2177,2.23584 -3.2302,3.4513 -2.0046,2.63642 -3.4863,5.64389 -4.5132,8.78461 -0.5461,2.09204 -0.9092,4.28658 -0.6912,6.44934 0.5775,1.9827 2.4076,1.05805 3.7337,0.422 2.0881,-1.3509 4.378,-2.30796 6.6843,-3.21132 2.0328,-0.73439 4.0902,-1.14881 6.2078,-0.63103 1.2475,0.23009 2.1891,1.09006 3.4296,1.28788 0,0 -2.3024,1.88832 -2.3024,1.88832 l 0,0 c -1.207,-0.29256 -2.194,-1.06052 -3.4268,-1.29915 -2.0841,-0.43377 -4.1119,0.0269 -6.0883,0.76289 -2.3001,0.92062 -4.5665,1.90797 -6.6742,3.2241 -1.5741,0.69632 -3.432,1.25382 -4.0808,-0.86308 -0.2597,-2.19515 0.1114,-4.43174 0.6397,-6.56397 1.0061,-3.17146 2.4886,-6.20446 4.4669,-8.88622 2.5515,-3.13659 5.5351,-5.68329 9.0429,-7.75932 2.0009,-1.22167 4.069,-2.46893 6.3792,-2.98794 1.8594,-0.20259 3.7383,-0.13412 5.313,1.00811 1.3728,1.4805 1.0646,3.02249 -0.026,4.62284 -1.9414,2.55294 -4.8228,4.12412 -7.5579,5.7096 -2.2394,1.19975 -4.655,2.23652 -7.2449,2.16917 -2.3194,-0.32703 -4.4137,-1.0927 -6.1999,-2.67086 -2.4896,-2.09294 -4.9578,-4.23802 -7.858,-5.75863 0,0 2.3432,-1.8204 2.3432,-1.8204 z"
       id="path6229"
       style="color:#000000;fill:none;stroke:#666666;stroke-width:1px;marker:none;visibility:visible;display:inline;overflow:visible;enable-background:accumulate" />
    <path
       inkscape:connector-curvature="0"
       d="m 700.9765,358.29403 c -2.5026,-1.68786 -5.2219,-3.14536 -8.2168,-3.67096 -1.3196,-0.17272 -2.5879,0.12614 -3.7726,0.69311 -0.2605,0.12463 -0.9981,0.56919 -0.7762,0.38449 0.5455,-0.454 1.1718,-0.80095 1.7577,-1.20143 -1.3791,0.92399 -2.6502,2.02742 -3.6183,3.38047 -0.7432,1.35284 0.503,1.79121 1.5525,2.3195 1.6669,0.55837 3.3491,1.0798 5.0764,1.42386 1.7526,0.54864 3.4976,1.10101 5.1765,1.84967 2.0056,0.91666 3.4189,2.51831 4.6992,4.25591 1.051,1.60519 1.2525,3.48516 1.3793,5.3503 -5e-4,1.67689 -0.6242,3.18754 -1.1914,4.72723 -1.074,2.18472 -3.2724,3.80125 -5.5057,4.65109 -1.5373,0.48169 -3.0582,0.0406 -4.4995,-0.52717 -1.6562,-0.79644 -3.2393,-1.71011 -4.8106,-2.65767 -1.545,-0.84821 -3.3066,-1.05571 -4.9742,-1.56194 -1.6158,-0.53167 -3.1667,-0.64048 -4.7775,-0.0913 -0.7917,0.8568 -3.4658,1.43475 0.4292,-0.29684 0.238,-0.10584 -0.3599,0.38015 -0.5052,0.59638 -0.3312,0.49282 -0.2705,0.5037 -0.2908,1.01778 0,0 -2.5407,1.56548 -2.5407,1.56548 l 0,0 c -0.1969,-2.5984 3.2234,-3.69992 5.1106,-4.88176 1.6607,-0.46333 3.2557,-0.32052 4.8922,0.22556 1.6869,0.50829 3.4741,0.72024 5.018,1.62221 1.5552,0.94463 3.1319,1.84243 4.7829,2.61378 1.4077,0.53912 2.8806,0.9003 4.3512,0.35488 1.2156,-0.54838 1.3356,-0.66012 -1.0973,1.00033 -0.1944,0.13267 0.3708,-0.29167 0.5373,-0.45804 0.3336,-0.33345 0.6647,-0.67502 0.9378,-1.05957 0.1423,-0.20029 0.235,-0.43147 0.3525,-0.64721 0.5386,-1.51947 1.2175,-2.97429 1.2585,-4.62469 -0.1121,-1.80982 -0.2758,-3.64433 -1.2864,-5.20898 -1.2501,-1.70204 -2.6285,-3.26066 -4.6053,-4.13232 -1.669,-0.72239 -3.3956,-1.28079 -5.1373,-1.80017 -1.7443,-0.36463 -3.4603,-0.87614 -5.1341,-1.48166 -1.1612,-0.60693 -2.5096,-1.21703 -1.823,-2.74447 0.9103,-1.40648 2.1905,-2.53543 3.5692,-3.47626 2.5003,-1.72816 4.5888,-3.49289 7.754,-3.0624 3.0146,0.61456 5.7579,2.06507 8.3003,3.76856 0,0 -2.3724,1.78424 -2.3724,1.78424 z"
       id="path6231"
       style="color:#000000;fill:none;stroke:#666666;stroke-width:1px;marker:none;visibility:visible;display:inline;overflow:visible;enable-background:accumulate" />
    <path
       transform="matrix(0,-1.3333333,1.3333333,0,756.9959,1507.9959)"
       d="m 687,66 a 3,3 0 1 1 -6,0 3,3 0 1 1 6,0 z"
       sodipodi:ry="3"
       sodipodi:rx="3"
       sodipodi:cy="66"
       sodipodi:cx="684"
       id="path6233"
       style="color:#000000;fill:#666666;stroke:none;stroke-width:1;marker:none;visibility:visible;display:inline;overflow:visible;enable-background:accumulate"
       sodipodi:type="arc" />
    <path
       sodipodi:nodetypes="cc"
       inkscape:connector-curvature="0"
       id="path6235"
       d="m 856.9959,607.49589 c 24.2846,13.92752 42.6713,9.92915 59,0"
       style="fill:none;stroke:#d9bb7a;stroke-width:1.41421354px;stroke-linecap:butt;stroke-linejoin:miter;stroke-opacity:1" />
    <path
       sodipodi:type="arc"
       style="color:#000000;fill:#d9bb7a;stroke:none;stroke-width:1;marker:none;visibility:visible;display:inline;overflow:visible;enable-background:accumulate"
       id="path6237"
       sodipodi:cx="684"
       sodipodi:cy="66"
       sodipodi:rx="3"
       sodipodi:ry="3"
       d="m 687,66 a 3,3 0 1 1 -6,0 3,3 0 1 1 6,0 z"
       transform="matrix(0,-1.3333333,1.3333333,0,840.9959,1507.9959)" />
    <path
       style="fill:none;stroke:#d9bb7a;stroke-width:1.41421354px;stroke-linecap:butt;stroke-linejoin:miter;stroke-opacity:1"
       d="m 856.9959,584.50411 c 24.2846,-13.92752 42.6713,-9.92915 59,0"
       id="path6239"
       inkscape:connector-curvature="0"
       sodipodi:nodetypes="cc" />
    <path
       inkscape:connector-curvature="0"
       d="m 865.4023,585.61966 c -2.8781,-0.2905 -5.7553,-0.75411 -8.6504,-0.5005 0.1642,-0.0338 -0.689,0.11529 -0.6944,-0.11951 0,-0.19604 0.2901,-0.27433 0.3814,-0.44786 0.211,-0.40108 0.2863,-0.68924 0.434,-1.12679 0.2819,-1.63573 -0.4717,-2.71476 -1.77,-3.61303 -0.8533,-0.61863 -0.4549,-0.28424 -1.1982,-0.9996 0,0 -1.7436,2.41163 -1.7436,2.41163 l 0,0 c 0.7793,0.73819 0.3672,0.39609 1.2364,1.02629 1.2119,0.83921 1.8487,1.86754 1.4635,3.37254 -0.3142,0.82708 -1.2074,2.15348 0.3642,2.04427 2.8728,-0.32327 5.7367,0.1567 8.5937,0.46578 0,0 1.5834,-2.51322 1.5834,-2.51322 z"
       id="path6241"
       style="color:#000000;fill:#d9bb7a;fill-opacity:1;fill-rule:nonzero;stroke:none;stroke-width:1px;marker:none;visibility:visible;display:inline;overflow:visible;enable-background:accumulate" />
    <path
       style="color:#000000;fill:#d9bb7a;fill-opacity:1;fill-rule:nonzero;stroke:none;stroke-width:1px;marker:none;visibility:visible;display:inline;overflow:visible;enable-background:accumulate"
       id="path6243"
       d="m 908.1611,607.32559 c 2.8781,0.2905 5.7553,0.75411 8.6504,0.5005 -0.1642,0.0338 0.689,-0.11529 0.6944,0.11951 0,0.19604 -0.2901,0.27433 -0.3814,0.44786 -0.211,0.40108 -0.2863,0.68924 -0.434,1.12679 -0.2819,1.63573 0.4717,2.71476 1.77,3.61303 0.8533,0.61863 0.4549,0.28424 1.1982,0.9996 0,0 1.7436,-2.41163 1.7436,-2.41163 l 0,0 c -0.7793,-0.73819 -0.3672,-0.39609 -1.2364,-1.02629 -1.2119,-0.83921 -1.8487,-1.86754 -1.4634,-3.37254 0.3141,-0.82708 1.2073,-2.15348 -0.3643,-2.04427 -2.8728,0.32327 -5.7367,-0.1567 -8.5937,-0.46578 0,0 -1.5834,2.51322 -1.5834,2.51322 z"
       inkscape:connector-curvature="0" />
    <g
       id="g6245"
       style="fill:#d9bb7a"
       transform="translate(98,444)">
      <path
         inkscape:connector-curvature="0"
         d="m 783.08639,156.03535 c 3.95061,0.0165 7.90126,0.0118 11.85188,0.0106 2.43548,-0.002 1.24773,-8.6e-4 3.56326,-0.003 0,0 -2.24184,1.91472 -2.24184,1.91472 l 0,0 c -2.31014,-0.002 -1.12498,-0.001 -3.5555,-0.003 -3.9589,-0.001 -7.91783,-0.006 -11.87671,0.0106 0,0 2.25891,-1.9293 2.25891,-1.9293 z"
         id="path6247"
         style="color:#000000;fill:#d9bb7a;fill-opacity:1;fill-rule:nonzero;stroke:none;stroke-width:1px;marker:none;visibility:visible;display:inline;overflow:visible;enable-background:accumulate" />
      <path
         style="color:#000000;fill:#d9bb7a;fill-opacity:1;fill-rule:nonzero;stroke:none;stroke-width:1px;marker:none;visibility:visible;display:inline;overflow:visible;enable-background:accumulate"
         id="path6249"
         d="m 783.08639,152.03535 c 3.95061,0.0165 7.90126,0.0118 11.85188,0.0106 2.43548,-0.002 1.24773,-8.6e-4 3.56326,-0.003 0,0 -2.24184,1.91472 -2.24184,1.91472 l 0,0 c -2.31014,-0.002 -1.12498,-0.001 -3.5555,-0.003 -3.9589,-0.001 -7.91783,-0.006 -11.87671,0.0106 0,0 2.25891,-1.9293 2.25891,-1.9293 z"
         inkscape:connector-curvature="0" />
      <path
         inkscape:connector-curvature="0"
         d="m 781.84816,149.89372 c 1.26265,-0.96421 2.45507,-2.0646 3.82706,-2.84835 0.49563,-0.26468 1.03762,-0.32925 1.58222,-0.35496 0.45917,-0.0352 0.89695,-0.01 1.32594,0.17474 0.36304,0.23095 0.70034,0.47563 1.0087,0.78535 0.331,0.26244 0.59292,0.614 0.94339,0.84718 0.27085,0.25159 0.61464,0.36229 0.93904,0.50969 0.37408,0.14719 0.77509,0.16487 1.16905,0.18232 0.44235,0.0263 0.87066,0.0266 1.30178,-0.0812 0.39851,-0.0345 0.73516,-0.23812 1.09215,-0.40752 0.0641,-0.0384 0.12982,-0.0739 0.19246,-0.11507 0.0684,-0.0449 0.13358,-0.0953 0.20037,-0.14289 0.0723,-0.0438 0.28426,-0.18296 0.21664,-0.13142 -3.71026,2.82785 -0.56856,0.22079 0.57193,-0.39393 0.67755,-0.48002 1.6886,-1.22058 -1.40058,1.0552 -0.0487,0.0359 0.0949,-0.0756 0.14201,-0.1139 0.15739,-0.12819 0.11067,-0.0893 0.26077,-0.22938 0.67345,-0.50162 1.34691,-1.00324 2.02037,-1.50486 -0.58089,0.43239 -2.32333,1.72987 -1.74265,1.29717 0.72011,-0.53658 1.35162,-1.2748 2.18315,-1.57399 0.3152,-0.11342 0.0544,0.0186 0.33475,-0.13953 0.37703,-0.1627 0.75159,-0.31949 1.15048,-0.41103 0.0753,-0.0125 0.15076,-0.0249 0.22613,-0.0374 0,0 -1.7298,1.64123 -1.7298,1.64123 l 0,0 c -0.0723,0.0163 -0.14464,0.0327 -0.21696,0.049 -0.38585,0.11555 -0.75821,0.2765 -1.12508,0.44828 -0.0867,0.036 -0.24676,0.0999 -0.33008,0.14518 -0.0507,0.0276 -0.19333,0.12814 -0.14704,0.0927 0.57532,-0.43998 2.31998,-1.73131 1.7346,-1.30683 -0.71315,0.51713 -4.302,3.24543 -0.28317,0.19625 -0.53501,0.43397 0.27526,-0.23509 -0.25503,0.24385 -0.76995,0.69538 -1.63805,1.28478 -2.501,1.84988 -0.0608,0.0401 -0.24052,0.16479 -0.18237,0.1204 0.55833,-0.4262 2.25362,-1.67361 1.68328,-1.26608 -0.88312,0.63101 -1.727,1.40897 -2.69643,1.91464 -0.36174,0.17878 -0.7312,0.30998 -1.12812,0.36624 -0.4428,0.0791 -0.8907,0.05 -1.33772,0.033 -0.4164,-0.028 -0.83669,-0.0685 -1.22444,-0.24753 -0.33439,-0.15719 -0.68387,-0.28255 -0.96345,-0.54544 -0.34634,-0.26037 -0.62845,-0.6025 -0.96227,-0.88078 -0.28973,-0.27956 -0.607,-0.51285 -0.95387,-0.70519 -0.41351,-0.13574 -0.83451,-0.13444 -1.26392,-0.10044 -0.52587,0.0432 -1.03988,0.14407 -1.50434,0.42941 -0.82892,0.52247 -0.43018,0.28315 1.23727,-0.97658 0.11437,-0.0864 -0.22706,0.17532 -0.34101,0.26237 -0.60545,0.46257 -0.10158,0.0653 -0.68888,0.5486 -0.0963,0.0793 -0.19386,0.15673 -0.29079,0.2351 0,0 -2.07454,1.08649 -2.07454,1.08649 z"
         id="path6251"
         style="color:#000000;fill:#d9bb7a;fill-opacity:1;fill-rule:nonzero;stroke:none;stroke-width:1px;marker:none;visibility:visible;display:inline;overflow:visible;enable-background:accumulate" />
    </g>
    <path
       sodipodi:type="arc"
       style="color:#000000;fill:#666666;stroke:none;stroke-width:1;marker:none;visibility:visible;display:inline;overflow:visible;enable-background:accumulate"
       id="path6253"
       sodipodi:cx="684"
       sodipodi:cy="66"
       sodipodi:rx="3"
       sodipodi:ry="3"
       d="m 687,66 a 3,3 0 1 1 -6,0 3,3 0 1 1 6,0 z"
       transform="matrix(0,-1.3333333,1.3333333,0,756.9959,1607.9959)" />
    <path
       style="fill:none;stroke:#d9bb7a;stroke-width:1.41421354px;stroke-linecap:butt;stroke-linejoin:miter;stroke-opacity:1"
       d="m 856.9959,707.49589 c 24.2846,13.92752 42.6713,9.92915 59,0"
       id="path6255"
       inkscape:connector-curvature="0"
       sodipodi:nodetypes="cc" />
    <path
       transform="matrix(0,-1.3333333,1.3333333,0,840.9959,1607.9959)"
       d="m 687,66 a 3,3 0 1 1 -6,0 3,3 0 1 1 6,0 z"
       sodipodi:ry="3"
       sodipodi:rx="3"
       sodipodi:cy="66"
       sodipodi:cx="684"
       id="path6257"
       style="color:#000000;fill:#d9bb7a;stroke:none;stroke-width:1;marker:none;visibility:visible;display:inline;overflow:visible;enable-background:accumulate"
       sodipodi:type="arc" />
    <path
       sodipodi:nodetypes="cc"
       inkscape:connector-curvature="0"
       id="path6259"
       d="m 856.9959,684.50411 c 24.2846,-13.92752 42.6713,-9.92915 59,0"
       style="fill:none;stroke:#d9bb7a;stroke-width:1.41421354px;stroke-linecap:butt;stroke-linejoin:miter;stroke-opacity:1" />
    <path
       style="color:#000000;fill:#d9bb7a;fill-opacity:1;fill-rule:nonzero;stroke:none;stroke-width:1px;marker:none;visibility:visible;display:inline;overflow:visible;enable-background:accumulate"
       id="path6261"
       d="m 865.4023,685.61966 c -2.8781,-0.2905 -5.7553,-0.75411 -8.6504,-0.5005 0.1642,-0.0338 -0.689,0.11529 -0.6944,-0.11951 0,-0.19604 0.2901,-0.27433 0.3814,-0.44786 0.211,-0.40108 0.2863,-0.68924 0.434,-1.12679 0.2819,-1.63573 -0.4717,-2.71476 -1.77,-3.61303 -0.8533,-0.61863 -0.4549,-0.28424 -1.1982,-0.9996 0,0 -1.7436,2.41163 -1.7436,2.41163 l 0,0 c 0.7793,0.73819 0.3672,0.39609 1.2364,1.02629 1.2119,0.83921 1.8487,1.86754 1.4635,3.37254 -0.3142,0.82708 -1.2074,2.15348 0.3642,2.04427 2.8728,-0.32327 5.7367,0.1567 8.5937,0.46578 0,0 1.5834,-2.51322 1.5834,-2.51322 z"
       inkscape:connector-curvature="0" />
    <path
       inkscape:connector-curvature="0"
       d="m 908.1611,707.32559 c 2.8781,0.2905 5.7553,0.75411 8.6504,0.5005 -0.1642,0.0338 0.689,-0.11529 0.6944,0.11951 0,0.19604 -0.2901,0.27433 -0.3814,0.44786 -0.211,0.40108 -0.2863,0.68924 -0.434,1.12679 -0.2819,1.63573 0.4717,2.71476 1.77,3.61303 0.8533,0.61863 0.4549,0.28424 1.1982,0.9996 0,0 1.7436,-2.41163 1.7436,-2.41163 l 0,0 c -0.7793,-0.73819 -0.3672,-0.39609 -1.2364,-1.02629 -1.2119,-0.83921 -1.8487,-1.86754 -1.4634,-3.37254 0.3141,-0.82708 1.2073,-2.15348 -0.3643,-2.04427 -2.8728,0.32327 -5.7367,-0.1567 -8.5937,-0.46578 0,0 -1.5834,2.51322 -1.5834,2.51322 z"
       id="path6263"
       style="color:#000000;fill:#d9bb7a;fill-opacity:1;fill-rule:nonzero;stroke:none;stroke-width:1px;marker:none;visibility:visible;display:inline;overflow:visible;enable-background:accumulate" />
    <g
       transform="translate(98,544)"
       style="fill:#d9bb7a"
       id="g6265">
      <path
         style="color:#000000;fill:#d9bb7a;fill-opacity:1;fill-rule:nonzero;stroke:none;stroke-width:1px;marker:none;visibility:visible;display:inline;overflow:visible;enable-background:accumulate"
         id="path6267"
         d="m 783.08639,156.03535 c 3.95061,0.0165 7.90126,0.0118 11.85188,0.0106 2.43548,-0.002 1.24773,-8.6e-4 3.56326,-0.003 0,0 -2.24184,1.91472 -2.24184,1.91472 l 0,0 c -2.31014,-0.002 -1.12498,-0.001 -3.5555,-0.003 -3.9589,-0.001 -7.91783,-0.006 -11.87671,0.0106 0,0 2.25891,-1.9293 2.25891,-1.9293 z"
         inkscape:connector-curvature="0" />
      <path
         inkscape:connector-curvature="0"
         d="m 783.08639,152.03535 c 3.95061,0.0165 7.90126,0.0118 11.85188,0.0106 2.43548,-0.002 1.24773,-8.6e-4 3.56326,-0.003 0,0 -2.24184,1.91472 -2.24184,1.91472 l 0,0 c -2.31014,-0.002 -1.12498,-0.001 -3.5555,-0.003 -3.9589,-0.001 -7.91783,-0.006 -11.87671,0.0106 0,0 2.25891,-1.9293 2.25891,-1.9293 z"
         id="path6269"
         style="color:#000000;fill:#d9bb7a;fill-opacity:1;fill-rule:nonzero;stroke:none;stroke-width:1px;marker:none;visibility:visible;display:inline;overflow:visible;enable-background:accumulate" />
      <path
         style="color:#000000;fill:#d9bb7a;fill-opacity:1;fill-rule:nonzero;stroke:none;stroke-width:1px;marker:none;visibility:visible;display:inline;overflow:visible;enable-background:accumulate"
         id="path6271"
         d="m 781.84816,149.89372 c 1.26265,-0.96421 2.45507,-2.0646 3.82706,-2.84835 0.49563,-0.26468 1.03762,-0.32925 1.58222,-0.35496 0.45917,-0.0352 0.89695,-0.01 1.32594,0.17474 0.36304,0.23095 0.70034,0.47563 1.0087,0.78535 0.331,0.26244 0.59292,0.614 0.94339,0.84718 0.27085,0.25159 0.61464,0.36229 0.93904,0.50969 0.37408,0.14719 0.77509,0.16487 1.16905,0.18232 0.44235,0.0263 0.87066,0.0266 1.30178,-0.0812 0.39851,-0.0345 0.73516,-0.23812 1.09215,-0.40752 0.0641,-0.0384 0.12982,-0.0739 0.19246,-0.11507 0.0684,-0.0449 0.13358,-0.0953 0.20037,-0.14289 0.0723,-0.0438 0.28426,-0.18296 0.21664,-0.13142 -3.71026,2.82785 -0.56856,0.22079 0.57193,-0.39393 0.67755,-0.48002 1.6886,-1.22058 -1.40058,1.0552 -0.0487,0.0359 0.0949,-0.0756 0.14201,-0.1139 0.15739,-0.12819 0.11067,-0.0893 0.26077,-0.22938 0.67345,-0.50162 1.34691,-1.00324 2.02037,-1.50486 -0.58089,0.43239 -2.32333,1.72987 -1.74265,1.29717 0.72011,-0.53658 1.35162,-1.2748 2.18315,-1.57399 0.3152,-0.11342 0.0544,0.0186 0.33475,-0.13953 0.37703,-0.1627 0.75159,-0.31949 1.15048,-0.41103 0.0753,-0.0125 0.15076,-0.0249 0.22613,-0.0374 0,0 -1.7298,1.64123 -1.7298,1.64123 l 0,0 c -0.0723,0.0163 -0.14464,0.0327 -0.21696,0.049 -0.38585,0.11555 -0.75821,0.2765 -1.12508,0.44828 -0.0867,0.036 -0.24676,0.0999 -0.33008,0.14518 -0.0507,0.0276 -0.19333,0.12814 -0.14704,0.0927 0.57532,-0.43998 2.31998,-1.73131 1.7346,-1.30683 -0.71315,0.51713 -4.302,3.24543 -0.28317,0.19625 -0.53501,0.43397 0.27526,-0.23509 -0.25503,0.24385 -0.76995,0.69538 -1.63805,1.28478 -2.501,1.84988 -0.0608,0.0401 -0.24052,0.16479 -0.18237,0.1204 0.55833,-0.4262 2.25362,-1.67361 1.68328,-1.26608 -0.88312,0.63101 -1.727,1.40897 -2.69643,1.91464 -0.36174,0.17878 -0.7312,0.30998 -1.12812,0.36624 -0.4428,0.0791 -0.8907,0.05 -1.33772,0.033 -0.4164,-0.028 -0.83669,-0.0685 -1.22444,-0.24753 -0.33439,-0.15719 -0.68387,-0.28255 -0.96345,-0.54544 -0.34634,-0.26037 -0.62845,-0.6025 -0.96227,-0.88078 -0.28973,-0.27956 -0.607,-0.51285 -0.95387,-0.70519 -0.41351,-0.13574 -0.83451,-0.13444 -1.26392,-0.10044 -0.52587,0.0432 -1.03988,0.14407 -1.50434,0.42941 -0.82892,0.52247 -0.43018,0.28315 1.23727,-0.97658 0.11437,-0.0864 -0.22706,0.17532 -0.34101,0.26237 -0.60545,0.46257 -0.10158,0.0653 -0.68888,0.5486 -0.0963,0.0793 -0.19386,0.15673 -0.29079,0.2351 0,0 -2.07454,1.08649 -2.07454,1.08649 z"
         inkscape:connector-curvature="0" />
    </g>
    <path
       style="fill:none;stroke:#cccccf;stroke-width:1px;stroke-linecap:butt;stroke-linejoin:miter;stroke-opacity:1"
       d="m 929,625 0,43"
       id="path6273"
       inkscape:connector-curvature="0" />
    <path
       style="color:#000000;fill:#cccccf;fill-opacity:1;fill-rule:nonzero;stroke:none;stroke-width:1px;marker:none;visibility:visible;display:inline;overflow:visible;enable-background:accumulate"
       id="path6275"
       d="m 924.0152,665.5738 c 2.1911,1.49472 4.2732,3.33626 5.7496,5.55842 0.7622,1.25476 1.3526,1.06362 -1.9333,1.90521 -0.2401,0.0615 0.3719,-2.10783 0.4022,-2.20953 1.1615,-2.97316 3.5023,-4.32674 6.0835,-6.04169 0.9494,-0.58051 0.4673,-0.30988 1.4457,-0.81308 0,0 -2.1658,2.03947 -2.1658,2.03947 l 0,0 c -0.9637,0.52032 -0.4839,0.24826 -1.4389,0.81708 0.5446,-0.41582 1.0882,-0.83301 1.6338,-1.24745 0.2405,-0.18262 -0.4955,0.34807 -0.7182,0.55201 -0.9601,0.8795 -1.682,2.07028 -2.259,3.21855 -0.2383,0.71057 -0.3258,0.82852 -0.397,1.54795 -0.02,0.20653 0.1325,0.47343 -0.012,0.6225 -2.3697,2.44643 -2.156,2.8574 -3.0793,1.30557 -1.4278,-2.19829 -3.4963,-4.00853 -5.6672,-5.44567 0,0 2.3558,-1.80934 2.3558,-1.80934 z"
       inkscape:connector-curvature="0" />
    <path
       style="fill:none;stroke:#cccccf;stroke-width:1px;stroke-linecap:butt;stroke-linejoin:miter;stroke-opacity:1"
       d="m 915,629 -55,35"
       id="path6277"
       inkscape:connector-curvature="0" />
    <path
       style="color:#000000;fill:#cccccf;fill-opacity:1;fill-rule:nonzero;stroke:none;stroke-width:1px;marker:none;visibility:visible;display:inline;overflow:visible;enable-background:accumulate"
       id="path6279"
       d="m 861.1563,654.19672 c -0.4844,3.17207 -1.7918,6.12426 -2.6381,9.19628 -0.3448,2.18935 0.8141,1.72599 2.425,2.01851 1.0008,0.30853 2.7947,0.19191 3.4983,1.14955 0.1175,0.15992 0.1125,0.3806 0.1687,0.57091 0,0 -2.5115,1.61313 -2.5115,1.61313 l 0,0 c -0.1206,-1.24929 -2.531,-1.1703 -3.4521,-1.43816 -1.6322,-0.2588 -3.0699,-0.3222 -2.6931,-2.43425 0.8187,-3.06716 2.1716,-5.99292 2.651,-9.15553 0,0 2.5518,-1.52044 2.5518,-1.52044 z"
       inkscape:connector-curvature="0" />
    <path
       inkscape:connector-curvature="0"
       id="path6281"
       d="m 856.3928,629 55,35"
       style="fill:none;stroke:#cccccf;stroke-width:1px;stroke-linecap:butt;stroke-linejoin:miter;stroke-opacity:1" />
    <path
       inkscape:connector-curvature="0"
       d="m 910.2366,654.19672 c 0.4843,3.17207 1.7918,6.12426 2.6381,9.19628 0.3447,2.18935 -0.8141,1.72599 -2.425,2.01851 -1.0009,0.30853 -2.7948,0.19191 -3.4984,1.14955 -0.1174,0.15992 -0.1124,0.3806 -0.1686,0.57091 0,0 2.5115,1.61313 2.5115,1.61313 l 0,0 c 0.1205,-1.24929 2.531,-1.1703 3.452,-1.43816 1.6323,-0.2588 3.07,-0.3222 2.6932,-2.43425 -0.8188,-3.06716 -2.1717,-5.99292 -2.651,-9.15553 0,0 -2.5518,-1.52044 -2.5518,-1.52044 z"
       id="path6283"
       style="color:#000000;fill:#cccccf;fill-opacity:1;fill-rule:nonzero;stroke:none;stroke-width:1px;marker:none;visibility:visible;display:inline;overflow:visible;enable-background:accumulate" />
    <path
       inkscape:connector-curvature="0"
       id="path6285"
       d="m 843,625 0,43"
       style="fill:#666666;stroke:#666666;stroke-width:1px;stroke-linecap:butt;stroke-linejoin:miter;stroke-opacity:1" />
    <path
       inkscape:connector-curvature="0"
       d="m 838.0152,665.5738 c 2.1911,1.49472 4.2732,3.33626 5.7496,5.55842 0.7622,1.25476 1.3526,1.06362 -1.9333,1.90521 -0.2401,0.0615 0.3719,-2.10783 0.4022,-2.20953 1.1615,-2.97316 3.5023,-4.32674 6.0835,-6.04169 0.9494,-0.58051 0.4673,-0.30988 1.4457,-0.81308 0,0 -2.1658,2.03947 -2.1658,2.03947 l 0,0 c -0.9637,0.52032 -0.4839,0.24826 -1.4389,0.81708 0.5446,-0.41582 1.0882,-0.83301 1.6338,-1.24745 0.2405,-0.18262 -0.4955,0.34807 -0.7182,0.55201 -0.9601,0.8795 -1.682,2.07028 -2.259,3.21855 -0.2383,0.71057 -0.3258,0.82852 -0.397,1.54795 -0.02,0.20653 0.1325,0.47343 -0.012,0.6225 -2.3697,2.44643 -2.156,2.8574 -3.0793,1.30557 -1.4278,-2.19829 -3.4963,-4.00853 -5.6672,-5.44567 0,0 2.3558,-1.80934 2.3558,-1.80934 z"
       id="path6287"
       style="color:#000000;fill:#666666;fill-opacity:1;fill-rule:nonzero;stroke:none;stroke-width:1px;marker:none;visibility:visible;display:inline;overflow:visible;enable-background:accumulate" />
    <path
       sodipodi:nodetypes="cc"
       inkscape:connector-curvature="0"
       id="path6289"
       d="m 825.5,616 c -13.9275,24.2846 -9.9291,42.67133 0,59"
       style="fill:none;stroke:#666666;stroke-width:1.41421354px;stroke-linecap:butt;stroke-linejoin:miter;stroke-opacity:1" />
    <path
       style="color:#000000;fill:#666666;fill-opacity:1;fill-rule:nonzero;stroke:none;stroke-width:1px;marker:none;visibility:visible;display:inline;overflow:visible;enable-background:accumulate"
       id="path6291"
       d="m 825.6703,667.16523 c -0.2905,2.87806 -0.7541,5.75524 -0.5005,8.65043 -0.034,-0.16424 0.1153,0.68891 -0.1195,0.69438 -0.1961,0.005 -0.2743,-0.2901 -0.4479,-0.38141 -0.401,-0.21106 -0.6892,-0.28635 -1.1268,-0.43404 -1.6357,-0.2819 -2.7147,0.47173 -3.613,1.77006 -0.6186,0.85325 -0.2842,0.45487 -0.9996,1.19812 0,0 2.4116,1.74362 2.4116,1.74362 l 0,0 c 0.7382,-0.77927 0.3961,-0.36715 1.0263,-1.23638 0.8392,-1.21191 1.8676,-1.84873 3.3726,-1.46345 0.8271,0.31419 2.1534,1.20733 2.0442,-0.36424 -0.3232,-2.87279 0.1567,-5.73674 0.4658,-8.59367 0,0 -2.5132,-1.58342 -2.5132,-1.58342 z"
       inkscape:connector-curvature="0" />
    <path
       style="fill:none;stroke:#cccccf;stroke-width:1.41421354px;stroke-linecap:butt;stroke-linejoin:miter;stroke-opacity:1"
       d="m 946.4682,616 c 13.9275,24.2846 9.9291,42.67133 0,59"
       id="path6293"
       inkscape:connector-curvature="0"
       sodipodi:nodetypes="cc" />
    <path
       inkscape:connector-curvature="0"
       d="m 946.2979,667.16523 c 0.2905,2.87806 0.7541,5.75524 0.5005,8.65043 0.034,-0.16424 -0.1153,0.68891 0.1195,0.69438 0.196,0.005 0.2743,-0.2901 0.4479,-0.38141 0.401,-0.21106 0.6892,-0.28635 1.1268,-0.43404 1.6357,-0.2819 2.7147,0.47173 3.613,1.77006 0.6186,0.85325 0.2842,0.45487 0.9996,1.19812 0,0 -2.4116,1.74362 -2.4116,1.74362 l 0,0 c -0.7382,-0.77927 -0.3961,-0.36715 -1.0263,-1.23638 -0.8392,-1.21191 -1.8676,-1.84873 -3.3726,-1.46345 -0.8271,0.31419 -2.1535,1.20733 -2.0442,-0.36424 0.3232,-2.87279 -0.1567,-5.73674 -0.4658,-8.59367 0,0 2.5132,-1.58342 2.5132,-1.58342 z"
       id="path6295"
       style="color:#000000;fill:#cccccf;fill-opacity:1;fill-rule:nonzero;stroke:none;stroke-width:1px;marker:none;visibility:visible;display:inline;overflow:visible;enable-background:accumulate" />
    <path
       inkscape:connector-curvature="0"
       d="m 450.06624,277.77273 c 1.92329,-4.7873 5.2222,-8.85207 9.19706,-12.10971 1.23937,-1.01573 2.5765,-1.90595 3.86475,-2.85893 12.35133,-8.82374 27.03466,-12.33718 41.65784,-15.31751 16.64425,-2.99205 33.56536,-3.76173 50.43447,-4.26859 7.37512,-0.18711 14.7526,-0.24018 22.12979,-0.24134 0,0 -2.22404,1.89812 -2.22404,1.89812 l 0,0 c -7.33786,-0.0545 -14.67652,-0.0139 -22.01286,0.15353 -16.85075,0.47862 -33.75393,1.25073 -50.37341,4.2786 -12.87867,2.65611 -25.48673,5.71819 -37.05042,12.24054 -5.70714,4.17297 -10.35716,8.03076 -13.03796,14.76595 0,0 -2.58522,1.45934 -2.58522,1.45934 z"
       id="path6297"
       style="color:#000000;fill:#cccccf;fill-opacity:1;fill-rule:nonzero;stroke:none;stroke-width:1px;marker:none;visibility:visible;display:inline;overflow:visible;enable-background:accumulate" />
    <path
       inkscape:connector-curvature="0"
       d="m 576.37623,235.16523 c 0.50262,2.68715 1.20287,5.45576 3.11515,7.48828 3.59554,1.44829 -1.02904,2.32667 -2.70477,2.92779 -0.27117,0.14041 -1.05113,0.61303 -0.8135,0.42125 0.4689,-0.37845 0.92944,-0.84271 1.51448,-0.987 0.41363,-0.10201 -0.6523,0.54957 -0.95527,0.84908 -0.99021,0.97889 -1.71257,2.09467 -2.4265,3.27888 -1.01712,1.91128 -1.32403,3.99236 -1.45551,6.11892 0,0 -2.52097,1.52599 -2.52097,1.52599 l 0,0 c 0.10284,-2.15973 0.39072,-4.27548 1.3765,-6.23672 1.76262,-3.03952 4.15447,-5.54954 7.48272,-6.97315 1.08441,-0.31262 1.48374,-0.44339 1.36401,-0.2716 -1.66833,2.39375 -1.65037,2.18544 -3.26766,1.0817 -1.93206,-2.09978 -2.67195,-4.89212 -3.2219,-7.64 0,0 2.51322,-1.58342 2.51322,-1.58342 z"
       id="path6299"
       style="color:#000000;fill:#cccccf;fill-opacity:1;fill-rule:nonzero;stroke:none;stroke-width:1px;marker:none;visibility:visible;display:inline;overflow:visible;enable-background:accumulate" />
    <path
       transform="matrix(0,-1.3333333,1.3333333,0,496.9959,1337.9959)"
       d="m 687,66 a 3,3 0 1 1 -6,0 3,3 0 1 1 6,0 z"
       sodipodi:ry="3"
       sodipodi:rx="3"
       sodipodi:cy="66"
       sodipodi:cx="684"
       id="path6393"
       style="color:#000000;fill:#666666;stroke:none;stroke-width:1;marker:none;visibility:visible;display:inline;overflow:visible;enable-background:accumulate"
       sodipodi:type="arc" />
    <path
       sodipodi:type="arc"
       style="color:#000000;fill:#666666;stroke:none;stroke-width:1;marker:none;visibility:visible;display:inline;overflow:visible;enable-background:accumulate"
       id="path6413"
       sodipodi:cx="684"
       sodipodi:cy="66"
       sodipodi:rx="3"
       sodipodi:ry="3"
       d="m 687,66 a 3,3 0 1 1 -6,0 3,3 0 1 1 6,0 z"
       transform="matrix(0,-1.3333333,1.3333333,0,496.9959,1437.9959)" />
    <path
       inkscape:connector-curvature="0"
       id="path6445"
       d="m 583,455 0,43"
       style="fill:#666666;stroke:#666666;stroke-width:1px;stroke-linecap:butt;stroke-linejoin:miter;stroke-opacity:1" />
    <path
       inkscape:connector-curvature="0"
       d="m 578.0152,495.5738 c 2.1911,1.49472 4.2732,3.33626 5.7496,5.55842 0.7622,1.25476 1.3526,1.06362 -1.9333,1.90521 -0.2401,0.0615 0.3719,-2.10783 0.4022,-2.20953 1.1615,-2.97316 3.5023,-4.32674 6.0835,-6.04169 0.9494,-0.58051 0.4673,-0.30988 1.4457,-0.81308 0,0 -2.1658,2.03947 -2.1658,2.03947 l 0,0 c -0.9637,0.52032 -0.4839,0.24826 -1.4389,0.81708 0.5446,-0.41582 1.0882,-0.83301 1.6338,-1.24745 0.2405,-0.18262 -0.4955,0.34807 -0.7182,0.55201 -0.9601,0.8795 -1.682,2.07028 -2.259,3.21855 -0.2383,0.71057 -0.3258,0.82852 -0.397,1.54795 -0.02,0.20653 0.1325,0.47343 -0.012,0.6225 -2.3697,2.44643 -2.156,2.8574 -3.0793,1.30557 -1.4278,-2.19829 -3.4963,-4.00853 -5.6672,-5.44567 0,0 2.3558,-1.80934 2.3558,-1.80934 z"
       id="path6447"
       style="color:#000000;fill:#666666;fill-opacity:1;fill-rule:nonzero;stroke:none;stroke-width:1px;marker:none;visibility:visible;display:inline;overflow:visible;enable-background:accumulate" />
    <rect
       style="color:#000000;fill:none;stroke:#eeeeee;stroke-width:1;stroke-linecap:butt;stroke-linejoin:miter;stroke-miterlimit:4;stroke-opacity:1;stroke-dasharray:none;stroke-dashoffset:0;marker:none;visibility:visible;display:inline;overflow:visible;enable-background:accumulate"
       id="rect6457"
       width="164"
       height="332"
       x="543"
       y="394" />
    <path
       sodipodi:type="arc"
       style="color:#000000;fill:#666666;stroke:none;stroke-width:1;marker:none;visibility:visible;display:inline;overflow:visible;enable-background:accumulate"
       id="path6459"
       sodipodi:cx="684"
       sodipodi:cy="66"
       sodipodi:rx="3"
       sodipodi:ry="3"
       d="m 687,66 a 3,3 0 1 1 -6,0 3,3 0 1 1 6,0 z"
       transform="matrix(0,-1.3333333,1.3333333,0,496.9959,1507.9959)" />
    <path
       style="color:#000000;fill:#339900;fill-opacity:1;fill-rule:nonzero;stroke:none;stroke-width:1px;marker:none;visibility:visible;display:inline;overflow:visible;enable-background:accumulate"
       id="path6525"
       d="m 737.94967,363.36272 c -2.30057,0.62048 -4.36309,1.74971 -6.39234,2.9652 -0.28355,0.16984 1.0498,-0.76215 0.86195,-0.49019 -0.35018,0.50696 -0.91729,0.82287 -1.37594,1.23431 -1.80733,1.96269 -3.65031,4.02037 -3.13395,6.84779 2.73012,3.39369 8.92615,3.36215 12.89952,3.70313 8.02228,0.34735 16.02865,-0.42544 24.02546,-0.9503 4.39342,-0.34745 8.76744,-0.61563 13.15573,-0.15047 1.28489,0.17476 2.49881,0.41211 3.73305,-0.0516 0,0 -2.20431,2.00229 -2.20431,2.00229 l 0,0 c -1.27095,0.3296 -2.51032,0.12888 -3.79945,-0.0523 -4.35794,-0.45886 -8.70518,-0.18106 -13.0686,0.14163 -8.00728,0.51357 -16.02471,1.28118 -24.05627,0.91942 -3.65061,-0.31422 -9.47336,-0.35097 -12.39596,-2.97506 -0.31315,-0.28116 -0.52487,-0.658 -0.78731,-0.98701 -0.081,-0.37297 -0.22997,-0.73747 -0.24296,-1.11891 -0.079,-2.31948 1.87018,-4.39352 3.24622,-6.00506 3.40949,-3.1338 7.27198,-5.69239 11.72195,-7.0406 0,0 -2.18679,2.00773 -2.18679,2.00773 z"
       inkscape:connector-curvature="0" />
    <path
       style="color:#000000;fill:#339900;fill-opacity:1;fill-rule:nonzero;stroke:none;stroke-width:1px;marker:none;visibility:visible;display:inline;overflow:visible;enable-background:accumulate"
       id="path6527"
       d="m 776.03616,368.96631 c 2.63127,2.58309 5.76461,4.53882 8.84248,6.53009 3.0423,1.82087 -0.77451,3.35432 -2.9571,3.49119 -0.28609,0.007 -0.57327,-0.004 -0.85826,0.0224 -0.69322,0.0634 -1.12353,0.15095 -1.75453,0.44417 -0.28413,0.13203 -1.06031,0.66202 -0.8171,0.46452 4.06949,-3.30459 0.83793,-0.40385 0.81127,-0.37938 -1.47438,1.62714 -1.85277,3.37894 -1.14363,5.42181 0.17615,0.28584 0.35229,0.57168 0.52844,0.85752 0,0 -2.44115,1.68844 -2.44115,1.68844 l 0,0 c -0.18768,-0.30326 -0.37536,-0.60651 -0.56304,-0.90976 -0.82197,-2.25412 -0.53147,-3.82013 0.97171,-5.71628 2.08519,-2.07885 4.50954,-3.86916 7.51436,-3.84528 0.24448,-0.0246 0.49116,-0.0329 0.73344,-0.0739 0.18711,-0.0316 0.68603,-0.27643 0.551,-0.14311 -0.61264,0.60493 -1.3376,1.08511 -2.02715,1.60066 -0.0575,0.043 0.14346,-0.10812 0.12273,-0.1768 -0.10205,-0.33822 -0.89197,-0.85404 -1.02645,-0.95904 -3.07973,-2.02491 -6.21902,-4.00183 -8.8847,-6.57524 0,0 2.39768,-1.74202 2.39768,-1.74202 z"
       inkscape:connector-curvature="0" />
    <text
       xml:space="preserve"
       style="font-size:20px;font-style:normal;font-variant:normal;font-weight:normal;font-stretch:normal;text-indent:0;text-align:start;text-decoration:none;line-height:125%;letter-spacing:0px;word-spacing:0px;text-transform:none;direction:ltr;block-progression:tb;writing-mode:lr-tb;text-anchor:start;baseline-shift:baseline;color:#000000;fill:#666666;fill-opacity:1;fill-rule:nonzero;stroke:none;stroke-width:1px;marker:none;visibility:visible;display:inline;overflow:visible;enable-background:accumulate;font-family:Architects Daughter;-inkscape-font-specification:Architects Daughter"
       x="158"
       y="416"
       id="text6529"
       sodipodi:linespacing="125%"><tspan
         sodipodi:role="line"
         x="158"
         y="416"
         id="tspan6533">Require <tspan
   style="fill:none;stroke:#666666"
   id="tspan6646">S</tspan> to satisfy:</tspan></text>
    <path
       style="color:#000000;fill:none;stroke:#666666;stroke-width:1px;marker:none;visibility:visible;display:inline;overflow:visible;enable-background:accumulate"
       id="path6537"
       d="m 271.9765,459.29403 c -2.5026,-1.68786 -5.2219,-3.14536 -8.2168,-3.67096 -1.3196,-0.17272 -2.5879,0.12614 -3.7726,0.69311 -0.2605,0.12463 -0.9981,0.56919 -0.7762,0.38449 0.5455,-0.454 1.1718,-0.80095 1.7577,-1.20143 -1.3791,0.92399 -2.6502,2.02742 -3.6183,3.38047 -0.7432,1.35284 0.503,1.79121 1.5525,2.3195 1.6669,0.55837 3.3491,1.0798 5.0764,1.42386 1.7526,0.54864 3.4976,1.10101 5.1765,1.84967 2.0056,0.91666 3.4189,2.51831 4.6992,4.25591 1.051,1.60519 1.2525,3.48516 1.3793,5.3503 -5e-4,1.67689 -0.6242,3.18754 -1.1914,4.72723 -1.074,2.18472 -3.2724,3.80125 -5.5057,4.65109 -1.5373,0.48169 -3.0582,0.0406 -4.4995,-0.52717 -1.6562,-0.79644 -3.2393,-1.71011 -4.8106,-2.65767 -1.545,-0.84821 -3.3066,-1.05571 -4.9742,-1.56194 -1.6158,-0.53167 -3.1667,-0.64048 -4.7775,-0.0913 -0.7917,0.8568 -3.4658,1.43475 0.4292,-0.29684 0.238,-0.10584 -0.3599,0.38015 -0.5052,0.59638 -0.3312,0.49282 -0.2705,0.5037 -0.2908,1.01778 0,0 -2.5407,1.56548 -2.5407,1.56548 l 0,0 c -0.1969,-2.5984 3.2234,-3.69992 5.1106,-4.88176 1.6607,-0.46333 3.2557,-0.32052 4.8922,0.22556 1.6869,0.50829 3.4741,0.72024 5.018,1.62221 1.5552,0.94463 3.1319,1.84243 4.7829,2.61378 1.4077,0.53912 2.8806,0.9003 4.3512,0.35488 1.2156,-0.54838 1.3356,-0.66012 -1.0973,1.00033 -0.1944,0.13267 0.3708,-0.29167 0.5373,-0.45804 0.3336,-0.33345 0.6647,-0.67502 0.9378,-1.05957 0.1423,-0.20029 0.235,-0.43147 0.3525,-0.64721 0.5386,-1.51947 1.2175,-2.97429 1.2585,-4.62469 -0.1121,-1.80982 -0.2758,-3.64433 -1.2864,-5.20898 -1.2501,-1.70204 -2.6285,-3.26066 -4.6053,-4.13232 -1.669,-0.72239 -3.3956,-1.28079 -5.1373,-1.80017 -1.7443,-0.36463 -3.4603,-0.87614 -5.1341,-1.48166 -1.1612,-0.60693 -2.5096,-1.21703 -1.823,-2.74447 0.9103,-1.40648 2.1905,-2.53543 3.5692,-3.47626 2.5003,-1.72816 4.5888,-3.49289 7.754,-3.0624 3.0146,0.61456 5.7579,2.06507 8.3003,3.76856 0,0 -2.3724,1.78424 -2.3724,1.78424 z"
       inkscape:connector-curvature="0" />
    <g
       id="g6555"
       style="fill:#aaaaaa"
       transform="translate(65,-39)">
      <path
         inkscape:connector-curvature="0"
         d="m 170.94967,504.36272 c -3.06547,0.94905 -5.70868,2.74696 -8.47191,4.29448 -0.32647,0.18284 0.61605,-0.42488 0.92408,-0.63732 -2.14905,1.51362 -3.40234,3.50673 -3.95686,6.03266 -0.22535,2.13612 1.10182,3.02215 2.94602,3.56048 2.63213,0.47391 5.32422,0.45173 7.99003,0.46279 0.3225,-0.002 0.645,-0.003 0.9675,-0.005 0,0 -2.25858,1.92933 -2.25858,1.92933 l 0,0 c -0.32052,-9.9e-4 -0.64104,-0.002 -0.96156,-0.003 -2.68676,-0.0191 -5.40534,0.001 -8.05062,-0.52472 -1.95354,-0.62408 -3.35782,-1.67029 -3.19508,-3.92176 0.51189,-2.58183 1.69537,-4.66545 3.87202,-6.23999 3.90897,-2.72879 7.82022,-5.41705 12.38175,-6.9561 0,0 -2.18679,2.00773 -2.18679,2.00773 z"
         id="path6551"
         style="color:#000000;fill:#aaaaaa;fill-opacity:1;fill-rule:nonzero;stroke:none;stroke-width:1px;marker:none;visibility:visible;display:inline;overflow:visible;enable-background:accumulate" />
      <path
         inkscape:connector-curvature="0"
         d="m 161.20462,511.03654 c 3.73152,-0.0745 7.48033,0.19007 11.20234,-0.1233 0.36408,-0.10285 0.72816,-0.20569 1.09223,-0.30854 0,0 -2.20533,1.9819 -2.20533,1.9819 l 0,0 c -0.3723,0.087 -0.7446,0.17395 -1.1169,0.26092 -3.73475,0.25798 -7.48732,0.0247 -11.22847,0.11594 0,0 2.25613,-1.92692 2.25613,-1.92692 z"
         id="path6553"
         style="color:#000000;fill:#aaaaaa;fill-opacity:1;fill-rule:nonzero;stroke:none;stroke-width:1px;marker:none;visibility:visible;display:inline;overflow:visible;enable-background:accumulate" />
    </g>
    <path
       style="color:#000000;fill:#666666;fill-opacity:1;fill-rule:nonzero;stroke:none;stroke-width:1px;marker:none;visibility:visible;display:inline;overflow:visible;enable-background:accumulate"
       id="path6569"
       d="m 180.82645,459.12805 c -2.36129,4.28936 -4.91245,8.46155 -7.55873,12.57929 -1.62064,2.82777 -3.3477,5.59324 -4.97612,8.41621 0,0 -2.63571,1.41788 -2.63571,1.41788 l 0,0 c 1.8491,-2.70723 3.2865,-5.69344 5.0459,-8.45678 2.63836,-4.0999 5.19642,-8.24629 7.51482,-12.53806 0,0 2.60984,-1.41854 2.60984,-1.41854 z"
       inkscape:connector-curvature="0" />
    <path
       style="color:#000000;fill:#666666;fill-opacity:1;fill-rule:nonzero;stroke:none;stroke-width:1px;marker:none;visibility:visible;display:inline;overflow:visible;enable-background:accumulate"
       id="path6571"
       d="m 178.71026,458.37529 c 1.88956,5.23369 3.02302,10.66206 3.79504,16.15846 0.18249,2.1004 0.54406,4.1751 0.79208,6.26721 0,0 -2.5,1.57048 -2.5,1.57048 l 0,0 c -0.21972,-2.09937 -0.57916,-4.17704 -0.75338,-6.28221 -0.75353,-5.47159 -1.86174,-10.88122 -3.79732,-16.07217 0,0 2.46358,-1.64177 2.46358,-1.64177 z"
       inkscape:connector-curvature="0" />
    <path
       style="color:#000000;fill:#666666;fill-opacity:1;fill-rule:nonzero;stroke:none;stroke-width:1px;marker:none;visibility:visible;display:inline;overflow:visible;enable-background:accumulate"
       id="path6573"
       d="m 169.21513,473.16877 c 4.22566,0.42228 8.46918,0.62237 12.71207,0.76765 0.48824,0.0143 0.97649,0.0286 1.46473,0.0429 0,0 -2.25345,1.9119 -2.25345,1.9119 l 0,0 c -0.48488,-0.0176 -0.96977,-0.0351 -1.45465,-0.0527 -4.25369,-0.15953 -8.50644,-0.37552 -12.74585,-0.7681 0,0 2.27715,-1.9017 2.27715,-1.9017 z"
       inkscape:connector-curvature="0" />
    <path
       style="color:#000000;fill:#666666;fill-opacity:1;fill-rule:nonzero;stroke:none;stroke-width:1px;marker:none;visibility:visible;display:inline;overflow:visible;enable-background:accumulate"
       id="path6575"
       d="m 203.26646,461.18085 c 0.0465,4.26952 -0.22071,8.5414 -0.72904,12.77944 -0.23085,1.67095 -0.48183,3.33874 -0.75282,5.00359 0,0 -2.54891,1.50417 -2.54891,1.50417 l 0,0 c 0.28861,-1.6645 0.54381,-3.33389 0.78293,-5.00629 0.53076,-4.21759 0.80101,-8.477 0.71492,-12.72874 0,0 2.53292,-1.55217 2.53292,-1.55217 z"
       inkscape:connector-curvature="0" />
    <path
       style="color:#000000;fill:#666666;fill-opacity:1;fill-rule:nonzero;stroke:none;stroke-width:1px;marker:none;visibility:visible;display:inline;overflow:visible;enable-background:accumulate"
       id="path6579"
       d="m 200.08639,461.03535 c 3.07534,-0.11754 6.0323,0.41922 8.89149,1.5069 1.97516,0.9102 3.05576,2.36732 2.35653,4.51049 -1.87702,2.4968 -4.9986,3.9909 -7.90088,5.0357 -1.17752,0.52965 -4.32042,1.5994 1.3256,-1.11932 0.17687,-0.0852 0.38504,0.0792 0.58002,0.10213 0.54428,0.0639 1.05882,0.0604 1.60705,0.072 2.18426,-0.17123 3.92886,0.70167 5.44725,2.19572 1.2624,1.58323 1.88342,3.42172 1.01274,5.31869 -3.43259,3.4932 -6.06239,3.17084 -10.30971,2.52977 -1.58395,-0.21994 -3.07727,-0.9922 -4.70102,-0.95516 -0.27381,0.006 -1.00925,0.35076 -0.80396,0.16947 2.26538,-2.00058 2.13785,-1.96993 2.0189,-0.81805 0,0 -2.53993,1.56331 -2.53993,1.56331 l 0,0 c -0.4525,-4.33646 6.46936,-2.37329 8.29277,-1.83888 1.62898,0.23456 3.26649,0.55462 4.91738,0.3167 0.42421,-0.0611 1.33055,-0.7241 1.2495,-0.30325 -0.12054,0.62586 -0.99469,0.80291 -1.43456,1.26413 -0.19785,0.20745 0.46821,-0.33089 0.70231,-0.49634 1.01198,-1.73396 0.38293,-3.50191 -0.80417,-5.00258 -1.49707,-1.45138 -3.19413,-2.1807 -5.3139,-2.01875 -0.0803,-0.003 -2.35365,-0.17419 -2.29403,-0.28781 0.98969,-1.88611 1.66325,-2.14772 3.23216,-2.69539 1.05189,-0.39877 1.15889,-0.40956 2.17452,-0.9159 0.35532,-0.17713 1.27522,-0.8888 1.05036,-0.56159 -0.34604,0.50352 -0.97359,0.73919 -1.44199,1.13146 -0.46448,0.38898 1.80136,-1.28224 1.34374,-1.22381 0.91146,-2.13528 -0.18403,-3.1925 -2.086,-4.13274 -2.83945,-1.06946 -5.78522,-1.55148 -8.83108,-1.41762 0,0 2.25891,-1.9293 2.25891,-1.9293 z"
       inkscape:connector-curvature="0" />
    <path
       style="color:#000000;fill:#aaaaaa;fill-opacity:1;fill-rule:nonzero;stroke:none;stroke-width:1px;marker:none;visibility:visible;display:inline;overflow:visible;enable-background:accumulate"
       id="path6583"
       d="m 192.92955,478.34296 c -1.00892,3.14259 -2.38067,6.15577 -3.74155,9.15772 0,0 -2.54888,1.41602 -2.54888,1.41602 l 0,0 c 1.3602,-2.98029 2.73472,-5.97494 3.71363,-9.10655 0,0 2.5768,-1.46719 2.5768,-1.46719 z"
       inkscape:connector-curvature="0" />
    <path
       inkscape:connector-curvature="0"
       d="m 336.82645,459.12805 c -2.36129,4.28936 -4.91245,8.46155 -7.55873,12.57929 -1.62064,2.82777 -3.3477,5.59324 -4.97611,8.41621 0,0 -2.63572,1.41788 -2.63572,1.41788 l 0,0 c 1.8491,-2.70723 3.2865,-5.69344 5.0459,-8.45678 2.63836,-4.0999 5.19642,-8.24629 7.51482,-12.53806 0,0 2.60984,-1.41854 2.60984,-1.41854 z"
       id="path6587"
       style="color:#000000;fill:#666666;fill-opacity:1;fill-rule:nonzero;stroke:none;stroke-width:1px;marker:none;visibility:visible;display:inline;overflow:visible;enable-background:accumulate" />
    <path
       inkscape:connector-curvature="0"
       d="m 334.71026,458.37529 c 1.88956,5.23369 3.02302,10.66206 3.79504,16.15846 0.18249,2.1004 0.54406,4.1751 0.79208,6.26721 0,0 -2.5,1.57048 -2.5,1.57048 l 0,0 c -0.21972,-2.09937 -0.57916,-4.17704 -0.75338,-6.28221 -0.75353,-5.47159 -1.86174,-10.88122 -3.79732,-16.07217 0,0 2.46358,-1.64177 2.46358,-1.64177 z"
       id="path6589"
       style="color:#000000;fill:#666666;fill-opacity:1;fill-rule:nonzero;stroke:none;stroke-width:1px;marker:none;visibility:visible;display:inline;overflow:visible;enable-background:accumulate" />
    <path
       inkscape:connector-curvature="0"
       d="m 325.21513,473.16877 c 4.22566,0.42228 8.46918,0.62237 12.71207,0.76765 0.48824,0.0143 0.97649,0.0286 1.46473,0.0429 0,0 -2.25345,1.9119 -2.25345,1.9119 l 0,0 c -0.48488,-0.0176 -0.96977,-0.0351 -1.45465,-0.0527 -4.25369,-0.15953 -8.50644,-0.37552 -12.74585,-0.7681 0,0 2.27715,-1.9017 2.27715,-1.9017 z"
       id="path6591"
       style="color:#000000;fill:#666666;fill-opacity:1;fill-rule:nonzero;stroke:none;stroke-width:1px;marker:none;visibility:visible;display:inline;overflow:visible;enable-background:accumulate" />
    <path
       inkscape:connector-curvature="0"
       d="m 379.26646,461.18085 c 0.0465,4.26952 -0.22071,8.5414 -0.72904,12.77944 -0.23085,1.67095 -0.48183,3.33874 -0.75282,5.00359 0,0 -2.54891,1.50417 -2.54891,1.50417 l 0,0 c 0.28861,-1.6645 0.54381,-3.33389 0.78293,-5.00629 0.53076,-4.21759 0.80101,-8.477 0.71492,-12.72874 0,0 2.53292,-1.55217 2.53292,-1.55217 z"
       id="path6593"
       style="color:#000000;fill:#666666;fill-opacity:1;fill-rule:nonzero;stroke:none;stroke-width:1px;marker:none;visibility:visible;display:inline;overflow:visible;enable-background:accumulate" />
    <path
       inkscape:connector-curvature="0"
       d="m 376.08639,461.03535 c 3.07534,-0.11754 6.0323,0.41922 8.89149,1.5069 1.97516,0.9102 3.05576,2.36732 2.35653,4.51049 -1.87702,2.4968 -4.9986,3.9909 -7.90088,5.0357 -1.17752,0.52965 -4.32042,1.5994 1.3256,-1.11932 0.17687,-0.0852 0.38504,0.0792 0.58002,0.10213 0.54428,0.0639 1.05882,0.0604 1.60705,0.072 2.18426,-0.17123 3.92886,0.70167 5.44725,2.19572 1.2624,1.58323 1.88342,3.42172 1.01274,5.31869 -3.43259,3.4932 -6.06239,3.17084 -10.30971,2.52977 -1.58395,-0.21994 -3.07727,-0.9922 -4.70102,-0.95516 -0.27381,0.006 -1.00925,0.35076 -0.80396,0.16947 2.26538,-2.00058 2.13785,-1.96993 2.0189,-0.81805 0,0 -2.53993,1.56331 -2.53993,1.56331 l 0,0 c -0.4525,-4.33646 6.46936,-2.37329 8.29277,-1.83888 1.62898,0.23456 3.26649,0.55462 4.91738,0.3167 0.42421,-0.0611 1.33055,-0.7241 1.2495,-0.30325 -0.12054,0.62586 -0.99469,0.80291 -1.43456,1.26413 -0.19785,0.20745 0.46821,-0.33089 0.70231,-0.49634 1.01198,-1.73396 0.38293,-3.50191 -0.80417,-5.00258 -1.49707,-1.45138 -3.19413,-2.1807 -5.3139,-2.01875 -0.0803,-0.003 -2.35365,-0.17419 -2.29403,-0.28781 0.98969,-1.88611 1.66325,-2.14772 3.23216,-2.69539 1.05189,-0.39877 1.15889,-0.40956 2.17452,-0.9159 0.35532,-0.17713 1.27522,-0.8888 1.05036,-0.56159 -0.34604,0.50352 -0.97359,0.73919 -1.44199,1.13146 -0.46448,0.38898 1.80136,-1.28224 1.34374,-1.22381 0.91146,-2.13528 -0.18403,-3.1925 -2.086,-4.13274 -2.83945,-1.06946 -5.78522,-1.55148 -8.83108,-1.41762 0,0 2.25891,-1.9293 2.25891,-1.9293 z"
       id="path6595"
       style="color:#000000;fill:#666666;fill-opacity:1;fill-rule:nonzero;stroke:none;stroke-width:1px;marker:none;visibility:visible;display:inline;overflow:visible;enable-background:accumulate" />
    <g
       id="g6599"
       style="fill:#d9bb7a"
       transform="translate(-435,319)">
      <path
         inkscape:connector-curvature="0"
         d="m 783.08639,156.03535 c 3.95061,0.0165 7.90126,0.0118 11.85188,0.0106 2.43548,-0.002 1.24773,-8.6e-4 3.56326,-0.003 0,0 -2.24184,1.91472 -2.24184,1.91472 l 0,0 c -2.31014,-0.002 -1.12498,-0.001 -3.5555,-0.003 -3.9589,-0.001 -7.91783,-0.006 -11.87671,0.0106 0,0 2.25891,-1.9293 2.25891,-1.9293 z"
         id="path6601"
         style="color:#000000;fill:#d9bb7a;fill-opacity:1;fill-rule:nonzero;stroke:none;stroke-width:1px;marker:none;visibility:visible;display:inline;overflow:visible;enable-background:accumulate" />
      <path
         style="color:#000000;fill:#d9bb7a;fill-opacity:1;fill-rule:nonzero;stroke:none;stroke-width:1px;marker:none;visibility:visible;display:inline;overflow:visible;enable-background:accumulate"
         id="path6603"
         d="m 783.08639,152.03535 c 3.95061,0.0165 7.90126,0.0118 11.85188,0.0106 2.43548,-0.002 1.24773,-8.6e-4 3.56326,-0.003 0,0 -2.24184,1.91472 -2.24184,1.91472 l 0,0 c -2.31014,-0.002 -1.12498,-0.001 -3.5555,-0.003 -3.9589,-0.001 -7.91783,-0.006 -11.87671,0.0106 0,0 2.25891,-1.9293 2.25891,-1.9293 z"
         inkscape:connector-curvature="0" />
      <path
         inkscape:connector-curvature="0"
         d="m 781.84816,149.89372 c 1.26265,-0.96421 2.45507,-2.0646 3.82706,-2.84835 0.49563,-0.26468 1.03762,-0.32925 1.58222,-0.35496 0.45917,-0.0352 0.89695,-0.01 1.32594,0.17474 0.36304,0.23095 0.70034,0.47563 1.0087,0.78535 0.331,0.26244 0.59292,0.614 0.94339,0.84718 0.27085,0.25159 0.61464,0.36229 0.93904,0.50969 0.37408,0.14719 0.77509,0.16487 1.16905,0.18232 0.44235,0.0263 0.87066,0.0266 1.30178,-0.0812 0.39851,-0.0345 0.73516,-0.23812 1.09215,-0.40752 0.0641,-0.0384 0.12982,-0.0739 0.19246,-0.11507 0.0684,-0.0449 0.13358,-0.0953 0.20037,-0.14289 0.0723,-0.0438 0.28426,-0.18296 0.21664,-0.13142 -3.71026,2.82785 -0.56856,0.22079 0.57193,-0.39393 0.67755,-0.48002 1.6886,-1.22058 -1.40058,1.0552 -0.0487,0.0359 0.0949,-0.0756 0.14201,-0.1139 0.15739,-0.12819 0.11067,-0.0893 0.26077,-0.22938 0.67345,-0.50162 1.34691,-1.00324 2.02037,-1.50486 -0.58089,0.43239 -2.32333,1.72987 -1.74265,1.29717 0.72011,-0.53658 1.35162,-1.2748 2.18315,-1.57399 0.3152,-0.11342 0.0544,0.0186 0.33475,-0.13953 0.37703,-0.1627 0.75159,-0.31949 1.15048,-0.41103 0.0753,-0.0125 0.15076,-0.0249 0.22613,-0.0374 0,0 -1.7298,1.64123 -1.7298,1.64123 l 0,0 c -0.0723,0.0163 -0.14464,0.0327 -0.21696,0.049 -0.38585,0.11555 -0.75821,0.2765 -1.12508,0.44828 -0.0867,0.036 -0.24676,0.0999 -0.33008,0.14518 -0.0507,0.0276 -0.19333,0.12814 -0.14704,0.0927 0.57532,-0.43998 2.31998,-1.73131 1.7346,-1.30683 -0.71315,0.51713 -4.302,3.24543 -0.28317,0.19625 -0.53501,0.43397 0.27526,-0.23509 -0.25503,0.24385 -0.76995,0.69538 -1.63805,1.28478 -2.501,1.84988 -0.0608,0.0401 -0.24052,0.16479 -0.18237,0.1204 0.55833,-0.4262 2.25362,-1.67361 1.68328,-1.26608 -0.88312,0.63101 -1.727,1.40897 -2.69643,1.91464 -0.36174,0.17878 -0.7312,0.30998 -1.12812,0.36624 -0.4428,0.0791 -0.8907,0.05 -1.33772,0.033 -0.4164,-0.028 -0.83669,-0.0685 -1.22444,-0.24753 -0.33439,-0.15719 -0.68387,-0.28255 -0.96345,-0.54544 -0.34634,-0.26037 -0.62845,-0.6025 -0.96227,-0.88078 -0.28973,-0.27956 -0.607,-0.51285 -0.95387,-0.70519 -0.41351,-0.13574 -0.83451,-0.13444 -1.26392,-0.10044 -0.52587,0.0432 -1.03988,0.14407 -1.50434,0.42941 -0.82892,0.52247 -0.43018,0.28315 1.23727,-0.97658 0.11437,-0.0864 -0.22706,0.17532 -0.34101,0.26237 -0.60545,0.46257 -0.10158,0.0653 -0.68888,0.5486 -0.0963,0.0793 -0.19386,0.15673 -0.29079,0.2351 0,0 -2.07454,1.08649 -2.07454,1.08649 z"
         id="path6605"
         style="color:#000000;fill:#d9bb7a;fill-opacity:1;fill-rule:nonzero;stroke:none;stroke-width:1px;marker:none;visibility:visible;display:inline;overflow:visible;enable-background:accumulate" />
    </g>
    <path
       sodipodi:type="arc"
       style="color:#000000;fill:#cccccf;stroke:none;stroke-width:1;marker:none;visibility:visible;display:inline;overflow:visible;enable-background:accumulate"
       id="path6607"
       sodipodi:cx="216.5"
       sodipodi:cy="514.5"
       sodipodi:rx="2.5"
       sodipodi:ry="2.5"
       d="m 219,514.5 a 2.5,2.5 0 1 1 -5,0 2.5,2.5 0 1 1 5,0 z"
       transform="translate(75,-35)" />
    <path
       style="color:#000000;fill:#aaccee;fill-opacity:1;fill-rule:nonzero;stroke:none;stroke-width:1px;marker:none;visibility:visible;display:inline;overflow:visible;enable-background:accumulate"
       id="path6611"
       d="m 347.26489,499.30143 c -0.0362,6.02813 -0.0313,12.05643 -0.0309,18.08464 0.0657,2.97593 0.26533,5.94599 0.45821,8.91554 0,0 -2.47871,1.5406 -2.47871,1.5406 l 0,0 c -0.18387,-2.97932 -0.37707,-5.95889 -0.4475,-8.94374 4.6e-4,-6.0156 0.005,-12.03128 -0.0309,-18.04679 0,0 2.52978,-1.55025 2.52978,-1.55025 z"
       inkscape:connector-curvature="0" />
    <path
       inkscape:connector-curvature="0"
       d="m 363.26489,499.30143 c -0.0362,6.02813 -0.0313,12.05643 -0.0309,18.08464 0.0657,2.97593 0.26533,5.94599 0.45821,8.91554 0,0 -2.47871,1.5406 -2.47871,1.5406 l 0,0 c -0.18387,-2.97932 -0.37707,-5.95889 -0.4475,-8.94374 4.6e-4,-6.0156 0.005,-12.03128 -0.0309,-18.04679 0,0 2.52978,-1.55025 2.52978,-1.55025 z"
       id="path6613"
       style="color:#000000;fill:#aaccee;fill-opacity:1;fill-rule:nonzero;stroke:none;stroke-width:1px;marker:none;visibility:visible;display:inline;overflow:visible;enable-background:accumulate" />
    <path
       style="color:#000000;fill:#aaccee;fill-opacity:1;fill-rule:nonzero;stroke:none;stroke-width:1px;marker:none;visibility:visible;display:inline;overflow:visible;enable-background:accumulate"
       id="path6617"
       d="m 331.20462,521.03654 c 4.97327,0.45266 9.31341,2.77736 13.5476,5.23823 3.75524,2.14665 7.25207,4.70213 10.41191,7.65119 0.55223,0.69019 1.20993,1.28458 1.79075,1.94851 0.55003,0.62875 1.11263,1.38157 1.07545,1.40258 -0.92738,0.52411 -1.94201,0.87607 -2.91301,1.3141 -1.23093,-1.41327 -0.53558,-2.97855 0.21642,-4.44154 1.35012,-2.27553 3.1505,-4.20908 5.11714,-5.95732 2.81353,-2.26791 5.879,-4.39878 9.15955,-5.95946 2.00447,-0.88273 4.17111,-1.08943 6.3313,-1.19263 1.67058,-0.0523 3.34228,-0.0362 5.01335,-0.0279 0,0 -2.25884,1.92739 -2.25884,1.92739 l 0,0 c -1.66735,-0.007 -3.33553,-0.0228 -5.00209,0.0404 -2.13944,0.11965 -4.27813,0.3601 -6.24654,1.27589 -1.20049,0.59392 -2.3164,1.25773 -3.45093,1.96899 -0.389,0.24388 -1.36055,1.14511 -1.16951,0.72761 0.21873,-0.47804 0.76643,-0.7778 1.26657,-0.93973 0.41602,-0.1347 -0.66472,0.56832 -0.99709,0.85248 -1.97292,1.721 -3.78303,3.61496 -5.16069,5.85935 -0.71216,1.30047 -1.55685,2.78512 -0.42033,4.09621 -0.65638,0.70836 -1.2679,1.46111 -1.96914,2.12509 -0.0498,0.0471 -0.0324,-0.13655 -0.0716,-0.19278 -0.10792,-0.15474 -0.24635,-0.28587 -0.36466,-0.43281 -0.73933,-0.91824 -1.53001,-1.78227 -2.32799,-2.65153 -3.13712,-2.93757 -6.60381,-5.49216 -10.34282,-7.62013 -4.20723,-2.43648 -8.53741,-4.74047 -13.49092,-5.08521 0,0 2.25613,-1.92692 2.25613,-1.92692 z"
       inkscape:connector-curvature="0" />
    <path
       style="color:#000000;fill:#666666;fill-opacity:1;fill-rule:nonzero;stroke:none;stroke-width:1px;marker:none;visibility:visible;display:inline;overflow:visible;enable-background:accumulate"
       id="path6619"
       d="m 336.82645,545.12805 c -2.36129,4.28936 -4.91245,8.46155 -7.55873,12.57929 -1.62064,2.82777 -3.3477,5.59324 -4.97611,8.41621 0,0 -2.63572,1.41788 -2.63572,1.41788 l 0,0 c 1.8491,-2.70723 3.2865,-5.69344 5.0459,-8.45678 2.63836,-4.0999 5.19642,-8.24629 7.51482,-12.53806 0,0 2.60984,-1.41854 2.60984,-1.41854 z"
       inkscape:connector-curvature="0" />
    <path
       style="color:#000000;fill:#666666;fill-opacity:1;fill-rule:nonzero;stroke:none;stroke-width:1px;marker:none;visibility:visible;display:inline;overflow:visible;enable-background:accumulate"
       id="path6621"
       d="m 334.71026,544.37529 c 1.88956,5.23369 3.02302,10.66206 3.79504,16.15846 0.18249,2.1004 0.54406,4.1751 0.79208,6.26721 0,0 -2.5,1.57048 -2.5,1.57048 l 0,0 c -0.21972,-2.09937 -0.57916,-4.17704 -0.75338,-6.28221 -0.75353,-5.47159 -1.86174,-10.88122 -3.79732,-16.07217 0,0 2.46358,-1.64177 2.46358,-1.64177 z"
       inkscape:connector-curvature="0" />
    <path
       style="color:#000000;fill:#666666;fill-opacity:1;fill-rule:nonzero;stroke:none;stroke-width:1px;marker:none;visibility:visible;display:inline;overflow:visible;enable-background:accumulate"
       id="path6623"
       d="m 325.21513,559.16877 c 4.22566,0.42228 8.46918,0.62237 12.71207,0.76765 0.48824,0.0143 0.97649,0.0286 1.46473,0.0429 0,0 -2.25345,1.9119 -2.25345,1.9119 l 0,0 c -0.48488,-0.0176 -0.96977,-0.0351 -1.45465,-0.0527 -4.25369,-0.15953 -8.50644,-0.37552 -12.74585,-0.7681 0,0 2.27715,-1.9017 2.27715,-1.9017 z"
       inkscape:connector-curvature="0" />
    <path
       style="color:#000000;fill:#666666;fill-opacity:1;fill-rule:nonzero;stroke:none;stroke-width:1px;marker:none;visibility:visible;display:inline;overflow:visible;enable-background:accumulate"
       id="path6625"
       d="m 379.26646,547.18085 c 0.0465,4.26952 -0.22071,8.5414 -0.72904,12.77944 -0.23085,1.67095 -0.48183,3.33874 -0.75282,5.00359 0,0 -2.54891,1.50417 -2.54891,1.50417 l 0,0 c 0.28861,-1.6645 0.54381,-3.33389 0.78293,-5.00629 0.53076,-4.21759 0.80101,-8.477 0.71492,-12.72874 0,0 2.53292,-1.55217 2.53292,-1.55217 z"
       inkscape:connector-curvature="0" />
    <path
       style="color:#000000;fill:#666666;fill-opacity:1;fill-rule:nonzero;stroke:none;stroke-width:1px;marker:none;visibility:visible;display:inline;overflow:visible;enable-background:accumulate"
       id="path6627"
       d="m 376.08639,547.03535 c 3.07534,-0.11754 6.0323,0.41922 8.89149,1.5069 1.97516,0.9102 3.05576,2.36732 2.35653,4.51049 -1.87702,2.4968 -4.9986,3.9909 -7.90088,5.0357 -1.17752,0.52965 -4.32042,1.5994 1.3256,-1.11932 0.17687,-0.0852 0.38504,0.0792 0.58002,0.10213 0.54428,0.0639 1.05882,0.0604 1.60705,0.072 2.18426,-0.17123 3.92886,0.70167 5.44725,2.19572 1.2624,1.58323 1.88342,3.42172 1.01274,5.31869 -3.43259,3.4932 -6.06239,3.17084 -10.30971,2.52977 -1.58395,-0.21994 -3.07727,-0.9922 -4.70102,-0.95516 -0.27381,0.006 -1.00925,0.35076 -0.80396,0.16947 2.26538,-2.00058 2.13785,-1.96993 2.0189,-0.81805 0,0 -2.53993,1.56331 -2.53993,1.56331 l 0,0 c -0.4525,-4.33646 6.46936,-2.37329 8.29277,-1.83888 1.62898,0.23456 3.26649,0.55462 4.91738,0.3167 0.42421,-0.0611 1.33055,-0.7241 1.2495,-0.30325 -0.12054,0.62586 -0.99469,0.80291 -1.43456,1.26413 -0.19785,0.20745 0.46821,-0.33089 0.70231,-0.49634 1.01198,-1.73396 0.38293,-3.50191 -0.80417,-5.00258 -1.49707,-1.45138 -3.19413,-2.1807 -5.3139,-2.01875 -0.0803,-0.003 -2.35365,-0.17419 -2.29403,-0.28781 0.98969,-1.88611 1.66325,-2.14772 3.23216,-2.69539 1.05189,-0.39877 1.15889,-0.40956 2.17452,-0.9159 0.35532,-0.17713 1.27522,-0.8888 1.05036,-0.56159 -0.34604,0.50352 -0.97359,0.73919 -1.44199,1.13146 -0.46448,0.38898 1.80136,-1.28224 1.34374,-1.22381 0.91146,-2.13528 -0.18403,-3.1925 -2.086,-4.13274 -2.83945,-1.06946 -5.78522,-1.55148 -8.83108,-1.41762 0,0 2.25891,-1.9293 2.25891,-1.9293 z"
       inkscape:connector-curvature="0" />
    <g
       id="g6640"
       transform="translate(71,-33)">
      <path
         style="color:#000000;fill:#666666;fill-opacity:1;fill-rule:nonzero;stroke:none;stroke-width:1px;marker:none;visibility:visible;display:inline;overflow:visible;enable-background:accumulate"
         id="path6631"
         d="m 277.08639,594.03535 c 3.95061,0.0165 7.90126,0.0118 11.85188,0.0106 2.43548,-0.002 1.24773,-8.6e-4 3.56326,-0.003 0,0 -2.24184,1.91472 -2.24184,1.91472 l 0,0 c -2.31014,-0.002 -1.12498,-10e-4 -3.5555,-0.003 -3.9589,-10e-4 -7.91783,-0.006 -11.87671,0.0106 0,0 2.25891,-1.9293 2.25891,-1.9293 z"
         inkscape:connector-curvature="0" />
      <path
         inkscape:connector-curvature="0"
         d="m 277.08639,590.03535 c 3.95061,0.0165 7.90126,0.0118 11.85188,0.0106 2.43548,-0.002 1.24773,-8.6e-4 3.56326,-0.003 0,0 -2.24184,1.91472 -2.24184,1.91472 l 0,0 c -2.31014,-0.002 -1.12498,-10e-4 -3.5555,-0.003 -3.9589,-10e-4 -7.91783,-0.006 -11.87671,0.0106 0,0 2.25891,-1.9293 2.25891,-1.9293 z"
         id="path6633"
         style="color:#000000;fill:#666666;fill-opacity:1;fill-rule:nonzero;stroke:none;stroke-width:1px;marker:none;visibility:visible;display:inline;overflow:visible;enable-background:accumulate" />
    </g>
    <rect
       style="color:#000000;fill:none;stroke:#aaccee;stroke-width:1;stroke-linecap:butt;stroke-linejoin:miter;stroke-miterlimit:4;stroke-opacity:1;stroke-dasharray:none;stroke-dashoffset:0;marker:none;visibility:visible;display:inline;overflow:visible;enable-background:accumulate"
       id="rect6644"
       width="257"
       height="145"
       x="158"
       y="441" />
    <text
       xml:space="preserve"
       style="font-size:20px;font-style:normal;font-variant:normal;font-weight:normal;font-stretch:normal;text-indent:0;text-align:start;text-decoration:none;line-height:125%;letter-spacing:0px;word-spacing:0px;text-transform:none;direction:ltr;block-progression:tb;writing-mode:lr-tb;text-anchor:start;baseline-shift:baseline;color:#000000;fill:#666666;fill-opacity:1;fill-rule:nonzero;stroke:none;stroke-width:1px;marker:none;visibility:visible;display:inline;overflow:visible;enable-background:accumulate;font-family:Architects Daughter;-inkscape-font-specification:Architects Daughter"
       x="111"
       y="643"
       id="text6650"
       sodipodi:linespacing="125%"><tspan
         sodipodi:role="line"
         id="tspan6652"
         x="111"
         y="643">In general a category satisfying</tspan><tspan
         sodipodi:role="line"
         x="111"
         y="668"
         id="tspan6654">the above is called <tspan
   style="fill:#0197fd"
   id="tspan6656">skeletal</tspan>.</tspan></text>
    <path
       style="color:#000000;fill:none;stroke:#eeeeee;stroke-width:2;stroke-linecap:butt;stroke-linejoin:miter;stroke-miterlimit:4;stroke-opacity:1;stroke-dasharray:none;stroke-dashoffset:0;marker:none;visibility:visible;display:inline;overflow:visible;enable-background:accumulate"
       d="m 580,199 0,68"
       id="path3791"
       inkscape:connector-curvature="0" />
    <path
       style="color:#000000;fill:none;stroke:#aaccee;stroke-width:2;stroke-linecap:butt;stroke-linejoin:miter;stroke-miterlimit:4;stroke-opacity:1;stroke-dasharray:none;stroke-dashoffset:0;marker:none;visibility:visible;display:inline;overflow:visible;enable-background:accumulate"
       d="M 612,284 425,449"
       id="path3806"
       inkscape:connector-curvature="0"
       sodipodi:nodetypes="cc" />
    <path
       style="color:#000000;fill:#aaccee;fill-opacity:1;fill-rule:nonzero;stroke:none;stroke-width:1px;marker:none;visibility:visible;display:inline;overflow:visible;enable-background:accumulate"
       id="path3810"
       d="m 428.21415,437.06563 c -0.32853,3.06407 -0.82107,6.0887 -1.66,9.05553 -0.31712,1.2278 -0.85819,2.40722 -1.81932,3.25791 -1.55071,1.10429 -2.64803,2.44633 -3.44411,1.10182 -0.1513,-0.22817 -0.32619,-0.43896 -0.50864,-0.64251 -0.13276,0.0298 0.062,-0.2141 -0.11172,0.0446 -0.29588,-10e-4 -0.59174,-9e-5 -0.88762,-0.002 -0.29641,-0.001 -0.59283,-8e-4 -0.88925,1.4e-4 -0.0386,-1.8e-4 -0.0772,5.5e-4 -0.11584,8.3e-4 2.20752,-1.87718 3.87463,-2.34886 6.54472,-2.58134 2.88965,-0.30081 5.67446,-0.13318 8.44938,0.7255 2.11905,0.83302 4.02719,2.11011 5.80827,3.51278 0.26443,0.23891 0.58246,0.44162 0.78147,0.74321 0.007,0.3107 0.0244,0.15798 -0.0515,0.45821 0,0 -2.67641,1.32908 -2.67641,1.32908 l 0,0 c 5.3e-4,-0.36915 -0.10714,-0.34882 0.12025,-0.30592 -0.17558,-0.202 -0.46671,-0.45737 -0.69277,-0.6414 -1.73805,-1.39704 -3.61441,-2.65386 -5.71311,-3.44138 -2.76207,-0.81397 -5.54094,-0.93299 -8.4023,-0.6181 -0.83739,0.0887 -1.65379,0.1877 -2.47258,0.38965 -1.30466,0.32178 -2.72201,1.23144 0.73165,-1.3335 0.0379,3.7e-4 0.0758,10e-4 0.11364,10e-4 0.29511,0.002 0.59023,0.003 0.88534,0.003 0.29412,-0.001 0.58846,0.003 0.88236,-0.01 0.14692,0.0644 0.17768,0.0696 0.26082,0.17491 0.18866,0.22249 0.37183,0.45012 0.53226,0.69419 0.0347,0.0579 0.11195,0.24452 0.0745,0.18834 -0.0303,-0.0454 0.20879,-0.0472 0.16284,-0.0178 -1.93423,1.24097 -3.14663,1.78647 -2.15805,1.33598 1.05317,-0.70828 1.60498,-1.92168 1.93824,-3.1057 0.86774,-2.94514 1.38913,-5.95269 1.64995,-9.01267 0,0 2.66753,-1.30414 2.66753,-1.30414 z"
       inkscape:connector-curvature="0" />
    <a
       xlink:href="s3.svg"
       id="a3074"
       style="display:inline"
       transform="translate(165.67022,-517.09499)">
      <path
         inkscape:connector-curvature="0"
         id="path3936"
         d="m 702.67506,599.63376 0,12.92247 28.2254,0 0,10.20196 21.08404,-18.36352 -19.72378,-14.96287 0,9.86189 z"
         style="fill:#b3defd;stroke:#f0a513;stroke-width:1;stroke-linecap:butt;stroke-linejoin:miter;stroke-miterlimit:4;stroke-opacity:1;stroke-dasharray:none" />
    </a>
  </g>
</svg>
