<?xml version="1.0" encoding="UTF-8" standalone="no"?>
<svg
   xmlns:dc="http://purl.org/dc/elements/1.1/"
   xmlns:cc="http://creativecommons.org/ns#"
   xmlns:rdf="http://www.w3.org/1999/02/22-rdf-syntax-ns#"
   xmlns:svg="http://www.w3.org/2000/svg"
   xmlns="http://www.w3.org/2000/svg"
   xmlns:xlink="http://www.w3.org/1999/xlink"
   xmlns:sodipodi="http://sodipodi.sourceforge.net/DTD/sodipodi-0.dtd"
   xmlns:inkscape="http://www.inkscape.org/namespaces/inkscape"
   width="1024px"
   height="768px"
   id="svg3541"
   version="1.1"
   inkscape:version="0.48.4 r9939"
   sodipodi:docname="s4.svg">
  <defs
     id="defs3543">
    <marker
       inkscape:stockid="Arrow2Lstart"
       orient="auto"
       refY="0.0"
       refX="0.0"
       id="Arrow2Lstart"
       style="overflow:visible">
      <path
         id="path10406"
         style="font-size:12.0;fill-rule:evenodd;stroke-width:0.62500000;stroke-linejoin:round"
         d="M 8.7185878,4.0337352 L -2.2072895,0.016013256 L 8.7185884,-4.0017078 C 6.9730900,-1.6296469 6.9831476,1.6157441 8.7185878,4.0337352 z "
         transform="scale(1.1) translate(1,0)" />
    </marker>
    <marker
       inkscape:stockid="Arrow1Lend"
       orient="auto"
       refY="0.0"
       refX="0.0"
       id="Arrow1Lend"
       style="overflow:visible;">
      <path
         id="path8472"
         d="M 0.0,0.0 L 5.0,-5.0 L -12.5,0.0 L 5.0,5.0 L 0.0,0.0 z "
         style="fill-rule:evenodd;stroke:#000000;stroke-width:1.0pt;marker-start:none;"
         transform="scale(0.8) rotate(180) translate(12.5,0)" />
    </marker>
    <marker
       inkscape:stockid="SemiCircleIn"
       orient="auto"
       refY="0.0"
       refX="0.0"
       id="SemiCircleIn"
       style="overflow:visible">
      <path
         id="path9465"
         d="M -0.37450702,-0.045692580 C -0.37450702,2.7143074 1.8654930,4.9543074 4.6254930,4.9543074 L 4.6254930,-5.0456926 C 1.8654930,-5.0456926 -0.37450702,-2.8056926 -0.37450702,-0.045692580 z "
         style="fill-rule:evenodd;stroke:#000000;stroke-width:1.0pt;marker-start:none;marker-end:none"
         transform="scale(0.6)" />
    </marker>
    <marker
       inkscape:stockid="Arrow1Mend"
       orient="auto"
       refY="0.0"
       refX="0.0"
       id="Arrow1Mend"
       style="overflow:visible;">
      <path
         id="path8478"
         d="M 0.0,0.0 L 5.0,-5.0 L -12.5,0.0 L 5.0,5.0 L 0.0,0.0 z "
         style="fill-rule:evenodd;stroke:#000000;stroke-width:1.0pt;marker-start:none;"
         transform="scale(0.4) rotate(180) translate(10,0)" />
    </marker>
    <marker
       inkscape:stockid="Arrow2Lend"
       orient="auto"
       refY="0.0"
       refX="0.0"
       id="Arrow2Lend"
       style="overflow:visible;">
      <path
         id="path8490"
         style="font-size:12.0;fill-rule:evenodd;stroke-width:0.62500000;stroke-linejoin:round;"
         d="M 8.7185878,4.0337352 L -2.2072895,0.016013256 L 8.7185884,-4.0017078 C 6.9730900,-1.6296469 6.9831476,1.6157441 8.7185878,4.0337352 z "
         transform="scale(1.1) rotate(180) translate(1,0)" />
    </marker>
  </defs>
  <sodipodi:namedview
     id="base"
     pagecolor="#ffffff"
     bordercolor="#666666"
     borderopacity="1.0"
     inkscape:pageopacity="0.0"
     inkscape:pageshadow="2"
     inkscape:zoom="1"
     inkscape:cx="491.92125"
     inkscape:cy="388.63422"
     inkscape:current-layer="g6658"
     inkscape:document-units="px"
     showgrid="true"
     inkscape:window-width="1920"
     inkscape:window-height="1020"
     inkscape:window-x="1912"
     inkscape:window-y="-8"
     inkscape:window-maximized="1"
     showguides="true"
     inkscape:guide-bbox="true"
     inkscape:snap-global="false">
    <inkscape:grid
       type="xygrid"
       id="grid5395" />
  </sodipodi:namedview>
  <metadata
     id="metadata3546">
    <rdf:RDF>
      <cc:Work
         rdf:about="">
        <dc:format>image/svg+xml</dc:format>
        <dc:type
           rdf:resource="http://purl.org/dc/dcmitype/StillImage" />
        <dc:title />
      </cc:Work>
    </rdf:RDF>
  </metadata>
  <g
     inkscape:groupmode="layer"
     id="g6658"
     inkscape:label="iteration-1.s4"
     style="display:inline">
    <text
       xml:space="preserve"
       style="font-size:20px;font-style:normal;font-variant:normal;font-weight:normal;font-stretch:normal;text-indent:0;text-align:start;text-decoration:none;line-height:125%;letter-spacing:0px;word-spacing:0px;text-transform:none;direction:ltr;block-progression:tb;writing-mode:lr-tb;text-anchor:start;baseline-shift:baseline;color:#000000;fill:#cccccf;fill-opacity:1;fill-rule:nonzero;stroke:none;stroke-width:1px;marker:none;visibility:visible;display:inline;overflow:visible;enable-background:accumulate;font-family:Architects Daughter;-inkscape-font-specification:Architects Daughter"
       x="42"
       y="90"
       id="text6660"
       sodipodi:linespacing="125%"><tspan
         sodipodi:role="line"
         x="42"
         y="90"
         id="tspan6662">After getting rid of noise (internal isos), </tspan><tspan
         sodipodi:role="line"
         x="42"
         y="115"
         id="tspan6664">two categories basically become iso.</tspan></text>
    <rect
       style="color:#000000;fill:none;stroke:#cccccf;stroke-width:1;stroke-linecap:butt;stroke-linejoin:miter;stroke-miterlimit:4;stroke-opacity:1;stroke-dasharray:none;stroke-dashoffset:0;marker:none;visibility:visible;display:inline;overflow:visible;enable-background:accumulate"
       id="rect6666"
       width="465.16141"
       height="65.926224"
       x="35"
       y="62" />
    <text
       xml:space="preserve"
       style="font-size:20px;font-style:normal;font-variant:normal;font-weight:normal;font-stretch:normal;text-indent:0;text-align:start;text-decoration:none;line-height:125%;letter-spacing:0px;word-spacing:0px;text-transform:none;direction:ltr;block-progression:tb;writing-mode:lr-tb;text-anchor:start;baseline-shift:baseline;color:#000000;fill:#666666;fill-opacity:1;fill-rule:nonzero;stroke:none;stroke-width:1px;marker:none;visibility:visible;display:inline;overflow:visible;enable-background:accumulate;font-family:Architects Daughter;-inkscape-font-specification:Architects Daughter"
       x="593.19922"
       y="213.55078"
       id="text6668"
       sodipodi:linespacing="125%"><tspan
         style="fill:#cccccf"
         sodipodi:role="line"
         id="tspan6670"
         x="593.19922"
         y="213.55078"><tspan
           id="tspan6672"
           style="fill:#666666">extract</tspan><tspan
           style="fill:#eeeeee"
           id="tspan6974"> figure out of category</tspan></tspan><tspan
         style="fill:#cccccf"
         sodipodi:role="line"
         x="593.19922"
         y="238.55078"
         id="tspan6674"><tspan
           style="fill:#eeeeee"
           id="tspan6976">so to take </tspan><tspan
           id="tspan3966"
           style="fill:#666666">all non-iso objects and</tspan></tspan><tspan
         style="fill:#cccccf"
         sodipodi:role="line"
         x="593.19922"
         y="263.55078"
         id="tspan6678"><tspan
   style="fill:#0197fd"
   id="tspan6966">all </tspan><tspan
   id="tspan6972"
   style="fill:#666666">arrows amongst them</tspan>:</tspan><tspan
         sodipodi:role="line"
         x="593.19922"
         y="288.55078"
         id="tspan6682" /></text>
    <text
       xml:space="preserve"
       style="font-size:20px;font-style:normal;font-variant:normal;font-weight:normal;font-stretch:normal;text-indent:0;text-align:start;text-decoration:none;line-height:125%;letter-spacing:0px;word-spacing:0px;text-transform:none;direction:ltr;block-progression:tb;writing-mode:lr-tb;text-anchor:start;baseline-shift:baseline;color:#000000;fill:#666666;fill-opacity:1;fill-rule:nonzero;stroke:none;stroke-width:1px;marker:none;visibility:visible;display:inline;overflow:visible;enable-background:accumulate;font-family:Architects Daughter;-inkscape-font-specification:Architects Daughter"
       x="44.199219"
       y="264.55078"
       id="text6684"
       sodipodi:linespacing="125%"><tspan
         sodipodi:role="line"
         x="44.199219"
         y="264.55078"
         id="tspan6686">Define:</tspan><tspan
         sodipodi:role="line"
         x="44.199219"
         y="289.55078"
         id="tspan6688"> (I) process of &quot;skeleton&quot; extraction.</tspan><tspan
         style="fill:#cccccf"
         sodipodi:role="line"
         x="44.199219"
         y="314.55078"
         id="tspan6690"> (II) 2 categories equivalent when their </tspan><tspan
         style="fill:#cccccf"
         sodipodi:role="line"
         x="44.199219"
         y="339.55078"
         id="tspan6692">   skeletons are iso. </tspan><tspan
         sodipodi:role="line"
         x="44.199219"
         y="364.55078"
         id="tspan6694" /></text>
    <text
       xml:space="preserve"
       style="font-size:20px;font-style:normal;font-variant:normal;font-weight:normal;font-stretch:normal;text-indent:0;text-align:start;text-decoration:none;line-height:125%;letter-spacing:0px;word-spacing:0px;text-transform:none;direction:ltr;block-progression:tb;writing-mode:lr-tb;text-anchor:start;baseline-shift:baseline;color:#000000;fill:#cccccf;fill-opacity:1;fill-rule:nonzero;stroke:none;stroke-width:1px;marker:none;visibility:visible;display:inline;overflow:visible;enable-background:accumulate;font-family:Architects Daughter;-inkscape-font-specification:Architects Daughter"
       x="222"
       y="54"
       id="text6708"
       sodipodi:linespacing="125%"><tspan
         sodipodi:role="line"
         id="tspan6710"
         x="222"
         y="54">Idea</tspan></text>
    <path
       style="fill:#cccccf;stroke:#cccccf;stroke-width:1px;stroke-linecap:butt;stroke-linejoin:miter;stroke-opacity:1"
       d="m 246,137 0,48"
       id="path6712"
       inkscape:connector-curvature="0" />
    <path
       style="color:#000000;fill:#cccccf;fill-opacity:1;fill-rule:nonzero;stroke:none;stroke-width:1px;marker:none;visibility:visible;display:inline;overflow:visible;enable-background:accumulate"
       id="path6714"
       d="m 237.8131,172.98486 c 1.93511,2.62697 4.04527,5.11537 6.09623,7.65184 1.3063,1.60677 2.08768,3.54405 2.69586,5.50414 0.20097,0.56704 0.37075,1.12787 0.65611,1.65958 0.47795,0.89056 2.55951,0.66082 -1.80752,1.46208 -0.23332,0.0428 0.10379,-0.46292 0.15569,-0.69438 0.45319,-2.19777 1.53274,-4.11866 2.80685,-5.93408 1.66731,-2.25782 3.62502,-4.27142 5.70853,-6.14344 0.28266,-0.20496 0.56109,-0.41592 0.848,-0.61489 1.08751,-0.75417 2.16578,-1.52258 3.27504,-2.24439 0.95643,-0.62235 2.08925,-0.82161 3.02063,-1.4764 0,0 -2.1536,2.06198 -2.1536,2.06198 l 0,0 c -0.68601,0.39625 -1.4154,0.62877 -2.12535,0.97884 -0.30215,0.14897 -1.12745,0.72282 -0.88377,0.49021 0.30798,-0.29398 2.89019,-2.02956 0.66875,-0.52505 -2.1089,1.83561 -4.05561,3.85642 -5.74707,6.08713 -1.27925,1.77683 -2.37908,3.64805 -2.84922,5.81422 -0.7947,4.58056 -3.4218,3.69865 -4.05814,0.70519 -0.58542,-1.92795 -1.35138,-3.83305 -2.62367,-5.41716 -2.0422,-2.55162 -4.14312,-5.05203 -6.11337,-7.6605 0,0 2.43002,-1.70492 2.43002,-1.70492 z"
       inkscape:connector-curvature="0" />
    <text
       xml:space="preserve"
       style="font-size:20px;font-style:normal;font-variant:normal;font-weight:normal;font-stretch:normal;text-indent:0;text-align:start;text-decoration:none;line-height:125%;letter-spacing:0px;word-spacing:0px;text-transform:none;direction:ltr;block-progression:tb;writing-mode:lr-tb;text-anchor:start;baseline-shift:baseline;color:#000000;fill:#cccccf;fill-opacity:1;fill-rule:nonzero;stroke:none;stroke-width:1px;marker:none;visibility:visible;display:inline;overflow:visible;enable-background:accumulate;font-family:Architects Daughter;-inkscape-font-specification:Architects Daughter"
       x="131"
       y="227"
       id="text6716"
       sodipodi:linespacing="125%"><tspan
         sodipodi:role="line"
         id="tspan6718"
         x="131"
         y="227">Steps to Formalization</tspan></text>
    <rect
       y="238"
       x="35"
       height="111.92622"
       width="465.16141"
       id="rect6720"
       style="color:#000000;fill:none;stroke:#cccccf;stroke-width:1;stroke-linecap:butt;stroke-linejoin:miter;stroke-miterlimit:4;stroke-opacity:1;stroke-dasharray:none;stroke-dashoffset:0;marker:none;visibility:visible;display:inline;overflow:visible;enable-background:accumulate" />
    <path
       transform="matrix(0,-1.3333333,1.3333333,0,756.9959,1337.9959)"
       d="m 687,66 a 3,3 0 1 1 -6,0 3,3 0 1 1 6,0 z"
       sodipodi:ry="3"
       sodipodi:rx="3"
       sodipodi:cy="66"
       sodipodi:cx="684"
       id="path6734"
       style="color:#000000;fill:#666666;stroke:none;stroke-width:1;marker:none;visibility:visible;display:inline;overflow:visible;enable-background:accumulate"
       sodipodi:type="arc" />
    <path
       sodipodi:nodetypes="cc"
       inkscape:connector-curvature="0"
       id="path6736"
       d="m 856.9959,437.49589 c 24.2846,13.92752 42.6713,9.92915 59,0"
       style="fill:none;stroke:#d9bb7a;stroke-width:1.41421354px;stroke-linecap:butt;stroke-linejoin:miter;stroke-opacity:1" />
    <path
       sodipodi:type="arc"
       style="color:#000000;fill:#d9bb7a;stroke:none;stroke-width:1;marker:none;visibility:visible;display:inline;overflow:visible;enable-background:accumulate"
       id="path6738"
       sodipodi:cx="684"
       sodipodi:cy="66"
       sodipodi:rx="3"
       sodipodi:ry="3"
       d="m 687,66 a 3,3 0 1 1 -6,0 3,3 0 1 1 6,0 z"
       transform="matrix(0,-1.3333333,1.3333333,0,840.9959,1337.9959)" />
    <path
       style="fill:none;stroke:#d9bb7a;stroke-width:1.41421354px;stroke-linecap:butt;stroke-linejoin:miter;stroke-opacity:1"
       d="m 856.9959,414.50411 c 24.2846,-13.92752 42.6713,-9.92915 59,0"
       id="path6740"
       inkscape:connector-curvature="0"
       sodipodi:nodetypes="cc" />
    <path
       inkscape:connector-curvature="0"
       d="m 865.4023,415.61966 c -2.8781,-0.2905 -5.7553,-0.75411 -8.6504,-0.5005 0.1642,-0.0338 -0.689,0.11529 -0.6944,-0.11951 0,-0.19604 0.2901,-0.27433 0.3814,-0.44786 0.211,-0.40108 0.2863,-0.68924 0.434,-1.12679 0.2819,-1.63573 -0.4717,-2.71476 -1.77,-3.61303 -0.8533,-0.61863 -0.4549,-0.28424 -1.1982,-0.9996 0,0 -1.7436,2.41163 -1.7436,2.41163 l 0,0 c 0.7793,0.73819 0.3672,0.39609 1.2364,1.02629 1.2119,0.83921 1.8487,1.86754 1.4635,3.37254 -0.3142,0.82708 -1.2074,2.15348 0.3642,2.04427 2.8728,-0.32327 5.7367,0.1567 8.5937,0.46578 0,0 1.5834,-2.51322 1.5834,-2.51322 z"
       id="path6742"
       style="color:#000000;fill:#d9bb7a;fill-opacity:1;fill-rule:nonzero;stroke:none;stroke-width:1px;marker:none;visibility:visible;display:inline;overflow:visible;enable-background:accumulate" />
    <path
       style="color:#000000;fill:#d9bb7a;fill-opacity:1;fill-rule:nonzero;stroke:none;stroke-width:1px;marker:none;visibility:visible;display:inline;overflow:visible;enable-background:accumulate"
       id="path6744"
       d="m 908.1611,437.32559 c 2.8781,0.2905 5.7553,0.75411 8.6504,0.5005 -0.1642,0.0338 0.689,-0.11529 0.6944,0.11951 0,0.19604 -0.2901,0.27433 -0.3814,0.44786 -0.211,0.40108 -0.2863,0.68924 -0.434,1.12679 -0.2819,1.63573 0.4717,2.71476 1.77,3.61303 0.8533,0.61863 0.4549,0.28424 1.1982,0.9996 0,0 1.7436,-2.41163 1.7436,-2.41163 l 0,0 c -0.7793,-0.73819 -0.3672,-0.39609 -1.2364,-1.02629 -1.2119,-0.83921 -1.8487,-1.86754 -1.4634,-3.37254 0.3141,-0.82708 1.2073,-2.15348 -0.3643,-2.04427 -2.8728,0.32327 -5.7367,-0.1567 -8.5937,-0.46578 0,0 -1.5834,2.51322 -1.5834,2.51322 z"
       inkscape:connector-curvature="0" />
    <g
       id="g6746"
       style="fill:#d9bb7a"
       transform="translate(98,274)">
      <path
         inkscape:connector-curvature="0"
         d="m 783.08639,156.03535 c 3.95061,0.0165 7.90126,0.0118 11.85188,0.0106 2.43548,-0.002 1.24773,-8.6e-4 3.56326,-0.003 0,0 -2.24184,1.91472 -2.24184,1.91472 l 0,0 c -2.31014,-0.002 -1.12498,-0.001 -3.5555,-0.003 -3.9589,-0.001 -7.91783,-0.006 -11.87671,0.0106 0,0 2.25891,-1.9293 2.25891,-1.9293 z"
         id="path6748"
         style="color:#000000;fill:#d9bb7a;fill-opacity:1;fill-rule:nonzero;stroke:none;stroke-width:1px;marker:none;visibility:visible;display:inline;overflow:visible;enable-background:accumulate" />
      <path
         style="color:#000000;fill:#d9bb7a;fill-opacity:1;fill-rule:nonzero;stroke:none;stroke-width:1px;marker:none;visibility:visible;display:inline;overflow:visible;enable-background:accumulate"
         id="path6750"
         d="m 783.08639,152.03535 c 3.95061,0.0165 7.90126,0.0118 11.85188,0.0106 2.43548,-0.002 1.24773,-8.6e-4 3.56326,-0.003 0,0 -2.24184,1.91472 -2.24184,1.91472 l 0,0 c -2.31014,-0.002 -1.12498,-0.001 -3.5555,-0.003 -3.9589,-0.001 -7.91783,-0.006 -11.87671,0.0106 0,0 2.25891,-1.9293 2.25891,-1.9293 z"
         inkscape:connector-curvature="0" />
      <path
         inkscape:connector-curvature="0"
         d="m 781.84816,149.89372 c 1.26265,-0.96421 2.45507,-2.0646 3.82706,-2.84835 0.49563,-0.26468 1.03762,-0.32925 1.58222,-0.35496 0.45917,-0.0352 0.89695,-0.01 1.32594,0.17474 0.36304,0.23095 0.70034,0.47563 1.0087,0.78535 0.331,0.26244 0.59292,0.614 0.94339,0.84718 0.27085,0.25159 0.61464,0.36229 0.93904,0.50969 0.37408,0.14719 0.77509,0.16487 1.16905,0.18232 0.44235,0.0263 0.87066,0.0266 1.30178,-0.0812 0.39851,-0.0345 0.73516,-0.23812 1.09215,-0.40752 0.0641,-0.0384 0.12982,-0.0739 0.19246,-0.11507 0.0684,-0.0449 0.13358,-0.0953 0.20037,-0.14289 0.0723,-0.0438 0.28426,-0.18296 0.21664,-0.13142 -3.71026,2.82785 -0.56856,0.22079 0.57193,-0.39393 0.67755,-0.48002 1.6886,-1.22058 -1.40058,1.0552 -0.0487,0.0359 0.0949,-0.0756 0.14201,-0.1139 0.15739,-0.12819 0.11067,-0.0893 0.26077,-0.22938 0.67345,-0.50162 1.34691,-1.00324 2.02037,-1.50486 -0.58089,0.43239 -2.32333,1.72987 -1.74265,1.29717 0.72011,-0.53658 1.35162,-1.2748 2.18315,-1.57399 0.3152,-0.11342 0.0544,0.0186 0.33475,-0.13953 0.37703,-0.1627 0.75159,-0.31949 1.15048,-0.41103 0.0753,-0.0125 0.15076,-0.0249 0.22613,-0.0374 0,0 -1.7298,1.64123 -1.7298,1.64123 l 0,0 c -0.0723,0.0163 -0.14464,0.0327 -0.21696,0.049 -0.38585,0.11555 -0.75821,0.2765 -1.12508,0.44828 -0.0867,0.036 -0.24676,0.0999 -0.33008,0.14518 -0.0507,0.0276 -0.19333,0.12814 -0.14704,0.0927 0.57532,-0.43998 2.31998,-1.73131 1.7346,-1.30683 -0.71315,0.51713 -4.302,3.24543 -0.28317,0.19625 -0.53501,0.43397 0.27526,-0.23509 -0.25503,0.24385 -0.76995,0.69538 -1.63805,1.28478 -2.501,1.84988 -0.0608,0.0401 -0.24052,0.16479 -0.18237,0.1204 0.55833,-0.4262 2.25362,-1.67361 1.68328,-1.26608 -0.88312,0.63101 -1.727,1.40897 -2.69643,1.91464 -0.36174,0.17878 -0.7312,0.30998 -1.12812,0.36624 -0.4428,0.0791 -0.8907,0.05 -1.33772,0.033 -0.4164,-0.028 -0.83669,-0.0685 -1.22444,-0.24753 -0.33439,-0.15719 -0.68387,-0.28255 -0.96345,-0.54544 -0.34634,-0.26037 -0.62845,-0.6025 -0.96227,-0.88078 -0.28973,-0.27956 -0.607,-0.51285 -0.95387,-0.70519 -0.41351,-0.13574 -0.83451,-0.13444 -1.26392,-0.10044 -0.52587,0.0432 -1.03988,0.14407 -1.50434,0.42941 -0.82892,0.52247 -0.43018,0.28315 1.23727,-0.97658 0.11437,-0.0864 -0.22706,0.17532 -0.34101,0.26237 -0.60545,0.46257 -0.10158,0.0653 -0.68888,0.5486 -0.0963,0.0793 -0.19386,0.15673 -0.29079,0.2351 0,0 -2.07454,1.08649 -2.07454,1.08649 z"
         id="path6752"
         style="color:#000000;fill:#d9bb7a;fill-opacity:1;fill-rule:nonzero;stroke:none;stroke-width:1px;marker:none;visibility:visible;display:inline;overflow:visible;enable-background:accumulate" />
    </g>
    <path
       sodipodi:type="arc"
       style="color:#000000;fill:#666666;stroke:none;stroke-width:1;marker:none;visibility:visible;display:inline;overflow:visible;enable-background:accumulate"
       id="path6754"
       sodipodi:cx="684"
       sodipodi:cy="66"
       sodipodi:rx="3"
       sodipodi:ry="3"
       d="m 687,66 a 3,3 0 1 1 -6,0 3,3 0 1 1 6,0 z"
       transform="matrix(0,-1.3333333,1.3333333,0,756.9959,1437.9959)" />
    <path
       style="fill:none;stroke:#d9bb7a;stroke-width:1.41421354px;stroke-linecap:butt;stroke-linejoin:miter;stroke-opacity:1"
       d="m 856.9959,537.49589 c 24.2846,13.92752 42.6713,9.92915 59,0"
       id="path6756"
       inkscape:connector-curvature="0"
       sodipodi:nodetypes="cc" />
    <path
       transform="matrix(0,-1.3333333,1.3333333,0,840.9959,1437.9959)"
       d="m 687,66 a 3,3 0 1 1 -6,0 3,3 0 1 1 6,0 z"
       sodipodi:ry="3"
       sodipodi:rx="3"
       sodipodi:cy="66"
       sodipodi:cx="684"
       id="path6758"
       style="color:#000000;fill:#d9bb7a;stroke:none;stroke-width:1;marker:none;visibility:visible;display:inline;overflow:visible;enable-background:accumulate"
       sodipodi:type="arc" />
    <path
       sodipodi:nodetypes="cc"
       inkscape:connector-curvature="0"
       id="path6760"
       d="m 856.9959,514.50411 c 24.2846,-13.92752 42.6713,-9.92915 59,0"
       style="fill:none;stroke:#d9bb7a;stroke-width:1.41421354px;stroke-linecap:butt;stroke-linejoin:miter;stroke-opacity:1" />
    <path
       style="color:#000000;fill:#d9bb7a;fill-opacity:1;fill-rule:nonzero;stroke:none;stroke-width:1px;marker:none;visibility:visible;display:inline;overflow:visible;enable-background:accumulate"
       id="path6762"
       d="m 865.4023,515.61966 c -2.8781,-0.2905 -5.7553,-0.75411 -8.6504,-0.5005 0.1642,-0.0338 -0.689,0.11529 -0.6944,-0.11951 0,-0.19604 0.2901,-0.27433 0.3814,-0.44786 0.211,-0.40108 0.2863,-0.68924 0.434,-1.12679 0.2819,-1.63573 -0.4717,-2.71476 -1.77,-3.61303 -0.8533,-0.61863 -0.4549,-0.28424 -1.1982,-0.9996 0,0 -1.7436,2.41163 -1.7436,2.41163 l 0,0 c 0.7793,0.73819 0.3672,0.39609 1.2364,1.02629 1.2119,0.83921 1.8487,1.86754 1.4635,3.37254 -0.3142,0.82708 -1.2074,2.15348 0.3642,2.04427 2.8728,-0.32327 5.7367,0.1567 8.5937,0.46578 0,0 1.5834,-2.51322 1.5834,-2.51322 z"
       inkscape:connector-curvature="0" />
    <path
       inkscape:connector-curvature="0"
       d="m 908.1611,537.32559 c 2.8781,0.2905 5.7553,0.75411 8.6504,0.5005 -0.1642,0.0338 0.689,-0.11529 0.6944,0.11951 0,0.19604 -0.2901,0.27433 -0.3814,0.44786 -0.211,0.40108 -0.2863,0.68924 -0.434,1.12679 -0.2819,1.63573 0.4717,2.71476 1.77,3.61303 0.8533,0.61863 0.4549,0.28424 1.1982,0.9996 0,0 1.7436,-2.41163 1.7436,-2.41163 l 0,0 c -0.7793,-0.73819 -0.3672,-0.39609 -1.2364,-1.02629 -1.2119,-0.83921 -1.8487,-1.86754 -1.4634,-3.37254 0.3141,-0.82708 1.2073,-2.15348 -0.3643,-2.04427 -2.8728,0.32327 -5.7367,-0.1567 -8.5937,-0.46578 0,0 -1.5834,2.51322 -1.5834,2.51322 z"
       id="path6764"
       style="color:#000000;fill:#d9bb7a;fill-opacity:1;fill-rule:nonzero;stroke:none;stroke-width:1px;marker:none;visibility:visible;display:inline;overflow:visible;enable-background:accumulate" />
    <g
       transform="translate(98,374)"
       style="fill:#d9bb7a"
       id="g6766">
      <path
         style="color:#000000;fill:#d9bb7a;fill-opacity:1;fill-rule:nonzero;stroke:none;stroke-width:1px;marker:none;visibility:visible;display:inline;overflow:visible;enable-background:accumulate"
         id="path6768"
         d="m 783.08639,156.03535 c 3.95061,0.0165 7.90126,0.0118 11.85188,0.0106 2.43548,-0.002 1.24773,-8.6e-4 3.56326,-0.003 0,0 -2.24184,1.91472 -2.24184,1.91472 l 0,0 c -2.31014,-0.002 -1.12498,-0.001 -3.5555,-0.003 -3.9589,-0.001 -7.91783,-0.006 -11.87671,0.0106 0,0 2.25891,-1.9293 2.25891,-1.9293 z"
         inkscape:connector-curvature="0" />
      <path
         inkscape:connector-curvature="0"
         d="m 783.08639,152.03535 c 3.95061,0.0165 7.90126,0.0118 11.85188,0.0106 2.43548,-0.002 1.24773,-8.6e-4 3.56326,-0.003 0,0 -2.24184,1.91472 -2.24184,1.91472 l 0,0 c -2.31014,-0.002 -1.12498,-0.001 -3.5555,-0.003 -3.9589,-0.001 -7.91783,-0.006 -11.87671,0.0106 0,0 2.25891,-1.9293 2.25891,-1.9293 z"
         id="path6770"
         style="color:#000000;fill:#d9bb7a;fill-opacity:1;fill-rule:nonzero;stroke:none;stroke-width:1px;marker:none;visibility:visible;display:inline;overflow:visible;enable-background:accumulate" />
      <path
         style="color:#000000;fill:#d9bb7a;fill-opacity:1;fill-rule:nonzero;stroke:none;stroke-width:1px;marker:none;visibility:visible;display:inline;overflow:visible;enable-background:accumulate"
         id="path6772"
         d="m 781.84816,149.89372 c 1.26265,-0.96421 2.45507,-2.0646 3.82706,-2.84835 0.49563,-0.26468 1.03762,-0.32925 1.58222,-0.35496 0.45917,-0.0352 0.89695,-0.01 1.32594,0.17474 0.36304,0.23095 0.70034,0.47563 1.0087,0.78535 0.331,0.26244 0.59292,0.614 0.94339,0.84718 0.27085,0.25159 0.61464,0.36229 0.93904,0.50969 0.37408,0.14719 0.77509,0.16487 1.16905,0.18232 0.44235,0.0263 0.87066,0.0266 1.30178,-0.0812 0.39851,-0.0345 0.73516,-0.23812 1.09215,-0.40752 0.0641,-0.0384 0.12982,-0.0739 0.19246,-0.11507 0.0684,-0.0449 0.13358,-0.0953 0.20037,-0.14289 0.0723,-0.0438 0.28426,-0.18296 0.21664,-0.13142 -3.71026,2.82785 -0.56856,0.22079 0.57193,-0.39393 0.67755,-0.48002 1.6886,-1.22058 -1.40058,1.0552 -0.0487,0.0359 0.0949,-0.0756 0.14201,-0.1139 0.15739,-0.12819 0.11067,-0.0893 0.26077,-0.22938 0.67345,-0.50162 1.34691,-1.00324 2.02037,-1.50486 -0.58089,0.43239 -2.32333,1.72987 -1.74265,1.29717 0.72011,-0.53658 1.35162,-1.2748 2.18315,-1.57399 0.3152,-0.11342 0.0544,0.0186 0.33475,-0.13953 0.37703,-0.1627 0.75159,-0.31949 1.15048,-0.41103 0.0753,-0.0125 0.15076,-0.0249 0.22613,-0.0374 0,0 -1.7298,1.64123 -1.7298,1.64123 l 0,0 c -0.0723,0.0163 -0.14464,0.0327 -0.21696,0.049 -0.38585,0.11555 -0.75821,0.2765 -1.12508,0.44828 -0.0867,0.036 -0.24676,0.0999 -0.33008,0.14518 -0.0507,0.0276 -0.19333,0.12814 -0.14704,0.0927 0.57532,-0.43998 2.31998,-1.73131 1.7346,-1.30683 -0.71315,0.51713 -4.302,3.24543 -0.28317,0.19625 -0.53501,0.43397 0.27526,-0.23509 -0.25503,0.24385 -0.76995,0.69538 -1.63805,1.28478 -2.501,1.84988 -0.0608,0.0401 -0.24052,0.16479 -0.18237,0.1204 0.55833,-0.4262 2.25362,-1.67361 1.68328,-1.26608 -0.88312,0.63101 -1.727,1.40897 -2.69643,1.91464 -0.36174,0.17878 -0.7312,0.30998 -1.12812,0.36624 -0.4428,0.0791 -0.8907,0.05 -1.33772,0.033 -0.4164,-0.028 -0.83669,-0.0685 -1.22444,-0.24753 -0.33439,-0.15719 -0.68387,-0.28255 -0.96345,-0.54544 -0.34634,-0.26037 -0.62845,-0.6025 -0.96227,-0.88078 -0.28973,-0.27956 -0.607,-0.51285 -0.95387,-0.70519 -0.41351,-0.13574 -0.83451,-0.13444 -1.26392,-0.10044 -0.52587,0.0432 -1.03988,0.14407 -1.50434,0.42941 -0.82892,0.52247 -0.43018,0.28315 1.23727,-0.97658 0.11437,-0.0864 -0.22706,0.17532 -0.34101,0.26237 -0.60545,0.46257 -0.10158,0.0653 -0.68888,0.5486 -0.0963,0.0793 -0.19386,0.15673 -0.29079,0.2351 0,0 -2.07454,1.08649 -2.07454,1.08649 z"
         inkscape:connector-curvature="0" />
    </g>
    <path
       style="fill:none;stroke:#cccccf;stroke-width:1px;stroke-linecap:butt;stroke-linejoin:miter;stroke-opacity:1"
       d="m 929,455 0,43"
       id="path6774"
       inkscape:connector-curvature="0" />
    <path
       style="color:#000000;fill:#cccccf;fill-opacity:1;fill-rule:nonzero;stroke:none;stroke-width:1px;marker:none;visibility:visible;display:inline;overflow:visible;enable-background:accumulate"
       id="path6776"
       d="m 924.0152,495.5738 c 2.1911,1.49472 4.2732,3.33626 5.7496,5.55842 0.7622,1.25476 1.3526,1.06362 -1.9333,1.90521 -0.2401,0.0615 0.3719,-2.10783 0.4022,-2.20953 1.1615,-2.97316 3.5023,-4.32674 6.0835,-6.04169 0.9494,-0.58051 0.4673,-0.30988 1.4457,-0.81308 0,0 -2.1658,2.03947 -2.1658,2.03947 l 0,0 c -0.9637,0.52032 -0.4839,0.24826 -1.4389,0.81708 0.5446,-0.41582 1.0882,-0.83301 1.6338,-1.24745 0.2405,-0.18262 -0.4955,0.34807 -0.7182,0.55201 -0.9601,0.8795 -1.682,2.07028 -2.259,3.21855 -0.2383,0.71057 -0.3258,0.82852 -0.397,1.54795 -0.02,0.20653 0.1325,0.47343 -0.012,0.6225 -2.3697,2.44643 -2.156,2.8574 -3.0793,1.30557 -1.4278,-2.19829 -3.4963,-4.00853 -5.6672,-5.44567 0,0 2.3558,-1.80934 2.3558,-1.80934 z"
       inkscape:connector-curvature="0" />
    <path
       style="fill:none;stroke:#cccccf;stroke-width:1px;stroke-linecap:butt;stroke-linejoin:miter;stroke-opacity:1"
       d="m 915,459 -55,35"
       id="path6778"
       inkscape:connector-curvature="0" />
    <path
       style="color:#000000;fill:#cccccf;fill-opacity:1;fill-rule:nonzero;stroke:none;stroke-width:1px;marker:none;visibility:visible;display:inline;overflow:visible;enable-background:accumulate"
       id="path6780"
       d="m 861.1563,484.19672 c -0.4844,3.17207 -1.7918,6.12426 -2.6381,9.19628 -0.3448,2.18935 0.8141,1.72599 2.425,2.01851 1.0008,0.30853 2.7947,0.19191 3.4983,1.14955 0.1175,0.15992 0.1125,0.3806 0.1687,0.57091 0,0 -2.5115,1.61313 -2.5115,1.61313 l 0,0 c -0.1206,-1.24929 -2.531,-1.1703 -3.4521,-1.43816 -1.6322,-0.2588 -3.0699,-0.3222 -2.6931,-2.43425 0.8187,-3.06716 2.1716,-5.99292 2.651,-9.15553 0,0 2.5518,-1.52044 2.5518,-1.52044 z"
       inkscape:connector-curvature="0" />
    <path
       inkscape:connector-curvature="0"
       id="path6782"
       d="m 856.3928,459 55,35"
       style="fill:none;stroke:#cccccf;stroke-width:1px;stroke-linecap:butt;stroke-linejoin:miter;stroke-opacity:1" />
    <path
       inkscape:connector-curvature="0"
       d="m 910.2366,484.19672 c 0.4843,3.17207 1.7918,6.12426 2.6381,9.19628 0.3447,2.18935 -0.8141,1.72599 -2.425,2.01851 -1.0009,0.30853 -2.7948,0.19191 -3.4984,1.14955 -0.1174,0.15992 -0.1124,0.3806 -0.1686,0.57091 0,0 2.5115,1.61313 2.5115,1.61313 l 0,0 c 0.1205,-1.24929 2.531,-1.1703 3.452,-1.43816 1.6323,-0.2588 3.07,-0.3222 2.6932,-2.43425 -0.8188,-3.06716 -2.1717,-5.99292 -2.651,-9.15553 0,0 -2.5518,-1.52044 -2.5518,-1.52044 z"
       id="path6784"
       style="color:#000000;fill:#cccccf;fill-opacity:1;fill-rule:nonzero;stroke:none;stroke-width:1px;marker:none;visibility:visible;display:inline;overflow:visible;enable-background:accumulate" />
    <path
       inkscape:connector-curvature="0"
       id="path6786"
       d="m 843,455 0,43"
       style="fill:#666666;stroke:#666666;stroke-width:1px;stroke-linecap:butt;stroke-linejoin:miter;stroke-opacity:1" />
    <path
       inkscape:connector-curvature="0"
       d="m 838.0152,495.5738 c 2.1911,1.49472 4.2732,3.33626 5.7496,5.55842 0.7622,1.25476 1.3526,1.06362 -1.9333,1.90521 -0.2401,0.0615 0.3719,-2.10783 0.4022,-2.20953 1.1615,-2.97316 3.5023,-4.32674 6.0835,-6.04169 0.9494,-0.58051 0.4673,-0.30988 1.4457,-0.81308 0,0 -2.1658,2.03947 -2.1658,2.03947 l 0,0 c -0.9637,0.52032 -0.4839,0.24826 -1.4389,0.81708 0.5446,-0.41582 1.0882,-0.83301 1.6338,-1.24745 0.2405,-0.18262 -0.4955,0.34807 -0.7182,0.55201 -0.9601,0.8795 -1.682,2.07028 -2.259,3.21855 -0.2383,0.71057 -0.3258,0.82852 -0.397,1.54795 -0.02,0.20653 0.1325,0.47343 -0.012,0.6225 -2.3697,2.44643 -2.156,2.8574 -3.0793,1.30557 -1.4278,-2.19829 -3.4963,-4.00853 -5.6672,-5.44567 0,0 2.3558,-1.80934 2.3558,-1.80934 z"
       id="path6788"
       style="color:#000000;fill:#666666;fill-opacity:1;fill-rule:nonzero;stroke:none;stroke-width:1px;marker:none;visibility:visible;display:inline;overflow:visible;enable-background:accumulate" />
    <path
       sodipodi:nodetypes="cc"
       inkscape:connector-curvature="0"
       id="path6790"
       d="m 825.5,446 c -13.9275,24.2846 -9.9291,42.67133 0,59"
       style="fill:none;stroke:#666666;stroke-width:1.41421354px;stroke-linecap:butt;stroke-linejoin:miter;stroke-opacity:1" />
    <path
       style="color:#000000;fill:#666666;fill-opacity:1;fill-rule:nonzero;stroke:none;stroke-width:1px;marker:none;visibility:visible;display:inline;overflow:visible;enable-background:accumulate"
       id="path6792"
       d="m 825.6703,497.16523 c -0.2905,2.87806 -0.7541,5.75524 -0.5005,8.65043 -0.034,-0.16424 0.1153,0.68891 -0.1195,0.69438 -0.1961,0.005 -0.2743,-0.2901 -0.4479,-0.38141 -0.401,-0.21106 -0.6892,-0.28635 -1.1268,-0.43404 -1.6357,-0.2819 -2.7147,0.47173 -3.613,1.77006 -0.6186,0.85325 -0.2842,0.45487 -0.9996,1.19812 0,0 2.4116,1.74362 2.4116,1.74362 l 0,0 c 0.7382,-0.77927 0.3961,-0.36715 1.0263,-1.23638 0.8392,-1.21191 1.8676,-1.84873 3.3726,-1.46345 0.8271,0.31419 2.1534,1.20733 2.0442,-0.36424 -0.3232,-2.87279 0.1567,-5.73674 0.4658,-8.59367 0,0 -2.5132,-1.58342 -2.5132,-1.58342 z"
       inkscape:connector-curvature="0" />
    <path
       style="fill:none;stroke:#cccccf;stroke-width:1.41421354px;stroke-linecap:butt;stroke-linejoin:miter;stroke-opacity:1"
       d="m 946.4682,446 c 13.9275,24.2846 9.9291,42.67133 0,59"
       id="path6794"
       inkscape:connector-curvature="0"
       sodipodi:nodetypes="cc" />
    <path
       inkscape:connector-curvature="0"
       d="m 946.2979,497.16523 c 0.2905,2.87806 0.7541,5.75524 0.5005,8.65043 0.034,-0.16424 -0.1153,0.68891 0.1195,0.69438 0.196,0.005 0.2743,-0.2901 0.4479,-0.38141 0.401,-0.21106 0.6892,-0.28635 1.1268,-0.43404 1.6357,-0.2819 2.7147,0.47173 3.613,1.77006 0.6186,0.85325 0.2842,0.45487 0.9996,1.19812 0,0 -2.4116,1.74362 -2.4116,1.74362 l 0,0 c -0.7382,-0.77927 -0.3961,-0.36715 -1.0263,-1.23638 -0.8392,-1.21191 -1.8676,-1.84873 -3.3726,-1.46345 -0.8271,0.31419 -2.1535,1.20733 -2.0442,-0.36424 0.3232,-2.87279 -0.1567,-5.73674 -0.4658,-8.59367 0,0 2.5132,-1.58342 2.5132,-1.58342 z"
       id="path6796"
       style="color:#000000;fill:#cccccf;fill-opacity:1;fill-rule:nonzero;stroke:none;stroke-width:1px;marker:none;visibility:visible;display:inline;overflow:visible;enable-background:accumulate" />
    <rect
       style="color:#000000;fill:none;stroke:#eeeeee;stroke-width:1;stroke-linecap:butt;stroke-linejoin:miter;stroke-miterlimit:4;stroke-opacity:1;stroke-dasharray:none;stroke-dashoffset:0;marker:none;visibility:visible;display:inline;overflow:visible;enable-background:accumulate"
       id="rect6798"
       width="164"
       height="332"
       x="803"
       y="394" />
    <path
       style="color:#000000;fill:none;stroke:#666666;stroke-width:1px;marker:none;visibility:visible;display:inline;overflow:visible;enable-background:accumulate"
       id="path6800"
       d="m 804.1285,358.56827 c 2.8916,1.5736 5.382,3.71871 7.8908,5.82092 1.7611,1.545 3.825,2.24669 6.1045,2.5329 2.5496,-0.0326 4.9237,-1.08297 7.114,-2.30344 1.7262,-0.94176 0.6676,-0.31534 2.2225,-1.3458 0.3147,-0.2086 1.2642,-0.8264 0.9502,-0.6167 -3.176,2.12069 -1.1107,0.56326 -0.3949,-0.33517 1.0101,-1.42262 1.5569,-2.89641 0.2431,-4.26156 -1.5541,-1.04374 -3.3546,-1.02492 -5.1344,-0.79594 -2.2615,0.61504 -4.3075,1.84495 -6.2838,3.0751 -0.3893,0.26877 -1.6392,0.85004 -1.1681,0.80632 0.4914,-0.0456 0.8643,-1.13577 1.2374,-0.81275 0.3648,0.31585 -0.7653,0.58905 -1.1275,0.90788 -1.1911,1.04841 -2.2177,2.23584 -3.2302,3.4513 -2.0046,2.63642 -3.4863,5.64389 -4.5132,8.78461 -0.5461,2.09204 -0.9092,4.28658 -0.6912,6.44934 0.5775,1.9827 2.4076,1.05805 3.7337,0.422 2.0881,-1.3509 4.378,-2.30796 6.6843,-3.21132 2.0328,-0.73439 4.0902,-1.14881 6.2078,-0.63103 1.2475,0.23009 2.1891,1.09006 3.4296,1.28788 0,0 -2.3024,1.88832 -2.3024,1.88832 l 0,0 c -1.207,-0.29256 -2.194,-1.06052 -3.4268,-1.29915 -2.0841,-0.43377 -4.1119,0.0269 -6.0883,0.76289 -2.3001,0.92062 -4.5665,1.90797 -6.6742,3.2241 -1.5741,0.69632 -3.432,1.25382 -4.0808,-0.86308 -0.2597,-2.19515 0.1114,-4.43174 0.6397,-6.56397 1.0061,-3.17146 2.4886,-6.20446 4.4669,-8.88622 2.5515,-3.13659 5.5351,-5.68329 9.0429,-7.75932 2.0009,-1.22167 4.069,-2.46893 6.3792,-2.98794 1.8594,-0.20259 3.7383,-0.13412 5.313,1.00811 1.3728,1.4805 1.0646,3.02249 -0.026,4.62284 -1.9414,2.55294 -4.8228,4.12412 -7.5579,5.7096 -2.2394,1.19975 -4.655,2.23652 -7.2449,2.16917 -2.3194,-0.32703 -4.4137,-1.0927 -6.1999,-2.67086 -2.4896,-2.09294 -4.9578,-4.23802 -7.858,-5.75863 0,0 2.3432,-1.8204 2.3432,-1.8204 z"
       inkscape:connector-curvature="0" />
    <path
       style="color:#000000;fill:none;stroke:#666666;stroke-width:1px;marker:none;visibility:visible;display:inline;overflow:visible;enable-background:accumulate"
       id="path6802"
       d="m 700.9765,358.29403 c -2.5026,-1.68786 -5.2219,-3.14536 -8.2168,-3.67096 -1.3196,-0.17272 -2.5879,0.12614 -3.7726,0.69311 -0.2605,0.12463 -0.9981,0.56919 -0.7762,0.38449 0.5455,-0.454 1.1718,-0.80095 1.7577,-1.20143 -1.3791,0.92399 -2.6502,2.02742 -3.6183,3.38047 -0.7432,1.35284 0.503,1.79121 1.5525,2.3195 1.6669,0.55837 3.3491,1.0798 5.0764,1.42386 1.7526,0.54864 3.4976,1.10101 5.1765,1.84967 2.0056,0.91666 3.4189,2.51831 4.6992,4.25591 1.051,1.60519 1.2525,3.48516 1.3793,5.3503 -5e-4,1.67689 -0.6242,3.18754 -1.1914,4.72723 -1.074,2.18472 -3.2724,3.80125 -5.5057,4.65109 -1.5373,0.48169 -3.0582,0.0406 -4.4995,-0.52717 -1.6562,-0.79644 -3.2393,-1.71011 -4.8106,-2.65767 -1.545,-0.84821 -3.3066,-1.05571 -4.9742,-1.56194 -1.6158,-0.53167 -3.1667,-0.64048 -4.7775,-0.0913 -0.7917,0.8568 -3.4658,1.43475 0.4292,-0.29684 0.238,-0.10584 -0.3599,0.38015 -0.5052,0.59638 -0.3312,0.49282 -0.2705,0.5037 -0.2908,1.01778 0,0 -2.5407,1.56548 -2.5407,1.56548 l 0,0 c -0.1969,-2.5984 3.2234,-3.69992 5.1106,-4.88176 1.6607,-0.46333 3.2557,-0.32052 4.8922,0.22556 1.6869,0.50829 3.4741,0.72024 5.018,1.62221 1.5552,0.94463 3.1319,1.84243 4.7829,2.61378 1.4077,0.53912 2.8806,0.9003 4.3512,0.35488 1.2156,-0.54838 1.3356,-0.66012 -1.0973,1.00033 -0.1944,0.13267 0.3708,-0.29167 0.5373,-0.45804 0.3336,-0.33345 0.6647,-0.67502 0.9378,-1.05957 0.1423,-0.20029 0.235,-0.43147 0.3525,-0.64721 0.5386,-1.51947 1.2175,-2.97429 1.2585,-4.62469 -0.1121,-1.80982 -0.2758,-3.64433 -1.2864,-5.20898 -1.2501,-1.70204 -2.6285,-3.26066 -4.6053,-4.13232 -1.669,-0.72239 -3.3956,-1.28079 -5.1373,-1.80017 -1.7443,-0.36463 -3.4603,-0.87614 -5.1341,-1.48166 -1.1612,-0.60693 -2.5096,-1.21703 -1.823,-2.74447 0.9103,-1.40648 2.1905,-2.53543 3.5692,-3.47626 2.5003,-1.72816 4.5888,-3.49289 7.754,-3.0624 3.0146,0.61456 5.7579,2.06507 8.3003,3.76856 0,0 -2.3724,1.78424 -2.3724,1.78424 z"
       inkscape:connector-curvature="0" />
    <path
       sodipodi:type="arc"
       style="color:#000000;fill:#666666;stroke:none;stroke-width:1;marker:none;visibility:visible;display:inline;overflow:visible;enable-background:accumulate"
       id="path6804"
       sodipodi:cx="684"
       sodipodi:cy="66"
       sodipodi:rx="3"
       sodipodi:ry="3"
       d="m 687,66 a 3,3 0 1 1 -6,0 3,3 0 1 1 6,0 z"
       transform="matrix(0,-1.3333333,1.3333333,0,496.9959,1507.9959)" />
    <path
       style="fill:none;stroke:#d9bb7a;stroke-width:1.41421354px;stroke-linecap:butt;stroke-linejoin:miter;stroke-opacity:1"
       d="m 856.9959,607.49589 c 24.2846,13.92752 42.6713,9.92915 59,0"
       id="path6806"
       inkscape:connector-curvature="0"
       sodipodi:nodetypes="cc" />
    <path
       transform="matrix(0,-1.3333333,1.3333333,0,840.9959,1507.9959)"
       d="m 687,66 a 3,3 0 1 1 -6,0 3,3 0 1 1 6,0 z"
       sodipodi:ry="3"
       sodipodi:rx="3"
       sodipodi:cy="66"
       sodipodi:cx="684"
       id="path6808"
       style="color:#000000;fill:#d9bb7a;stroke:none;stroke-width:1;marker:none;visibility:visible;display:inline;overflow:visible;enable-background:accumulate"
       sodipodi:type="arc" />
    <path
       sodipodi:nodetypes="cc"
       inkscape:connector-curvature="0"
       id="path6810"
       d="m 856.9959,584.50411 c 24.2846,-13.92752 42.6713,-9.92915 59,0"
       style="fill:none;stroke:#d9bb7a;stroke-width:1.41421354px;stroke-linecap:butt;stroke-linejoin:miter;stroke-opacity:1" />
    <path
       style="color:#000000;fill:#d9bb7a;fill-opacity:1;fill-rule:nonzero;stroke:none;stroke-width:1px;marker:none;visibility:visible;display:inline;overflow:visible;enable-background:accumulate"
       id="path6812"
       d="m 865.4023,585.61966 c -2.8781,-0.2905 -5.7553,-0.75411 -8.6504,-0.5005 0.1642,-0.0338 -0.689,0.11529 -0.6944,-0.11951 0,-0.19604 0.2901,-0.27433 0.3814,-0.44786 0.211,-0.40108 0.2863,-0.68924 0.434,-1.12679 0.2819,-1.63573 -0.4717,-2.71476 -1.77,-3.61303 -0.8533,-0.61863 -0.4549,-0.28424 -1.1982,-0.9996 0,0 -1.7436,2.41163 -1.7436,2.41163 l 0,0 c 0.7793,0.73819 0.3672,0.39609 1.2364,1.02629 1.2119,0.83921 1.8487,1.86754 1.4635,3.37254 -0.3142,0.82708 -1.2074,2.15348 0.3642,2.04427 2.8728,-0.32327 5.7367,0.1567 8.5937,0.46578 0,0 1.5834,-2.51322 1.5834,-2.51322 z"
       inkscape:connector-curvature="0" />
    <path
       inkscape:connector-curvature="0"
       d="m 908.1611,607.32559 c 2.8781,0.2905 5.7553,0.75411 8.6504,0.5005 -0.1642,0.0338 0.689,-0.11529 0.6944,0.11951 0,0.19604 -0.2901,0.27433 -0.3814,0.44786 -0.211,0.40108 -0.2863,0.68924 -0.434,1.12679 -0.2819,1.63573 0.4717,2.71476 1.77,3.61303 0.8533,0.61863 0.4549,0.28424 1.1982,0.9996 0,0 1.7436,-2.41163 1.7436,-2.41163 l 0,0 c -0.7793,-0.73819 -0.3672,-0.39609 -1.2364,-1.02629 -1.2119,-0.83921 -1.8487,-1.86754 -1.4634,-3.37254 0.3141,-0.82708 1.2073,-2.15348 -0.3643,-2.04427 -2.8728,0.32327 -5.7367,-0.1567 -8.5937,-0.46578 0,0 -1.5834,2.51322 -1.5834,2.51322 z"
       id="path6814"
       style="color:#000000;fill:#d9bb7a;fill-opacity:1;fill-rule:nonzero;stroke:none;stroke-width:1px;marker:none;visibility:visible;display:inline;overflow:visible;enable-background:accumulate" />
    <g
       transform="translate(98,444)"
       style="fill:#d9bb7a"
       id="g6816">
      <path
         style="color:#000000;fill:#d9bb7a;fill-opacity:1;fill-rule:nonzero;stroke:none;stroke-width:1px;marker:none;visibility:visible;display:inline;overflow:visible;enable-background:accumulate"
         id="path6818"
         d="m 783.08639,156.03535 c 3.95061,0.0165 7.90126,0.0118 11.85188,0.0106 2.43548,-0.002 1.24773,-8.6e-4 3.56326,-0.003 0,0 -2.24184,1.91472 -2.24184,1.91472 l 0,0 c -2.31014,-0.002 -1.12498,-0.001 -3.5555,-0.003 -3.9589,-0.001 -7.91783,-0.006 -11.87671,0.0106 0,0 2.25891,-1.9293 2.25891,-1.9293 z"
         inkscape:connector-curvature="0" />
      <path
         inkscape:connector-curvature="0"
         d="m 783.08639,152.03535 c 3.95061,0.0165 7.90126,0.0118 11.85188,0.0106 2.43548,-0.002 1.24773,-8.6e-4 3.56326,-0.003 0,0 -2.24184,1.91472 -2.24184,1.91472 l 0,0 c -2.31014,-0.002 -1.12498,-0.001 -3.5555,-0.003 -3.9589,-0.001 -7.91783,-0.006 -11.87671,0.0106 0,0 2.25891,-1.9293 2.25891,-1.9293 z"
         id="path6820"
         style="color:#000000;fill:#d9bb7a;fill-opacity:1;fill-rule:nonzero;stroke:none;stroke-width:1px;marker:none;visibility:visible;display:inline;overflow:visible;enable-background:accumulate" />
      <path
         style="color:#000000;fill:#d9bb7a;fill-opacity:1;fill-rule:nonzero;stroke:none;stroke-width:1px;marker:none;visibility:visible;display:inline;overflow:visible;enable-background:accumulate"
         id="path6822"
         d="m 781.84816,149.89372 c 1.26265,-0.96421 2.45507,-2.0646 3.82706,-2.84835 0.49563,-0.26468 1.03762,-0.32925 1.58222,-0.35496 0.45917,-0.0352 0.89695,-0.01 1.32594,0.17474 0.36304,0.23095 0.70034,0.47563 1.0087,0.78535 0.331,0.26244 0.59292,0.614 0.94339,0.84718 0.27085,0.25159 0.61464,0.36229 0.93904,0.50969 0.37408,0.14719 0.77509,0.16487 1.16905,0.18232 0.44235,0.0263 0.87066,0.0266 1.30178,-0.0812 0.39851,-0.0345 0.73516,-0.23812 1.09215,-0.40752 0.0641,-0.0384 0.12982,-0.0739 0.19246,-0.11507 0.0684,-0.0449 0.13358,-0.0953 0.20037,-0.14289 0.0723,-0.0438 0.28426,-0.18296 0.21664,-0.13142 -3.71026,2.82785 -0.56856,0.22079 0.57193,-0.39393 0.67755,-0.48002 1.6886,-1.22058 -1.40058,1.0552 -0.0487,0.0359 0.0949,-0.0756 0.14201,-0.1139 0.15739,-0.12819 0.11067,-0.0893 0.26077,-0.22938 0.67345,-0.50162 1.34691,-1.00324 2.02037,-1.50486 -0.58089,0.43239 -2.32333,1.72987 -1.74265,1.29717 0.72011,-0.53658 1.35162,-1.2748 2.18315,-1.57399 0.3152,-0.11342 0.0544,0.0186 0.33475,-0.13953 0.37703,-0.1627 0.75159,-0.31949 1.15048,-0.41103 0.0753,-0.0125 0.15076,-0.0249 0.22613,-0.0374 0,0 -1.7298,1.64123 -1.7298,1.64123 l 0,0 c -0.0723,0.0163 -0.14464,0.0327 -0.21696,0.049 -0.38585,0.11555 -0.75821,0.2765 -1.12508,0.44828 -0.0867,0.036 -0.24676,0.0999 -0.33008,0.14518 -0.0507,0.0276 -0.19333,0.12814 -0.14704,0.0927 0.57532,-0.43998 2.31998,-1.73131 1.7346,-1.30683 -0.71315,0.51713 -4.302,3.24543 -0.28317,0.19625 -0.53501,0.43397 0.27526,-0.23509 -0.25503,0.24385 -0.76995,0.69538 -1.63805,1.28478 -2.501,1.84988 -0.0608,0.0401 -0.24052,0.16479 -0.18237,0.1204 0.55833,-0.4262 2.25362,-1.67361 1.68328,-1.26608 -0.88312,0.63101 -1.727,1.40897 -2.69643,1.91464 -0.36174,0.17878 -0.7312,0.30998 -1.12812,0.36624 -0.4428,0.0791 -0.8907,0.05 -1.33772,0.033 -0.4164,-0.028 -0.83669,-0.0685 -1.22444,-0.24753 -0.33439,-0.15719 -0.68387,-0.28255 -0.96345,-0.54544 -0.34634,-0.26037 -0.62845,-0.6025 -0.96227,-0.88078 -0.28973,-0.27956 -0.607,-0.51285 -0.95387,-0.70519 -0.41351,-0.13574 -0.83451,-0.13444 -1.26392,-0.10044 -0.52587,0.0432 -1.03988,0.14407 -1.50434,0.42941 -0.82892,0.52247 -0.43018,0.28315 1.23727,-0.97658 0.11437,-0.0864 -0.22706,0.17532 -0.34101,0.26237 -0.60545,0.46257 -0.10158,0.0653 -0.68888,0.5486 -0.0963,0.0793 -0.19386,0.15673 -0.29079,0.2351 0,0 -2.07454,1.08649 -2.07454,1.08649 z"
         inkscape:connector-curvature="0" />
    </g>
    <path
       transform="matrix(0,-1.3333333,1.3333333,0,496.9959,1607.9959)"
       d="m 687,66 a 3,3 0 1 1 -6,0 3,3 0 1 1 6,0 z"
       sodipodi:ry="3"
       sodipodi:rx="3"
       sodipodi:cy="66"
       sodipodi:cx="684"
       id="path6824"
       style="color:#000000;fill:#666666;stroke:none;stroke-width:1;marker:none;visibility:visible;display:inline;overflow:visible;enable-background:accumulate"
       sodipodi:type="arc" />
    <path
       sodipodi:nodetypes="cc"
       inkscape:connector-curvature="0"
       id="path6826"
       d="m 856.9959,707.49589 c 24.2846,13.92752 42.6713,9.92915 59,0"
       style="fill:none;stroke:#d9bb7a;stroke-width:1.41421354px;stroke-linecap:butt;stroke-linejoin:miter;stroke-opacity:1" />
    <path
       sodipodi:type="arc"
       style="color:#000000;fill:#d9bb7a;stroke:none;stroke-width:1;marker:none;visibility:visible;display:inline;overflow:visible;enable-background:accumulate"
       id="path6828"
       sodipodi:cx="684"
       sodipodi:cy="66"
       sodipodi:rx="3"
       sodipodi:ry="3"
       d="m 687,66 a 3,3 0 1 1 -6,0 3,3 0 1 1 6,0 z"
       transform="matrix(0,-1.3333333,1.3333333,0,840.9959,1607.9959)" />
    <path
       style="fill:none;stroke:#d9bb7a;stroke-width:1.41421354px;stroke-linecap:butt;stroke-linejoin:miter;stroke-opacity:1"
       d="m 856.9959,684.50411 c 24.2846,-13.92752 42.6713,-9.92915 59,0"
       id="path6830"
       inkscape:connector-curvature="0"
       sodipodi:nodetypes="cc" />
    <path
       inkscape:connector-curvature="0"
       d="m 865.4023,685.61966 c -2.8781,-0.2905 -5.7553,-0.75411 -8.6504,-0.5005 0.1642,-0.0338 -0.689,0.11529 -0.6944,-0.11951 0,-0.19604 0.2901,-0.27433 0.3814,-0.44786 0.211,-0.40108 0.2863,-0.68924 0.434,-1.12679 0.2819,-1.63573 -0.4717,-2.71476 -1.77,-3.61303 -0.8533,-0.61863 -0.4549,-0.28424 -1.1982,-0.9996 0,0 -1.7436,2.41163 -1.7436,2.41163 l 0,0 c 0.7793,0.73819 0.3672,0.39609 1.2364,1.02629 1.2119,0.83921 1.8487,1.86754 1.4635,3.37254 -0.3142,0.82708 -1.2074,2.15348 0.3642,2.04427 2.8728,-0.32327 5.7367,0.1567 8.5937,0.46578 0,0 1.5834,-2.51322 1.5834,-2.51322 z"
       id="path6832"
       style="color:#000000;fill:#d9bb7a;fill-opacity:1;fill-rule:nonzero;stroke:none;stroke-width:1px;marker:none;visibility:visible;display:inline;overflow:visible;enable-background:accumulate" />
    <path
       style="color:#000000;fill:#d9bb7a;fill-opacity:1;fill-rule:nonzero;stroke:none;stroke-width:1px;marker:none;visibility:visible;display:inline;overflow:visible;enable-background:accumulate"
       id="path6834"
       d="m 908.1611,707.32559 c 2.8781,0.2905 5.7553,0.75411 8.6504,0.5005 -0.1642,0.0338 0.689,-0.11529 0.6944,0.11951 0,0.19604 -0.2901,0.27433 -0.3814,0.44786 -0.211,0.40108 -0.2863,0.68924 -0.434,1.12679 -0.2819,1.63573 0.4717,2.71476 1.77,3.61303 0.8533,0.61863 0.4549,0.28424 1.1982,0.9996 0,0 1.7436,-2.41163 1.7436,-2.41163 l 0,0 c -0.7793,-0.73819 -0.3672,-0.39609 -1.2364,-1.02629 -1.2119,-0.83921 -1.8487,-1.86754 -1.4634,-3.37254 0.3141,-0.82708 1.2073,-2.15348 -0.3643,-2.04427 -2.8728,0.32327 -5.7367,-0.1567 -8.5937,-0.46578 0,0 -1.5834,2.51322 -1.5834,2.51322 z"
       inkscape:connector-curvature="0" />
    <g
       id="g6836"
       style="fill:#d9bb7a"
       transform="translate(98,544)">
      <path
         inkscape:connector-curvature="0"
         d="m 783.08639,156.03535 c 3.95061,0.0165 7.90126,0.0118 11.85188,0.0106 2.43548,-0.002 1.24773,-8.6e-4 3.56326,-0.003 0,0 -2.24184,1.91472 -2.24184,1.91472 l 0,0 c -2.31014,-0.002 -1.12498,-0.001 -3.5555,-0.003 -3.9589,-0.001 -7.91783,-0.006 -11.87671,0.0106 0,0 2.25891,-1.9293 2.25891,-1.9293 z"
         id="path6838"
         style="color:#000000;fill:#d9bb7a;fill-opacity:1;fill-rule:nonzero;stroke:none;stroke-width:1px;marker:none;visibility:visible;display:inline;overflow:visible;enable-background:accumulate" />
      <path
         style="color:#000000;fill:#d9bb7a;fill-opacity:1;fill-rule:nonzero;stroke:none;stroke-width:1px;marker:none;visibility:visible;display:inline;overflow:visible;enable-background:accumulate"
         id="path6840"
         d="m 783.08639,152.03535 c 3.95061,0.0165 7.90126,0.0118 11.85188,0.0106 2.43548,-0.002 1.24773,-8.6e-4 3.56326,-0.003 0,0 -2.24184,1.91472 -2.24184,1.91472 l 0,0 c -2.31014,-0.002 -1.12498,-0.001 -3.5555,-0.003 -3.9589,-0.001 -7.91783,-0.006 -11.87671,0.0106 0,0 2.25891,-1.9293 2.25891,-1.9293 z"
         inkscape:connector-curvature="0" />
      <path
         inkscape:connector-curvature="0"
         d="m 781.84816,149.89372 c 1.26265,-0.96421 2.45507,-2.0646 3.82706,-2.84835 0.49563,-0.26468 1.03762,-0.32925 1.58222,-0.35496 0.45917,-0.0352 0.89695,-0.01 1.32594,0.17474 0.36304,0.23095 0.70034,0.47563 1.0087,0.78535 0.331,0.26244 0.59292,0.614 0.94339,0.84718 0.27085,0.25159 0.61464,0.36229 0.93904,0.50969 0.37408,0.14719 0.77509,0.16487 1.16905,0.18232 0.44235,0.0263 0.87066,0.0266 1.30178,-0.0812 0.39851,-0.0345 0.73516,-0.23812 1.09215,-0.40752 0.0641,-0.0384 0.12982,-0.0739 0.19246,-0.11507 0.0684,-0.0449 0.13358,-0.0953 0.20037,-0.14289 0.0723,-0.0438 0.28426,-0.18296 0.21664,-0.13142 -3.71026,2.82785 -0.56856,0.22079 0.57193,-0.39393 0.67755,-0.48002 1.6886,-1.22058 -1.40058,1.0552 -0.0487,0.0359 0.0949,-0.0756 0.14201,-0.1139 0.15739,-0.12819 0.11067,-0.0893 0.26077,-0.22938 0.67345,-0.50162 1.34691,-1.00324 2.02037,-1.50486 -0.58089,0.43239 -2.32333,1.72987 -1.74265,1.29717 0.72011,-0.53658 1.35162,-1.2748 2.18315,-1.57399 0.3152,-0.11342 0.0544,0.0186 0.33475,-0.13953 0.37703,-0.1627 0.75159,-0.31949 1.15048,-0.41103 0.0753,-0.0125 0.15076,-0.0249 0.22613,-0.0374 0,0 -1.7298,1.64123 -1.7298,1.64123 l 0,0 c -0.0723,0.0163 -0.14464,0.0327 -0.21696,0.049 -0.38585,0.11555 -0.75821,0.2765 -1.12508,0.44828 -0.0867,0.036 -0.24676,0.0999 -0.33008,0.14518 -0.0507,0.0276 -0.19333,0.12814 -0.14704,0.0927 0.57532,-0.43998 2.31998,-1.73131 1.7346,-1.30683 -0.71315,0.51713 -4.302,3.24543 -0.28317,0.19625 -0.53501,0.43397 0.27526,-0.23509 -0.25503,0.24385 -0.76995,0.69538 -1.63805,1.28478 -2.501,1.84988 -0.0608,0.0401 -0.24052,0.16479 -0.18237,0.1204 0.55833,-0.4262 2.25362,-1.67361 1.68328,-1.26608 -0.88312,0.63101 -1.727,1.40897 -2.69643,1.91464 -0.36174,0.17878 -0.7312,0.30998 -1.12812,0.36624 -0.4428,0.0791 -0.8907,0.05 -1.33772,0.033 -0.4164,-0.028 -0.83669,-0.0685 -1.22444,-0.24753 -0.33439,-0.15719 -0.68387,-0.28255 -0.96345,-0.54544 -0.34634,-0.26037 -0.62845,-0.6025 -0.96227,-0.88078 -0.28973,-0.27956 -0.607,-0.51285 -0.95387,-0.70519 -0.41351,-0.13574 -0.83451,-0.13444 -1.26392,-0.10044 -0.52587,0.0432 -1.03988,0.14407 -1.50434,0.42941 -0.82892,0.52247 -0.43018,0.28315 1.23727,-0.97658 0.11437,-0.0864 -0.22706,0.17532 -0.34101,0.26237 -0.60545,0.46257 -0.10158,0.0653 -0.68888,0.5486 -0.0963,0.0793 -0.19386,0.15673 -0.29079,0.2351 0,0 -2.07454,1.08649 -2.07454,1.08649 z"
         id="path6842"
         style="color:#000000;fill:#d9bb7a;fill-opacity:1;fill-rule:nonzero;stroke:none;stroke-width:1px;marker:none;visibility:visible;display:inline;overflow:visible;enable-background:accumulate" />
    </g>
    <path
       inkscape:connector-curvature="0"
       id="path6844"
       d="m 929,625 0,43"
       style="fill:none;stroke:#cccccf;stroke-width:1px;stroke-linecap:butt;stroke-linejoin:miter;stroke-opacity:1" />
    <path
       inkscape:connector-curvature="0"
       d="m 924.0152,665.5738 c 2.1911,1.49472 4.2732,3.33626 5.7496,5.55842 0.7622,1.25476 1.3526,1.06362 -1.9333,1.90521 -0.2401,0.0615 0.3719,-2.10783 0.4022,-2.20953 1.1615,-2.97316 3.5023,-4.32674 6.0835,-6.04169 0.9494,-0.58051 0.4673,-0.30988 1.4457,-0.81308 0,0 -2.1658,2.03947 -2.1658,2.03947 l 0,0 c -0.9637,0.52032 -0.4839,0.24826 -1.4389,0.81708 0.5446,-0.41582 1.0882,-0.83301 1.6338,-1.24745 0.2405,-0.18262 -0.4955,0.34807 -0.7182,0.55201 -0.9601,0.8795 -1.682,2.07028 -2.259,3.21855 -0.2383,0.71057 -0.3258,0.82852 -0.397,1.54795 -0.02,0.20653 0.1325,0.47343 -0.012,0.6225 -2.3697,2.44643 -2.156,2.8574 -3.0793,1.30557 -1.4278,-2.19829 -3.4963,-4.00853 -5.6672,-5.44567 0,0 2.3558,-1.80934 2.3558,-1.80934 z"
       id="path6846"
       style="color:#000000;fill:#cccccf;fill-opacity:1;fill-rule:nonzero;stroke:none;stroke-width:1px;marker:none;visibility:visible;display:inline;overflow:visible;enable-background:accumulate" />
    <path
       inkscape:connector-curvature="0"
       id="path6848"
       d="m 915,629 -55,35"
       style="fill:none;stroke:#cccccf;stroke-width:1px;stroke-linecap:butt;stroke-linejoin:miter;stroke-opacity:1" />
    <path
       inkscape:connector-curvature="0"
       d="m 861.1563,654.19672 c -0.4844,3.17207 -1.7918,6.12426 -2.6381,9.19628 -0.3448,2.18935 0.8141,1.72599 2.425,2.01851 1.0008,0.30853 2.7947,0.19191 3.4983,1.14955 0.1175,0.15992 0.1125,0.3806 0.1687,0.57091 0,0 -2.5115,1.61313 -2.5115,1.61313 l 0,0 c -0.1206,-1.24929 -2.531,-1.1703 -3.4521,-1.43816 -1.6322,-0.2588 -3.0699,-0.3222 -2.6931,-2.43425 0.8187,-3.06716 2.1716,-5.99292 2.651,-9.15553 0,0 2.5518,-1.52044 2.5518,-1.52044 z"
       id="path6850"
       style="color:#000000;fill:#cccccf;fill-opacity:1;fill-rule:nonzero;stroke:none;stroke-width:1px;marker:none;visibility:visible;display:inline;overflow:visible;enable-background:accumulate" />
    <path
       style="fill:none;stroke:#cccccf;stroke-width:1px;stroke-linecap:butt;stroke-linejoin:miter;stroke-opacity:1"
       d="m 856.3928,629 55,35"
       id="path6852"
       inkscape:connector-curvature="0" />
    <path
       style="color:#000000;fill:#cccccf;fill-opacity:1;fill-rule:nonzero;stroke:none;stroke-width:1px;marker:none;visibility:visible;display:inline;overflow:visible;enable-background:accumulate"
       id="path6854"
       d="m 910.2366,654.19672 c 0.4843,3.17207 1.7918,6.12426 2.6381,9.19628 0.3447,2.18935 -0.8141,1.72599 -2.425,2.01851 -1.0009,0.30853 -2.7948,0.19191 -3.4984,1.14955 -0.1174,0.15992 -0.1124,0.3806 -0.1686,0.57091 0,0 2.5115,1.61313 2.5115,1.61313 l 0,0 c 0.1205,-1.24929 2.531,-1.1703 3.452,-1.43816 1.6323,-0.2588 3.07,-0.3222 2.6932,-2.43425 -0.8188,-3.06716 -2.1717,-5.99292 -2.651,-9.15553 0,0 -2.5518,-1.52044 -2.5518,-1.52044 z"
       inkscape:connector-curvature="0" />
    <path
       style="fill:#666666;stroke:#666666;stroke-width:1px;stroke-linecap:butt;stroke-linejoin:miter;stroke-opacity:1"
       d="m 583,625 0,43"
       id="path6856"
       inkscape:connector-curvature="0" />
    <path
       style="color:#000000;fill:#666666;fill-opacity:1;fill-rule:nonzero;stroke:none;stroke-width:1px;marker:none;visibility:visible;display:inline;overflow:visible;enable-background:accumulate"
       id="path6858"
       d="m 578.0152,665.5738 c 2.1911,1.49472 4.2732,3.33626 5.7496,5.55842 0.7622,1.25476 1.3526,1.06362 -1.9333,1.90521 -0.2401,0.0615 0.3719,-2.10783 0.4022,-2.20953 1.1615,-2.97316 3.5023,-4.32674 6.0835,-6.04169 0.9494,-0.58051 0.4673,-0.30988 1.4457,-0.81308 0,0 -2.1658,2.03947 -2.1658,2.03947 l 0,0 c -0.9637,0.52032 -0.4839,0.24826 -1.4389,0.81708 0.5446,-0.41582 1.0882,-0.83301 1.6338,-1.24745 0.2405,-0.18262 -0.4955,0.34807 -0.7182,0.55201 -0.9601,0.8795 -1.682,2.07028 -2.259,3.21855 -0.2383,0.71057 -0.3258,0.82852 -0.397,1.54795 -0.02,0.20653 0.1325,0.47343 -0.012,0.6225 -2.3697,2.44643 -2.156,2.8574 -3.0793,1.30557 -1.4278,-2.19829 -3.4963,-4.00853 -5.6672,-5.44567 0,0 2.3558,-1.80934 2.3558,-1.80934 z"
       inkscape:connector-curvature="0" />
    <path
       style="fill:none;stroke:#666666;stroke-width:1.41421354px;stroke-linecap:butt;stroke-linejoin:miter;stroke-opacity:1"
       d="m 565.5,616 c -13.9275,24.2846 -9.9291,42.67133 0,59"
       id="path6860"
       inkscape:connector-curvature="0"
       sodipodi:nodetypes="cc" />
    <path
       inkscape:connector-curvature="0"
       d="m 565.6703,667.16523 c -0.2905,2.87806 -0.7541,5.75524 -0.5005,8.65043 -0.034,-0.16424 0.1153,0.68891 -0.1195,0.69438 -0.1961,0.005 -0.2743,-0.2901 -0.4479,-0.38141 -0.401,-0.21106 -0.6892,-0.28635 -1.1268,-0.43404 -1.6357,-0.2819 -2.7147,0.47173 -3.613,1.77006 -0.6186,0.85325 -0.2842,0.45487 -0.9996,1.19812 0,0 2.4116,1.74362 2.4116,1.74362 l 0,0 c 0.7382,-0.77927 0.3961,-0.36715 1.0263,-1.23638 0.8392,-1.21191 1.8676,-1.84873 3.3726,-1.46345 0.8271,0.31419 2.1534,1.20733 2.0442,-0.36424 -0.3232,-2.87279 0.1567,-5.73674 0.4658,-8.59367 0,0 -2.5132,-1.58342 -2.5132,-1.58342 z"
       id="path6862"
       style="color:#000000;fill:#666666;fill-opacity:1;fill-rule:nonzero;stroke:none;stroke-width:1px;marker:none;visibility:visible;display:inline;overflow:visible;enable-background:accumulate" />
    <path
       sodipodi:nodetypes="cc"
       inkscape:connector-curvature="0"
       id="path6864"
       d="m 946.4682,616 c 13.9275,24.2846 9.9291,42.67133 0,59"
       style="fill:none;stroke:#cccccf;stroke-width:1.41421354px;stroke-linecap:butt;stroke-linejoin:miter;stroke-opacity:1" />
    <path
       style="color:#000000;fill:#cccccf;fill-opacity:1;fill-rule:nonzero;stroke:none;stroke-width:1px;marker:none;visibility:visible;display:inline;overflow:visible;enable-background:accumulate"
       id="path6866"
       d="m 946.2979,667.16523 c 0.2905,2.87806 0.7541,5.75524 0.5005,8.65043 0.034,-0.16424 -0.1153,0.68891 0.1195,0.69438 0.196,0.005 0.2743,-0.2901 0.4479,-0.38141 0.401,-0.21106 0.6892,-0.28635 1.1268,-0.43404 1.6357,-0.2819 2.7147,0.47173 3.613,1.77006 0.6186,0.85325 0.2842,0.45487 0.9996,1.19812 0,0 -2.4116,1.74362 -2.4116,1.74362 l 0,0 c -0.7382,-0.77927 -0.3961,-0.36715 -1.0263,-1.23638 -0.8392,-1.21191 -1.8676,-1.84873 -3.3726,-1.46345 -0.8271,0.31419 -2.1535,1.20733 -2.0442,-0.36424 0.3232,-2.87279 -0.1567,-5.73674 -0.4658,-8.59367 0,0 2.5132,-1.58342 2.5132,-1.58342 z"
       inkscape:connector-curvature="0" />
    <path
       style="color:#000000;fill:#cccccf;fill-opacity:1;fill-rule:nonzero;stroke:none;stroke-width:1px;marker:none;visibility:visible;display:inline;overflow:visible;enable-background:accumulate"
       id="path6868"
       d="m 450.06624,277.77273 c 1.92329,-4.7873 5.2222,-8.85207 9.19706,-12.10971 1.23937,-1.01573 2.5765,-1.90595 3.86475,-2.85893 12.35133,-8.82374 27.03466,-12.33718 41.65784,-15.31751 16.64425,-2.99205 33.56536,-3.76173 50.43447,-4.26859 7.37512,-0.18711 14.7526,-0.24018 22.12979,-0.24134 0,0 -2.22404,1.89812 -2.22404,1.89812 l 0,0 c -7.33786,-0.0545 -14.67652,-0.0139 -22.01286,0.15353 -16.85075,0.47862 -33.75393,1.25073 -50.37341,4.2786 -12.87867,2.65611 -25.48673,5.71819 -37.05042,12.24054 -5.70714,4.17297 -10.35716,8.03076 -13.03796,14.76595 0,0 -2.58522,1.45934 -2.58522,1.45934 z"
       inkscape:connector-curvature="0" />
    <path
       style="color:#000000;fill:#cccccf;fill-opacity:1;fill-rule:nonzero;stroke:none;stroke-width:1px;marker:none;visibility:visible;display:inline;overflow:visible;enable-background:accumulate"
       id="path6870"
       d="m 576.37623,235.16523 c 0.50262,2.68715 1.20287,5.45576 3.11515,7.48828 3.59554,1.44829 -1.02904,2.32667 -2.70477,2.92779 -0.27117,0.14041 -1.05113,0.61303 -0.8135,0.42125 0.4689,-0.37845 0.92944,-0.84271 1.51448,-0.987 0.41363,-0.10201 -0.6523,0.54957 -0.95527,0.84908 -0.99021,0.97889 -1.71257,2.09467 -2.4265,3.27888 -1.01712,1.91128 -1.32403,3.99236 -1.45551,6.11892 0,0 -2.52097,1.52599 -2.52097,1.52599 l 0,0 c 0.10284,-2.15973 0.39072,-4.27548 1.3765,-6.23672 1.76262,-3.03952 4.15447,-5.54954 7.48272,-6.97315 1.08441,-0.31262 1.48374,-0.44339 1.36401,-0.2716 -1.66833,2.39375 -1.65037,2.18544 -3.26766,1.0817 -1.93206,-2.09978 -2.67195,-4.89212 -3.2219,-7.64 0,0 2.51322,-1.58342 2.51322,-1.58342 z"
       inkscape:connector-curvature="0" />
    <rect
       y="394"
       x="543"
       height="332"
       width="164"
       id="rect6880"
       style="color:#000000;fill:none;stroke:#eeeeee;stroke-width:1;stroke-linecap:butt;stroke-linejoin:miter;stroke-miterlimit:4;stroke-opacity:1;stroke-dasharray:none;stroke-dashoffset:0;marker:none;visibility:visible;display:inline;overflow:visible;enable-background:accumulate" />
    <path
       inkscape:connector-curvature="0"
       d="m 737.94967,363.36272 c -2.30057,0.62048 -4.36309,1.74971 -6.39234,2.9652 -0.28355,0.16984 1.0498,-0.76215 0.86195,-0.49019 -0.35018,0.50696 -0.91729,0.82287 -1.37594,1.23431 -1.80733,1.96269 -3.65031,4.02037 -3.13395,6.84779 2.73012,3.39369 8.92615,3.36215 12.89952,3.70313 8.02228,0.34735 16.02865,-0.42544 24.02546,-0.9503 4.39342,-0.34745 8.76744,-0.61563 13.15573,-0.15047 1.28489,0.17476 2.49881,0.41211 3.73305,-0.0516 0,0 -2.20431,2.00229 -2.20431,2.00229 l 0,0 c -1.27095,0.3296 -2.51032,0.12888 -3.79945,-0.0523 -4.35794,-0.45886 -8.70518,-0.18106 -13.0686,0.14163 -8.00728,0.51357 -16.02471,1.28118 -24.05627,0.91942 -3.65061,-0.31422 -9.47336,-0.35097 -12.39596,-2.97506 -0.31315,-0.28116 -0.52487,-0.658 -0.78731,-0.98701 -0.081,-0.37297 -0.22997,-0.73747 -0.24296,-1.11891 -0.079,-2.31948 1.87018,-4.39352 3.24622,-6.00506 3.40949,-3.1338 7.27198,-5.69239 11.72195,-7.0406 0,0 -2.18679,2.00773 -2.18679,2.00773 z"
       id="path6884"
       style="color:#000000;fill:#339900;fill-opacity:1;fill-rule:nonzero;stroke:none;stroke-width:1px;marker:none;visibility:visible;display:inline;overflow:visible;enable-background:accumulate" />
    <path
       inkscape:connector-curvature="0"
       d="m 776.03616,368.96631 c 2.63127,2.58309 5.76461,4.53882 8.84248,6.53009 3.0423,1.82087 -0.77451,3.35432 -2.9571,3.49119 -0.28609,0.007 -0.57327,-0.004 -0.85826,0.0224 -0.69322,0.0634 -1.12353,0.15095 -1.75453,0.44417 -0.28413,0.13203 -1.06031,0.66202 -0.8171,0.46452 4.06949,-3.30459 0.83793,-0.40385 0.81127,-0.37938 -1.47438,1.62714 -1.85277,3.37894 -1.14363,5.42181 0.17615,0.28584 0.35229,0.57168 0.52844,0.85752 0,0 -2.44115,1.68844 -2.44115,1.68844 l 0,0 c -0.18768,-0.30326 -0.37536,-0.60651 -0.56304,-0.90976 -0.82197,-2.25412 -0.53147,-3.82013 0.97171,-5.71628 2.08519,-2.07885 4.50954,-3.86916 7.51436,-3.84528 0.24448,-0.0246 0.49116,-0.0329 0.73344,-0.0739 0.18711,-0.0316 0.68603,-0.27643 0.551,-0.14311 -0.61264,0.60493 -1.3376,1.08511 -2.02715,1.60066 -0.0575,0.043 0.14346,-0.10812 0.12273,-0.1768 -0.10205,-0.33822 -0.89197,-0.85404 -1.02645,-0.95904 -3.07973,-2.02491 -6.21902,-4.00183 -8.8847,-6.57524 0,0 2.39768,-1.74202 2.39768,-1.74202 z"
       id="path6886"
       style="color:#000000;fill:#339900;fill-opacity:1;fill-rule:nonzero;stroke:none;stroke-width:1px;marker:none;visibility:visible;display:inline;overflow:visible;enable-background:accumulate" />
    <text
       sodipodi:linespacing="125%"
       id="text6888"
       y="416"
       x="158"
       style="font-size:20px;font-style:normal;font-variant:normal;font-weight:normal;font-stretch:normal;text-indent:0;text-align:start;text-decoration:none;line-height:125%;letter-spacing:0px;word-spacing:0px;text-transform:none;direction:ltr;block-progression:tb;writing-mode:lr-tb;text-anchor:start;baseline-shift:baseline;color:#000000;fill:#666666;fill-opacity:1;fill-rule:nonzero;stroke:none;stroke-width:1px;marker:none;visibility:visible;display:inline;overflow:visible;enable-background:accumulate;font-family:Architects Daughter;-inkscape-font-specification:Architects Daughter"
       xml:space="preserve"><tspan
         id="tspan6890"
         y="416"
         x="158"
         sodipodi:role="line">Require inclusion functor</tspan><tspan
         y="441"
         x="158"
         sodipodi:role="line"
         id="tspan7004">to be <tspan
   style="fill:#0197fd"
   id="tspan7002">full</tspan>.</tspan><tspan
         y="466"
         x="158"
         sodipodi:role="line"
         id="tspan7000" /></text>
    <text
       sodipodi:linespacing="125%"
       id="text6958"
       y="527"
       x="159"
       style="font-size:20px;font-style:normal;font-variant:normal;font-weight:normal;font-stretch:normal;text-indent:0;text-align:start;text-decoration:none;line-height:125%;letter-spacing:0px;word-spacing:0px;text-transform:none;direction:ltr;block-progression:tb;writing-mode:lr-tb;text-anchor:start;baseline-shift:baseline;color:#000000;fill:#666666;fill-opacity:1;fill-rule:nonzero;stroke:none;stroke-width:1px;marker:none;visibility:visible;display:inline;overflow:visible;enable-background:accumulate;font-family:Architects Daughter;-inkscape-font-specification:Architects Daughter"
       xml:space="preserve"><tspan
         y="527"
         x="159"
         id="tspan6960"
         sodipodi:role="line">In general a subcategory</tspan><tspan
         y="552"
         x="159"
         sodipodi:role="line"
         id="tspan7010">with full inclusion functor</tspan><tspan
         id="tspan6962"
         y="577"
         x="159"
         sodipodi:role="line">is called: <tspan
   style="fill:#0197fd"
   id="tspan7016">full subcategory</tspan>.</tspan></text>
    <path
       sodipodi:type="arc"
       style="color:#000000;fill:#666666;stroke:none;stroke-width:1;marker:none;visibility:visible;display:inline;overflow:visible;enable-background:accumulate"
       id="path6986"
       sodipodi:cx="684"
       sodipodi:cy="66"
       sodipodi:rx="3"
       sodipodi:ry="3"
       d="m 687,66 a 3,3 0 1 1 -6,0 3,3 0 1 1 6,0 z"
       transform="matrix(0,-1.3333333,1.3333333,0,496.9959,1337.9959)" />
    <path
       transform="matrix(0,-1.3333333,1.3333333,0,496.9959,1437.9959)"
       d="m 687,66 a 3,3 0 1 1 -6,0 3,3 0 1 1 6,0 z"
       sodipodi:ry="3"
       sodipodi:rx="3"
       sodipodi:cy="66"
       sodipodi:cx="684"
       id="path6988"
       style="color:#000000;fill:#666666;stroke:none;stroke-width:1;marker:none;visibility:visible;display:inline;overflow:visible;enable-background:accumulate"
       sodipodi:type="arc" />
    <path
       style="fill:#666666;stroke:#666666;stroke-width:1px;stroke-linecap:butt;stroke-linejoin:miter;stroke-opacity:1"
       d="m 583,455 0,43"
       id="path6990"
       inkscape:connector-curvature="0" />
    <path
       style="color:#000000;fill:#666666;fill-opacity:1;fill-rule:nonzero;stroke:none;stroke-width:1px;marker:none;visibility:visible;display:inline;overflow:visible;enable-background:accumulate"
       id="path6992"
       d="m 578.0152,495.5738 c 2.1911,1.49472 4.2732,3.33626 5.7496,5.55842 0.7622,1.25476 1.3526,1.06362 -1.9333,1.90521 -0.2401,0.0615 0.3719,-2.10783 0.4022,-2.20953 1.1615,-2.97316 3.5023,-4.32674 6.0835,-6.04169 0.9494,-0.58051 0.4673,-0.30988 1.4457,-0.81308 0,0 -2.1658,2.03947 -2.1658,2.03947 l 0,0 c -0.9637,0.52032 -0.4839,0.24826 -1.4389,0.81708 0.5446,-0.41582 1.0882,-0.83301 1.6338,-1.24745 0.2405,-0.18262 -0.4955,0.34807 -0.7182,0.55201 -0.9601,0.8795 -1.682,2.07028 -2.259,3.21855 -0.2383,0.71057 -0.3258,0.82852 -0.397,1.54795 -0.02,0.20653 0.1325,0.47343 -0.012,0.6225 -2.3697,2.44643 -2.156,2.8574 -3.0793,1.30557 -1.4278,-2.19829 -3.4963,-4.00853 -5.6672,-5.44567 0,0 2.3558,-1.80934 2.3558,-1.80934 z"
       inkscape:connector-curvature="0" />
    <path
       style="fill:none;stroke:#666666;stroke-width:1.41421354px;stroke-linecap:butt;stroke-linejoin:miter;stroke-opacity:1"
       d="m 565.5,446 c -13.9275,24.2846 -9.9291,42.67133 0,59"
       id="path6994"
       inkscape:connector-curvature="0"
       sodipodi:nodetypes="cc" />
    <path
       inkscape:connector-curvature="0"
       d="m 565.6703,497.16523 c -0.2905,2.87806 -0.7541,5.75524 -0.5005,8.65043 -0.034,-0.16424 0.1153,0.68891 -0.1195,0.69438 -0.1961,0.005 -0.2743,-0.2901 -0.4479,-0.38141 -0.401,-0.21106 -0.6892,-0.28635 -1.1268,-0.43404 -1.6357,-0.2819 -2.7147,0.47173 -3.613,1.77006 -0.6186,0.85325 -0.2842,0.45487 -0.9996,1.19812 0,0 2.4116,1.74362 2.4116,1.74362 l 0,0 c 0.7382,-0.77927 0.3961,-0.36715 1.0263,-1.23638 0.8392,-1.21191 1.8676,-1.84873 3.3726,-1.46345 0.8271,0.31419 2.1534,1.20733 2.0442,-0.36424 -0.3232,-2.87279 0.1567,-5.73674 0.4658,-8.59367 0,0 -2.5132,-1.58342 -2.5132,-1.58342 z"
       id="path6996"
       style="color:#000000;fill:#666666;fill-opacity:1;fill-rule:nonzero;stroke:none;stroke-width:1px;marker:none;visibility:visible;display:inline;overflow:visible;enable-background:accumulate" />
    <rect
       style="color:#000000;fill:none;stroke:#6699cc;stroke-width:1;stroke-linecap:butt;stroke-linejoin:miter;stroke-miterlimit:4;stroke-opacity:1;stroke-dasharray:none;stroke-dashoffset:0;marker:none;visibility:visible;display:inline;overflow:visible;enable-background:accumulate"
       id="rect3757"
       width="34"
       height="31"
       x="587"
       y="241" />
    <rect
       style="color:#000000;fill:none;stroke:#6699cc;stroke-width:1;stroke-linecap:butt;stroke-linejoin:miter;stroke-miterlimit:4;stroke-opacity:1;stroke-dasharray:none;stroke-dashoffset:0;marker:none;visibility:visible;display:inline;overflow:visible;enable-background:accumulate"
       id="rect3759"
       width="309"
       height="68"
       x="140"
       y="387" />
    <path
       style="color:#000000;fill:none;stroke:#aaccee;stroke-width:2;stroke-linecap:butt;stroke-linejoin:miter;stroke-miterlimit:4;stroke-opacity:1;stroke-dasharray:none;stroke-dashoffset:0;marker:none;visibility:visible;display:inline;overflow:visible;enable-background:accumulate"
       d="M 589,281 461.5,408.5"
       id="path3812"
       inkscape:connector-curvature="0" />
    <path
       style="color:#000000;fill:#aaccee;fill-opacity:1;fill-rule:nonzero;stroke:none;stroke-width:1px;marker:none;visibility:visible;display:inline;overflow:visible;enable-background:accumulate"
       id="path3816"
       d="m 464.21415,393.06563 c -0.64288,3.03815 -1.49276,6.02481 -2.19686,9.04872 -0.2631,1.40598 -0.44144,2.83084 -1.24622,4.04524 -0.80218,0.87162 -1.38501,1.90036 -1.84145,2.98612 -0.86282,2.47606 0.21076,1.65252 -3.25686,2.86183 -0.0294,-0.68852 -0.0291,-1.37794 -0.0202,-2.0669 0.005,-0.0997 0.003,-0.20124 -10e-5,-0.29999 2.68657,-1.71935 2.89924,-1.50638 5.40729,-1.50447 1.78458,0.002 3.53911,0.45501 5.29684,0.73668 1.34125,0.30984 2.26823,0.92287 2.72064,2.23261 0.20553,0.93611 0.27276,1.89616 0.28526,2.85252 -0.002,0.14871 -0.01,0.29792 0.006,0.44384 0,0 -2.72702,1.24964 -2.72702,1.24964 l 0,0 c 0.0307,-0.10941 0.12149,-0.24311 0.0563,-0.33617 0.0134,-0.92866 -0.044,-1.86169 -0.22742,-2.77357 -0.39654,-1.21898 -1.31442,-1.70833 -2.54359,-1.96344 -1.74513,-0.29241 -3.49145,-0.73384 -5.26964,-0.6958 -1.7552,0.0112 -4.49681,0.64445 -0.31154,-1.56221 -0.007,0.0548 -0.035,0.1942 -0.0238,0.26778 -0.0224,0.68131 -0.0272,1.36351 -0.002,2.04482 -3.40182,2.237 -2.80954,2.25159 -2.08698,-0.24061 0.42011,-1.09583 0.97452,-2.19866 1.79577,-3.04712 0.91484,-1.13359 1.07586,-2.56536 1.33634,-3.95591 0.71513,-3.01055 1.56469,-5.98637 2.18115,-9.01947 0,0 2.66753,-1.30414 2.66753,-1.30414 z"
       inkscape:connector-curvature="0" />
    <path
       style="color:#000000;fill:none;stroke:#eeeeee;stroke-width:2;stroke-linecap:butt;stroke-linejoin:miter;stroke-miterlimit:4;stroke-opacity:1;stroke-dasharray:none;stroke-dashoffset:0;marker:none;visibility:visible;display:inline;overflow:visible;enable-background:accumulate"
       d="m 581,199 0,73"
       id="path3818"
       inkscape:connector-curvature="0" />
    <path
       transform="matrix(0,-1.3333333,1.3333333,0,756.9959,1507.9959)"
       d="m 687,66 a 3,3 0 1 1 -6,0 3,3 0 1 1 6,0 z"
       sodipodi:ry="3"
       sodipodi:rx="3"
       sodipodi:cy="66"
       sodipodi:cx="684"
       id="path3968"
       style="color:#000000;fill:#666666;stroke:none;stroke-width:1;marker:none;visibility:visible;display:inline;overflow:visible;enable-background:accumulate"
       sodipodi:type="arc" />
    <path
       sodipodi:type="arc"
       style="color:#000000;fill:#666666;stroke:none;stroke-width:1;marker:none;visibility:visible;display:inline;overflow:visible;enable-background:accumulate"
       id="path3970"
       sodipodi:cx="684"
       sodipodi:cy="66"
       sodipodi:rx="3"
       sodipodi:ry="3"
       d="m 687,66 a 3,3 0 1 1 -6,0 3,3 0 1 1 6,0 z"
       transform="matrix(0,-1.3333333,1.3333333,0,756.9959,1607.9959)" />
    <path
       inkscape:connector-curvature="0"
       id="path3972"
       d="m 843,625 0,43"
       style="fill:#666666;stroke:#666666;stroke-width:1px;stroke-linecap:butt;stroke-linejoin:miter;stroke-opacity:1" />
    <path
       inkscape:connector-curvature="0"
       d="m 838.0152,665.5738 c 2.1911,1.49472 4.2732,3.33626 5.7496,5.55842 0.7622,1.25476 1.3526,1.06362 -1.9333,1.90521 -0.2401,0.0615 0.3719,-2.10783 0.4022,-2.20953 1.1615,-2.97316 3.5023,-4.32674 6.0835,-6.04169 0.9494,-0.58051 0.4673,-0.30988 1.4457,-0.81308 0,0 -2.1658,2.03947 -2.1658,2.03947 l 0,0 c -0.9637,0.52032 -0.4839,0.24826 -1.4389,0.81708 0.5446,-0.41582 1.0882,-0.83301 1.6338,-1.24745 0.2405,-0.18262 -0.4955,0.34807 -0.7182,0.55201 -0.9601,0.8795 -1.682,2.07028 -2.259,3.21855 -0.2383,0.71057 -0.3258,0.82852 -0.397,1.54795 -0.02,0.20653 0.1325,0.47343 -0.012,0.6225 -2.3697,2.44643 -2.156,2.8574 -3.0793,1.30557 -1.4278,-2.19829 -3.4963,-4.00853 -5.6672,-5.44567 0,0 2.3558,-1.80934 2.3558,-1.80934 z"
       id="path3974"
       style="color:#000000;fill:#666666;fill-opacity:1;fill-rule:nonzero;stroke:none;stroke-width:1px;marker:none;visibility:visible;display:inline;overflow:visible;enable-background:accumulate" />
    <path
       sodipodi:nodetypes="cc"
       inkscape:connector-curvature="0"
       id="path3976"
       d="m 825.5,616 c -13.9275,24.2846 -9.9291,42.67133 0,59"
       style="fill:none;stroke:#666666;stroke-width:1.41421354px;stroke-linecap:butt;stroke-linejoin:miter;stroke-opacity:1" />
    <path
       style="color:#000000;fill:#666666;fill-opacity:1;fill-rule:nonzero;stroke:none;stroke-width:1px;marker:none;visibility:visible;display:inline;overflow:visible;enable-background:accumulate"
       id="path3978"
       d="m 825.6703,667.16523 c -0.2905,2.87806 -0.7541,5.75524 -0.5005,8.65043 -0.034,-0.16424 0.1153,0.68891 -0.1195,0.69438 -0.1961,0.005 -0.2743,-0.2901 -0.4479,-0.38141 -0.401,-0.21106 -0.6892,-0.28635 -1.1268,-0.43404 -1.6357,-0.2819 -2.7147,0.47173 -3.613,1.77006 -0.6186,0.85325 -0.2842,0.45487 -0.9996,1.19812 0,0 2.4116,1.74362 2.4116,1.74362 l 0,0 c 0.7382,-0.77927 0.3961,-0.36715 1.0263,-1.23638 0.8392,-1.21191 1.8676,-1.84873 3.3726,-1.46345 0.8271,0.31419 2.1534,1.20733 2.0442,-0.36424 -0.3232,-2.87279 0.1567,-5.73674 0.4658,-8.59367 0,0 -2.5132,-1.58342 -2.5132,-1.58342 z"
       inkscape:connector-curvature="0" />
    <a
       xlink:href="s5.svg"
       id="a3074"
       style="display:inline"
       transform="translate(147.67022,-548.09499)">
      <path
         inkscape:connector-curvature="0"
         id="path3936"
         d="m 702.67506,599.63376 0,12.92247 28.2254,0 0,10.20196 21.08404,-18.36352 -19.72378,-14.96287 0,9.86189 z"
         style="fill:#b3defd;stroke:#f0a513;stroke-width:1;stroke-linecap:butt;stroke-linejoin:miter;stroke-miterlimit:4;stroke-opacity:1;stroke-dasharray:none" />
    </a>
  </g>
</svg>
