<?xml version="1.0" encoding="UTF-8" standalone="no"?>
<svg
   xmlns:dc="http://purl.org/dc/elements/1.1/"
   xmlns:cc="http://creativecommons.org/ns#"
   xmlns:rdf="http://www.w3.org/1999/02/22-rdf-syntax-ns#"
   xmlns:svg="http://www.w3.org/2000/svg"
   xmlns="http://www.w3.org/2000/svg"
   xmlns:xlink="http://www.w3.org/1999/xlink"
   xmlns:sodipodi="http://sodipodi.sourceforge.net/DTD/sodipodi-0.dtd"
   xmlns:inkscape="http://www.inkscape.org/namespaces/inkscape"
   width="1024px"
   height="768px"
   viewBox="0 0 1024 768"
   id="svg9287"
   version="1.1"
   inkscape:version="0.91 r13725"
   sodipodi:docname="fix-args-of-pair.swap.svg">
  <sodipodi:namedview
     pagecolor="#3c4747"
     bordercolor="#ffffff"
     borderopacity="1"
     inkscape:pageopacity="0"
     inkscape:pageshadow="2"
     inkscape:zoom="1"
     inkscape:document-units="px"
     inkscape:current-layer="layer1"
     showgrid="true"
     inkscape:window-maximized="1"
     inkscape:showpageshadow="false"
     borderlayer="true"
     id="namedview9289"
     inkscape:cx="495.39768"
     inkscape:cy="564.58288"
     inkscape:window-width="1920"
     inkscape:window-height="1020"
     inkscape:window-x="1912"
     inkscape:window-y="-8"
     inkscape:snap-global="false">
    <inkscape:grid
       type="xygrid"
       color="#b5357b"
       opacity="0.1254902"
       empcolor="#5d6e79"
       empopacity="0.25098039"
       enabled="true"
       empspacing="15"
       id="grid9291" />
  </sodipodi:namedview>
  <defs
     id="defs9293">
    <symbol
       id="A">
      <path
         inkscape:connector-curvature="0"
         d="m 445.70674,315.15689 c 4.92171,8.70149 7.24747,18.4379 9.51172,28.08462 1.92564,10.34261 3.34776,20.7678 4.66448,31.20236 0.15194,1.44901 0.38644,2.89158 0.49502,4.3452 -0.002,0.001 -0.003,0.002 -0.005,0.003 -2.89039,1.56771 -5.75981,3.17474 -8.67118,4.70312 -0.0567,0.0298 -0.12547,-0.14873 -0.0692,-0.17937 2.89212,-1.57446 5.7859,-3.14588 8.67885,-4.71882 0.0148,0.0367 0.0296,0.0734 0.0443,0.11002 0.006,0.0101 0.0127,0.0202 0.0191,0.0302 0,0 -8.65025,4.99422 -8.65025,4.99422 l 0,0 c 10e-4,-0.0145 0.003,-0.0289 0.004,-0.0434 -0.002,-0.044 -0.004,-0.0879 -0.006,-0.13189 2.85642,-1.74646 5.71196,-3.49435 8.56925,-5.23938 0.0629,-0.0384 0.0591,0.18188 -0.003,0.22122 -2.8264,1.78245 -11.47084,6.96561 -8.54738,5.2377 0.33374,-1.54687 0.10467,-3.18043 0.19738,-4.74495 -0.2142,-10.70602 -1.22619,-21.4117 -3.46386,-31.89554 -2.34421,-9.49575 -4.95559,-19.33191 -11.22385,-27.09612 0,0 8.45655,-4.88239 8.45655,-4.88239 z"
         id="path9071" />
      <path
         inkscape:connector-curvature="0"
         d="m 444.32372,318.55456 c -6.99899,8.29335 -10.27626,18.88719 -13.25418,29.12924 -1.78886,6.87626 -3.27226,13.86031 -3.85302,20.95136 0.003,0.66678 -0.16452,1.47393 0.0443,2.10179 -18.60191,10.30494 -4.22224,2.08828 0.0101,-0.0552 0.0834,-0.0422 0.0609,0.1768 0.0913,0.2652 0.19584,0.50141 0.49007,0.95675 0.81326,1.38464 0.0396,0.0548 0.0853,0.10435 0.1296,0.15515 0,0 -8.64973,4.99393 -8.64973,4.99393 l 0,0 c -0.0346,-0.0567 -0.0695,-0.11314 -0.10292,-0.17056 -0.27133,-0.46152 -0.53578,-0.92759 -0.77532,-1.40655 -0.0247,-0.0917 -0.15393,-0.22339 -0.0742,-0.27505 6.26344,-4.06086 16.9171,-10.04108 -0.0974,0.10561 0.0324,-0.77548 0.2387,-1.56319 0.35689,-2.33341 1.41805,-7.32779 3.17577,-14.58741 5.24965,-21.7577 2.35181,-7.91987 4.66235,-15.95756 8.50335,-23.32225 0.74384,-1.42622 2.30425,-3.56801 3.28629,-4.96145 0,0 8.32208,-4.80475 8.32208,-4.80475 z"
         id="path9067" />
      <path
         inkscape:connector-curvature="0"
         d="m 435.46455,353.24586 c 4.8269,-1.26013 9.74132,-1.53422 14.69826,-1.33806 2.27443,0.12525 4.55043,0.26494 6.81439,0.5226 0.14013,10e-4 0.32515,0.0481 0.45412,0.0739 0,0 -8.6585,4.99899 -8.6585,4.99899 l 0,0 c -0.0789,-0.0379 -0.244,-0.13652 -0.35793,-0.12945 -2.0614,-0.46541 -4.1771,-0.64851 -6.27775,-0.83244 -5.05641,-0.2606 -10.08575,0.0341 -14.97011,1.49502 0,0 8.29752,-4.79058 8.29752,-4.79058 z"
         id="path9073" />
    </symbol>
    <symbol
       id="B">
      <path
         inkscape:connector-curvature="0"
         d="m 437.86457,321.27931 c -3.72734,7.42413 -4.87487,15.72486 -5.9148,23.86606 -0.87488,8.66446 -0.39256,17.39036 0.58119,26.02231 0.30865,1.46957 0.26,3.06201 0.76115,4.49527 -0.0561,0.0899 0.0338,0.0333 0.0397,0.0392 -2.87307,1.56302 -5.74613,3.12604 -8.6192,4.68906 0,0 8.58361,-4.95574 8.58361,-4.95574 l 0,0 c -2.87418,1.75515 -5.74836,3.5103 -8.62255,5.26546 -0.002,-0.0172 -0.13918,-0.0288 -0.006,-0.0589 -0.0691,-1.61743 -0.0875,-3.23677 -0.13853,-4.85474 -0.20837,-8.83511 -0.42133,-17.6911 0.26658,-26.51178 0.85273,-7.82333 1.80904,-15.71541 4.62161,-23.11943 0,0 8.44684,-4.87679 8.44684,-4.87679 z"
         id="path9086" />
      <path
         inkscape:connector-curvature="0"
         d="m 442.94723,322.79732 c 2.77503,1.16459 5.41227,2.62262 7.49733,4.84778 0.57706,0.61583 1.0369,1.33184 1.55535,1.99776 1.49386,2.52237 3.37528,5.58544 2.46758,8.69289 -0.51276,1.75542 -1.58043,2.58782 -2.77331,3.86505 -5.8969,4.09912 -12.14901,7.53833 -19.14295,9.10601 -4.87114,0.77489 -3.60086,1.22917 7.00829,-4.8457 2.46469,-0.8447 4.99231,-0.64542 7.47511,-0.0433 5.00477,1.76221 8.90242,4.74315 10.65834,9.9679 0.37942,1.12894 0.44565,2.33993 0.66847,3.5099 0.27776,4.27062 -0.20419,8.76301 -3.5659,11.83869 -0.77026,0.70473 -1.68688,1.23874 -2.59531,1.75323 -3.52848,1.99838 -7.13652,3.8529 -10.70477,5.77935 -3.763,1.24805 -7.69984,1.58197 -11.63611,1.46773 -0.74118,-0.044 -1.49034,-0.0613 -2.22083,-0.20473 -0.0735,-0.0608 -0.0895,-0.0542 -0.2576,-0.0595 -0.48185,-0.0183 -0.96437,-0.003 -1.44602,0.0152 -0.084,0.003 -0.16789,0.008 -0.25181,0.0121 0,0 8.65338,-4.99603 8.65338,-4.99603 l 0,0 c 0.0737,0.002 0.14741,0.005 0.22117,0.006 0.48092,0.007 0.96229,0.009 1.44287,-0.0134 0.15187,-0.003 0.22959,-0.0415 0.27887,0.0472 0.6242,0.23394 1.30606,0.26687 1.96087,0.35481 3.73982,0.29178 7.49203,0.026 11.08084,-1.14714 -1.65179,1.08735 -3.28829,2.19829 -4.95538,3.26204 -0.86478,0.55182 1.79095,-1.03368 2.54802,-1.72592 3.39234,-3.10184 4.02365,-7.59694 3.73625,-11.93705 -0.23255,-1.16435 -0.3094,-2.37097 -0.69765,-3.49305 -1.75806,-5.08089 -6.02459,-8.29668 -11.01936,-9.75946 -2.62631,-0.52621 -5.38231,-0.66295 -7.94009,0.3118 9.18313,-5.34883 5.22696,-4.38193 9.93981,-4.9393 1.36783,-0.25587 2.71361,-0.5631 4.03936,-0.99547 0.70968,-0.23145 2.69418,-1.21614 2.10918,-0.75248 -1.0451,0.82834 -9.54313,5.95384 -3.40053,2.10757 1.21487,-1.31101 2.17827,-2.03159 2.6946,-3.81961 0.90208,-3.12387 -0.81824,-6.20538 -2.36151,-8.75413 -0.53025,-0.65911 -1.00311,-1.36883 -1.59076,-1.97732 -2.16986,-2.24681 -5.01625,-3.61997 -7.93485,-4.59518 0,0 8.45905,-4.88383 8.45905,-4.88383 z"
         id="path9104" />
    </symbol>
    <symbol
       id="one">
      <path
         inkscape:connector-curvature="0"
         d="m 280.44184,298.67504 c -3.35816,4.40815 -6.86015,8.73189 -11.01478,12.41422 -1.1322,0.97396 -2.34654,1.8395 -3.58264,2.67354 0,0 -8.36365,4.82875 -8.36365,4.82875 l 0,0 c 1.35536,-0.89985 2.69118,-1.82907 3.93762,-2.87848 4.09782,-3.57143 7.66003,-7.73144 10.70436,-12.235 0,0 8.31909,-4.80303 8.31909,-4.80303 z"
         id="path12102" />
      <path
         inkscape:connector-curvature="0"
         d="m 280.60684,299.43561 c -3.15495,10.25028 -4.47484,20.97105 -5.00355,31.65103 -0.25012,4.77915 0.0133,9.39969 1.06335,14.05986 0,0 -7.86292,4.53966 -7.86292,4.53966 l 0,0 c -0.88651,-4.75266 -1.11566,-9.53911 -0.5428,-14.36041 0.91772,-10.45009 2.27642,-20.85405 4.17531,-31.17284 0,0 8.17061,-4.7173 8.17061,-4.7173 z"
         id="path12106" />
    </symbol>
    <filter
       inkscape:label="Button"
       inkscape:menu="Bevels"
       inkscape:menu-tooltip="Soft bevel, slightly depressed middle"
       style="color-interpolation-filters:sRGB"
       id="filter9166">
      <feGaussianBlur
         stdDeviation="2.3"
         in="SourceAlpha"
         result="result0"
         id="feGaussianBlur9168" />
      <feMorphology
         in="SourceAlpha"
         radius="6.6"
         result="result1"
         id="feMorphology9170" />
      <feGaussianBlur
         stdDeviation="8.9"
         in="result1"
         id="feGaussianBlur9172" />
      <feColorMatrix
         values="1 0 0 0 0 0 1 0 0 0 0 0 1 0 0 0 0 0 0.3 0"
         result="result91"
         id="feColorMatrix9174" />
      <feComposite
         in="result0"
         operator="out"
         result="result2"
         in2="result91"
         id="feComposite9176" />
      <feGaussianBlur
         stdDeviation="1.7"
         result="result4"
         id="feGaussianBlur9178" />
      <feDiffuseLighting
         surfaceScale="10"
         id="feDiffuseLighting9180">
        <feDistantLight
           azimuth="225"
           elevation="45"
           id="feDistantLight9182" />
      </feDiffuseLighting>
      <feBlend
         in2="SourceGraphic"
         mode="multiply"
         id="feBlend9184" />
      <feComposite
         in2="SourceAlpha"
         operator="in"
         result="result3"
         id="feComposite9186" />
      <feSpecularLighting
         in="result4"
         surfaceScale="5"
         specularExponent="17.89999962"
         id="feSpecularLighting9188">
        <feDistantLight
           azimuth="225"
           elevation="45"
           id="feDistantLight9190" />
      </feSpecularLighting>
      <feComposite
         in2="result3"
         operator="atop"
         id="feComposite9192" />
    </filter>
    <symbol
       id="v">
      <path
         id="path11249"
         d="m 802.78013,249.56843 c 2.21983,6.35791 2.8072,13.05836 3.33683,19.72249 0.0704,2.24545 -0.14138,4.4898 -0.60042,6.68685 -0.85569,3.583 -3.36644,2.29168 -8.81179,5.18191 1.22431,-1.5981 2.91315,-2.86783 4.39878,-4.23438 3.03356,-2.58345 5.57737,-5.58617 7.85424,-8.84115 2.63797,-3.84651 4.76501,-8.02031 6.59377,-12.30377 0.3961,-1.08169 0.90769,-2.14079 1.16514,-3.26994 0.10958,-3.21121 9.50505,-7.96155 8.46107,-4.73582 -4.34492,2.57932 -8.29842,7.55384 -8.48588,4.31747 0.16907,-0.51551 0.47751,-0.97042 0.80271,-1.39968 0.0501,-0.0768 0.11825,-0.139 0.17969,-0.20523 0.0343,-0.26815 0.0193,-0.53973 0.009,-0.80905 -10e-4,-0.061 -0.008,-0.12161 -0.0127,-0.18232 0.002,-0.002 -5.2e-4,-0.002 -7.8e-4,-0.003 0,0 8.6601,-4.99992 8.6601,-4.99992 l 0,0 c -2.3e-4,0.001 -0.002,0.002 -7e-4,0.004 -0.004,0.0652 -0.01,0.13035 -0.0105,0.19572 -0.007,0.26497 -0.021,0.53241 0.0136,0.79593 -0.0777,0.0711 -0.15501,0.14345 -0.21936,0.22813 -0.34518,0.4214 -0.68202,0.87429 -0.81964,1.40946 0.78,2.92781 -6.50104,2.44257 -8.76981,5.64511 1.94947,-2.78404 10.02038,-8.64744 8.81439,-5.23818 -0.46937,1.188 -1.03376,2.33657 -1.56154,3.49881 -2.03876,4.27508 -4.19438,8.51736 -6.84685,12.44988 -2.1474,3.20704 -4.60394,6.14565 -7.5454,8.66284 -1.40007,1.30362 -3.0076,2.52038 -4.12109,4.07407 -13.52543,8.44236 -9.54537,8.21918 -8.28444,4.6886 0.70904,-2.26397 1.04165,-4.6355 1.14488,-7.00119 -0.0737,-6.71322 -0.55084,-13.4788 -3.46825,-19.64662 0,0 8.12485,-4.69089 8.12485,-4.69089 z"
         inkscape:connector-curvature="0" />
    </symbol>
    <symbol
       id="pi">
      <path
         inkscape:connector-curvature="0"
         d="m 520.94875,315.31797 c 4.77185,-1.29305 9.76439,-1.18765 14.66415,-1.16301 8.21114,0.0976 16.2717,1.79305 24.42962,2.47483 0.80802,0.0381 1.61603,0.0763 2.42405,0.11442 0,0 -8.04757,4.64627 -8.04757,4.64627 l 0,0 c -0.74737,-0.0731 -1.49474,-0.14631 -2.24211,-0.21947 -8.036,-0.98899 -16.01378,-2.69723 -24.14923,-2.63671 -5.20174,0.0698 -10.51338,0.18271 -15.541,1.66926 0,0 8.46209,-4.88559 8.46209,-4.88559 z"
         id="path11730" />
      <path
         inkscape:connector-curvature="0"
         d="m 536.33772,314.42686 c -4.0016,4.08989 -4.83537,9.6036 -5.3892,15.05654 -0.29189,3.98625 0.0558,8.0104 -0.26296,11.99408 -0.23425,2.92697 -0.57556,3.95708 -1.22084,6.71319 0,0 -7.82144,4.51571 -7.82144,4.51571 l 0,0 c 0.28274,-1.04754 0.62951,-2.07986 0.84822,-3.14262 1.05809,-5.1415 0.65243,-10.39675 0.70454,-15.60447 0.42907,-5.27062 1.0868,-10.63043 4.7916,-14.71151 0,0 8.35008,-4.82092 8.35008,-4.82092 z"
         id="path11738" />
      <path
         inkscape:connector-curvature="0"
         d="m 550.86618,317.27838 c -2.63893,4.8136 -3.88038,10.20846 -4.85333,15.56388 -0.34604,2.95528 -1.49552,9.33487 1.14985,11.64314 0.38409,0.33514 0.9353,0.40569 1.40295,0.60853 3.4849,0.19438 6.54269,-1.82432 9.45101,-3.50088 -2.24341,1.27759 -4.48682,2.55518 -6.73023,3.83278 0,0 8.20649,-4.73803 8.20649,-4.73803 l 0,0 c -3.22793,1.8813 -6.45587,3.76259 -9.68381,5.64388 -2.92675,1.68722 -6.00372,3.70171 -9.50713,3.53329 -0.45279,-0.21143 -1.00114,-0.28483 -1.35836,-0.63428 -2.32533,-2.27474 -1.15292,-9.06528 -0.76122,-11.86752 0.86674,-5.19686 2.18002,-10.34169 4.23371,-15.20614 0,0 8.45007,-4.87865 8.45007,-4.87865 z"
         id="path11746" />
    </symbol>
    <symbol
       id="zero">
      <path
         id="path12217"
         d="m 319.05191,300.68165 c -0.35071,0.13875 -0.70412,0.27085 -1.05212,0.41625 -0.98511,0.41158 -3.79515,1.95759 -2.85558,1.4506 2.18904,-1.1812 4.25482,-2.61355 6.54486,-3.58456 0.68026,-0.28844 -1.11305,0.97418 -1.63109,1.50105 -0.58632,0.59631 -1.1189,1.24319 -1.67836,1.86478 -5.63792,6.77366 -7.84823,15.33975 -9.44019,23.81643 -0.25069,2.49103 -1.09764,8.15925 0.61493,10.49992 0.34707,0.47436 1.00893,0.76271 1.59653,0.74858 0.71347,-0.0172 2.65255,-1.04857 1.97177,-0.83438 -1.74806,0.54997 -3.45286,1.22901 -5.1793,1.84352 6.61113,-7.68126 10.23828,-17.14627 12.58733,-26.86958 0.37525,-2.48033 1.81354,-7.54403 -0.0825,-9.86386 -0.74801,-0.9152 -1.64699,-0.84715 -2.68334,-1.0046 0,0 8.26662,-4.77274 8.26662,-4.77274 l 0,0 c 1.00693,0.14494 1.96895,0.0565 2.64852,1.0247 1.71146,2.43825 -0.22531,7.80514 -0.63146,10.27607 -2.62951,9.66555 -6.08405,18.89317 -12.44868,26.78953 -3.51711,2.41285 -6.9652,4.92951 -10.55131,7.23855 -0.64597,0.41593 -1.34637,0.91322 -2.11465,0.91687 -3.25243,0.0155 -1.52636,-10.35772 -1.31545,-11.7658 1.5889,-8.20661 3.4197,-16.73772 8.7517,-23.41893 0.64729,-0.73522 2.28317,-2.71385 3.1806,-3.29145 4.41349,-2.84061 9.0459,-5.83305 13.96193,-7.86578 0,0 -8.46077,4.88483 -8.46077,4.88483 z"
         inkscape:connector-curvature="0" />
    </symbol>
    <symbol
       id="rho">
      <path
         id="path12475"
         d="m 938.04679,138.44537 c -3.37746,-0.30941 -6.42344,-1.70558 -9.31858,-3.38166 -3.27799,-2.37914 -5.88659,-5.45778 -7.96818,-8.90544 -2.22527,-3.91732 -2.41661,-8.54035 -2.63107,-12.93854 -0.39487,-4.65322 -0.004,-9.26337 0.66881,-13.86417 0.58896,-3.41816 2.09073,-6.56179 4.39729,-9.13843 4.82308,-3.53225 10.48681,-7.70669 16.77119,-7.27806 2.92394,0.27089 4.76627,2.0999 6.04536,4.58953 1.51151,3.73004 1.71497,7.78789 1.73741,11.76417 0.0831,4.2263 -0.7936,8.22375 -3.12333,11.75844 -4.41436,4.80682 -10.48716,8.14467 -16.62577,10.29139 -1.84271,0.58906 -3.7537,0.94329 -5.67507,1.1487 -0.23541,0.0171 -0.47733,0.0528 -0.71146,0.0257 0.0348,-0.24582 -10e-4,-0.0935 0.17201,-0.43704 0,0 8.57696,-4.95191 8.57696,-4.95191 l 0,0 c -0.11635,0.3107 -0.11246,0.17715 -0.0911,0.39032 0.18909,0.0392 0.40081,0.0601 0.60203,0.0375 1.81804,-0.0924 3.61957,-0.4277 5.35836,-0.96585 3.19692,-1.11694 9.12954,-4.41022 -3.72253,2.66286 -0.49853,0.27436 0.95892,-0.61575 1.40838,-0.96474 1.31269,-1.01924 1.44729,-1.28633 2.546,-2.52447 2.33412,-3.57079 3.32703,-7.54857 3.23628,-11.82365 -0.0202,-3.94597 -0.35865,-7.96854 -2.0054,-11.60944 -1.25769,-2.46646 -3.10433,-4.30039 -5.97828,-4.62827 -1.61279,-0.10285 -3.003,0.0178 -4.56972,0.46114 -0.47918,0.13559 -1.82835,0.76114 -1.41218,0.48762 11.98344,-7.87583 8.18393,-5.06664 5.73251,-3.20956 -2.35681,2.61771 -3.91331,5.75668 -4.56357,9.23443 -0.74764,4.6117 -1.15452,9.25814 -0.78809,13.93303 0.30048,4.39407 0.56483,8.92538 2.80155,12.84011 2.12773,3.42506 4.56809,6.62879 7.95728,8.91174 2.95278,1.7383 6.16627,3.10181 9.64391,3.19383 0,0 -8.47101,4.89074 -8.47101,4.89074 z"
         inkscape:connector-curvature="0" />
    </symbol>
  </defs>
  <metadata
     id="metadata9295">
    <rdf:RDF>
      <cc:Work>
        <dc:format>image/svg+xml</dc:format>
        <dc:type
           rdf:resource="http://purl.org/dc/dcmitype/StillImage" />
        <dc:title />
      </cc:Work>
    </rdf:RDF>
  </metadata>
  <g
     inkscape:groupmode="layer"
     id="layer0"
     inkscape:label="Background Fill"
     sodipodi:insensitive="true">
    <rect
       style="fill:#3c4747"
       width="1050"
       height="800"
       x="-10"
       y="-22"
       id="rect9298" />
  </g>
  <g
     id="layer1"
     inkscape:groupmode="layer"
     inkscape:label="Layer 1">
    <g
       id="g21882"
       transform="translate(5,10.999996)">
      <rect
         style="opacity:0.2;fill:#666666;fill-opacity:1;fill-rule:evenodd;stroke:#cccccc;stroke-width:0.73578942;stroke-linecap:butt;stroke-linejoin:miter;stroke-miterlimit:4;stroke-dasharray:none;stroke-dashoffset:0;stroke-opacity:1"
         id="rect21880"
         width="122.38499"
         height="47.39418"
         x="9.8678894"
         y="8.8678589" />
      <text
         sodipodi:linespacing="125%"
         id="text21876"
         y="40"
         x="23"
         style="font-style:normal;font-variant:normal;font-weight:normal;font-stretch:normal;font-size:25px;line-height:125%;font-family:'Sansita One';-inkscape-font-specification:'Sansita One';text-indent:0;text-align:start;text-decoration:none;text-decoration-line:none;text-decoration-style:solid;text-decoration-color:#000000;letter-spacing:0px;word-spacing:0px;text-transform:none;direction:ltr;block-progression:tb;writing-mode:lr-tb;baseline-shift:baseline;text-anchor:start;opacity:1;fill:#ffffff;fill-opacity:1;stroke:none;stroke-width:1px;stroke-linecap:butt;stroke-linejoin:miter;stroke-miterlimit:4;stroke-dasharray:none;stroke-dashoffset:0;stroke-opacity:1"
         xml:space="preserve"><tspan
           y="40"
           x="23"
           id="tspan21878"
           sodipodi:role="line">Remark</tspan></text>
    </g>
    <text
       xml:space="preserve"
       style="font-style:normal;font-variant:normal;font-weight:normal;font-stretch:normal;font-size:20px;line-height:125%;font-family:'Sansita One';-inkscape-font-specification:'Sansita One';text-indent:0;text-align:start;text-decoration:none;text-decoration-line:none;text-decoration-style:solid;text-decoration-color:#000000;letter-spacing:0px;word-spacing:0px;text-transform:none;direction:ltr;block-progression:tb;writing-mode:lr-tb;baseline-shift:baseline;text-anchor:start;opacity:1;fill:#bdcdd4;fill-opacity:1;stroke:none;stroke-width:1px;stroke-linecap:butt;stroke-linejoin:miter;stroke-miterlimit:4;stroke-dasharray:none;stroke-dashoffset:0;stroke-opacity:1"
       x="148"
       y="51.999992"
       id="text21887"
       sodipodi:linespacing="125%"><tspan
         sodipodi:role="line"
         id="tspan21889"
         x="148"
         y="51.999992">fixing arguments of an arrow pair and components swap</tspan></text>
    <text
       sodipodi:linespacing="125%"
       id="text10752"
       y="385"
       x="342"
       style="font-style:normal;font-variant:normal;font-weight:normal;font-stretch:normal;font-size:15px;line-height:125%;font-family:Chalkboard;-inkscape-font-specification:Chalkboard;text-indent:0;text-align:start;text-decoration:none;text-decoration-line:none;text-decoration-style:solid;text-decoration-color:#000000;letter-spacing:0px;word-spacing:0px;text-transform:none;direction:ltr;block-progression:tb;writing-mode:lr-tb;baseline-shift:baseline;text-anchor:start;opacity:1;fill:#999999;fill-opacity:1;stroke:none;stroke-width:1px;stroke-linecap:butt;stroke-linejoin:miter;stroke-miterlimit:4;stroke-dasharray:none;stroke-dashoffset:0;stroke-opacity:1"
       xml:space="preserve"><tspan
         y="385"
         x="342"
         sodipodi:role="line"
         id="tspan10754" /></text>
    <use
       id="use8888"
       xlink:href="#A"
       x="0"
       y="0"
       width="100%"
       height="100%"
       transform="matrix(0.30319335,0,0,0.30319335,200.56984,184.97386)"
       style="fill:#cccccc" />
    <use
       id="use8890"
       xlink:href="#B"
       x="0"
       y="0"
       width="100%"
       height="100%"
       transform="matrix(0.32356357,0,0,0.32356357,160.57406,176.10251)"
       style="fill:#cccccc" />
    <g
       id="g8892"
       transform="matrix(0.6699709,0,0,0.6699709,-24.82566,221.76254)"
       style="fill:#999999">
      <path
         inkscape:connector-curvature="0"
         d="m 509.10604,95.158464 c 3.1607,2.949874 5.94599,6.267426 8.82894,9.481896 0.46836,0.47617 0.93672,0.95234 1.40508,1.42851 0,0 -2.8331,2.82376 -2.8331,2.82376 l 0,0 c -0.47698,-0.48491 -0.95396,-0.96982 -1.43095,-1.45472 -2.85729,-3.18553 -5.61595,-6.4751 -8.74665,-9.400202 0,0 2.77668,-2.879244 2.77668,-2.879244 z"
         id="path8894"
         style="opacity:1;fill:#999999;fill-opacity:1;stroke:none;stroke-width:0.99999994;stroke-linecap:butt;stroke-linejoin:miter;stroke-miterlimit:4;stroke-dasharray:none;stroke-dashoffset:0;stroke-opacity:1" />
      <path
         style="opacity:1;fill:#999999;fill-opacity:1;stroke:none;stroke-width:0.99999994;stroke-linecap:butt;stroke-linejoin:miter;stroke-miterlimit:4;stroke-dasharray:none;stroke-dashoffset:0;stroke-opacity:1"
         id="path8896"
         d="m 519.70179,98.296877 c -2.94987,3.160703 -6.26742,5.945993 -9.48189,8.828943 -0.47617,0.46836 -0.95234,0.93672 -1.42851,1.40508 0,0 -2.82376,-2.8331 -2.82376,-2.8331 l 0,0 c 0.48491,-0.47698 0.96982,-0.95396 1.45472,-1.43095 3.18553,-2.85729 6.4751,-5.615953 9.4002,-8.746653 0,0 2.87924,2.77668 2.87924,2.77668 z"
         inkscape:connector-curvature="0" />
    </g>
    <use
       style="fill:#cccccc"
       transform="matrix(0.30319335,0,0,0.30319335,185.3092,269.23741)"
       height="100%"
       width="100%"
       y="0"
       x="0"
       xlink:href="#A"
       id="use8898" />
    <g
       id="g8902"
       transform="matrix(0.6699709,0,0,0.6699709,-61.00409,54.93979)">
      <path
         style="opacity:1;fill:none;fill-opacity:1;fill-rule:evenodd;stroke:#999999;stroke-width:2.5;stroke-linecap:butt;stroke-linejoin:miter;stroke-miterlimit:4;stroke-dasharray:none;stroke-dashoffset:0;stroke-opacity:1"
         d="m 566,318 0,-60"
         id="path8904"
         inkscape:connector-curvature="0" />
      <path
         style="opacity:1;fill:#999999;fill-opacity:1;stroke:none;stroke-width:0.99999994;stroke-linecap:butt;stroke-linejoin:miter;stroke-miterlimit:4;stroke-dasharray:none;stroke-dashoffset:0;stroke-opacity:1"
         id="path8906"
         d="m 557.93569,268.19028 c 2.04745,-2.26479 4.0803,-4.57488 5.82276,-7.08645 0.2418,-0.34572 0.84679,-1.18616 1.08611,-1.60663 0.244,-0.42869 0.1588,-0.93734 0.15118,-0.24127 0.84562,-0.76903 1.6538,-1.58136 2.53686,-2.30709 0.27814,-0.22859 -0.39011,-0.006 -0.17739,0.97436 0.18503,0.85288 0.66572,1.6595 1.10149,2.39968 0.77042,1.66564 1.85893,2.98828 3.12808,4.28185 0.7719,0.65358 0.38013,0.40065 1.14808,0.79943 0,0 -2.66855,2.97973 -2.66855,2.97973 l 0,0 c -0.89546,-0.53081 -0.45299,-0.21859 -1.3134,-0.95619 -1.31158,-1.33733 -2.4692,-2.69115 -3.25666,-4.41709 -0.34572,-0.56157 -1.98954,-3.53595 -1.47665,-4.15264 0.91688,-1.10245 2.04963,-2.00581 3.07445,-3.00872 2.05778,0.34418 1.13113,2.2157 0.15448,3.29668 -1.64287,2.60709 -3.77219,4.87262 -5.74681,7.22839 0,0 -3.56403,1.81596 -3.56403,1.81596 z"
         inkscape:connector-curvature="0" />
    </g>
    <g
       transform="matrix(0.6699709,0,0,-0.6699709,-61.00409,526.4983)"
       id="g8910">
      <path
         inkscape:connector-curvature="0"
         id="path8912"
         d="m 566,318 0,-60"
         style="opacity:1;fill:none;fill-opacity:1;fill-rule:evenodd;stroke:#999999;stroke-width:2.5;stroke-linecap:butt;stroke-linejoin:miter;stroke-miterlimit:4;stroke-dasharray:none;stroke-dashoffset:0;stroke-opacity:1" />
      <path
         inkscape:connector-curvature="0"
         d="m 557.93569,268.19028 c 2.04745,-2.26479 4.0803,-4.57488 5.82276,-7.08645 0.2418,-0.34572 0.84679,-1.18616 1.08611,-1.60663 0.244,-0.42869 0.1588,-0.93734 0.15118,-0.24127 0.84562,-0.76903 1.6538,-1.58136 2.53686,-2.30709 0.27814,-0.22859 -0.39011,-0.006 -0.17739,0.97436 0.18503,0.85288 0.66572,1.6595 1.10149,2.39968 0.77042,1.66564 1.85893,2.98828 3.12808,4.28185 0.7719,0.65358 0.38013,0.40065 1.14808,0.79943 0,0 -2.66855,2.97973 -2.66855,2.97973 l 0,0 c -0.89546,-0.53081 -0.45299,-0.21859 -1.3134,-0.95619 -1.31158,-1.33733 -2.4692,-2.69115 -3.25666,-4.41709 -0.34572,-0.56157 -1.98954,-3.53595 -1.47665,-4.15264 0.91688,-1.10245 2.04963,-2.00581 3.07445,-3.00872 2.05778,0.34418 1.13113,2.2157 0.15448,3.29668 -1.64287,2.60709 -3.77219,4.87262 -5.74681,7.22839 0,0 -3.56403,1.81596 -3.56403,1.81596 z"
         id="path8914"
         style="opacity:1;fill:#999999;fill-opacity:1;stroke:none;stroke-width:0.99999994;stroke-linecap:butt;stroke-linejoin:miter;stroke-miterlimit:4;stroke-dasharray:none;stroke-dashoffset:0;stroke-opacity:1" />
    </g>
    <use
       id="use8918"
       xlink:href="#B"
       x="0"
       y="0"
       width="100%"
       height="100%"
       transform="matrix(0.32356357,0,0,0.32356357,175.8347,96.51885)"
       style="fill:#cccccc" />
    <path
       inkscape:connector-curvature="0"
       id="path8922"
       d="m 180.53383,291.43952 106.84695,0"
       style="opacity:1;fill:none;fill-opacity:1;fill-rule:evenodd;stroke:#cccccc;stroke-width:1.67492723;stroke-linecap:butt;stroke-linejoin:miter;stroke-miterlimit:4;stroke-dasharray:6.699709, 6.699709;stroke-dashoffset:0;stroke-opacity:1"
       sodipodi:nodetypes="cc" />
    <path
       inkscape:connector-curvature="0"
       d="m 286.0359,283.91568 c 1.09566,2.17797 2.19127,4.40782 3.71978,6.31989 0.0455,0.0417 0.61373,0.62811 0.83631,0.65935 0.0519,0.007 0.12673,-0.16539 0.087,-0.13115 -3.67633,3.16718 -0.9216,1.61867 -2.16133,1.63588 -0.0967,0.0387 -0.19667,0.0699 -0.29001,0.11608 -0.46893,0.23179 -0.45335,0.25795 -0.87168,0.65669 -0.18751,0.17873 -0.74554,0.71942 -0.55425,0.54474 1.33135,-1.2157 1.7056,-1.73335 0.73541,-0.54229 -0.70054,1.08437 -1.44457,2.20058 -1.68298,3.4888 0,0 -2.19995,1.53036 -2.19995,1.53036 l 0,0 c 0.0496,-1.40092 0.86593,-2.55302 1.52354,-3.74829 1.13057,-1.4599 0.64426,-0.88152 2.86026,-3.10626 0.59145,-0.59378 1.29528,-1.11398 2.16882,-1.02034 2.30495,0.97629 -1.08001,4.01193 -2.38688,1.76972 -1.56582,-1.94151 -2.68951,-4.20634 -3.81292,-6.42235 0,0 2.02889,-1.75083 2.02889,-1.75083 z"
       id="path8924"
       style="opacity:1;fill:#cccccc;fill-opacity:1;stroke:none;stroke-width:0.99999994;stroke-linecap:butt;stroke-linejoin:miter;stroke-miterlimit:4;stroke-dasharray:none;stroke-dashoffset:0;stroke-opacity:1" />
    <use
       style="fill:#cccccc"
       transform="matrix(0.30319335,0,0,0.30319335,26.56984,184.97386)"
       height="100%"
       width="100%"
       y="0"
       x="0"
       xlink:href="#A"
       id="use8942" />
    <use
       style="fill:#cccccc"
       transform="matrix(0.30319335,0,0,0.30319335,11.59066,224.6325)"
       height="100%"
       width="100%"
       y="0"
       x="0"
       xlink:href="#A"
       id="use8954" />
    <path
       inkscape:connector-curvature="0"
       id="path8958"
       d="m 179.88369,207.84594 120.89651,0"
       style="opacity:1;fill:none;fill-opacity:1;fill-rule:evenodd;stroke:#cccccc;stroke-width:1.67492723;stroke-linecap:butt;stroke-linejoin:miter;stroke-miterlimit:4;stroke-dasharray:none;stroke-dashoffset:0;stroke-opacity:1"
       sodipodi:nodetypes="cc" />
    <path
       inkscape:connector-curvature="0"
       d="m 299.35751,202.17445 c 0.65067,1.868 1.5855,3.6031 2.77242,5.18124 0.14176,0.14016 0.26729,0.29892 0.42529,0.42048 0.14927,0.11485 0.40523,0.21141 0.59937,0.13637 0.0866,-0.0335 0.27951,-0.24459 0.21066,-0.18227 -1.74717,1.58122 -2.12353,2.05196 -1.48402,1.28518 0.10961,-0.52839 -1.3192,-0.0241 -1.55838,0.0464 -0.1594,0.0766 -0.32373,0.14363 -0.4782,0.22972 -0.68636,0.38251 -2.26236,1.89567 -1.57513,1.23703 0.99406,-0.95272 3.693,-3.63574 -1.04489,1.05354 2.70753,-2.93307 0.73622,-0.56174 0.20928,0.15197 0,0 -2.34342,1.30007 -2.34342,1.30007 l 0,0 c 0.94673,-1.43585 2.0426,-2.68582 3.36166,-3.83425 -3.74202,3.81118 1.7434,-2.31387 3.33499,-2.38255 0.88544,-0.19662 2.08367,-0.31642 2.37019,0.78349 -0.33768,2.3148 -2.67433,3.16052 -3.97384,1.59694 -1.22002,-1.60355 -2.20287,-3.36751 -2.85953,-5.27791 0,0 2.03355,-1.74541 2.03355,-1.74541 z"
       id="path8960"
       style="opacity:1;fill:#cccccc;fill-opacity:1;stroke:none;stroke-width:0.99999994;stroke-linecap:butt;stroke-linejoin:miter;stroke-miterlimit:4;stroke-dasharray:none;stroke-dashoffset:0;stroke-opacity:1" />
    <use
       id="use8964"
       xlink:href="#one"
       x="0"
       y="0"
       width="100%"
       height="100%"
       transform="matrix(0.34372205,0,0,0.34372205,67.33733,97.04473)"
       style="fill:none;stroke:#cccccc;stroke-width:3.8983295;stroke-miterlimit:4;stroke-dasharray:none" />
    <path
       style="opacity:1;fill:none;fill-opacity:1;fill-rule:evenodd;stroke:#cccccc;stroke-width:1.67492723;stroke-linecap:butt;stroke-linejoin:miter;stroke-miterlimit:4;stroke-dasharray:none;stroke-dashoffset:0;stroke-opacity:1"
       d="m 180.88369,373.6932 119.89651,0"
       id="path8966"
       inkscape:connector-curvature="0"
       sodipodi:nodetypes="cc" />
    <path
       style="opacity:1;fill:#cccccc;fill-opacity:1;stroke:none;stroke-width:0.99999994;stroke-linecap:butt;stroke-linejoin:miter;stroke-miterlimit:4;stroke-dasharray:none;stroke-dashoffset:0;stroke-opacity:1"
       id="path8968"
       d="m 299.35751,368.0217 c 0.65067,1.868 1.5855,3.6031 2.77242,5.1812 0.14176,0.1402 0.26729,0.2989 0.42529,0.4205 0.14927,0.1148 0.40523,0.2114 0.59937,0.1364 0.0866,-0.034 0.27951,-0.2446 0.21066,-0.1823 -1.74717,1.5812 -2.12353,2.052 -1.48402,1.2852 0.10961,-0.5284 -1.3192,-0.024 -1.55838,0.046 -0.1594,0.077 -0.32373,0.1436 -0.4782,0.2297 -0.68636,0.3825 -2.26236,1.8956 -1.57513,1.237 0.99406,-0.9527 3.693,-3.6357 -1.04489,1.0535 2.70753,-2.933 0.73622,-0.5617 0.20928,0.152 0,0 -2.34342,1.3001 -2.34342,1.3001 l 0,0 c 0.94673,-1.4359 2.0426,-2.6858 3.36166,-3.8343 -3.74202,3.8112 1.7434,-2.3138 3.33499,-2.3825 0.88544,-0.1966 2.08367,-0.3164 2.37019,0.7835 -0.33768,2.3148 -2.67433,3.1605 -3.97384,1.5969 -1.22002,-1.6035 -2.20287,-3.3675 -2.85953,-5.2779 0,0 2.03355,-1.7454 2.03355,-1.7454 z"
       inkscape:connector-curvature="0" />
    <use
       style="fill:#cccccc"
       transform="matrix(0.30319335,0,0,0.30319335,28.56984,268.97386)"
       height="100%"
       width="100%"
       y="0"
       x="0"
       xlink:href="#A"
       id="use8970" />
    <use
       style="fill:#cccccc"
       transform="matrix(0.30319335,0,0,0.30319335,104.07773,290.58908)"
       height="100%"
       width="100%"
       y="0"
       x="0"
       xlink:href="#A"
       id="use8972" />
    <g
       transform="matrix(-1,0,0,1,825.4152,-33.00002)"
       id="g8974">
      <path
         inkscape:connector-curvature="0"
         id="path8976"
         d="m 664.28952,301.32552 0,-34.83849"
         style="opacity:1;fill:none;fill-opacity:1;fill-rule:evenodd;stroke:#999999;stroke-width:1.67492723;stroke-linecap:butt;stroke-linejoin:miter;stroke-miterlimit:4;stroke-dasharray:6.699709, 6.699709;stroke-dashoffset:0;stroke-opacity:1"
         sodipodi:nodetypes="cc" />
      <path
         style="opacity:1;fill:#999999;fill-opacity:1;stroke:none;stroke-width:0.99999994;stroke-linecap:butt;stroke-linejoin:miter;stroke-miterlimit:4;stroke-dasharray:none;stroke-dashoffset:0;stroke-opacity:1"
         id="path8978"
         d="m 659.15274,268.31099 c 1.22787,-1.57191 2.23685,-3.30434 3.19324,-5.051 0.33626,-0.41259 1.08715,-3.03422 1.43206,-3.22616 0.76717,-0.42694 1.5952,-0.73388 2.3928,-1.10082 0.47639,1.45106 1.09997,2.8381 1.88656,4.14657 0.32042,0.52998 0.62639,0.97861 1.20508,1.20623 0,0 -1.76357,2.01782 -1.76357,2.01782 l 0,0 c -0.62907,-0.3439 -1.06991,-0.78102 -1.42521,-1.42218 -0.80332,-1.31198 -1.47686,-2.70279 -1.91702,-4.18069 0.65142,-0.66192 1.30285,-1.32384 1.95427,-1.98576 -0.0686,0.0871 -0.15026,0.16528 -0.2059,0.26116 -0.5297,0.91268 -0.80784,1.97503 -1.24701,2.92878 -0.92992,1.78116 -1.96829,3.51362 -3.13996,5.14632 0,0 -2.36534,1.25973 -2.36534,1.25973 z"
         inkscape:connector-curvature="0" />
    </g>
    <g
       transform="matrix(0.6699709,0,0,-0.6699709,-217.57903,528.4983)"
       id="g8980">
      <path
         inkscape:connector-curvature="0"
         id="path8982"
         d="m 566,318 0,-60"
         style="opacity:1;fill:none;fill-opacity:1;fill-rule:evenodd;stroke:#999999;stroke-width:2.5;stroke-linecap:butt;stroke-linejoin:miter;stroke-miterlimit:4;stroke-dasharray:none;stroke-dashoffset:0;stroke-opacity:1" />
      <path
         inkscape:connector-curvature="0"
         d="m 557.93569,268.19028 c 2.04745,-2.26479 4.0803,-4.57488 5.82276,-7.08645 0.2418,-0.34572 0.84679,-1.18616 1.08611,-1.60663 0.244,-0.42869 0.1588,-0.93734 0.15118,-0.24127 0.84562,-0.76903 1.6538,-1.58136 2.53686,-2.30709 0.27814,-0.22859 -0.39011,-0.006 -0.17739,0.97436 0.18503,0.85288 0.66572,1.6595 1.10149,2.39968 0.77042,1.66564 1.85893,2.98828 3.12808,4.28185 0.7719,0.65358 0.38013,0.40065 1.14808,0.79943 0,0 -2.66855,2.97973 -2.66855,2.97973 l 0,0 c -0.89546,-0.53081 -0.45299,-0.21859 -1.3134,-0.95619 -1.31158,-1.33733 -2.4692,-2.69115 -3.25666,-4.41709 -0.34572,-0.56157 -1.98954,-3.53595 -1.47665,-4.15264 0.91688,-1.10245 2.04963,-2.00581 3.07445,-3.00872 2.05778,0.34418 1.13113,2.2157 0.15448,3.29668 -1.64287,2.60709 -3.77219,4.87262 -5.74681,7.22839 0,0 -3.56403,1.81596 -3.56403,1.81596 z"
         id="path8984"
         style="opacity:1;fill:#999999;fill-opacity:1;stroke:none;stroke-width:0.99999994;stroke-linecap:butt;stroke-linejoin:miter;stroke-miterlimit:4;stroke-dasharray:none;stroke-dashoffset:0;stroke-opacity:1" />
    </g>
    <path
       inkscape:connector-curvature="0"
       d="m 228.93256,276.34607 c -0.69583,1.97834 -1.67596,3.82559 -2.77287,5.6056 0,0 -2.27526,1.29056 -2.27526,1.29056 l 0,0 c 1.1206,-1.7429 2.12717,-3.55626 2.82713,-5.51431 0,0 2.221,-1.38185 2.221,-1.38185 z"
       id="path8988"
       style="opacity:1;fill:#999999;fill-opacity:1;stroke:none;stroke-width:0.99999994;stroke-linecap:butt;stroke-linejoin:miter;stroke-miterlimit:4;stroke-dasharray:none;stroke-dashoffset:0;stroke-opacity:1" />
    <path
       inkscape:connector-curvature="0"
       d="m 216.44743,263.3786 c -1.2219,2.35292 -2.63881,4.59136 -4.26681,6.68277 -0.76508,0.77621 -1.49471,1.58904 -2.29525,2.32862 -0.13201,0.12196 -0.32897,0.14686 -0.48353,0.2386 -0.0836,0.0496 -0.15132,0.12204 -0.22697,0.18306 0.5503,-0.53432 1.0961,-1.07333 1.6509,-1.60298 0.0275,-0.0263 -0.074,0.0542 -0.068,0.0919 0.0196,0.12254 0.0919,0.23054 0.13777,0.34582 0.80921,1.65561 1.52332,3.3424 2.03038,5.11507 0.28508,1.13095 0.40158,2.29185 0.50507,3.45029 0.04,0.44792 0.10106,0.5372 -0.007,0.33539 0,0 -1.80823,1.89016 -1.80823,1.89016 l 0,0 c -0.0796,-0.0788 -0.19518,-0.13339 -0.23865,-0.23665 -0.1411,-0.33512 -0.0588,-0.72487 -0.0921,-1.08699 -0.0833,-0.90663 -0.18315,-1.81298 -0.38886,-2.70174 -0.47818,-1.75545 -1.17414,-3.4203 -1.97712,-5.05167 -0.12021,-0.23811 -0.4219,-0.79743 -0.37157,-0.86567 0.5406,-0.73306 1.24429,-1.33102 1.88964,-1.97377 0.18569,-0.18492 0.80884,-0.65855 0.63711,-0.46061 -0.37657,0.43404 -0.79874,0.82633 -1.19811,1.2395 1.67929,-2.03253 3.08683,-4.27159 4.30991,-6.60571 0,0 2.26102,-1.31536 2.26102,-1.31536 z"
       id="path8990"
       style="opacity:1;fill:#999999;fill-opacity:1;stroke:none;stroke-width:0.99999994;stroke-linecap:butt;stroke-linejoin:miter;stroke-miterlimit:4;stroke-dasharray:none;stroke-dashoffset:0;stroke-opacity:1" />
    <path
       inkscape:connector-curvature="0"
       d="m 246.17345,263.73531 c 0.27049,2.31478 0.69624,4.61042 1.32799,6.85382 0.2087,0.47414 0.33784,0.89975 0.68384,1.28639 0.29842,0.33347 0.59659,-0.20756 0.48886,-0.0862 -0.61549,0.69322 -1.2455,1.37341 -1.86824,2.06012 -0.39182,0.13891 -0.69693,0.43798 -1.02419,0.68873 -0.14584,0.11174 -0.55567,0.47943 -0.42799,0.34732 3.91189,-4.04809 1.03092,-0.95569 0.95086,-0.86929 -0.86369,1.07687 -1.55764,2.28239 -2.12056,3.53995 -0.24581,0.48825 -0.72324,2.21721 0.38276,1.8648 0,0 -1.53316,2.11937 -1.53316,2.11937 l 0,0 c -1.38772,-0.22896 -1.52414,-1.45154 -1.0811,-2.61933 0.51562,-1.31422 1.23532,-2.52842 2.03593,-3.6891 1.13079,-1.33493 2.5351,-3.28549 4.44014,-3.4341 -0.37939,0.73712 -0.70323,1.5056 -1.13816,2.21137 -0.0434,0.0702 -0.16311,0.0414 -0.24525,0.0335 -0.90877,-0.0862 -1.24805,-1.10033 -1.57062,-1.80001 -0.6615,-2.25678 -1.10104,-4.57493 -1.37285,-6.91038 0,0 2.07174,-1.59695 2.07174,-1.59695 z"
       id="path8992"
       style="opacity:1;fill:#999999;fill-opacity:1;stroke:none;stroke-width:0.99999994;stroke-linecap:butt;stroke-linejoin:miter;stroke-miterlimit:4;stroke-dasharray:none;stroke-dashoffset:0;stroke-opacity:1" />
    <path
       style="opacity:1;fill:#cccccc;fill-opacity:1;stroke:none;stroke-width:0.99999994;stroke-linecap:butt;stroke-linejoin:miter;stroke-miterlimit:4;stroke-dasharray:none;stroke-dashoffset:0;stroke-opacity:1"
       id="path8994"
       d="m 233.29674,271.42943 c 1.82629,0 3.65257,0 5.47886,0 1.4415,0 2.883,0 4.3245,0 0,0 -1.53752,2.11621 -1.53752,2.11621 l 0,0 c -1.4415,0 -2.883,0 -4.3245,0 -1.82628,0 -3.65257,0 -5.47887,0 0,0 1.53753,-2.11621 1.53753,-2.11621 z"
       inkscape:connector-curvature="0" />
    <use
       style="fill:#cccccc"
       transform="matrix(0.35435044,0,0,0.35435044,-65.42498,178.50348)"
       height="100%"
       width="100%"
       y="0"
       x="0"
       xlink:href="#v"
       id="use10237" />
    <use
       id="use10239"
       xlink:href="#v"
       x="0"
       y="0"
       width="100%"
       height="100%"
       transform="matrix(0.35435044,0,0,0.35435044,-47.42498,97.00348)"
       style="fill:#cccccc" />
    <use
       id="use10267"
       xlink:href="#pi"
       x="0"
       y="0"
       width="100%"
       height="100%"
       transform="matrix(0.35653137,0,0,0.35653137,105.79248,130.53114)"
       style="fill:#cccccc" />
    <use
       id="use10305"
       xlink:href="#zero"
       x="0"
       y="0"
       width="100%"
       height="100%"
       transform="matrix(0.24301512,0,0,0.24301512,229.65794,179.52609)"
       style="fill:#cccccc" />
    <use
       style="fill:#cccccc"
       transform="matrix(0.35653137,0,0,0.35653137,105.79248,214.53114)"
       height="100%"
       width="100%"
       y="0"
       x="0"
       xlink:href="#pi"
       id="use10317" />
    <use
       id="use10358"
       xlink:href="#one"
       x="0"
       y="0"
       width="100%"
       height="100%"
       transform="matrix(0.23751058,0,0,0.23751058,242.78256,262.15718)"
       style="fill:#cccccc" />
    <use
       style="fill:#cccccc"
       transform="matrix(0.30319335,0,0,0.30319335,344.56984,184.97386)"
       height="100%"
       width="100%"
       y="0"
       x="0"
       xlink:href="#A"
       id="use10369" />
    <use
       style="fill:#cccccc"
       transform="matrix(0.32356357,0,0,0.32356357,364.57406,176.10251)"
       height="100%"
       width="100%"
       y="0"
       x="0"
       xlink:href="#B"
       id="use10371" />
    <g
       style="fill:#999999"
       transform="matrix(0.6699709,0,0,0.6699709,149.17434,221.76254)"
       id="g10373">
      <path
         style="opacity:1;fill:#999999;fill-opacity:1;stroke:none;stroke-width:0.99999994;stroke-linecap:butt;stroke-linejoin:miter;stroke-miterlimit:4;stroke-dasharray:none;stroke-dashoffset:0;stroke-opacity:1"
         id="path10375"
         d="m 509.10604,95.158464 c 3.1607,2.949874 5.94599,6.267426 8.82894,9.481896 0.46836,0.47617 0.93672,0.95234 1.40508,1.42851 0,0 -2.8331,2.82376 -2.8331,2.82376 l 0,0 c -0.47698,-0.48491 -0.95396,-0.96982 -1.43095,-1.45472 -2.85729,-3.18553 -5.61595,-6.4751 -8.74665,-9.400202 0,0 2.77668,-2.879244 2.77668,-2.879244 z"
         inkscape:connector-curvature="0" />
      <path
         inkscape:connector-curvature="0"
         d="m 519.70179,98.296877 c -2.94987,3.160703 -6.26742,5.945993 -9.48189,8.828943 -0.47617,0.46836 -0.95234,0.93672 -1.42851,1.40508 0,0 -2.82376,-2.8331 -2.82376,-2.8331 l 0,0 c 0.48491,-0.47698 0.96982,-0.95396 1.45472,-1.43095 3.18553,-2.85729 6.4751,-5.615953 9.4002,-8.746653 0,0 2.87924,2.77668 2.87924,2.77668 z"
         id="path10377"
         style="opacity:1;fill:#999999;fill-opacity:1;stroke:none;stroke-width:0.99999994;stroke-linecap:butt;stroke-linejoin:miter;stroke-miterlimit:4;stroke-dasharray:none;stroke-dashoffset:0;stroke-opacity:1" />
    </g>
    <use
       id="use10379"
       xlink:href="#A"
       x="0"
       y="0"
       width="100%"
       height="100%"
       transform="matrix(0.30319335,0,0,0.30319335,359.3092,269.23741)"
       style="fill:#cccccc" />
    <g
       transform="matrix(0.6699709,0,0,0.6699709,112.99591,54.93979)"
       id="g10381">
      <path
         inkscape:connector-curvature="0"
         id="path10383"
         d="m 566,318 0,-60"
         style="opacity:1;fill:none;fill-opacity:1;fill-rule:evenodd;stroke:#999999;stroke-width:2.5;stroke-linecap:butt;stroke-linejoin:miter;stroke-miterlimit:4;stroke-dasharray:none;stroke-dashoffset:0;stroke-opacity:1" />
      <path
         inkscape:connector-curvature="0"
         d="m 557.93569,268.19028 c 2.04745,-2.26479 4.0803,-4.57488 5.82276,-7.08645 0.2418,-0.34572 0.84679,-1.18616 1.08611,-1.60663 0.244,-0.42869 0.1588,-0.93734 0.15118,-0.24127 0.84562,-0.76903 1.6538,-1.58136 2.53686,-2.30709 0.27814,-0.22859 -0.39011,-0.006 -0.17739,0.97436 0.18503,0.85288 0.66572,1.6595 1.10149,2.39968 0.77042,1.66564 1.85893,2.98828 3.12808,4.28185 0.7719,0.65358 0.38013,0.40065 1.14808,0.79943 0,0 -2.66855,2.97973 -2.66855,2.97973 l 0,0 c -0.89546,-0.53081 -0.45299,-0.21859 -1.3134,-0.95619 -1.31158,-1.33733 -2.4692,-2.69115 -3.25666,-4.41709 -0.34572,-0.56157 -1.98954,-3.53595 -1.47665,-4.15264 0.91688,-1.10245 2.04963,-2.00581 3.07445,-3.00872 2.05778,0.34418 1.13113,2.2157 0.15448,3.29668 -1.64287,2.60709 -3.77219,4.87262 -5.74681,7.22839 0,0 -3.56403,1.81596 -3.56403,1.81596 z"
         id="path10385"
         style="opacity:1;fill:#999999;fill-opacity:1;stroke:none;stroke-width:0.99999994;stroke-linecap:butt;stroke-linejoin:miter;stroke-miterlimit:4;stroke-dasharray:none;stroke-dashoffset:0;stroke-opacity:1" />
    </g>
    <g
       id="g10387"
       transform="matrix(0.6699709,0,0,-0.6699709,112.99591,526.4983)">
      <path
         style="opacity:1;fill:none;fill-opacity:1;fill-rule:evenodd;stroke:#999999;stroke-width:2.5;stroke-linecap:butt;stroke-linejoin:miter;stroke-miterlimit:4;stroke-dasharray:none;stroke-dashoffset:0;stroke-opacity:1"
         d="m 566,318 0,-60"
         id="path10389"
         inkscape:connector-curvature="0" />
      <path
         style="opacity:1;fill:#999999;fill-opacity:1;stroke:none;stroke-width:0.99999994;stroke-linecap:butt;stroke-linejoin:miter;stroke-miterlimit:4;stroke-dasharray:none;stroke-dashoffset:0;stroke-opacity:1"
         id="path10391"
         d="m 557.93569,268.19028 c 2.04745,-2.26479 4.0803,-4.57488 5.82276,-7.08645 0.2418,-0.34572 0.84679,-1.18616 1.08611,-1.60663 0.244,-0.42869 0.1588,-0.93734 0.15118,-0.24127 0.84562,-0.76903 1.6538,-1.58136 2.53686,-2.30709 0.27814,-0.22859 -0.39011,-0.006 -0.17739,0.97436 0.18503,0.85288 0.66572,1.6595 1.10149,2.39968 0.77042,1.66564 1.85893,2.98828 3.12808,4.28185 0.7719,0.65358 0.38013,0.40065 1.14808,0.79943 0,0 -2.66855,2.97973 -2.66855,2.97973 l 0,0 c -0.89546,-0.53081 -0.45299,-0.21859 -1.3134,-0.95619 -1.31158,-1.33733 -2.4692,-2.69115 -3.25666,-4.41709 -0.34572,-0.56157 -1.98954,-3.53595 -1.47665,-4.15264 0.91688,-1.10245 2.04963,-2.00581 3.07445,-3.00872 2.05778,0.34418 1.13113,2.2157 0.15448,3.29668 -1.64287,2.60709 -3.77219,4.87262 -5.74681,7.22839 0,0 -3.56403,1.81596 -3.56403,1.81596 z"
         inkscape:connector-curvature="0" />
    </g>
    <use
       style="fill:#cccccc"
       transform="matrix(0.32356357,0,0,0.32356357,349.8347,96.51885)"
       height="100%"
       width="100%"
       y="0"
       x="0"
       xlink:href="#B"
       id="use10393" />
    <path
       style="opacity:1;fill:none;fill-opacity:1;fill-rule:evenodd;stroke:#cccccc;stroke-width:1.67492723;stroke-linecap:butt;stroke-linejoin:miter;stroke-miterlimit:4;stroke-dasharray:6.699709, 6.699709;stroke-dashoffset:0;stroke-opacity:1"
       d="m 346.03383,291.43952 115.34695,0"
       id="path10395"
       inkscape:connector-curvature="0"
       sodipodi:nodetypes="cc" />
    <path
       style="opacity:1;fill:#cccccc;fill-opacity:1;stroke:none;stroke-width:0.99999994;stroke-linecap:butt;stroke-linejoin:miter;stroke-miterlimit:4;stroke-dasharray:none;stroke-dashoffset:0;stroke-opacity:1"
       id="path10397"
       d="m 460.0359,283.91568 c 1.09566,2.17797 2.19127,4.40782 3.71978,6.31989 0.0455,0.0417 0.61373,0.62811 0.83631,0.65935 0.0519,0.007 0.12673,-0.16539 0.087,-0.13115 -3.67633,3.16718 -0.9216,1.61867 -2.16133,1.63588 -0.0967,0.0387 -0.19667,0.0699 -0.29001,0.11608 -0.46893,0.23179 -0.45335,0.25795 -0.87168,0.65669 -0.18751,0.17873 -0.74554,0.71942 -0.55425,0.54474 1.33135,-1.2157 1.7056,-1.73335 0.73541,-0.54229 -0.70054,1.08437 -1.44457,2.20058 -1.68298,3.4888 0,0 -2.19995,1.53036 -2.19995,1.53036 l 0,0 c 0.0496,-1.40092 0.86593,-2.55302 1.52354,-3.74829 1.13057,-1.4599 0.64426,-0.88152 2.86026,-3.10626 0.59145,-0.59378 1.29528,-1.11398 2.16882,-1.02034 2.30495,0.97629 -1.08001,4.01193 -2.38688,1.76972 -1.56582,-1.94151 -2.68951,-4.20634 -3.81292,-6.42235 0,0 2.02889,-1.75083 2.02889,-1.75083 z"
       inkscape:connector-curvature="0" />
    <path
       style="opacity:1;fill:none;fill-opacity:1;fill-rule:evenodd;stroke:#cccccc;stroke-width:1.67492723;stroke-linecap:butt;stroke-linejoin:miter;stroke-miterlimit:4;stroke-dasharray:none;stroke-dashoffset:0;stroke-opacity:1"
       d="m 345.38369,207.84594 129.39651,0"
       id="path10399"
       inkscape:connector-curvature="0"
       sodipodi:nodetypes="cc" />
    <path
       style="opacity:1;fill:#cccccc;fill-opacity:1;stroke:none;stroke-width:0.99999994;stroke-linecap:butt;stroke-linejoin:miter;stroke-miterlimit:4;stroke-dasharray:none;stroke-dashoffset:0;stroke-opacity:1"
       id="path10401"
       d="m 473.35751,202.17445 c 0.65067,1.868 1.5855,3.6031 2.77242,5.18124 0.14176,0.14016 0.26729,0.29892 0.42529,0.42048 0.14927,0.11485 0.40523,0.21141 0.59937,0.13637 0.0866,-0.0335 0.27951,-0.24459 0.21066,-0.18227 -1.74717,1.58122 -2.12353,2.05196 -1.48402,1.28518 0.10961,-0.52839 -1.3192,-0.0241 -1.55838,0.0464 -0.1594,0.0766 -0.32373,0.14363 -0.4782,0.22972 -0.68636,0.38251 -2.26236,1.89567 -1.57513,1.23703 0.99406,-0.95272 3.693,-3.63574 -1.04489,1.05354 2.70753,-2.93307 0.73622,-0.56174 0.20928,0.15197 0,0 -2.34342,1.30007 -2.34342,1.30007 l 0,0 c 0.94673,-1.43585 2.0426,-2.68582 3.36166,-3.83425 -3.74202,3.81118 1.7434,-2.31387 3.33499,-2.38255 0.88544,-0.19662 2.08367,-0.31642 2.37019,0.78349 -0.33768,2.3148 -2.67433,3.16052 -3.97384,1.59694 -1.22002,-1.60355 -2.20287,-3.36751 -2.85953,-5.27791 0,0 2.03355,-1.74541 2.03355,-1.74541 z"
       inkscape:connector-curvature="0" />
    <path
       inkscape:connector-curvature="0"
       id="path10403"
       d="m 344.88369,373.6932 129.89651,0"
       style="opacity:1;fill:none;fill-opacity:1;fill-rule:evenodd;stroke:#cccccc;stroke-width:1.67492723;stroke-linecap:butt;stroke-linejoin:miter;stroke-miterlimit:4;stroke-dasharray:none;stroke-dashoffset:0;stroke-opacity:1"
       sodipodi:nodetypes="cc" />
    <path
       inkscape:connector-curvature="0"
       d="m 473.35751,368.0217 c 0.65067,1.868 1.5855,3.6031 2.77242,5.1812 0.14176,0.1402 0.26729,0.2989 0.42529,0.4205 0.14927,0.1148 0.40523,0.2114 0.59937,0.1364 0.0866,-0.034 0.27951,-0.2446 0.21066,-0.1823 -1.74717,1.5812 -2.12353,2.052 -1.48402,1.2852 0.10961,-0.5284 -1.3192,-0.024 -1.55838,0.046 -0.1594,0.077 -0.32373,0.1436 -0.4782,0.2297 -0.68636,0.3825 -2.26236,1.8956 -1.57513,1.237 0.99406,-0.9527 3.693,-3.6357 -1.04489,1.0535 2.70753,-2.933 0.73622,-0.5617 0.20928,0.152 0,0 -2.34342,1.3001 -2.34342,1.3001 l 0,0 c 0.94673,-1.4359 2.0426,-2.6858 3.36166,-3.8343 -3.74202,3.8112 1.7434,-2.3138 3.33499,-2.3825 0.88544,-0.1966 2.08367,-0.3164 2.37019,0.7835 -0.33768,2.3148 -2.67433,3.1605 -3.97384,1.5969 -1.22002,-1.6035 -2.20287,-3.3675 -2.85953,-5.2779 0,0 2.03355,-1.7454 2.03355,-1.7454 z"
       id="path10405"
       style="opacity:1;fill:#cccccc;fill-opacity:1;stroke:none;stroke-width:0.99999994;stroke-linecap:butt;stroke-linejoin:miter;stroke-miterlimit:4;stroke-dasharray:none;stroke-dashoffset:0;stroke-opacity:1" />
    <use
       id="use10407"
       xlink:href="#A"
       x="0"
       y="0"
       width="100%"
       height="100%"
       transform="matrix(0.30319335,0,0,0.30319335,278.07773,290.58908)"
       style="fill:#cccccc" />
    <path
       style="opacity:1;fill:#999999;fill-opacity:1;stroke:none;stroke-width:0.99999994;stroke-linecap:butt;stroke-linejoin:miter;stroke-miterlimit:4;stroke-dasharray:none;stroke-dashoffset:0;stroke-opacity:1"
       id="path10409"
       d="m 406.93256,276.34607 c -0.69583,1.97834 -1.67596,3.82559 -2.77287,5.6056 0,0 -2.27526,1.29056 -2.27526,1.29056 l 0,0 c 1.1206,-1.7429 2.12717,-3.55626 2.82713,-5.51431 0,0 2.221,-1.38185 2.221,-1.38185 z"
       inkscape:connector-curvature="0" />
    <path
       style="opacity:1;fill:#999999;fill-opacity:1;stroke:none;stroke-width:0.99999994;stroke-linecap:butt;stroke-linejoin:miter;stroke-miterlimit:4;stroke-dasharray:none;stroke-dashoffset:0;stroke-opacity:1"
       id="path10411"
       d="m 382.44743,263.3786 c -1.2219,2.35292 -2.63881,4.59136 -4.26681,6.68277 -0.76508,0.77621 -1.49471,1.58904 -2.29525,2.32862 -0.13201,0.12196 -0.32897,0.14686 -0.48353,0.2386 -0.0836,0.0496 -0.15132,0.12204 -0.22697,0.18306 0.5503,-0.53432 1.0961,-1.07333 1.6509,-1.60298 0.0275,-0.0263 -0.074,0.0542 -0.068,0.0919 0.0196,0.12254 0.0919,0.23054 0.13777,0.34582 0.80921,1.65561 1.52332,3.3424 2.03038,5.11507 0.28508,1.13095 0.40158,2.29185 0.50507,3.45029 0.04,0.44792 0.10106,0.5372 -0.007,0.33539 0,0 -1.80823,1.89016 -1.80823,1.89016 l 0,0 c -0.0796,-0.0788 -0.19518,-0.13339 -0.23865,-0.23665 -0.1411,-0.33512 -0.0588,-0.72487 -0.0921,-1.08699 -0.0833,-0.90663 -0.18315,-1.81298 -0.38886,-2.70174 -0.47818,-1.75545 -1.17414,-3.4203 -1.97712,-5.05167 -0.12021,-0.23811 -0.4219,-0.79743 -0.37157,-0.86567 0.5406,-0.73306 1.24429,-1.33102 1.88964,-1.97377 0.18569,-0.18492 0.80884,-0.65855 0.63711,-0.46061 -0.37657,0.43404 -0.79874,0.82633 -1.19811,1.2395 1.67929,-2.03253 3.08683,-4.27159 4.30991,-6.60571 0,0 2.26102,-1.31536 2.26102,-1.31536 z"
       inkscape:connector-curvature="0" />
    <path
       style="opacity:1;fill:#999999;fill-opacity:1;stroke:none;stroke-width:0.99999994;stroke-linecap:butt;stroke-linejoin:miter;stroke-miterlimit:4;stroke-dasharray:none;stroke-dashoffset:0;stroke-opacity:1"
       id="path10413"
       d="m 436.17345,265.73531 c 0.27049,2.31478 0.69624,4.61042 1.32799,6.85382 0.2087,0.47414 0.33784,0.89975 0.68384,1.28639 0.29842,0.33347 0.59659,-0.20756 0.48886,-0.0862 -0.61549,0.69322 -1.2455,1.37341 -1.86824,2.06012 -0.39182,0.13891 -0.69693,0.43798 -1.02419,0.68873 -0.14584,0.11174 -0.55567,0.47943 -0.42799,0.34732 3.91189,-4.04809 1.03092,-0.95569 0.95086,-0.86929 -0.86369,1.07687 -1.55764,2.28239 -2.12056,3.53995 -0.24581,0.48825 -0.72324,2.21721 0.38276,1.8648 0,0 -1.53316,2.11937 -1.53316,2.11937 l 0,0 c -1.38772,-0.22896 -1.52414,-1.45154 -1.0811,-2.61933 0.51562,-1.31422 1.23532,-2.52842 2.03593,-3.6891 1.13079,-1.33493 2.5351,-3.28549 4.44014,-3.4341 -0.37939,0.73712 -0.70323,1.5056 -1.13816,2.21137 -0.0434,0.0702 -0.16311,0.0414 -0.24525,0.0335 -0.90877,-0.0862 -1.24805,-1.10033 -1.57062,-1.80001 -0.6615,-2.25678 -1.10104,-4.57493 -1.37285,-6.91038 0,0 2.07174,-1.59695 2.07174,-1.59695 z"
       inkscape:connector-curvature="0" />
    <use
       style="fill:#cccccc"
       transform="matrix(0.24301512,0,0,0.24301512,439.65794,263.52609)"
       height="100%"
       width="100%"
       y="0"
       x="0"
       xlink:href="#zero"
       id="use10423" />
    <use
       id="use10431"
       xlink:href="#one"
       x="0"
       y="0"
       width="100%"
       height="100%"
       transform="matrix(0.23751058,0,0,0.23751058,452.78256,178.15718)"
       style="fill:#cccccc" />
    <use
       id="use10455-2"
       xlink:href="#rho"
       x="0"
       y="0"
       width="100%"
       height="100%"
       transform="matrix(0.31169707,0,0,0.31169707,216.97943,216.31834)"
       style="fill:#cccccc" />
    <use
       style="fill:#cccccc"
       transform="matrix(0.31169707,0,0,0.31169707,216.97943,300.31834)"
       height="100%"
       width="100%"
       y="0"
       x="0"
       xlink:href="#rho"
       id="use10467" />
    <use
       style="fill:#cccccc"
       transform="matrix(0.35653137,0,0,0.35653137,225.79248,155.53114)"
       height="100%"
       width="100%"
       y="0"
       x="0"
       xlink:href="#pi"
       id="use10469" />
    <use
       style="fill:#cccccc"
       transform="matrix(0.24301512,0,0,0.24301512,349.65794,204.52609)"
       height="100%"
       width="100%"
       y="0"
       x="0"
       xlink:href="#zero"
       id="use10471" />
    <use
       id="use10473"
       xlink:href="#pi"
       x="0"
       y="0"
       width="100%"
       height="100%"
       transform="matrix(0.35653137,0,0,0.35653137,195.79248,155.03114)"
       style="fill:#cccccc" />
    <use
       style="fill:#cccccc"
       transform="matrix(0.23751058,0,0,0.23751058,332.78256,202.65718)"
       height="100%"
       width="100%"
       y="0"
       x="0"
       xlink:href="#one"
       id="use10475" />
    <use
       id="use10477"
       xlink:href="#B"
       x="0"
       y="0"
       width="100%"
       height="100%"
       transform="matrix(0.32356357,0,0,0.32356357,269.8347,74.51885)"
       style="fill:#cccccc" />
    <g
       id="g10490"
       transform="matrix(0.7798564,0,0,0.7798564,-191.31536,-431.59776)">
      <path
         inkscape:connector-curvature="0"
         id="path10484"
         d="m 751.5,948.5 26.5,0"
         style="opacity:1;fill:none;fill-opacity:1;fill-rule:evenodd;stroke:#999999;stroke-width:2.5;stroke-linecap:butt;stroke-linejoin:miter;stroke-miterlimit:4;stroke-dasharray:none;stroke-dashoffset:0;stroke-opacity:1" />
      <path
         style="opacity:1;fill:none;fill-opacity:1;fill-rule:evenodd;stroke:#999999;stroke-width:2.5;stroke-linecap:butt;stroke-linejoin:miter;stroke-miterlimit:4;stroke-dasharray:none;stroke-dashoffset:0;stroke-opacity:1"
         d="m 751.5,954.5 26.5,0"
         id="path10486"
         inkscape:connector-curvature="0" />
      <path
         sodipodi:nodetypes="cc"
         inkscape:connector-curvature="0"
         id="path10488"
         d="m 752,944.5 c 15.82447,-10.33097 5.32266,7.21745 26,-3.5"
         style="opacity:1;fill:none;fill-opacity:1;fill-rule:evenodd;stroke:#999999;stroke-width:2.5;stroke-linecap:butt;stroke-linejoin:miter;stroke-miterlimit:4;stroke-dasharray:none;stroke-dashoffset:0;stroke-opacity:1" />
    </g>
    <g
       id="g10540"
       transform="translate(-339,-618)">
      <rect
         y="884.5"
         x="943"
         height="50.5"
         width="226"
         id="rect10538"
         style="opacity:0.2;fill:#666666;fill-opacity:1;fill-rule:evenodd;stroke:#cccccc;stroke-width:0.99999994;stroke-linecap:butt;stroke-linejoin:miter;stroke-miterlimit:4;stroke-dasharray:none;stroke-dashoffset:0;stroke-opacity:1" />
      <path
         inkscape:connector-curvature="0"
         d="m 1048.4326,914.3461 c -0.6959,1.9783 -1.676,3.8256 -2.7729,5.6056 0,0 -2.2753,1.2905 -2.2753,1.2905 l 0,0 c 1.1206,-1.7429 2.1272,-3.5562 2.8272,-5.5143 0,0 2.221,-1.3818 2.221,-1.3818 z"
         id="path10496"
         style="opacity:1;fill:#999999;fill-opacity:1;stroke:none;stroke-width:0.99999994;stroke-linecap:butt;stroke-linejoin:miter;stroke-miterlimit:4;stroke-dasharray:none;stroke-dashoffset:0;stroke-opacity:1" />
      <path
         inkscape:connector-curvature="0"
         d="m 1035.9474,901.3786 c -1.2219,2.3529 -2.6388,4.5914 -4.2668,6.6828 -0.7651,0.7762 -1.4947,1.589 -2.2952,2.3286 -0.132,0.122 -0.329,0.1469 -0.4836,0.2386 -0.084,0.05 -0.1513,0.122 -0.2269,0.1831 0.5503,-0.5344 1.0961,-1.0734 1.6509,-1.603 0.027,-0.026 -0.074,0.054 -0.068,0.092 0.02,0.1225 0.092,0.2305 0.1377,0.3458 0.8093,1.6556 1.5234,3.3424 2.0304,5.1151 0.2851,1.1309 0.4016,2.2918 0.5051,3.4503 0.04,0.4479 0.1011,0.5372 -0.01,0.3353 0,0 -1.8082,1.8902 -1.8082,1.8902 l 0,0 c -0.08,-0.079 -0.1952,-0.1334 -0.2387,-0.2366 -0.1411,-0.3352 -0.059,-0.7249 -0.092,-1.087 -0.083,-0.9067 -0.1831,-1.813 -0.3888,-2.7018 -0.4782,-1.7554 -1.1742,-3.4203 -1.9772,-5.0516 -0.1202,-0.2382 -0.4219,-0.7975 -0.3715,-0.8657 0.5406,-0.7331 1.2443,-1.331 1.8896,-1.9738 0.1857,-0.1849 0.8088,-0.6585 0.6371,-0.4606 -0.3766,0.434 -0.7987,0.8263 -1.1981,1.2395 1.6793,-2.0325 3.0868,-4.2716 4.3099,-6.6057 0,0 2.261,-1.3154 2.261,-1.3154 z"
         id="path10498"
         style="opacity:1;fill:#999999;fill-opacity:1;stroke:none;stroke-width:0.99999994;stroke-linecap:butt;stroke-linejoin:miter;stroke-miterlimit:4;stroke-dasharray:none;stroke-dashoffset:0;stroke-opacity:1" />
      <path
         inkscape:connector-curvature="0"
         d="m 1065.6735,901.7353 c 0.2704,2.3148 0.6962,4.6104 1.3279,6.8538 0.2087,0.4742 0.3379,0.8998 0.6839,1.2864 0.2984,0.3335 0.5966,-0.2075 0.4888,-0.086 -0.6154,0.6932 -1.2455,1.3734 -1.8682,2.0601 -0.3918,0.139 -0.6969,0.438 -1.0242,0.6888 -0.1458,0.1117 -0.5557,0.4794 -0.428,0.3473 3.9119,-4.0481 1.0309,-0.9557 0.9509,-0.8693 -0.8637,1.0769 -1.5577,2.2824 -2.1206,3.54 -0.2458,0.4882 -0.7232,2.2172 0.3828,1.8648 0,0 -1.5332,2.1193 -1.5332,2.1193 l 0,0 c -1.3877,-0.2289 -1.5241,-1.4515 -1.0811,-2.6193 0.5156,-1.3142 1.2353,-2.5284 2.036,-3.6891 1.1307,-1.3349 2.5351,-3.2855 4.4401,-3.4341 -0.3794,0.7371 -0.7032,1.5056 -1.1382,2.2114 -0.043,0.07 -0.1631,0.041 -0.2452,0.034 -0.9088,-0.086 -1.2481,-1.1004 -1.5706,-1.8 -0.6615,-2.2568 -1.1011,-4.575 -1.3729,-6.9104 0,0 2.0718,-1.597 2.0718,-1.597 z"
         id="path10500"
         style="opacity:1;fill:#999999;fill-opacity:1;stroke:none;stroke-width:0.99999994;stroke-linecap:butt;stroke-linejoin:miter;stroke-miterlimit:4;stroke-dasharray:none;stroke-dashoffset:0;stroke-opacity:1" />
      <path
         style="opacity:1;fill:#cccccc;fill-opacity:1;stroke:none;stroke-width:0.99999994;stroke-linecap:butt;stroke-linejoin:miter;stroke-miterlimit:4;stroke-dasharray:none;stroke-dashoffset:0;stroke-opacity:1"
         id="path10502"
         d="m 1052.7967,909.4294 c 1.8263,0 3.6526,0 5.4789,0 1.4415,0 2.883,0 4.3245,0 0,0 -1.5375,2.1162 -1.5375,2.1162 l 0,0 c -1.4415,0 -2.883,0 -4.3245,0 -1.8263,0 -3.6526,0 -5.4789,0 0,0 1.5375,-2.1162 1.5375,-2.1162 z"
         inkscape:connector-curvature="0" />
      <use
         style="fill:#cccccc"
         transform="matrix(0.35435044,0,0,0.35435044,754.07502,816.50348)"
         height="100%"
         width="100%"
         y="0"
         x="0"
         xlink:href="#v"
         id="use10504" />
      <path
         style="opacity:1;fill:#999999;fill-opacity:1;stroke:none;stroke-width:0.99999994;stroke-linecap:butt;stroke-linejoin:miter;stroke-miterlimit:4;stroke-dasharray:none;stroke-dashoffset:0;stroke-opacity:1"
         id="path10506"
         d="m 986.43256,912.3461 c -0.69583,1.9783 -1.67596,3.8256 -2.77287,5.6056 0,0 -2.27526,1.2905 -2.27526,1.2905 l 0,0 c 1.1206,-1.7429 2.12717,-3.5562 2.82713,-5.5143 0,0 2.221,-1.3818 2.221,-1.3818 z"
         inkscape:connector-curvature="0" />
      <path
         style="opacity:1;fill:#999999;fill-opacity:1;stroke:none;stroke-width:0.99999994;stroke-linecap:butt;stroke-linejoin:miter;stroke-miterlimit:4;stroke-dasharray:none;stroke-dashoffset:0;stroke-opacity:1"
         id="path10508"
         d="m 961.94743,899.3786 c -1.2219,2.3529 -2.63881,4.5914 -4.26681,6.6828 -0.76508,0.7762 -1.49471,1.589 -2.29525,2.3286 -0.13201,0.122 -0.32897,0.1469 -0.48353,0.2386 -0.0836,0.05 -0.15132,0.122 -0.22697,0.1831 0.5503,-0.5344 1.0961,-1.0734 1.6509,-1.603 0.0275,-0.026 -0.074,0.054 -0.068,0.092 0.0196,0.1225 0.0919,0.2305 0.13777,0.3458 0.80921,1.6556 1.52332,3.3424 2.03038,5.1151 0.28508,1.1309 0.40158,2.2918 0.50507,3.4503 0.04,0.4479 0.10106,0.5372 -0.007,0.3353 0,0 -1.80823,1.8902 -1.80823,1.8902 l 0,0 c -0.0796,-0.079 -0.19518,-0.1334 -0.23865,-0.2366 -0.1411,-0.3352 -0.0588,-0.7249 -0.0921,-1.087 -0.0833,-0.9067 -0.18315,-1.813 -0.38886,-2.7018 -0.47818,-1.7554 -1.17414,-3.4203 -1.97712,-5.0516 -0.12021,-0.2382 -0.4219,-0.7975 -0.37157,-0.8657 0.5406,-0.7331 1.24429,-1.331 1.88964,-1.9738 0.18569,-0.1849 0.80884,-0.6585 0.63711,-0.4606 -0.37657,0.434 -0.79874,0.8263 -1.19811,1.2395 1.67929,-2.0325 3.08683,-4.2716 4.30991,-6.6057 0,0 2.26102,-1.3154 2.26102,-1.3154 z"
         inkscape:connector-curvature="0" />
      <path
         style="opacity:1;fill:#999999;fill-opacity:1;stroke:none;stroke-width:0.99999994;stroke-linecap:butt;stroke-linejoin:miter;stroke-miterlimit:4;stroke-dasharray:none;stroke-dashoffset:0;stroke-opacity:1"
         id="path10510"
         d="m 1015.6734,901.7353 c 0.2705,2.3148 0.6963,4.6104 1.328,6.8538 0.2087,0.4742 0.3379,0.8998 0.6839,1.2864 0.2984,0.3335 0.5966,-0.2075 0.4888,-0.086 -0.6154,0.6932 -1.2455,1.3734 -1.8682,2.0601 -0.3918,0.139 -0.6969,0.438 -1.0242,0.6888 -0.1458,0.1117 -0.5557,0.4794 -0.428,0.3473 3.9119,-4.0481 1.0309,-0.9557 0.9509,-0.8693 -0.8637,1.0769 -1.5577,2.2824 -2.1206,3.54 -0.2458,0.4882 -0.7232,2.2172 0.3828,1.8648 0,0 -1.5332,2.1193 -1.5332,2.1193 l 0,0 c -1.3877,-0.2289 -1.5241,-1.4515 -1.0811,-2.6193 0.5156,-1.3142 1.2353,-2.5284 2.036,-3.6891 1.1307,-1.3349 2.5351,-3.2855 4.4401,-3.4341 -0.3794,0.7371 -0.7032,1.5056 -1.1382,2.2114 -0.043,0.07 -0.1631,0.041 -0.2452,0.034 -0.9088,-0.086 -1.2481,-1.1004 -1.5706,-1.8 -0.6615,-2.2568 -1.1011,-4.575 -1.3729,-6.9104 0,0 2.0718,-1.597 2.0718,-1.597 z"
         inkscape:connector-curvature="0" />
      <use
         style="fill:#cccccc"
         transform="matrix(0.35653137,0,0,0.35653137,805.29248,791.53114)"
         height="100%"
         width="100%"
         y="0"
         x="0"
         xlink:href="#pi"
         id="use10512" />
      <use
         style="fill:#cccccc"
         transform="matrix(0.24301512,0,0,0.24301512,929.15794,840.52609)"
         height="100%"
         width="100%"
         y="0"
         x="0"
         xlink:href="#zero"
         id="use10514" />
      <use
         id="use10516"
         xlink:href="#pi"
         x="0"
         y="0"
         width="100%"
         height="100%"
         transform="matrix(0.35653137,0,0,0.35653137,775.29248,791.03114)"
         style="fill:#cccccc" />
      <use
         style="fill:#cccccc"
         transform="matrix(0.23751058,0,0,0.23751058,912.28256,838.65718)"
         height="100%"
         width="100%"
         y="0"
         x="0"
         xlink:href="#one"
         id="use10518" />
      <g
         id="g10520"
         transform="matrix(0.7798564,0,0,0.7798564,496.18464,168.90224)">
        <path
           inkscape:connector-curvature="0"
           id="path10522"
           d="m 751.5,948.5 26.5,0"
           style="opacity:1;fill:none;fill-opacity:1;fill-rule:evenodd;stroke:#999999;stroke-width:2.5;stroke-linecap:butt;stroke-linejoin:miter;stroke-miterlimit:4;stroke-dasharray:none;stroke-dashoffset:0;stroke-opacity:1" />
        <path
           style="opacity:1;fill:none;fill-opacity:1;fill-rule:evenodd;stroke:#999999;stroke-width:2.5;stroke-linecap:butt;stroke-linejoin:miter;stroke-miterlimit:4;stroke-dasharray:none;stroke-dashoffset:0;stroke-opacity:1"
           d="m 751.5,954.5 26.5,0"
           id="path10524"
           inkscape:connector-curvature="0" />
      </g>
      <path
         style="opacity:1;fill:#999999;fill-opacity:1;stroke:none;stroke-width:0.99999994;stroke-linecap:butt;stroke-linejoin:miter;stroke-miterlimit:4;stroke-dasharray:none;stroke-dashoffset:0;stroke-opacity:1"
         id="path10528"
         d="m 1136.4326,914.3461 c -0.6959,1.9783 -1.676,3.8256 -2.7729,5.6056 0,0 -2.2753,1.2905 -2.2753,1.2905 l 0,0 c 1.1206,-1.7429 2.1272,-3.5562 2.8272,-5.5143 0,0 2.221,-1.3818 2.221,-1.3818 z"
         inkscape:connector-curvature="0" />
      <path
         style="opacity:1;fill:#999999;fill-opacity:1;stroke:none;stroke-width:0.99999994;stroke-linecap:butt;stroke-linejoin:miter;stroke-miterlimit:4;stroke-dasharray:none;stroke-dashoffset:0;stroke-opacity:1"
         id="path10530"
         d="m 1123.9474,901.3786 c -1.2219,2.3529 -2.6388,4.5914 -4.2668,6.6828 -0.7651,0.7762 -1.4947,1.589 -2.2952,2.3286 -0.132,0.122 -0.329,0.1469 -0.4836,0.2386 -0.084,0.05 -0.1513,0.122 -0.2269,0.1831 0.5503,-0.5344 1.0961,-1.0734 1.6509,-1.603 0.027,-0.026 -0.074,0.054 -0.068,0.092 0.02,0.1225 0.092,0.2305 0.1377,0.3458 0.8093,1.6556 1.5234,3.3424 2.0304,5.1151 0.2851,1.1309 0.4016,2.2918 0.5051,3.4503 0.04,0.4479 0.1011,0.5372 -0.01,0.3353 0,0 -1.8082,1.8902 -1.8082,1.8902 l 0,0 c -0.08,-0.079 -0.1952,-0.1334 -0.2387,-0.2366 -0.1411,-0.3352 -0.059,-0.7249 -0.092,-1.087 -0.083,-0.9067 -0.1831,-1.813 -0.3888,-2.7018 -0.4782,-1.7554 -1.1742,-3.4203 -1.9772,-5.0516 -0.1202,-0.2382 -0.4219,-0.7975 -0.3715,-0.8657 0.5406,-0.7331 1.2443,-1.331 1.8896,-1.9738 0.1857,-0.1849 0.8088,-0.6585 0.6371,-0.4606 -0.3766,0.434 -0.7987,0.8263 -1.1981,1.2395 1.6793,-2.0325 3.0868,-4.2716 4.3099,-6.6057 0,0 2.261,-1.3154 2.261,-1.3154 z"
         inkscape:connector-curvature="0" />
      <path
         style="opacity:1;fill:#999999;fill-opacity:1;stroke:none;stroke-width:0.99999994;stroke-linecap:butt;stroke-linejoin:miter;stroke-miterlimit:4;stroke-dasharray:none;stroke-dashoffset:0;stroke-opacity:1"
         id="path10532"
         d="m 1155.6735,901.7353 c 0.2704,2.3148 0.6962,4.6104 1.3279,6.8538 0.2087,0.4742 0.3379,0.8998 0.6839,1.2864 0.2984,0.3335 0.5966,-0.2075 0.4888,-0.086 -0.6154,0.6932 -1.2455,1.3734 -1.8682,2.0601 -0.3918,0.139 -0.6969,0.438 -1.0242,0.6888 -0.1458,0.1117 -0.5557,0.4794 -0.428,0.3473 3.9119,-4.0481 1.0309,-0.9557 0.9509,-0.8693 -0.8637,1.0769 -1.5577,2.2824 -2.1206,3.54 -0.2458,0.4882 -0.7232,2.2172 0.3828,1.8648 0,0 -1.5332,2.1193 -1.5332,2.1193 l 0,0 c -1.3877,-0.2289 -1.5241,-1.4515 -1.0811,-2.6193 0.5156,-1.3142 1.2353,-2.5284 2.036,-3.6891 1.1307,-1.3349 2.5351,-3.2855 4.4401,-3.4341 -0.3794,0.7371 -0.7032,1.5056 -1.1382,2.2114 -0.043,0.07 -0.1631,0.041 -0.2452,0.034 -0.9088,-0.086 -1.2481,-1.1004 -1.5706,-1.8 -0.6615,-2.2568 -1.1011,-4.575 -1.3729,-6.9104 0,0 2.0718,-1.597 2.0718,-1.597 z"
         inkscape:connector-curvature="0" />
      <path
         inkscape:connector-curvature="0"
         d="m 1122.7967,909.4294 c 1.8263,0 3.6526,0 5.4789,0 1.4415,0 2.883,0 4.3245,0 0,0 -1.5375,2.1162 -1.5375,2.1162 l 0,0 c -1.4415,0 -2.883,0 -4.3245,0 -1.8263,0 -3.6526,0 -5.4789,0 0,0 1.5375,-2.1162 1.5375,-2.1162 z"
         id="path10534"
         style="opacity:1;fill:#cccccc;fill-opacity:1;stroke:none;stroke-width:0.99999994;stroke-linecap:butt;stroke-linejoin:miter;stroke-miterlimit:4;stroke-dasharray:none;stroke-dashoffset:0;stroke-opacity:1" />
      <use
         id="use10536"
         xlink:href="#v"
         x="0"
         y="0"
         width="100%"
         height="100%"
         transform="matrix(0.35435044,0,0,0.35435044,858.07502,816.50348)"
         style="fill:#cccccc" />
    </g>
    <g
       id="g10891"
       transform="translate(82,29)">
      <rect
         style="opacity:0.2;fill:#666666;fill-opacity:1;fill-rule:evenodd;stroke:#cccccc;stroke-width:0.99999994;stroke-linecap:butt;stroke-linejoin:miter;stroke-miterlimit:4;stroke-dasharray:none;stroke-dashoffset:0;stroke-opacity:1"
         id="rect10820"
         width="226"
         height="50.5"
         x="523"
         y="424.5" />
      <path
         style="opacity:1;fill:#999999;fill-opacity:1;stroke:none;stroke-width:0.99999994;stroke-linecap:butt;stroke-linejoin:miter;stroke-miterlimit:4;stroke-dasharray:none;stroke-dashoffset:0;stroke-opacity:1"
         id="path10822"
         d="m 558.4326,454.3461 c -0.6959,1.9783 -1.676,3.8256 -2.7729,5.6056 0,0 -2.2753,1.2905 -2.2753,1.2905 l 0,0 c 1.1206,-1.7429 2.1272,-3.5562 2.8272,-5.5143 0,0 2.221,-1.3818 2.221,-1.3818 z"
         inkscape:connector-curvature="0" />
      <path
         style="opacity:1;fill:#999999;fill-opacity:1;stroke:none;stroke-width:0.99999994;stroke-linecap:butt;stroke-linejoin:miter;stroke-miterlimit:4;stroke-dasharray:none;stroke-dashoffset:0;stroke-opacity:1"
         id="path10824"
         d="m 545.9474,441.3786 c -1.2219,2.3529 -2.6388,4.5914 -4.2668,6.6828 -0.7651,0.7762 -1.4947,1.589 -2.2952,2.3286 -0.132,0.122 -0.329,0.1469 -0.4836,0.2386 -0.084,0.05 -0.1513,0.122 -0.2269,0.1831 0.5503,-0.5344 1.0961,-1.0734 1.6509,-1.603 0.027,-0.026 -0.074,0.054 -0.068,0.092 0.02,0.1225 0.092,0.2305 0.1377,0.3458 0.8093,1.6556 1.5234,3.3424 2.0304,5.1151 0.2851,1.1309 0.4016,2.2918 0.5051,3.4503 0.04,0.4479 0.1011,0.5372 -0.01,0.3353 0,0 -1.8082,1.8902 -1.8082,1.8902 l 0,0 c -0.08,-0.079 -0.1952,-0.1334 -0.2387,-0.2366 -0.1411,-0.3352 -0.059,-0.7249 -0.092,-1.087 -0.083,-0.9067 -0.1831,-1.813 -0.3888,-2.7018 -0.4782,-1.7554 -1.1742,-3.4203 -1.9772,-5.0516 -0.1202,-0.2382 -0.4219,-0.7975 -0.3715,-0.8657 0.5406,-0.7331 1.2443,-1.331 1.8896,-1.9738 0.1857,-0.1849 0.8088,-0.6585 0.6371,-0.4606 -0.3766,0.434 -0.7987,0.8263 -1.1981,1.2395 1.6793,-2.0325 3.0868,-4.2716 4.3099,-6.6057 0,0 2.261,-1.3154 2.261,-1.3154 z"
         inkscape:connector-curvature="0" />
      <path
         style="opacity:1;fill:#999999;fill-opacity:1;stroke:none;stroke-width:0.99999994;stroke-linecap:butt;stroke-linejoin:miter;stroke-miterlimit:4;stroke-dasharray:none;stroke-dashoffset:0;stroke-opacity:1"
         id="path10826"
         d="m 575.6735,441.7353 c 0.2704,2.3148 0.6962,4.6104 1.3279,6.8538 0.2087,0.4742 0.3379,0.8998 0.6839,1.2864 0.2984,0.3335 0.5966,-0.2075 0.4888,-0.086 -0.6154,0.6932 -1.2455,1.3734 -1.8682,2.0601 -0.3918,0.139 -0.6969,0.438 -1.0242,0.6888 -0.1458,0.1117 -0.5557,0.4794 -0.428,0.3473 3.9119,-4.0481 1.0309,-0.9557 0.9509,-0.8693 -0.8637,1.0769 -1.5577,2.2824 -2.1206,3.54 -0.2458,0.4882 -0.7232,2.2172 0.3828,1.8648 0,0 -1.5332,2.1193 -1.5332,2.1193 l 0,0 c -1.3877,-0.2289 -1.5241,-1.4515 -1.0811,-2.6193 0.5156,-1.3142 1.2353,-2.5284 2.036,-3.6891 1.1307,-1.3349 2.5351,-3.2855 4.4401,-3.4341 -0.3794,0.7371 -0.7032,1.5056 -1.1382,2.2114 -0.043,0.07 -0.1631,0.041 -0.2452,0.034 -0.9088,-0.086 -1.2481,-1.1004 -1.5706,-1.8 -0.6615,-2.2568 -1.1011,-4.575 -1.3729,-6.9104 0,0 2.0718,-1.597 2.0718,-1.597 z"
         inkscape:connector-curvature="0" />
      <path
         inkscape:connector-curvature="0"
         d="m 562.7967,449.4294 c 1.8263,0 3.6526,0 5.4789,0 1.4415,0 2.883,0 4.3245,0 0,0 -1.5375,2.1162 -1.5375,2.1162 l 0,0 c -1.4415,0 -2.883,0 -4.3245,0 -1.8263,0 -3.6526,0 -5.4789,0 0,0 1.5375,-2.1162 1.5375,-2.1162 z"
         id="path10828"
         style="opacity:1;fill:#cccccc;fill-opacity:1;stroke:none;stroke-width:0.99999994;stroke-linecap:butt;stroke-linejoin:miter;stroke-miterlimit:4;stroke-dasharray:none;stroke-dashoffset:0;stroke-opacity:1" />
      <use
         id="use10830"
         xlink:href="#v"
         x="0"
         y="0"
         width="100%"
         height="100%"
         transform="matrix(0.35435044,0,0,0.35435044,264.07502,356.50348)"
         style="fill:#cccccc" />
      <path
         inkscape:connector-curvature="0"
         d="m 656.43256,452.3461 c -0.69583,1.9783 -1.67596,3.8256 -2.77287,5.6056 0,0 -2.27526,1.2905 -2.27526,1.2905 l 0,0 c 1.1206,-1.7429 2.12717,-3.5562 2.82713,-5.5143 0,0 2.221,-1.3818 2.221,-1.3818 z"
         id="path10832"
         style="opacity:1;fill:#999999;fill-opacity:1;stroke:none;stroke-width:0.99999994;stroke-linecap:butt;stroke-linejoin:miter;stroke-miterlimit:4;stroke-dasharray:none;stroke-dashoffset:0;stroke-opacity:1" />
      <path
         inkscape:connector-curvature="0"
         d="m 631.94743,439.3786 c -1.2219,2.3529 -2.63881,4.5914 -4.26681,6.6828 -0.76508,0.7762 -1.49471,1.589 -2.29525,2.3286 -0.13201,0.122 -0.32897,0.1469 -0.48353,0.2386 -0.0836,0.05 -0.15132,0.122 -0.22697,0.1831 0.5503,-0.5344 1.0961,-1.0734 1.6509,-1.603 0.0275,-0.026 -0.074,0.054 -0.068,0.092 0.0196,0.1225 0.0919,0.2305 0.13777,0.3458 0.80921,1.6556 1.52332,3.3424 2.03038,5.1151 0.28508,1.1309 0.40158,2.2918 0.50507,3.4503 0.04,0.4479 0.10106,0.5372 -0.007,0.3353 0,0 -1.80823,1.8902 -1.80823,1.8902 l 0,0 c -0.0796,-0.079 -0.19518,-0.1334 -0.23865,-0.2366 -0.1411,-0.3352 -0.0588,-0.7249 -0.0921,-1.087 -0.0833,-0.9067 -0.18315,-1.813 -0.38886,-2.7018 -0.47818,-1.7554 -1.17414,-3.4203 -1.97712,-5.0516 -0.12021,-0.2382 -0.4219,-0.7975 -0.37157,-0.8657 0.5406,-0.7331 1.24429,-1.331 1.88964,-1.9738 0.18569,-0.1849 0.80884,-0.6585 0.63711,-0.4606 -0.37657,0.434 -0.79874,0.8263 -1.19811,1.2395 1.67929,-2.0325 3.08683,-4.2716 4.30991,-6.6057 0,0 2.26102,-1.3154 2.26102,-1.3154 z"
         id="path10834"
         style="opacity:1;fill:#999999;fill-opacity:1;stroke:none;stroke-width:0.99999994;stroke-linecap:butt;stroke-linejoin:miter;stroke-miterlimit:4;stroke-dasharray:none;stroke-dashoffset:0;stroke-opacity:1" />
      <path
         inkscape:connector-curvature="0"
         d="m 685.6734,441.7353 c 0.2705,2.3148 0.6963,4.6104 1.328,6.8538 0.2087,0.4742 0.3379,0.8998 0.6839,1.2864 0.2984,0.3335 0.5966,-0.2075 0.4888,-0.086 -0.6154,0.6932 -1.2455,1.3734 -1.8682,2.0601 -0.3918,0.139 -0.6969,0.438 -1.0242,0.6888 -0.1458,0.1117 -0.5557,0.4794 -0.428,0.3473 3.9119,-4.0481 1.0309,-0.9557 0.9509,-0.8693 -0.8637,1.0769 -1.5577,2.2824 -2.1206,3.54 -0.2458,0.4882 -0.7232,2.2172 0.3828,1.8648 0,0 -1.5332,2.1193 -1.5332,2.1193 l 0,0 c -1.3877,-0.2289 -1.5241,-1.4515 -1.0811,-2.6193 0.5156,-1.3142 1.2353,-2.5284 2.036,-3.6891 1.1307,-1.3349 2.5351,-3.2855 4.4401,-3.4341 -0.3794,0.7371 -0.7032,1.5056 -1.1382,2.2114 -0.043,0.07 -0.1631,0.041 -0.2452,0.034 -0.9088,-0.086 -1.2481,-1.1004 -1.5706,-1.8 -0.6615,-2.2568 -1.1011,-4.575 -1.3729,-6.9104 0,0 2.0718,-1.597 2.0718,-1.597 z"
         id="path10836"
         style="opacity:1;fill:#999999;fill-opacity:1;stroke:none;stroke-width:0.99999994;stroke-linecap:butt;stroke-linejoin:miter;stroke-miterlimit:4;stroke-dasharray:none;stroke-dashoffset:0;stroke-opacity:1" />
      <g
         transform="matrix(0.7798564,0,0,0.7798564,6.18464,-291.09776)"
         id="g10846">
        <path
           style="opacity:1;fill:none;fill-opacity:1;fill-rule:evenodd;stroke:#999999;stroke-width:2.5;stroke-linecap:butt;stroke-linejoin:miter;stroke-miterlimit:4;stroke-dasharray:none;stroke-dashoffset:0;stroke-opacity:1"
           d="m 751.5,948.5 26.5,0"
           id="path10848"
           inkscape:connector-curvature="0" />
        <path
           inkscape:connector-curvature="0"
           id="path10850"
           d="m 751.5,954.5 26.5,0"
           style="opacity:1;fill:none;fill-opacity:1;fill-rule:evenodd;stroke:#999999;stroke-width:2.5;stroke-linecap:butt;stroke-linejoin:miter;stroke-miterlimit:4;stroke-dasharray:none;stroke-dashoffset:0;stroke-opacity:1" />
      </g>
      <path
         inkscape:connector-curvature="0"
         d="m 716.4326,454.3461 c -0.6959,1.9783 -1.676,3.8256 -2.7729,5.6056 0,0 -2.2753,1.2905 -2.2753,1.2905 l 0,0 c 1.1206,-1.7429 2.1272,-3.5562 2.8272,-5.5143 0,0 2.221,-1.3818 2.221,-1.3818 z"
         id="path10852"
         style="opacity:1;fill:#999999;fill-opacity:1;stroke:none;stroke-width:0.99999994;stroke-linecap:butt;stroke-linejoin:miter;stroke-miterlimit:4;stroke-dasharray:none;stroke-dashoffset:0;stroke-opacity:1" />
      <path
         inkscape:connector-curvature="0"
         d="m 703.9474,441.3786 c -1.2219,2.3529 -2.6388,4.5914 -4.2668,6.6828 -0.7651,0.7762 -1.4947,1.589 -2.2952,2.3286 -0.132,0.122 -0.329,0.1469 -0.4836,0.2386 -0.084,0.05 -0.1513,0.122 -0.2269,0.1831 0.5503,-0.5344 1.0961,-1.0734 1.6509,-1.603 0.027,-0.026 -0.074,0.054 -0.068,0.092 0.02,0.1225 0.092,0.2305 0.1377,0.3458 0.8093,1.6556 1.5234,3.3424 2.0304,5.1151 0.2851,1.1309 0.4016,2.2918 0.5051,3.4503 0.04,0.4479 0.1011,0.5372 -0.01,0.3353 0,0 -1.8082,1.8902 -1.8082,1.8902 l 0,0 c -0.08,-0.079 -0.1952,-0.1334 -0.2387,-0.2366 -0.1411,-0.3352 -0.059,-0.7249 -0.092,-1.087 -0.083,-0.9067 -0.1831,-1.813 -0.3888,-2.7018 -0.4782,-1.7554 -1.1742,-3.4203 -1.9772,-5.0516 -0.1202,-0.2382 -0.4219,-0.7975 -0.3715,-0.8657 0.5406,-0.7331 1.2443,-1.331 1.8896,-1.9738 0.1857,-0.1849 0.8088,-0.6585 0.6371,-0.4606 -0.3766,0.434 -0.7987,0.8263 -1.1981,1.2395 1.6793,-2.0325 3.0868,-4.2716 4.3099,-6.6057 0,0 2.261,-1.3154 2.261,-1.3154 z"
         id="path10854"
         style="opacity:1;fill:#999999;fill-opacity:1;stroke:none;stroke-width:0.99999994;stroke-linecap:butt;stroke-linejoin:miter;stroke-miterlimit:4;stroke-dasharray:none;stroke-dashoffset:0;stroke-opacity:1" />
      <path
         inkscape:connector-curvature="0"
         d="m 735.6735,441.7353 c 0.2704,2.3148 0.6962,4.6104 1.3279,6.8538 0.2087,0.4742 0.3379,0.8998 0.6839,1.2864 0.2984,0.3335 0.5966,-0.2075 0.4888,-0.086 -0.6154,0.6932 -1.2455,1.3734 -1.8682,2.0601 -0.3918,0.139 -0.6969,0.438 -1.0242,0.6888 -0.1458,0.1117 -0.5557,0.4794 -0.428,0.3473 3.9119,-4.0481 1.0309,-0.9557 0.9509,-0.8693 -0.8637,1.0769 -1.5577,2.2824 -2.1206,3.54 -0.2458,0.4882 -0.7232,2.2172 0.3828,1.8648 0,0 -1.5332,2.1193 -1.5332,2.1193 l 0,0 c -1.3877,-0.2289 -1.5241,-1.4515 -1.0811,-2.6193 0.5156,-1.3142 1.2353,-2.5284 2.036,-3.6891 1.1307,-1.3349 2.5351,-3.2855 4.4401,-3.4341 -0.3794,0.7371 -0.7032,1.5056 -1.1382,2.2114 -0.043,0.07 -0.1631,0.041 -0.2452,0.034 -0.9088,-0.086 -1.2481,-1.1004 -1.5706,-1.8 -0.6615,-2.2568 -1.1011,-4.575 -1.3729,-6.9104 0,0 2.0718,-1.597 2.0718,-1.597 z"
         id="path10856"
         style="opacity:1;fill:#999999;fill-opacity:1;stroke:none;stroke-width:0.99999994;stroke-linecap:butt;stroke-linejoin:miter;stroke-miterlimit:4;stroke-dasharray:none;stroke-dashoffset:0;stroke-opacity:1" />
      <path
         style="opacity:1;fill:#cccccc;fill-opacity:1;stroke:none;stroke-width:0.99999994;stroke-linecap:butt;stroke-linejoin:miter;stroke-miterlimit:4;stroke-dasharray:none;stroke-dashoffset:0;stroke-opacity:1"
         id="path10858"
         d="m 702.7967,449.4294 c 1.8263,0 3.6526,0 5.4789,0 1.4415,0 2.883,0 4.3245,0 0,0 -1.5375,2.1162 -1.5375,2.1162 l 0,0 c -1.4415,0 -2.883,0 -4.3245,0 -1.8263,0 -3.6526,0 -5.4789,0 0,0 1.5375,-2.1162 1.5375,-2.1162 z"
         inkscape:connector-curvature="0" />
      <use
         style="fill:#cccccc"
         transform="matrix(0.35435044,0,0,0.35435044,438.07502,356.50348)"
         height="100%"
         width="100%"
         y="0"
         x="0"
         xlink:href="#v"
         id="use10860" />
      <use
         id="use10883"
         xlink:href="#one"
         x="0"
         y="0"
         width="100%"
         height="100%"
         transform="matrix(0.23751058,0,0,0.23751058,581.78256,378.15718)"
         style="fill:#cccccc" />
      <use
         id="use10885"
         xlink:href="#rho"
         x="0"
         y="0"
         width="100%"
         height="100%"
         transform="matrix(0.31169707,0,0,0.31169707,345.97943,416.31834)"
         style="fill:#cccccc" />
      <use
         style="fill:#cccccc"
         transform="matrix(0.24301512,0,0,0.24301512,599.15794,380.52609)"
         height="100%"
         width="100%"
         y="0"
         x="0"
         xlink:href="#zero"
         id="use10887" />
      <use
         style="fill:#cccccc"
         transform="matrix(0.31169707,0,0,0.31169707,376.47943,417.31834)"
         height="100%"
         width="100%"
         y="0"
         x="0"
         xlink:href="#rho"
         id="use10889" />
    </g>
    <text
       xml:space="preserve"
       style="font-style:normal;font-variant:normal;font-weight:normal;font-stretch:normal;font-size:15px;line-height:125%;font-family:Chalkboard;-inkscape-font-specification:Chalkboard;text-indent:0;text-align:start;text-decoration:none;text-decoration-line:none;text-decoration-style:solid;text-decoration-color:#000000;letter-spacing:0px;word-spacing:0px;text-transform:none;direction:ltr;block-progression:tb;writing-mode:lr-tb;baseline-shift:baseline;text-anchor:start;opacity:1;fill:#999999;fill-opacity:1;stroke:none;stroke-width:1px;stroke-linecap:butt;stroke-linejoin:miter;stroke-miterlimit:4;stroke-dasharray:none;stroke-dashoffset:0;stroke-opacity:1"
       x="284"
       y="118"
       id="text10914"
       sodipodi:linespacing="125%"><tspan
         sodipodi:role="line"
         x="284"
         y="118"
         id="tspan10922">fixing the second argument can be obtained by fixing the</tspan><tspan
         sodipodi:role="line"
         x="284"
         y="136.75"
         id="tspan10924">first argument in BxA and then swapping components...</tspan></text>
    <text
       sodipodi:linespacing="125%"
       id="text10938"
       y="390"
       x="587"
       style="font-style:normal;font-variant:normal;font-weight:normal;font-stretch:normal;font-size:15px;line-height:125%;font-family:Chalkboard;-inkscape-font-specification:Chalkboard;text-indent:0;text-align:start;text-decoration:none;text-decoration-line:none;text-decoration-style:solid;text-decoration-color:#000000;letter-spacing:0px;word-spacing:0px;text-transform:none;direction:ltr;block-progression:tb;writing-mode:lr-tb;baseline-shift:baseline;text-anchor:start;opacity:1;fill:#999999;fill-opacity:1;stroke:none;stroke-width:1px;stroke-linecap:butt;stroke-linejoin:miter;stroke-miterlimit:4;stroke-dasharray:none;stroke-dashoffset:0;stroke-opacity:1"
       xml:space="preserve"><tspan
         id="tspan10942"
         y="390"
         x="587"
         sodipodi:role="line">so we can define &lt;-,v&gt; in terms of &lt;v,-&gt;.</tspan><tspan
         y="408.75"
         x="587"
         sodipodi:role="line"
         id="tspan10946">Obviously we could do it the other way</tspan><tspan
         y="427.5"
         x="587"
         sodipodi:role="line"
         id="tspan10948">around too: </tspan></text>
    <text
       xml:space="preserve"
       style="font-style:normal;font-variant:normal;font-weight:normal;font-stretch:normal;font-size:15px;line-height:125%;font-family:Chalkboard;-inkscape-font-specification:Chalkboard;text-indent:0;text-align:start;text-decoration:none;text-decoration-line:none;text-decoration-style:solid;text-decoration-color:#000000;letter-spacing:0px;word-spacing:0px;text-transform:none;direction:ltr;block-progression:tb;writing-mode:lr-tb;baseline-shift:baseline;text-anchor:start;opacity:1;fill:#999999;fill-opacity:1;stroke:none;stroke-width:1px;stroke-linecap:butt;stroke-linejoin:miter;stroke-miterlimit:4;stroke-dasharray:none;stroke-dashoffset:0;stroke-opacity:1"
       x="388"
       y="558"
       id="text10950"
       sodipodi:linespacing="125%"><tspan
         id="tspan10956"
         sodipodi:role="line"
         x="388"
         y="558">Note:</tspan></text>
    <path
       style="opacity:1;fill:#999999;fill-opacity:1;stroke:none;stroke-width:0.99999994;stroke-linecap:butt;stroke-linejoin:miter;stroke-miterlimit:4;stroke-dasharray:none;stroke-dashoffset:0;stroke-opacity:1"
       id="path10977"
       d="m 486.93256,583.3461 c -0.69583,1.9783 -1.67596,3.8256 -2.77287,5.6056 0,0 -2.27526,1.2905 -2.27526,1.2905 l 0,0 c 1.1206,-1.7429 2.12717,-3.5562 2.82713,-5.5143 0,0 2.221,-1.3818 2.221,-1.3818 z"
       inkscape:connector-curvature="0" />
    <path
       style="opacity:1;fill:#999999;fill-opacity:1;stroke:none;stroke-width:0.99999994;stroke-linecap:butt;stroke-linejoin:miter;stroke-miterlimit:4;stroke-dasharray:none;stroke-dashoffset:0;stroke-opacity:1"
       id="path10979"
       d="m 462.44743,570.3786 c -1.2219,2.3529 -2.63881,4.5914 -4.26681,6.6828 -0.76508,0.7762 -1.49471,1.589 -2.29525,2.3286 -0.13201,0.122 -0.32897,0.1469 -0.48353,0.2386 -0.0836,0.05 -0.15132,0.122 -0.22697,0.1831 0.5503,-0.5344 1.0961,-1.0734 1.6509,-1.603 0.0275,-0.026 -0.074,0.054 -0.068,0.092 0.0196,0.1225 0.0919,0.2305 0.13777,0.3458 0.80921,1.6556 1.52332,3.3424 2.03038,5.1151 0.28508,1.1309 0.40158,2.2918 0.50507,3.4503 0.04,0.4479 0.10106,0.5372 -0.007,0.3353 0,0 -1.80823,1.8902 -1.80823,1.8902 l 0,0 c -0.0796,-0.079 -0.19518,-0.1334 -0.23865,-0.2366 -0.1411,-0.3352 -0.0588,-0.7249 -0.0921,-1.087 -0.0833,-0.9067 -0.18315,-1.813 -0.38886,-2.7018 -0.47818,-1.7554 -1.17414,-3.4203 -1.97712,-5.0516 -0.12021,-0.2382 -0.4219,-0.7975 -0.37157,-0.8657 0.5406,-0.7331 1.24429,-1.331 1.88964,-1.9738 0.18569,-0.1849 0.80884,-0.6585 0.63711,-0.4606 -0.37657,0.434 -0.79874,0.8263 -1.19811,1.2395 1.67929,-2.0325 3.08683,-4.2716 4.30991,-6.6057 0,0 2.26102,-1.3154 2.26102,-1.3154 z"
       inkscape:connector-curvature="0" />
    <path
       style="opacity:1;fill:#999999;fill-opacity:1;stroke:none;stroke-width:0.99999994;stroke-linecap:butt;stroke-linejoin:miter;stroke-miterlimit:4;stroke-dasharray:none;stroke-dashoffset:0;stroke-opacity:1"
       id="path10981"
       d="m 516.1734,572.7353 c 0.2705,2.3148 0.6963,4.6104 1.328,6.8538 0.2087,0.4742 0.3379,0.8998 0.6839,1.2864 0.2984,0.3335 0.5966,-0.2075 0.4888,-0.086 -0.6154,0.6932 -1.2455,1.3734 -1.8682,2.0601 -0.3918,0.139 -0.6969,0.438 -1.0242,0.6888 -0.1458,0.1117 -0.5557,0.4794 -0.428,0.3473 3.9119,-4.0481 1.0309,-0.9557 0.9509,-0.8693 -0.8637,1.0769 -1.5577,2.2824 -2.1206,3.54 -0.2458,0.4882 -0.7232,2.2172 0.3828,1.8648 0,0 -1.5332,2.1193 -1.5332,2.1193 l 0,0 c -1.3877,-0.2289 -1.5241,-1.4515 -1.0811,-2.6193 0.5156,-1.3142 1.2353,-2.5284 2.036,-3.6891 1.1307,-1.3349 2.5351,-3.2855 4.4401,-3.4341 -0.3794,0.7371 -0.7032,1.5056 -1.1382,2.2114 -0.043,0.07 -0.1631,0.041 -0.2452,0.034 -0.9088,-0.086 -1.2481,-1.1004 -1.5706,-1.8 -0.6615,-2.2568 -1.1011,-4.575 -1.3729,-6.9104 0,0 2.0718,-1.597 2.0718,-1.597 z"
       inkscape:connector-curvature="0" />
    <use
       style="fill:#cccccc"
       transform="matrix(0.35653137,0,0,0.35653137,305.79248,462.53114)"
       height="100%"
       width="100%"
       y="0"
       x="0"
       xlink:href="#pi"
       id="use10983" />
    <use
       style="fill:#cccccc"
       transform="matrix(0.24301512,0,0,0.24301512,429.65794,511.52609)"
       height="100%"
       width="100%"
       y="0"
       x="0"
       xlink:href="#zero"
       id="use10985" />
    <use
       id="use10987"
       xlink:href="#pi"
       x="0"
       y="0"
       width="100%"
       height="100%"
       transform="matrix(0.35653137,0,0,0.35653137,275.79248,462.03114)"
       style="fill:#cccccc" />
    <use
       style="fill:#cccccc"
       transform="matrix(0.23751058,0,0,0.23751058,412.78256,509.65718)"
       height="100%"
       width="100%"
       y="0"
       x="0"
       xlink:href="#one"
       id="use10989" />
    <path
       inkscape:connector-curvature="0"
       d="m 607.43256,583.3461 c -0.69583,1.9783 -1.67596,3.8256 -2.77287,5.6056 0,0 -2.27526,1.2905 -2.27526,1.2905 l 0,0 c 1.1206,-1.7429 2.12717,-3.5562 2.82713,-5.5143 0,0 2.221,-1.3818 2.221,-1.3818 z"
       id="path11021"
       style="opacity:1;fill:#999999;fill-opacity:1;stroke:none;stroke-width:0.99999994;stroke-linecap:butt;stroke-linejoin:miter;stroke-miterlimit:4;stroke-dasharray:none;stroke-dashoffset:0;stroke-opacity:1" />
    <path
       inkscape:connector-curvature="0"
       d="m 582.94743,570.3786 c -1.2219,2.3529 -2.63881,4.5914 -4.26681,6.6828 -0.76508,0.7762 -1.49471,1.589 -2.29525,2.3286 -0.13201,0.122 -0.32897,0.1469 -0.48353,0.2386 -0.0836,0.05 -0.15132,0.122 -0.22697,0.1831 0.5503,-0.5344 1.0961,-1.0734 1.6509,-1.603 0.0275,-0.026 -0.074,0.054 -0.068,0.092 0.0196,0.1225 0.0919,0.2305 0.13777,0.3458 0.80921,1.6556 1.52332,3.3424 2.03038,5.1151 0.28508,1.1309 0.40158,2.2918 0.50507,3.4503 0.04,0.4479 0.10106,0.5372 -0.007,0.3353 0,0 -1.80823,1.8902 -1.80823,1.8902 l 0,0 c -0.0796,-0.079 -0.19518,-0.1334 -0.23865,-0.2366 -0.1411,-0.3352 -0.0588,-0.7249 -0.0921,-1.087 -0.0833,-0.9067 -0.18315,-1.813 -0.38886,-2.7018 -0.47818,-1.7554 -1.17414,-3.4203 -1.97712,-5.0516 -0.12021,-0.2382 -0.4219,-0.7975 -0.37157,-0.8657 0.5406,-0.7331 1.24429,-1.331 1.88964,-1.9738 0.18569,-0.1849 0.80884,-0.6585 0.63711,-0.4606 -0.37657,0.434 -0.79874,0.8263 -1.19811,1.2395 1.67929,-2.0325 3.08683,-4.2716 4.30991,-6.6057 0,0 2.26102,-1.3154 2.26102,-1.3154 z"
       id="path11023"
       style="opacity:1;fill:#999999;fill-opacity:1;stroke:none;stroke-width:0.99999994;stroke-linecap:butt;stroke-linejoin:miter;stroke-miterlimit:4;stroke-dasharray:none;stroke-dashoffset:0;stroke-opacity:1" />
    <path
       inkscape:connector-curvature="0"
       d="m 636.6734,572.7353 c 0.2705,2.3148 0.6963,4.6104 1.328,6.8538 0.2087,0.4742 0.3379,0.8998 0.6839,1.2864 0.2984,0.3335 0.5966,-0.2075 0.4888,-0.086 -0.6154,0.6932 -1.2455,1.3734 -1.8682,2.0601 -0.3918,0.139 -0.6969,0.438 -1.0242,0.6888 -0.1458,0.1117 -0.5557,0.4794 -0.428,0.3473 3.9119,-4.0481 1.0309,-0.9557 0.9509,-0.8693 -0.8637,1.0769 -1.5577,2.2824 -2.1206,3.54 -0.2458,0.4882 -0.7232,2.2172 0.3828,1.8648 0,0 -1.5332,2.1193 -1.5332,2.1193 l 0,0 c -1.3877,-0.2289 -1.5241,-1.4515 -1.0811,-2.6193 0.5156,-1.3142 1.2353,-2.5284 2.036,-3.6891 1.1307,-1.3349 2.5351,-3.2855 4.4401,-3.4341 -0.3794,0.7371 -0.7032,1.5056 -1.1382,2.2114 -0.043,0.07 -0.1631,0.041 -0.2452,0.034 -0.9088,-0.086 -1.2481,-1.1004 -1.5706,-1.8 -0.6615,-2.2568 -1.1011,-4.575 -1.3729,-6.9104 0,0 2.0718,-1.597 2.0718,-1.597 z"
       id="path11025"
       style="opacity:1;fill:#999999;fill-opacity:1;stroke:none;stroke-width:0.99999994;stroke-linecap:butt;stroke-linejoin:miter;stroke-miterlimit:4;stroke-dasharray:none;stroke-dashoffset:0;stroke-opacity:1" />
    <g
       transform="matrix(0.7798564,0,0,0.7798564,-44.81536,-160.09776)"
       id="g11027">
      <path
         style="opacity:1;fill:none;fill-opacity:1;fill-rule:evenodd;stroke:#999999;stroke-width:2.5;stroke-linecap:butt;stroke-linejoin:miter;stroke-miterlimit:4;stroke-dasharray:none;stroke-dashoffset:0;stroke-opacity:1"
         d="m 751.5,948.5 26.5,0"
         id="path11029"
         inkscape:connector-curvature="0" />
      <path
         inkscape:connector-curvature="0"
         id="path11031"
         d="m 751.5,954.5 26.5,0"
         style="opacity:1;fill:none;fill-opacity:1;fill-rule:evenodd;stroke:#999999;stroke-width:2.5;stroke-linecap:butt;stroke-linejoin:miter;stroke-miterlimit:4;stroke-dasharray:none;stroke-dashoffset:0;stroke-opacity:1" />
    </g>
    <use
       id="use11043"
       xlink:href="#one"
       x="0"
       y="0"
       width="100%"
       height="100%"
       transform="matrix(0.23751058,0,0,0.23751058,532.78256,509.15718)"
       style="fill:#cccccc" />
    <use
       id="use11045"
       xlink:href="#rho"
       x="0"
       y="0"
       width="100%"
       height="100%"
       transform="matrix(0.31169707,0,0,0.31169707,296.97943,547.31834)"
       style="fill:#cccccc" />
    <use
       style="fill:#cccccc"
       transform="matrix(0.24301512,0,0,0.24301512,550.15794,511.52609)"
       height="100%"
       width="100%"
       y="0"
       x="0"
       xlink:href="#zero"
       id="use11047" />
    <use
       style="fill:#cccccc"
       transform="matrix(0.31169707,0,0,0.31169707,327.47943,548.31834)"
       height="100%"
       width="100%"
       y="0"
       x="0"
       xlink:href="#rho"
       id="use11049" />
    <use
       style="fill:#cccccc"
       transform="matrix(0.23751058,0,0,0.23751058,468.78256,487.65718)"
       height="100%"
       width="100%"
       y="0"
       x="0"
       xlink:href="#one"
       id="use11093" />
    <path
       style="opacity:1;fill:#cccccc;fill-opacity:1;stroke:none;stroke-width:0.99999994;stroke-linecap:butt;stroke-linejoin:miter;stroke-miterlimit:4;stroke-dasharray:none;stroke-dashoffset:0;stroke-opacity:1"
       id="path11097"
       d="m 521.70188,565.26267 c 1.90327,0.25412 3.81646,0.16409 5.72607,0.065 0.80974,-0.0221 1.73957,-0.2398 2.22256,0.54174 0,0 -1.51549,1.30511 -1.51549,1.30511 l 0,0 c 0.0343,-0.44848 -1.66012,-0.19977 -1.86626,-0.21704 -1.92648,0.0946 -3.8556,0.1545 -5.77447,-0.10052 0,0 1.20759,-1.59428 1.20759,-1.59428 z"
       inkscape:connector-curvature="0" />
  </g>
</svg>
